<?xml version="1.0"?>
<svg version="1.1" xmlns="http://www.w3.org/2000/svg" xmlns:xlink="http://www.w3.org/1999/xlink" width="500" height="500">
    <desc iVinci="yes" version="4.6" gridStep="20" showGrid="no" snapToGrid="no" codePlatform="0"/>
    <g id="Layer1" name="Layer 1" opacity="1">
        <g id="Shape1">
            <desc shapeID="1" type="0" basicInfo-basicType="0" basicInfo-roundedRectRadius="12" basicInfo-polygonSides="6" basicInfo-starPoints="5" bounding="rect(-19.6521,-19.6532,39.3041,39.3067)" text="" font-familyName="" font-pixelSize="20" font-bold="0" font-underline="0" font-alignment="1" strokeStyle="0" markerStart="0" markerEnd="0" shadowEnabled="0" shadowOffsetX="0" shadowOffsetY="2" shadowBlur="4" shadowOpacity="160" blurEnabled="0" blurRadius="4" transform="matrix(12.7209,0,0,12.7208,249.993,250.008)" pers-center="0,0" pers-size="0,0" pers-start="0,0" pers-end="0,0" locked="0" mesh="" flag=""/>
            <path id="shapePath1" d="M249.341,499.974 C110.683,499.974 -1.26137,386.76 0.0107574,245.557 C2.5549,109.445 113.227,-2.49939 255.701,0.0441589 C389.271,2.58771 502.487,113.262 499.943,253.191 C498.671,390.574 386.727,502.518 249.341,499.974 M122.132,312.978 C124.676,316.795 124.676,320.609 127.22,323.156 C143.757,340.964 161.566,357.501 178.104,375.309 C185.736,382.943 192.097,382.943 199.729,375.309 C213.722,361.318 228.987,347.324 242.98,333.33 C250.613,324.426 251.885,324.426 260.79,332.06 C274.783,346.051 288.776,360.045 302.769,374.039 C311.673,382.943 316.762,382.943 325.666,374.039 C342.204,357.501 358.741,340.964 375.278,324.426 C382.91,316.795 382.91,311.705 375.278,302.801 C361.285,288.807 347.292,274.816 333.299,260.822 C324.394,251.918 324.394,251.918 333.299,243.014 C346.02,230.293 360.013,216.299 372.734,202.308 C381.638,193.4 381.638,188.313 372.734,179.409 C357.469,164.145 342.204,147.607 325.666,132.343 C314.217,122.166 309.129,122.166 298.952,132.343 C286.232,145.064 272.239,159.055 259.518,171.776 C253.157,178.136 249.341,176.866 244.252,171.776 C230.259,156.511 216.266,142.517 201.001,128.526 C192.097,119.622 187.008,119.622 178.104,128.526 C161.566,143.79 146.301,160.328 131.036,176.866 C122.132,187.04 122.132,192.13 131.036,202.308 C145.029,216.299 160.294,231.563 174.287,245.557 C179.376,249.374 179.376,253.191 174.287,257.005 C159.022,272.272 143.757,286.263 129.764,301.528 C125.948,304.074 124.676,307.888 122.132,312.978 Z" style="stroke:none;fill-rule:nonzero;fill:#000000;fill-opacity:1;"/>
        </g>
    </g>
</svg>
