<?xml version="1.0"?>
<svg version="1.1" xmlns="http://www.w3.org/2000/svg" xmlns:xlink="http://www.w3.org/1999/xlink" width="500" height="500">
    <desc iVinci="yes" version="4.6" gridStep="20" showGrid="no" snapToGrid="no" codePlatform="0"/>
    <g id="Layer1" name="Layer 1" opacity="1">
        <g id="Shape1">
            <desc shapeID="1" type="0" basicInfo-basicType="0" basicInfo-roundedRectRadius="12" basicInfo-polygonSides="6" basicInfo-starPoints="5" bounding="rect(-7.05025,-2.01186,14.1006,4.02397)" text="" font-familyName="" font-pixelSize="20" font-bold="0" font-underline="0" font-alignment="1" strokeStyle="0" markerStart="0" markerEnd="0" shadowEnabled="0" shadowOffsetX="0" shadowOffsetY="2" shadowBlur="4" shadowOpacity="160" blurEnabled="0" blurRadius="4" transform="matrix(8.14013,0,0,8.14013,434.852,324.627)" pers-center="0,0" pers-size="0,0" pers-start="0,0" pers-end="0,0" locked="0" mesh="" flag=""/>
            <path id="shapePath1" d="M492.243,334.463 C492.243,348.302 377.467,337.72 377.467,325.509 C376.653,296.205 492.243,307.602 492.243,334.463 C492.243,338.532 492.243,329.58 492.243,334.463 Z" style="stroke:#000000;stroke-opacity:1;stroke-width:0.5;stroke-linejoin:bevel;stroke-miterlimit:2;stroke-linecap:square;fill-rule:evenodd;fill:#000000;fill-opacity:1;"/>
        </g>
        <g id="Shape2">
            <desc shapeID="2" type="0" basicInfo-basicType="0" basicInfo-roundedRectRadius="12" basicInfo-polygonSides="6" basicInfo-starPoints="5" bounding="rect(-2.19377,-7.27262,4.38757,14.5455)" text="" font-familyName="" font-pixelSize="20" font-bold="0" font-underline="0" font-alignment="1" strokeStyle="0" markerStart="0" markerEnd="0" shadowEnabled="0" shadowOffsetX="0" shadowOffsetY="2" shadowBlur="4" shadowOpacity="160" blurEnabled="0" blurRadius="4" transform="matrix(8.14013,0,0,8.14013,176.709,59.2)" pers-center="0,0" pers-size="0,0" pers-start="0,0" pers-end="0,0" locked="0" mesh="" flag=""/>
            <path id="shapePath2" d="M187.802,3.97431 C198.384,16.1845 199.198,131.774 170.708,117.121 C149.543,106.539 160.94,16.1845 172.335,3.97431 C175.591,-0.910622 186.173,-1.72335 187.802,3.97431 Z" style="stroke:#000000;stroke-opacity:1;stroke-width:0.5;stroke-linejoin:bevel;stroke-miterlimit:2;stroke-linecap:square;fill-rule:evenodd;fill:#000000;fill-opacity:1;"/>
        </g>
        <g id="Shape3">
            <desc shapeID="3" type="0" basicInfo-basicType="0" basicInfo-roundedRectRadius="12" basicInfo-polygonSides="6" basicInfo-starPoints="5" bounding="rect(-5.37407,-6.0444,10.7481,12.0888)" text="" font-familyName="" font-pixelSize="20" font-bold="0" font-underline="0" font-alignment="1" strokeStyle="0" markerStart="0" markerEnd="0" shadowEnabled="0" shadowOffsetX="0" shadowOffsetY="2" shadowBlur="4" shadowOpacity="160" blurEnabled="0" blurRadius="4" transform="matrix(8.14013,0,0,8.14013,92.2303,85.737)" pers-center="0,0" pers-size="0,0" pers-start="0,0" pers-end="0,0" locked="0" mesh="" flag=""/>
            <path id="shapePath3" d="M128.379,134.216 C108.029,139.099 21.7433,37.3476 56.7458,36.5348 C75.4682,36.5348 161.753,134.216 128.379,134.216 C122.681,135.844 133.263,134.216 128.379,134.216 Z" style="stroke:#000000;stroke-opacity:1;stroke-width:0.5;stroke-linejoin:bevel;stroke-miterlimit:2;stroke-linecap:square;fill-rule:evenodd;fill:#000000;fill-opacity:1;"/>
        </g>
        <g id="Shape4">
            <desc shapeID="4" type="0" basicInfo-basicType="0" basicInfo-roundedRectRadius="12" basicInfo-polygonSides="6" basicInfo-starPoints="5" bounding="rect(-5.96102,-5.96654,11.9221,11.9329)" text="" font-familyName="" font-pixelSize="20" font-bold="0" font-underline="0" font-alignment="1" strokeStyle="0" markerStart="0" markerEnd="0" shadowEnabled="0" shadowOffsetX="0" shadowOffsetY="2" shadowBlur="4" shadowOpacity="160" blurEnabled="0" blurRadius="4" transform="matrix(8.14013,0,0,8.14013,407.214,416.352)" pers-center="0,0" pers-size="0,0" pers-start="0,0" pers-end="0,0" locked="0" mesh="" flag=""/>
            <path id="shapePath4" d="M454.798,452.494 C455.612,458.194 452.356,462.264 447.472,464.704 C437.704,469.589 356.303,389.816 358.745,375.978 C365.257,340.162 458.054,432.143 454.798,452.494 C456.427,458.194 455.612,446.797 454.798,452.494 Z" style="stroke:#000000;stroke-opacity:1;stroke-width:0.5;stroke-linejoin:bevel;stroke-miterlimit:2;stroke-linecap:square;fill-rule:evenodd;fill:#000000;fill-opacity:1;"/>
        </g>
        <g id="Shape5">
            <desc shapeID="5" type="0" basicInfo-basicType="0" basicInfo-roundedRectRadius="12" basicInfo-polygonSides="6" basicInfo-starPoints="5" bounding="rect(-1.96588,-6.79019,3.93176,13.5802)" text="" font-familyName="" font-pixelSize="20" font-bold="0" font-underline="0" font-alignment="1" strokeStyle="0" markerStart="0" markerEnd="0" shadowEnabled="0" shadowOffsetX="0" shadowOffsetY="2" shadowBlur="4" shadowOpacity="160" blurEnabled="0" blurRadius="4" transform="matrix(8.14013,0,0,8.14013,322.736,444.737)" pers-center="0,0" pers-size="0,0" pers-start="0,0" pers-end="0,0" locked="0" mesh="" flag=""/>
            <path id="shapePath5" d="M337.58,451.682 C337.58,465.519 345.72,503.778 318.858,499.707 C308.276,498.08 301.764,402.025 311.532,395.513 C337.58,375.978 335.952,408.538 335.952,425.633 C335.952,439.471 337.58,445.169 337.58,451.682 Z" style="stroke:#000000;stroke-opacity:1;stroke-width:0.5;stroke-linejoin:bevel;stroke-miterlimit:2;stroke-linecap:square;fill-rule:evenodd;fill:#000000;fill-opacity:1;"/>
        </g>
        <g id="Shape6">
            <desc shapeID="6" type="0" basicInfo-basicType="0" basicInfo-roundedRectRadius="12" basicInfo-polygonSides="6" basicInfo-starPoints="5" bounding="rect(-7.03394,-1.85896,14.0679,3.71804)" text="" font-familyName="" font-pixelSize="20" font-bold="0" font-underline="0" font-alignment="1" strokeStyle="0" markerStart="0" markerEnd="0" shadowEnabled="0" shadowOffsetX="0" shadowOffsetY="2" shadowBlur="4" shadowOpacity="160" blurEnabled="0" blurRadius="4" transform="matrix(8.14013,0,0,8.14013,65.0145,172.129)" pers-center="0,0" pers-size="0,0" pers-start="0,0" pers-end="0,0" locked="0" mesh="" flag=""/>
            <path id="shapePath6" d="M92.562,157.01 C105.587,157.01 119.425,156.194 121.867,167.589 C128.379,193.64 54.3038,186.312 45.3497,186.312 C33.9535,186.312 5.46312,190.383 7.90501,170.847 C9.53311,157.01 21.7433,157.822 36.3955,157.822 C50.2337,157.01 77.0961,157.01 92.562,157.01 Z" style="stroke:#000000;stroke-opacity:1;stroke-width:0.5;stroke-linejoin:bevel;stroke-miterlimit:2;stroke-linecap:square;fill-rule:evenodd;fill:#000000;fill-opacity:1;"/>
        </g>
        <g id="Shape7">
            <desc shapeID="7" type="0" basicInfo-basicType="0" basicInfo-roundedRectRadius="12" basicInfo-polygonSides="6" basicInfo-starPoints="5" bounding="rect(-14.7582,-14.5031,29.5164,29.0063)" text="" font-familyName="" font-pixelSize="20" font-bold="0" font-underline="0" font-alignment="1" strokeStyle="0" markerStart="0" markerEnd="0" shadowEnabled="0" shadowOffsetX="0" shadowOffsetY="2" shadowBlur="4" shadowOpacity="160" blurEnabled="0" blurRadius="4" transform="matrix(8.14013,0,0,8.14013,313.358,177.334)" pers-center="0,0" pers-size="0,0" pers-start="0,0" pers-end="0,0" locked="0" mesh="" flag=""/>
            <path id="shapePath7" d="M348.976,63.3976 C388.863,74.793 415.726,100.841 428.749,139.914 C451.543,201.78 386.421,262.83 355.488,295.391 C355.488,295.391 313.16,263.644 314.788,261.201 C328.626,244.108 416.539,181.429 369.327,137.471 C356.303,121.191 339.208,111.424 318.044,113.866 C305.834,114.679 295.251,119.564 287.111,127.704 C274.901,139.099 235.014,183.057 231.758,182.243 C231.758,182.243 189.429,148.868 193.5,143.984 C213.85,122.819 233.387,106.539 254.551,86.1884 C269.203,72.3506 297.693,59.3275 310.718,59.3275 C319.672,59.3275 334.325,58.5127 348.976,63.3976 Z" style="stroke:#000000;stroke-opacity:1;stroke-width:0.5;stroke-linejoin:bevel;stroke-miterlimit:2;stroke-linecap:square;fill-rule:evenodd;fill:#000000;fill-opacity:1;"/>
        </g>
        <g id="Shape8">
            <desc shapeID="8" type="0" basicInfo-basicType="0" basicInfo-roundedRectRadius="12" basicInfo-polygonSides="6" basicInfo-starPoints="5" bounding="rect(-15.5424,-15.25,31.0848,30.5)" text="" font-familyName="" font-pixelSize="20" font-bold="0" font-underline="0" font-alignment="1" strokeStyle="0" markerStart="0" markerEnd="0" shadowEnabled="0" shadowOffsetX="0" shadowOffsetY="2" shadowBlur="4" shadowOpacity="160" blurEnabled="0" blurRadius="4" transform="matrix(8.14013,0,0,8.14013,180.188,325.917)" pers-center="0,0" pers-size="0,0" pers-start="0,0" pers-end="0,0" locked="0" mesh="" flag=""/>
            <path id="shapePath8" d="M55.1179,322.252 C57.5598,314.926 59.1879,307.602 61.6299,299.462 C65.6999,287.251 71.3981,276.668 79.5383,266.901 C101.516,243.293 118.611,223.758 142.217,201.78 L178.848,238.41 C158.497,258.761 138.961,279.111 119.425,299.462 C103.958,316.554 101.516,343.417 112.912,363.767 C125.937,385.745 143.845,398.77 170.708,396.328 C182.918,395.513 192.686,390.63 201.64,381.676 C213.85,370.28 225.247,358.07 236.643,345.86 C267.575,307.602 267.575,311.671 267.575,311.671 C274.901,315.742 308.276,345.044 306.648,346.672 C303.391,351.557 300.135,355.627 296.066,359.698 C275.715,380.863 255.365,402.025 235.014,422.376 C220.363,437.028 202.454,445.169 182.104,448.424 C176.406,449.239 171.522,450.054 165.824,450.054 C140.59,450.054 117.797,441.914 99.0743,425.633 C80.3521,410.166 65.6999,390.63 59.1879,367.022 C57.5598,361.325 55.9317,355.627 55.1179,349.929 C51.8616,340.162 55.1179,332.022 55.1179,322.252 Z" style="stroke:#323232;stroke-opacity:1;stroke-width:0.5;stroke-linejoin:miter;stroke-miterlimit:2;stroke-linecap:round;fill-rule:evenodd;fill:#000000;fill-opacity:1;"/>
        </g>
    </g>
</svg>
