<?xml version="1.0"?>
<svg version="1.1" xmlns="http://www.w3.org/2000/svg" xmlns:xlink="http://www.w3.org/1999/xlink" width="500" height="500">
    <desc iVinci="yes" version="4.6" gridStep="20" showGrid="no" snapToGrid="no" codePlatform="0"/>
    <g id="Layer1" name="Layer 1" opacity="1">
        <g id="Shape1">
            <desc shapeID="1" type="0" basicInfo-basicType="0" basicInfo-roundedRectRadius="12" basicInfo-polygonSides="6" basicInfo-starPoints="5" bounding="rect(-26.6,-26.6001,53.2,53.2)" text="" font-familyName="" font-pixelSize="20" font-bold="0" font-underline="0" font-alignment="1" strokeStyle="0" markerStart="0" markerEnd="0" shadowEnabled="0" shadowOffsetX="0" shadowOffsetY="2" shadowBlur="4" shadowOpacity="160" blurEnabled="0" blurRadius="4" transform="matrix(9.39849,0,0,9.39849,250,250.001)" pers-center="0,0" pers-size="0,0" pers-start="0,0" pers-end="0,0" locked="0" mesh="" flag=""/>
            <path id="shapePath1" d="M-4.57764e-05,412.594 C-4.57764e-05,303.572 -4.57764e-05,194.549 -4.57764e-05,86.4668 C-4.57764e-05,84.5864 0.93988,83.6468 0.93988,81.7675 C6.57901,44.1736 27.2558,18.797 62.0301,5.63998 C69.549,2.81999 78.9475,1.88037 87.4061,-1.52588e-05 C196.429,-1.52588e-05 305.451,-1.52588e-05 413.534,-1.52588e-05 C414.473,-1.52588e-05 416.353,0.94075 417.293,0.94075 C465.225,7.51923 500,45.1132 500,93.9849 C500,198.309 500,301.692 500,406.015 C500,458.647 459.586,500 406.015,500 C301.692,500 197.368,500 93.0453,500 C51.6917,500 17.8573,474.624 3.7596,436.09 C2.81967,427.631 1.87979,420.113 -4.57764e-05,412.594 M250.94,36.6543 C200.188,36.6543 149.436,36.6543 97.7445,36.6543 C93.0453,36.6543 87.4061,36.6543 82.7069,37.5939 C55.4513,43.234 38.5338,65.7894 38.5338,94.9256 C38.5338,197.368 38.5338,299.812 38.5338,402.256 C38.5338,406.955 38.5338,411.654 39.4738,416.354 C45.1129,443.609 67.6692,460.526 95.8647,460.526 C198.308,460.526 300.752,460.526 403.195,460.526 C407.895,460.526 412.594,460.526 417.293,459.586 C444.549,453.947 461.466,431.391 461.466,402.256 C461.466,299.812 461.466,197.368 461.466,94.9256 C461.466,90.2264 461.466,85.5272 460.526,80.8279 C454.887,53.5721 432.33,36.6543 404.135,36.6543 C353.383,36.6543 301.692,36.6543 250.94,36.6543 Z" style="stroke:#000000;stroke-opacity:1;stroke-width:0;stroke-linejoin:miter;stroke-miterlimit:2;stroke-linecap:butt;fill-rule:evenodd;fill:#000000;fill-opacity:1;"/>
        </g>
        <g id="Shape2">
            <desc shapeID="2" type="0" basicInfo-basicType="0" basicInfo-roundedRectRadius="12" basicInfo-polygonSides="6" basicInfo-starPoints="5" bounding="rect(-18.2542,-17.6021,36.5083,35.2043)" text="" font-familyName="" font-pixelSize="20" font-bold="0" font-underline="0" font-alignment="1" strokeStyle="0" markerStart="0" markerEnd="0" shadowEnabled="0" shadowOffsetX="0" shadowOffsetY="2" shadowBlur="4" shadowOpacity="160" blurEnabled="0" blurRadius="4" transform="matrix(9.39849,0,0,9.39849,250.509,253.544)" pers-center="0,0" pers-size="0,0" pers-start="0,0" pers-end="0,0" locked="0" mesh="" flag=""/>
            <path id="shapePath2" d="M205.827,319.549 C210.526,312.97 213.346,308.271 217.105,303.572 C263.158,235.903 309.211,167.294 355.263,99.6249 C363.722,86.4668 373.12,84.5864 386.278,93.9849 C394.737,99.6249 403.195,105.264 412.594,111.842 C422.932,119.361 424.812,129.7 418.233,140.038 C358.082,228.384 298.872,316.73 238.722,404.135 C226.504,421.053 210.526,423.873 193.609,410.715 C191.729,409.775 190.789,407.895 188.91,406.015 C155.075,372.181 121.241,338.346 87.4061,304.511 C76.1278,293.234 76.1278,283.835 87.4061,272.556 C94.9248,265.038 102.444,257.519 109.023,250.001 C118.421,240.602 128.759,240.602 138.158,250.001 C159.774,270.677 180.451,292.294 202.068,313.91 C203.947,314.849 203.947,316.73 205.827,319.549 Z" style="stroke:#000000;stroke-opacity:1;stroke-width:0;stroke-linejoin:miter;stroke-miterlimit:2;stroke-linecap:butt;fill-rule:evenodd;fill:#000000;fill-opacity:1;"/>
        </g>
    </g>
</svg>
