<?xml version="1.0"?>
<svg version="1.1" xmlns="http://www.w3.org/2000/svg" xmlns:xlink="http://www.w3.org/1999/xlink" width="500" height="500">
    <desc iVinci="yes" version="4.6" gridStep="20" showGrid="no" snapToGrid="no" codePlatform="0"/>
    <g id="Layer1" name="Layer 1" opacity="1">
        <g id="Shape1">
            <desc shapeID="1" type="0" basicInfo-basicType="0" basicInfo-roundedRectRadius="12" basicInfo-polygonSides="6" basicInfo-starPoints="5" bounding="rect(-182.241,-184.295,364.483,368.591)" text="" font-familyName="" font-pixelSize="20" font-bold="0" font-underline="0" font-alignment="1" strokeStyle="0" markerStart="0" markerEnd="0" shadowEnabled="0" shadowOffsetX="0" shadowOffsetY="2" shadowBlur="4" shadowOpacity="160" blurEnabled="0" blurRadius="4" transform="matrix(1.35652,0,0,1.35652,250,250.001)" pers-center="0,0" pers-size="0,0" pers-start="0,0" pers-end="0,0" locked="0" mesh="" flag=""/>
            <path id="shapePath1" d="M351.387,0.017807 C315.767,0.6035 280.498,15.6526 251.969,44.1817 C231.101,65.0506 208.494,85.9148 187.627,108.521 C180.672,117.215 173.715,125.91 165.021,136.343 C182.411,134.604 196.323,131.128 210.235,127.65 C224.146,127.65 238.056,131.127 251.969,132.867 C255.446,134.605 260.663,131.127 262.402,129.388 C278.053,113.738 291.963,98.0879 307.613,84.1753 C335.435,58.0921 377.171,59.8318 406.732,87.6541 C436.293,117.217 441.511,158.95 415.427,188.511 C389.343,218.071 361.521,244.156 333.697,270.239 C307.614,292.846 267.617,291.11 241.533,268.504 C225.882,256.332 215.451,242.418 211.973,223.291 C189.366,223.291 165.021,237.202 154.588,254.591 C152.849,258.068 152.849,261.547 154.588,265.025 C198.06,358.928 309.353,383.27 378.91,320.669 C408.471,294.586 434.556,266.764 462.379,237.203 C484.984,212.859 497.155,183.295 497.155,150.258 C498.894,89.395 462.378,35.486 406.732,11.1429 C388.799,3.37178 370.045,-0.289001 351.387,0.017807 M214.752,145.057 C180.267,145.023 144.694,156.693 119.845,179.766 C93.7602,202.37 70.774,228.852 46.4288,253.198 C22.0834,277.543 5.03978,311.975 3.30086,345.015 C-1.91566,404.139 32.8629,459.782 88.5076,485.866 C142.415,511.95 203.278,501.518 246.752,458.044 C271.096,435.437 293.702,411.094 316.308,388.487 C323.263,379.792 328.48,372.838 335.435,364.144 C307.613,369.361 279.792,369.361 253.707,364.144 C250.23,362.405 243.273,364.142 239.795,367.62 C224.144,381.531 211.972,397.183 196.322,411.095 C166.761,438.918 123.286,437.179 93.7244,407.616 C64.163,378.055 60.6852,334.581 88.5076,305.019 C112.853,280.676 137.2,254.592 163.283,230.248 C182.412,212.859 206.756,207.639 231.102,214.595 C260.663,223.29 279.79,245.899 288.484,275.459 C312.829,277.198 326.741,263.286 344.13,247.634 C349.346,244.156 351.086,238.941 347.609,233.724 C321.118,176.502 268.548,145.111 214.752,145.057 Z" style="stroke:none;fill-rule:evenodd;fill:#000000;fill-opacity:1;"/>
        </g>
    </g>
</svg>
