<?xml version="1.0"?>
<svg version="1.1" xmlns="http://www.w3.org/2000/svg" xmlns:xlink="http://www.w3.org/1999/xlink" width="500" height="500">
    <desc iVinci="yes" version="4.6" gridStep="20" showGrid="no" snapToGrid="no" codePlatform="0"/>
    <g id="Layer1" name="Layer 1" opacity="1">
        <g id="Shape1">
            <desc shapeID="1" type="0" basicInfo-basicType="0" basicInfo-roundedRectRadius="12" basicInfo-polygonSides="6" basicInfo-starPoints="5" bounding="rect(-19.1,-15.9502,38.2,31.9002)" text="" font-familyName="" font-pixelSize="20" font-bold="0" font-underline="0" font-alignment="1" strokeStyle="0" markerStart="0" markerEnd="0" shadowEnabled="0" shadowOffsetX="0" shadowOffsetY="2" shadowBlur="4" shadowOpacity="160" blurEnabled="0" blurRadius="4" transform="matrix(13.0888,0,0,13.0888,249.996,250)" pers-center="0,0" pers-size="0,0" pers-start="0,0" pers-end="0,0" locked="0" mesh="" flag=""/>
            <path id="shapePath1" d="M489.521,93.5856 C452.873,63.4838 414.915,46.4677 376.958,42.5405 C373.032,42.5405 369.104,41.2303 365.178,41.2303 C365.178,41.2303 365.178,41.2303 363.869,41.2303 C340.309,41.2303 315.441,45.1576 290.571,55.6293 C277.483,60.8635 264.394,67.4079 249.996,75.2625 C235.599,68.7181 222.51,60.8635 209.421,55.6293 C184.553,45.1576 159.683,41.2303 136.124,41.2303 C136.124,41.2303 136.124,41.2303 134.815,41.2303 C130.888,41.2303 126.961,41.2303 123.035,42.5405 C83.7684,46.4677 47.1198,64.7908 10.4709,93.5856 C6.54442,96.2059 2.61754,98.823 1.52588e-05,100.13 C1.52588e-05,227.094 1.52588e-05,331.804 1.52588e-05,458.766 C212.038,458.766 336.382,458.766 499.992,458.766 C499.992,331.804 499.992,227.094 499.992,100.13 C497.375,98.823 493.448,96.2059 489.521,93.5856 M265.703,102.75 C294.498,77.8796 327.221,64.7908 359.943,63.4838 C378.267,63.4838 397.9,68.7181 417.534,76.5727 C445.02,88.3513 458.109,106.675 458.109,139.396 C456.8,217.929 460.726,392.011 458.109,412.955 C442.402,403.793 426.695,398.556 410.989,393.321 C363.869,380.233 314.131,385.467 265.703,409.027 C265.703,303.006 265.703,202.224 265.703,102.75 M234.289,407.717 C185.861,385.467 137.432,378.923 89.0038,392.011 C73.2975,395.939 56.2818,402.483 41.884,411.645 C40.5755,390.705 44.502,217.929 41.884,138.089 C40.5755,106.675 53.6643,87.0412 82.4595,75.2625 C102.093,67.4079 121.726,62.1737 140.05,62.1737 C172.773,63.4838 204.186,76.5727 234.289,101.44 C234.289,202.224 234.289,303.006 234.289,407.717 Z" style="stroke:none;fill-rule:evenodd;fill:#000000;fill-opacity:1;"/>
        </g>
    </g>
</svg>
