<?xml version="1.0"?>
<svg version="1.1" xmlns="http://www.w3.org/2000/svg" xmlns:xlink="http://www.w3.org/1999/xlink" width="500" height="500">
    <desc iVinci="yes" version="4.6" gridStep="20" showGrid="no" snapToGrid="no" codePlatform="0"/>
    <g id="Layer1" name="Layer 1" opacity="1">
        <g id="Shape1">
            <desc shapeID="1" type="0" basicInfo-basicType="0" basicInfo-roundedRectRadius="12" basicInfo-polygonSides="6" basicInfo-starPoints="5" bounding="rect(-36.1739,-19.9594,72.3478,39.9188)" text="" font-familyName="" font-pixelSize="20" font-bold="0" font-underline="0" font-alignment="1" strokeStyle="0" markerStart="0" markerEnd="0" shadowEnabled="0" shadowOffsetX="0" shadowOffsetY="2" shadowBlur="4" shadowOpacity="160" blurEnabled="0" blurRadius="4" transform="matrix(4.99666,0,0,4.99666,318.332,198.808)" pers-center="0,0" pers-size="0,0" pers-start="0,0" pers-end="0,0" locked="0" mesh="" flag=""/>
            <path id="shapePath1" d="M418.835,298.038 C413.839,297.538 409.342,297.538 404.345,297.039 C402.346,297.039 400.348,296.039 399.349,295.04 C353.379,254.068 307.909,213.095 262.44,171.623 C260.941,170.124 259.442,170.124 257.443,170.623 C240.954,175.12 224.465,179.617 207.976,183.115 C189.988,186.613 172.999,184.614 157.51,174.121 C149.016,168.625 143.02,160.63 138.523,151.636 C135.525,145.14 140.022,136.146 147.517,134.148 C176.997,125.653 205.478,114.161 233.959,103.668 C242.953,100.17 251.947,98.6713 261.44,99.171 C264.938,99.171 268.436,100.67 271.934,102.169 C299.915,112.662 327.896,123.155 355.878,133.148 C357.376,133.648 359.375,133.648 360.874,133.148 C381.86,127.652 402.846,121.656 423.332,115.66 C425.331,115.16 426.33,115.16 427.829,117.159 C437.323,129.651 444.318,143.142 451.314,156.633 C468.802,191.11 484.292,227.086 498.782,263.061 C499.282,264.56 499.282,265.56 497.783,267.059 C483.792,282.049 466.304,291.043 446.317,295.04 C437.323,297.039 427.829,297.538 418.835,298.538 C419.335,298.038 419.335,298.038 418.835,298.038 Z" style="stroke:none;fill-rule:nonzero;fill:url(#linearGradientFill1);fill-opacity:1;"/><defs><linearGradient id="linearGradientFill1" gradientUnits="userSpaceOnUse" x1="318.699" y1="298.399" x2="318.699" y2="98.8921"><stop offset="0" stop-color="#000000" stop-opacity="1"/><stop offset="1" stop-color="#000000" stop-opacity="1"/></linearGradient></defs>
        </g>
        <g id="Shape2">
            <desc shapeID="2" type="0" basicInfo-basicType="0" basicInfo-roundedRectRadius="12" basicInfo-polygonSides="6" basicInfo-starPoints="5" bounding="rect(-16.3778,-18.2066,32.7556,36.4132)" text="" font-familyName="" font-pixelSize="20" font-bold="0" font-underline="0" font-alignment="1" strokeStyle="0" markerStart="0" markerEnd="0" shadowEnabled="0" shadowOffsetX="0" shadowOffsetY="2" shadowBlur="4" shadowOpacity="160" blurEnabled="0" blurRadius="4" transform="matrix(4.99666,0,0,4.99666,100.362,327.504)" pers-center="0,0" pers-size="0,0" pers-start="0,0" pers-end="0,0" locked="0" mesh="" flag=""/>
            <path id="shapePath2" d="M87.5566,258.065 C101.048,250.57 114.039,255.566 121.034,263.061 C130.028,272.055 131.028,283.048 124.032,297.039 C137.024,295.04 147.517,299.037 154.012,310.53 C161.008,322.022 159.009,333.514 149.515,343.008 C153.013,343.008 157.01,343.008 160.008,343.508 C176.497,346.506 186.99,364.993 179.995,379.983 C178.996,381.982 177.497,384.48 175.998,385.979 C168.503,394.474 161.008,402.468 153.513,410.463 C144.019,420.456 127.53,421.456 118.036,411.462 C97.55,390.976 79.5621,367.991 62.0738,345.007 C50.5812,330.516 39.5888,315.526 28.5961,301.036 C23.5994,294.54 19.1023,287.045 18.6028,278.551 C18.1029,272.555 20.1017,267.558 24.099,263.561 C30.095,257.065 36.0911,250.57 42.5867,244.074 C54.5788,231.582 76.5639,235.08 85.0583,251.069 C86.0577,253.568 86.5573,256.066 87.5566,258.065 Z" style="stroke:none;fill-rule:nonzero;fill:url(#linearGradientFill2);fill-opacity:1;"/><defs><linearGradient id="linearGradientFill2" gradientUnits="userSpaceOnUse" x1="100.505" y1="418.934" x2="100.505" y2="237.24"><stop offset="0" stop-color="#000000" stop-opacity="1"/><stop offset="1" stop-color="#000000" stop-opacity="1"/></linearGradient></defs>
        </g>
        <g id="Shape3">
            <desc shapeID="3" type="0" basicInfo-basicType="0" basicInfo-roundedRectRadius="12" basicInfo-polygonSides="6" basicInfo-starPoints="5" bounding="rect(-24.664,-20.2071,49.328,40.4142)" text="" font-familyName="" font-pixelSize="20" font-bold="0" font-underline="0" font-alignment="1" strokeStyle="0" markerStart="0" markerEnd="0" shadowEnabled="0" shadowOffsetX="0" shadowOffsetY="2" shadowBlur="4" shadowOpacity="160" blurEnabled="0" blurRadius="4" transform="matrix(4.99666,0,0,4.99666,296.237,349.156)" pers-center="0,0" pers-size="0,0" pers-start="0,0" pers-end="0,0" locked="0" mesh="" flag=""/>
            <path id="shapePath3" d="M172.999,416.459 C177.996,410.963 182.993,405.466 187.989,399.97 C188.489,400.47 189.489,401.469 189.988,401.969 C196.484,408.464 202.48,414.96 208.975,420.956 C221.967,433.947 241.954,427.452 248.949,413.961 C248.449,413.461 247.45,412.961 246.95,412.462 C231.46,396.972 215.471,380.983 199.982,365.493 C197.483,362.995 196.484,359.997 197.483,356.499 C198.483,353.001 200.981,351.003 203.979,350.003 C207.477,349.004 210.474,350.503 212.973,353.001 C222.966,362.995 233.459,373.488 243.453,383.481 C253.446,393.474 263.939,403.967 273.932,413.961 C277.929,418.458 282.926,419.957 288.922,419.957 C299.915,419.957 309.908,412.961 313.905,402.468 C314.905,400.47 314.405,399.47 312.906,397.971 C283.925,368.991 254.945,340.01 225.964,311.529 C223.466,309.031 221.467,306.033 222.467,302.035 C223.965,295.54 231.46,292.542 236.957,297.039 C237.956,297.538 238.456,298.538 239.455,299.537 C269.435,329.517 298.915,358.997 328.895,388.977 C330.394,390.476 332.393,391.476 334.392,390.976 C346.884,389.977 357.376,380.983 359.375,368.491 C359.875,366.492 358.875,365.493 357.876,364.494 C324.399,331.016 291.42,298.038 257.943,264.56 C255.444,262.062 253.945,259.064 254.945,255.067 C255.944,251.569 257.943,249.57 261.44,248.571 C264.938,247.572 267.936,248.571 270.434,251.069 C277.929,258.564 284.925,265.56 292.42,273.055 C310.908,291.542 329.895,310.53 348.382,329.017 C355.877,336.512 363.372,343.508 370.368,351.003 C371.867,352.502 373.366,353.001 375.364,352.502 C391.853,349.004 401.347,331.516 394.851,315.526 C394.851,315.027 394.352,314.527 394.352,314.027 C402.346,314.527 410.341,315.526 418.835,316.026 C418.835,320.023 419.835,324.52 419.335,328.518 C417.836,349.504 403.845,366.492 383.859,372.988 C382.36,373.488 381.86,373.987 381.36,375.486 C375.864,396.472 357.876,410.963 336.39,412.961 C334.891,412.961 334.392,413.461 333.892,414.96 C323.399,433.947 307.41,443.441 285.924,442.941 C278.429,442.442 271.434,440.443 264.938,436.446 C264.439,435.946 263.439,435.446 262.939,434.947 C260.441,436.945 258.443,438.944 255.944,440.443 C236.457,454.933 210.474,452.935 193.486,435.946 C185.991,429.45 179.495,422.955 172.999,416.459 Z" style="stroke:none;fill-rule:nonzero;fill:url(#linearGradientFill3);fill-opacity:1;"/><defs><linearGradient id="linearGradientFill3" gradientUnits="userSpaceOnUse" x1="295.974" y1="450.361" x2="295.974" y2="247.73"><stop offset="0" stop-color="#000000" stop-opacity="1"/><stop offset="1" stop-color="#000000" stop-opacity="1"/></linearGradient></defs>
        </g>
        <g id="Shape4">
            <desc shapeID="4" type="0" basicInfo-basicType="0" basicInfo-roundedRectRadius="12" basicInfo-polygonSides="6" basicInfo-starPoints="5" bounding="rect(-20.9615,-19.2828,41.9231,38.5657)" text="" font-familyName="" font-pixelSize="20" font-bold="0" font-underline="0" font-alignment="1" strokeStyle="0" markerStart="0" markerEnd="0" shadowEnabled="0" shadowOffsetX="0" shadowOffsetY="2" shadowBlur="4" shadowOpacity="160" blurEnabled="0" blurRadius="4" transform="matrix(4.99666,0,0,4.99666,104.738,146.225)" pers-center="0,0" pers-size="0,0" pers-start="0,0" pers-end="0,0" locked="0" mesh="" flag=""/>
            <path id="shapePath4" d="M209.475,93.175 C200.481,96.173 191.987,98.6713 183.992,102.169 C177.497,105.167 172,104.667 165.005,102.169 C137.024,92.6753 108.543,83.6814 80.5612,74.6874 C78.5627,74.1877 77.5633,74.6874 76.5639,75.6867 C60.5746,88.678 48.0829,104.168 38.5894,122.156 C27.5967,143.142 22.6,165.627 22.1005,189.111 C21.6006,202.602 25.0984,214.594 34.5921,224.587 C35.0917,225.087 35.5912,225.587 36.0911,226.086 C36.0911,226.086 36.0911,226.586 36.0911,226.586 C35.5912,226.086 35.5912,226.086 35.0917,225.587 C30.095,231.083 25.5979,236.579 20.1017,242.575 C16.604,238.078 13.6061,234.081 10.6079,229.584 C3.11293,219.591 0.614601,208.098 0.115051,195.607 C-0.884338,167.126 4.61217,140.144 17.1038,115.16 C30.5946,88.678 48.5827,67.1924 73.5661,50.7034 C75.065,49.704 76.0644,49.704 78.0629,50.2037 C115.038,62.1957 152.513,74.1877 189.988,86.1797 C195.984,88.1783 202.48,90.177 208.476,92.1757 C207.976,92.6753 208.476,92.6753 209.475,93.175 Z" style="stroke:none;fill-rule:nonzero;fill:url(#linearGradientFill4);fill-opacity:1;"/><defs><linearGradient id="linearGradientFill4" gradientUnits="userSpaceOnUse" x1="104.322" y1="242.596" x2="104.322" y2="49.7875"><stop offset="0" stop-color="#000000" stop-opacity="1"/><stop offset="1" stop-color="#000000" stop-opacity="1"/></linearGradient></defs>
        </g>
    </g>
</svg>
