<?xml version="1.0"?>
<svg version="1.1" xmlns="http://www.w3.org/2000/svg" xmlns:xlink="http://www.w3.org/1999/xlink" width="500" height="500">
    <desc iVinci="yes" version="4.6" gridStep="20" showGrid="no" snapToGrid="no" codePlatform="0"/>
    <g id="Layer1" name="Layer 1" opacity="1">
        <g id="Shape1">
            <desc shapeID="1" type="0" basicInfo-basicType="0" basicInfo-roundedRectRadius="12" basicInfo-polygonSides="6" basicInfo-starPoints="5" bounding="rect(-16.2,-16.0197,32.4,32.0392)" text="" font-familyName="" font-pixelSize="20" font-bold="0" font-underline="0" font-alignment="1" strokeStyle="0" markerStart="0" markerEnd="0" shadowEnabled="0" shadowOffsetX="0" shadowOffsetY="2" shadowBlur="4" shadowOpacity="160" blurEnabled="0" blurRadius="4" transform="matrix(15.432,0,0,15.432,250.002,250)" pers-center="0,0" pers-size="0,0" pers-start="0,0" pers-end="0,0" locked="0" mesh="" flag=""/>
            <path id="shapePath1" d="M1.5477,112.351 C69.4483,76.8581 137.348,39.8213 206.792,2.78419 C304.014,27.4749 401.235,53.7105 500,79.9442 C500,130.87 500,325.987 500,376.911 L473.765,366.014 C473.765,327.434 473.765,158.647 473.765,115.438 C413.58,147.845 361.112,175.621 307.1,204.943 C307.1,289.819 307.1,371.609 307.1,458.027 C323.635,450.396 428.609,390.968 473.765,366.014 L500,376.911 L305.557,493.522 C297.841,496.607 287.038,498.151 279.322,496.607 C186.731,473.459 95.6824,448.769 0.0039978,424.078 C1.5477,322.225 1.5477,220.375 1.5477,112.351 M29.325,402.473 C111.114,424.078 192.903,444.139 274.693,465.743 C274.693,376.237 274.693,291.361 274.693,206.485 C243.829,198.769 216.051,192.598 186.731,184.882 C183.644,204.943 182.101,221.917 179.015,240.437 C158.953,234.264 141.978,229.633 123.459,225.005 C121.916,204.943 121.916,186.425 120.373,166.363 C89.5088,158.647 61.7323,150.931 29.325,143.215 C29.325,231.178 29.325,314.509 29.325,402.473 M438.272,100.006 C438.272,96.9186 436.728,93.8338 436.728,90.745 C407.408,86.1178 373.458,70.6858 350.31,78.4018 C302.47,95.3762 257.718,126.24 212.965,150.931 C212.965,154.018 214.508,155.561 214.508,158.647 C239.199,164.82 263.89,172.536 291.668,178.709 C339.507,154.018 388.889,127.783 438.272,100.006 M140.435,141.672 C189.817,115.438 237.656,87.6602 293.211,56.7961 C259.261,47.5373 234.57,41.3641 209.879,35.1909 C160.496,61.4265 111.114,87.6602 54.0158,118.524 C87.9664,127.783 114.201,133.956 140.435,141.672 Z" style="stroke:none;fill-rule:evenodd;fill:#000000;fill-opacity:1;"/>
        </g>
    </g>
</svg>
