<?xml version="1.0"?>
<svg version="1.1" xmlns="http://www.w3.org/2000/svg" xmlns:xlink="http://www.w3.org/1999/xlink" width="500" height="500">
    <desc iVinci="yes" version="4.6" gridStep="20" showGrid="no" snapToGrid="no" codePlatform="0"/>
    <g id="Layer1" name="Layer 1" opacity="1">
        <g id="Shape1">
            <desc shapeID="1" type="0" basicInfo-basicType="0" basicInfo-roundedRectRadius="12" basicInfo-polygonSides="6" basicInfo-starPoints="5" bounding="rect(-41.7726,-41.2924,83.5451,82.5848)" text="" font-familyName="" font-pixelSize="20" font-bold="0" font-underline="0" font-alignment="1" strokeStyle="0" markerStart="0" markerEnd="0" shadowEnabled="0" shadowOffsetX="0" shadowOffsetY="2" shadowBlur="4" shadowOpacity="160" blurEnabled="0" blurRadius="4" transform="matrix(5.98079,0,0,5.98079,249.833,250)" pers-center="0,0" pers-size="0,0" pers-start="0,0" pers-end="0,0" locked="0" mesh="" flag=""/>
            <path id="shapePath1" d="M478.87,191.143 C508.773,186.957 500.999,145.689 489.037,127.149 C469.3,96.0488 447.172,66.1449 427.435,35.6428 C419.062,23.0831 412.483,7.53307 395.737,4.54266 C380.785,1.55226 364.636,3.9446 349.685,3.9446 C310.809,3.9446 272.532,3.9446 233.657,3.9446 C195.978,3.9446 158.299,3.9446 121.219,3.34653 C106.267,3.34653 94.3049,3.9446 84.1375,15.9062 C73.3722,29.0639 64.9989,45.2121 55.4298,60.1641 C45.2624,75.116 35.6929,90.068 24.9275,105.02 C15.3584,118.178 4.59305,130.737 1.60265,146.886 C-0.191879,158.249 -2.58398,177.388 7.58344,186.359 C15.3584,193.536 28.5162,186.359 33.8987,196.526 C39.2816,207.292 35.0949,227.626 35.0949,238.99 C35.0949,256.932 35.0949,274.276 35.0949,292.219 C35.0949,329.898 35.0949,366.979 35.0949,404.658 C35.0949,416.619 39.8795,439.944 25.5258,446.523 C15.9563,451.308 8.77931,447.121 7.58344,460.877 C4.59305,493.174 20.7409,496.164 20.7409,496.164 C32.7025,496.164 20.7409,496.164 20.7409,496.164 C15.3584,497.958 20.7409,496.164 20.7409,496.164 C63.8027,496.164 330.546,496.164 373.608,496.164 C427.435,496.762 474.085,496.164 474.085,496.164 C478.87,495.566 474.085,496.164 478.87,495.566 C486.047,494.37 488.439,491.379 489.635,483.604 C490.831,474.633 492.028,453.102 482.459,448.916 C477.076,446.523 472.291,450.71 467.507,445.327 C464.516,442.337 465.114,437.552 464.516,433.366 C463.32,414.825 464.516,396.285 464.516,377.744 C464.516,340.065 464.516,302.386 464.516,264.707 C464.516,246.167 464.516,227.028 464.516,208.488 C465.114,196.526 465.712,192.938 478.87,191.143 M307.221,16.5043 C325.163,14.71 328.154,26.6716 332.34,41.0255 C343.106,75.7141 359.852,113.393 363.441,149.876 C363.441,149.876 363.441,150.474 363.441,151.072 C361.646,165.426 359.254,182.172 340.713,182.77 C326.359,182.77 318.585,170.809 316.192,158.249 C309.016,119.972 305.426,81.0968 298.25,42.8197 C295.857,29.662 289.877,18.2985 307.221,16.5043 M257.58,17.1023 C270.14,22.485 266.551,44.0159 267.748,54.7813 C268.944,72.1256 270.738,89.47 271.934,106.814 C271.934,108.608 272.532,110.403 272.532,113.991 C272.532,132.532 279.71,195.33 241.432,180.976 C229.471,176.191 225.882,163.034 225.284,151.67 C224.686,131.934 227.676,111.599 228.873,91.8622 C229.471,74.518 221.695,2.15036 257.58,17.1023 M187.605,15.3081 C203.753,14.71 202.557,32.6524 200.763,44.0159 C194.782,82.293 190.596,121.766 182.222,160.043 C179.232,173.799 171.457,182.77 156.505,180.976 C139.161,179.182 133.18,166.622 133.18,151.67 C142.749,116.384 153.515,81.6949 164.28,47.0063 C167.869,35.0447 171.457,15.9062 187.605,15.3081 M44.6641,157.053 C44.6641,158.249 44.0661,157.053 44.0661,148.082 C57.224,112.795 77.5584,79.9007 96.0991,47.0063 C104.472,32.0543 112.845,15.3081 132.582,17.7004 C140.357,18.8966 139.161,18.2985 139.161,24.2793 C139.161,28.4658 137.366,33.8486 135.572,37.437 C131.984,46.4082 127.797,55.3794 123.611,64.3506 C115.238,83.4892 106.267,102.03 99.6874,121.766 C94.3049,137.316 93.7066,158.249 84.1375,172.005 C77.5584,180.976 65.5968,184.565 56.0277,179.182 C48.8507,174.995 45.8603,166.024 44.6641,157.053 M439.994,443.533 C435.808,448.916 414.875,447.719 404.708,447.719 C391.55,447.719 251.599,447.719 251.599,447.719 C220.5,447.719 188.801,447.719 157.701,447.719 C128.993,447.719 96.697,448.318 67.9893,447.121 C54.2336,446.523 56.0277,434.562 56.0277,420.208 C56.0277,390.304 56.0277,360.998 56.0277,331.094 C56.0277,304.18 56.0277,277.865 56.0277,250.951 C56.0277,236.597 48.8507,204.899 62.0085,194.732 C67.9893,189.947 81.1471,188.751 88.3241,186.957 C97.8933,184.565 102.678,189.349 111.051,190.545 C119.424,191.742 127.797,184.565 136.768,184.565 C145.142,184.565 151.72,191.742 159.495,191.742 C169.065,191.742 178.036,184.565 188.203,185.163 C193.586,185.761 196.576,189.349 201.361,190.545 C206.743,191.742 209.734,188.751 213.921,186.957 C218.107,185.163 221.695,182.172 227.078,183.368 C231.863,184.565 233.657,189.349 238.442,190.545 C248.011,193.536 259.375,184.565 269.542,183.966 C279.112,183.368 286.288,188.751 295.857,189.349 C305.426,189.947 310.809,183.368 320.977,185.761 C331.144,188.153 336.527,192.938 347.292,189.947 C355.665,187.555 362.244,180.976 371.814,182.77 C378.991,183.966 384.373,189.349 391.55,188.153 C399.923,186.957 402.914,182.77 411.885,185.163 C419.66,187.555 426.239,191.143 434.014,193.536 C438.201,194.732 437.603,192.34 440.593,195.928 C442.985,198.918 442.387,205.497 442.387,209.086 C443.583,262.315 442.387,315.544 442.387,368.175 C442.387,382.529 442.387,396.883 442.387,411.237 C442.985,420.806 444.779,437.552 439.994,443.533 M454.348,154.062 C453.75,164.828 450.162,176.191 439.396,180.378 C425.641,185.761 414.277,176.191 409.492,164.23 C402.914,147.484 401.119,128.345 394.54,111.599 C387.364,93.6565 379.588,75.116 371.814,57.1737 C367.627,47.6044 349.685,22.485 364.039,17.1023 C381.981,9.92538 391.55,27.2697 398.727,39.8294 C417.866,75.116 442.387,109.805 454.946,147.484 C454.946,159.445 454.348,157.651 454.348,154.062 Z" style="stroke:none;fill-rule:nonzero;fill:url(#linearGradientFill1);fill-opacity:1;"/><defs><linearGradient id="linearGradientFill1" gradientUnits="userSpaceOnUse" x1="249.954" y1="497.317" x2="249.954" y2="2.9769"><stop offset="0" stop-color="#000000" stop-opacity="1"/><stop offset="1" stop-color="#000000" stop-opacity="1"/></linearGradient></defs>
        </g>
        <g id="Shape2">
            <desc shapeID="2" type="0" basicInfo-basicType="0" basicInfo-roundedRectRadius="12" basicInfo-polygonSides="6" basicInfo-starPoints="5" bounding="rect(-9.94824,-16.478,19.8964,32.956)" text="" font-familyName="" font-pixelSize="20" font-bold="0" font-underline="0" font-alignment="1" strokeStyle="0" markerStart="0" markerEnd="0" shadowEnabled="0" shadowOffsetX="0" shadowOffsetY="2" shadowBlur="4" shadowOpacity="160" blurEnabled="0" blurRadius="4" transform="matrix(5.98079,0,0,5.98079,351.121,320.726)" pers-center="0,0" pers-size="0,0" pers-start="0,0" pers-end="0,0" locked="0" mesh="" flag=""/>
            <path id="shapePath2" d="M407.699,228.822 C404.11,224.038 399.923,224.038 393.943,223.44 C380.186,222.842 366.431,223.44 353.273,223.44 C338.321,223.44 320.977,221.047 306.025,222.842 C298.25,224.038 294.661,227.028 292.867,234.803 C290.475,245.569 292.269,259.923 292.269,271.286 C292.269,286.238 291.671,301.788 291.671,316.74 C291.671,317.338 291.671,317.936 291.671,318.534 C291.671,318.534 291.671,393.294 292.269,401.667 C292.867,411.237 294.661,414.825 304.231,417.217 C319.781,420.208 388.56,419.012 388.56,419.012 C392.148,419.61 386.167,419.012 390.952,419.012 C410.689,419.012 408.895,407.648 408.895,397.481 C408.895,366.979 408.895,335.879 408.895,305.377 C408.895,291.023 408.895,276.669 408.895,262.315 C409.492,254.54 413.081,235.999 407.699,228.822 M318.585,334.682 C307.221,333.486 311.407,320.329 317.987,317.936 C328.752,316.142 328.752,323.917 328.752,323.917 C328.752,316.74 331.144,336.477 318.585,334.682 Z" style="stroke:none;fill-rule:nonzero;fill:url(#linearGradientFill2);fill-opacity:1;"/><defs><linearGradient id="linearGradientFill2" gradientUnits="userSpaceOnUse" x1="351.383" y1="419.732" x2="351.383" y2="222.4"><stop offset="0" stop-color="#000000" stop-opacity="1"/><stop offset="1" stop-color="#000000" stop-opacity="1"/></linearGradient></defs>
        </g>
        <g id="Shape3">
            <desc shapeID="3" type="0" basicInfo-basicType="0" basicInfo-roundedRectRadius="12" basicInfo-polygonSides="6" basicInfo-starPoints="5" bounding="rect(-15.4292,-14.033,30.8583,28.0661)" text="" font-familyName="" font-pixelSize="20" font-bold="0" font-underline="0" font-alignment="1" strokeStyle="0" markerStart="0" markerEnd="0" shadowEnabled="0" shadowOffsetX="0" shadowOffsetY="2" shadowBlur="4" shadowOpacity="160" blurEnabled="0" blurRadius="4" transform="matrix(5.98079,0,0,5.98079,166.818,306.604)" pers-center="0,0" pers-size="0,0" pers-start="0,0" pers-end="0,0" locked="0" mesh="" flag=""/>
            <path id="shapePath3" d="M247.413,322.123 C247.413,305.377 247.413,288.63 247.413,271.884 C247.413,260.521 251.599,241.382 246.217,230.617 C241.432,220.449 228.275,223.44 219.304,223.44 C203.155,223.44 186.409,223.44 170.261,223.44 C154.113,223.44 137.366,223.44 121.219,223.44 C112.247,223.44 95.5008,219.851 88.9221,228.224 C82.3434,236.598 86.5296,255.736 86.5296,265.305 C86.5296,282.052 86.5296,298.798 86.5296,315.544 C86.5296,328.104 88.9221,343.654 85.3337,356.213 C82.9413,365.185 69.7835,373.558 76.3626,383.127 C82.9413,392.696 104.472,389.706 114.041,389.706 C130.788,389.706 146.936,390.304 163.682,390.304 C179.83,390.304 196.576,389.706 212.724,389.706 C223.49,389.706 245.021,393.294 254.59,385.519 C265.355,376.548 253.992,368.773 249.806,360.4 C245.021,349.635 247.413,334.084 247.413,322.123 M230.667,343.654 C230.667,350.831 231.863,358.606 225.284,363.39 C219.304,367.577 207.94,363.39 201.959,362.792 C190.596,362.792 179.83,360.4 168.467,360.4 C168.467,360.4 167.869,360.4 167.869,360.4 C167.869,360.4 167.27,360.4 167.27,360.4 C155.309,360.4 142.749,362.792 130.788,362.792 C124.209,362.792 114.639,365.783 109.257,360.998 C103.874,356.213 105.07,349.036 105.07,342.458 C105.07,330.496 105.07,318.534 105.07,305.975 C105.07,294.013 105.07,281.453 105.07,269.492 C105.07,262.315 102.678,250.951 109.257,245.569 C115.238,240.186 126.601,242.578 133.778,242.578 C146.338,242.578 158.897,242.578 171.457,242.578 C184.017,242.578 196.576,242.578 209.136,242.578 C216.313,242.578 224.686,241.382 228.873,247.961 C233.657,253.942 231.265,264.707 231.265,271.884 C231.265,283.846 231.265,295.807 231.265,307.171 C230.069,319.731 230.667,331.692 230.667,343.654 Z" style="stroke:none;fill-rule:nonzero;fill:url(#linearGradientFill3);fill-opacity:1;"/><defs><linearGradient id="linearGradientFill3" gradientUnits="userSpaceOnUse" x1="167.175" y1="390.822" x2="167.175" y2="222.687"><stop offset="0" stop-color="#000000" stop-opacity="1"/><stop offset="1" stop-color="#000000" stop-opacity="1"/></linearGradient></defs>
        </g>
    </g>
</svg>
