<?xml version="1.0"?>
<svg version="1.1" xmlns="http://www.w3.org/2000/svg" xmlns:xlink="http://www.w3.org/1999/xlink" width="500" height="500">
    <desc iVinci="yes" version="4.6" gridStep="20" showGrid="no" snapToGrid="no" codePlatform="0"/>
    <g id="Layer1" name="Layer 1" opacity="1">
        <g id="Shape1">
            <desc shapeID="1" type="0" basicInfo-basicType="0" basicInfo-roundedRectRadius="12" basicInfo-polygonSides="6" basicInfo-starPoints="5" bounding="rect(-192.384,-172.425,384.769,344.848)" text="" font-familyName="" font-pixelSize="20" font-bold="0" font-underline="0" font-alignment="1" strokeStyle="0" markerStart="0" markerEnd="0" shadowEnabled="0" shadowOffsetX="0" shadowOffsetY="2" shadowBlur="4" shadowOpacity="160" blurEnabled="0" blurRadius="4" transform="matrix(1.29482,0,0,1.23439,249.102,250.001)" pers-center="0,0" pers-size="0,0" pers-start="0,0" pers-end="0,0" locked="0" mesh="" flag=""/>
            <path id="shapePath1" d="M76.4271,37.1739 C42.5511,37.2555 9.89322,37.7187 9.89322,37.7187 C4.58748,37.7943 0.327545,41.9155 0.326248,46.9742 L0.326248,407.532 L1.52588e-05,409.124 L0.326248,409.184 L0.326248,453.581 C0.326782,458.694 4.67429,462.839 10.0374,462.839 L498.206,462.839 C498.206,394.468 498.206,198.559 498.206,171.601 L498.1,101.839 C498.074,84.7871 483.688,69.6407 464.576,68.535 C464.385,68.5239 464.194,68.5182 464.002,68.518 L176.753,68.1564 C176.724,68.0948 176.637,67.9836 176.159,67.4379 C175.045,66.1665 173.389,63.3891 171.652,60.0726 C169.915,56.7562 168.05,52.9215 165.398,49.1657 C162.745,45.4098 159.048,41.312 153.067,39.3942 C148.55,37.9464 146.468,38.2523 141.785,38.0008 C137.102,37.7493 131.149,37.5723 124.3,37.4439 C110.603,37.1871 93.3652,37.1331 76.4271,37.1739 M76.4751,55.6896 C93.3363,55.649 110.489,55.7054 123.918,55.9573 C130.633,56.0831 136.427,56.2585 140.692,56.4877 C143.597,56.6436 146.255,57.0887 147.076,57.1579 C147.174,57.2249 147.939,57.5987 149.286,59.506 C150.755,61.5868 152.43,64.823 154.273,68.3421 C156.116,71.8611 158.079,75.6833 161.25,79.3045 C164.422,82.9256 169.849,86.6639 176.429,86.6721 L463.494,87.0338 C471.68,87.567 478.668,95.6418 478.678,101.866 L478.784,165.272 C290.16,165.179 37.6402,165.272 19.7486,165.272 L19.7486,56.1549 C27.233,56.0561 47.6194,55.7592 76.4751,55.6896 M477.843,209.553 C477.843,292.757 477.843,369.44 477.843,444.322 L19.7486,444.322 L19.7486,409.328 L19.7486,209.449 C123.918,209.449 446.328,209.553 477.843,209.553 Z" style="stroke:none;fill-rule:evenodd;fill:#000000;fill-opacity:1;"/>
        </g>
    </g>
</svg>
