<?xml version="1.0"?>
<svg version="1.1" xmlns="http://www.w3.org/2000/svg" xmlns:xlink="http://www.w3.org/1999/xlink" width="500" height="500">
    <desc iVinci="yes" version="4.6" gridStep="20" showGrid="no" snapToGrid="no" codePlatform="0"/>
    <g id="Layer1" name="Layer 1" opacity="1">
        <g id="Shape1">
            <desc shapeID="1" type="0" basicInfo-basicType="0" basicInfo-roundedRectRadius="12" basicInfo-polygonSides="6" basicInfo-starPoints="5" bounding="rect(-24.1257,-39.2026,48.2514,78.4053)" text="" font-familyName="" font-pixelSize="20" font-bold="0" font-underline="0" font-alignment="1" strokeStyle="0" markerStart="0" markerEnd="0" shadowEnabled="0" shadowOffsetX="0" shadowOffsetY="2" shadowBlur="4" shadowOpacity="160" blurEnabled="0" blurRadius="4" transform="matrix(5.80733,0,0,5.80733,159.462,245.942)" pers-center="0,0" pers-size="0,0" pers-start="0,0" pers-end="0,0" locked="0" mesh="" flag=""/>
            <path id="shapePath1" d="M281.93,468.837 C255.216,470.579 230.825,472.902 206.435,473.483 C161.718,474.063 116.421,472.902 72.8659,462.449 C61.2513,459.545 49.6366,454.899 38.6027,449.672 C25.8265,443.285 18.8578,432.831 20.0192,417.732 C20.0192,415.409 20.5999,413.667 20.0192,411.344 C15.3734,375.339 35.699,353.852 63.5742,337.01 C85.6421,323.653 109.452,314.942 134.424,309.716 C143.715,307.974 150.684,302.747 154.749,294.036 C158.234,286.487 158.234,279.518 153.007,271.968 C147.78,264.999 143.715,257.45 140.231,249.32 C134.424,238.286 130.939,227.252 121.647,217.379 C109.452,204.603 105.968,185.439 110.614,167.436 C112.936,159.306 112.356,153.499 110.614,145.949 C103.645,111.105 110.614,78.5842 130.358,49.5476 C151.846,18.1878 195.981,8.89624 227.341,28.641 C236.633,35.0292 245.344,38.5135 256.958,39.0941 C273.219,40.2556 282.511,51.8703 288.899,65.808 C298.19,86.1337 299.352,107.621 298.771,129.108 C298.771,137.819 296.448,146.53 295.867,154.66 C295.867,156.402 295.287,158.725 295.867,160.467 C303.417,182.535 299.352,202.861 284.253,220.864 C279.607,226.671 276.703,233.059 273.219,239.447 C269.154,247.577 265.089,256.288 261.023,264.419 C249.409,285.906 238.956,308.554 233.729,332.945 C222.695,382.888 237.794,425.282 274.38,460.707 C276.123,463.029 277.865,464.772 281.93,468.837 Z" style="stroke:none;fill-rule:nonzero;fill:#000000;fill-opacity:1;"/>
        </g>
        <g id="Shape2">
            <desc shapeID="2" type="0" basicInfo-basicType="0" basicInfo-roundedRectRadius="12" basicInfo-polygonSides="6" basicInfo-starPoints="5" bounding="rect(-19.15,-19.15,38.3,38.3)" text="" font-familyName="" font-pixelSize="20" font-bold="0" font-underline="0" font-alignment="1" strokeStyle="0" markerStart="0" markerEnd="0" shadowEnabled="0" shadowOffsetX="0" shadowOffsetY="2" shadowBlur="4" shadowOpacity="160" blurEnabled="0" blurRadius="4" transform="matrix(5.80733,0,0,5.80733,362.942,362.272)" pers-center="0,0" pers-size="0,0" pers-start="0,0" pers-end="0,0" locked="0" mesh="" flag=""/>
            <path id="shapePath2" d="M474.153,362.563 C474.153,424.701 424.21,473.483 362.071,473.483 C301.094,473.483 251.732,422.959 251.732,361.401 C251.732,300.424 302.256,251.062 363.233,251.062 C424.21,251.062 474.153,301.005 474.153,362.563 M349.876,381.146 C345.23,375.339 341.165,370.693 337.1,366.047 C327.227,355.594 322.581,355.594 313.289,364.305 C302.256,375.339 302.256,378.823 312.709,389.276 C321.42,397.987 330.711,407.279 339.422,415.99 C351.618,428.185 359.167,427.605 369.04,413.667 C387.043,387.534 405.045,360.82 423.048,334.107 C430.598,323.073 429.436,319.008 418.983,312.039 C406.207,303.328 402.722,303.909 393.431,317.265 C378.912,338.172 364.975,358.497 349.876,381.146 Z" style="stroke:none;fill-rule:nonzero;fill:#000000;fill-opacity:1;"/>
        </g>
    </g>
</svg>
