<?xml version="1.0"?>
<svg version="1.1" xmlns="http://www.w3.org/2000/svg" xmlns:xlink="http://www.w3.org/1999/xlink" width="500" height="500">
    <desc iVinci="yes" version="4.6" gridStep="20" showGrid="no" snapToGrid="no" codePlatform="0"/>
    <g id="Layer1" name="Layer 1" opacity="1">
        <g id="Shape1">
            <desc shapeID="1" type="0" basicInfo-basicType="0" basicInfo-roundedRectRadius="12" basicInfo-polygonSides="6" basicInfo-starPoints="5" bounding="rect(-40.4962,-39.4999,80.9924,78.9999)" text="" font-familyName="" font-pixelSize="20" font-bold="0" font-underline="0" font-alignment="1" strokeStyle="0" markerStart="0" markerEnd="0" shadowEnabled="0" shadowOffsetX="0" shadowOffsetY="2" shadowBlur="4" shadowOpacity="160" blurEnabled="0" blurRadius="4" transform="matrix(6.15044,0,0,6.15044,250.93,250)" pers-center="0,0" pers-size="0,0" pers-start="0,0" pers-end="0,0" locked="0" mesh="" flag=""/>
            <path id="shapePath1" d="M89.7461,40.2013 C90.3612,40.2013 90.3612,40.8166 90.9762,40.8166 C90.3612,40.2013 89.7461,39.5864 89.7461,40.2013 M398.499,417.224 C401.574,379.091 380.662,353.874 349.91,339.113 C325.923,327.427 302.552,316.356 276.105,310.821 C266.264,308.976 258.883,303.441 254.578,294.83 C252.733,290.525 249.043,286.834 248.428,283.144 C248.428,281.914 248.428,281.299 249.043,280.069 C250.273,276.993 252.118,273.918 253.348,271.458 C258.268,264.693 262.574,256.697 266.264,248.702 C271.799,237.016 276.105,225.33 285.945,214.874 C298.861,201.343 302.552,181.662 297.631,163.21 C297.631,162.595 296.401,161.98 295.171,161.365 C294.556,159.52 293.941,157.675 293.326,155.83 C292.711,153.985 292.711,151.525 293.326,149.68 C294.556,140.454 296.401,131.843 296.401,122.617 C297.016,99.8607 295.786,77.7193 286.56,56.8076 C279.795,42.0467 269.954,30.3608 253.348,29.1306 C241.662,28.5157 232.436,24.8252 222.596,18.0599 C189.998,-2.85179 142.025,6.98914 119.883,39.5864 C116.193,45.122 113.118,50.0423 110.658,55.5774 C109.428,58.0378 108.197,60.4981 107.582,62.958 C97.7417,86.9449 95.8966,112.777 101.432,139.839 C103.277,147.834 103.277,153.985 101.432,162.595 C98.9718,171.206 98.9718,179.817 100.202,187.812 C102.047,197.653 106.352,206.879 113.118,214.259 C118.653,220.41 122.343,226.56 125.419,233.325 C127.879,238.246 129.724,243.166 132.184,248.087 C135.874,256.082 140.18,263.463 145.1,270.843 C146.33,273.303 147.56,275.764 148.79,278.224 C148.79,278.839 149.405,278.839 149.405,279.454 C150.02,281.914 150.02,284.374 150.02,286.834 C149.405,289.294 147.56,291.755 146.33,294.215 C142.025,302.825 134.644,308.361 124.804,310.206 C118.038,311.436 111.273,313.281 104.507,315.742 C88.516,320.662 73.7549,326.812 58.9939,334.808 C56.5337,336.038 53.4585,337.268 50.9983,338.498 C20.2461,353.259 -0.0503998,378.476 2.40979,416.609 C2.40979,418.454 0.564652,469.503 3.63988,471.963 C3.63988,471.963 4.86998,472.578 5.48502,472.578 C6.10004,472.578 7.33014,472.578 7.94519,472.578 L3.02483,473.808 C3.02483,473.808 161.091,516.861 396.038,473.808 C397.268,473.808 396.038,473.193 394.193,471.963 C395.423,471.963 396.038,471.348 396.038,471.348 C400.344,470.118 398.499,419.684 398.499,417.224 M499.981,420.914 C500.596,395.082 486.45,372.325 462.463,357.565 C444.012,346.494 423.715,339.113 402.189,334.193 C394.193,332.348 388.043,328.042 384.967,320.662 C383.122,316.356 382.507,312.666 383.122,308.361 C384.352,305.901 385.583,303.441 386.813,300.98 C391.118,295.445 394.193,288.679 397.268,282.529 C402.189,273.303 405.264,263.463 413.26,255.467 C423.715,244.396 426.79,228.405 422.485,213.029 C422.485,212.414 421.87,212.414 420.64,211.799 C420.025,210.569 420.025,208.724 419.41,207.494 C418.795,205.648 418.795,203.803 419.41,202.573 C420.025,195.193 421.87,187.812 421.87,180.432 C422.485,161.98 421.255,143.529 413.875,126.923 C408.339,115.237 400.344,105.396 386.813,104.166 C376.972,103.551 369.591,100.476 361.596,95.5553 C351.14,88.79 339.454,86.3297 327.153,86.3297 C327.768,95.5553 328.383,105.396 327.768,114.622 C327.768,123.848 325.308,132.458 324.693,141.684 C324.693,143.529 324.078,145.989 324.693,147.834 C325.923,148.449 328.383,160.135 328.383,160.75 C333.304,179.202 332.689,194.578 319.773,208.109 C309.932,218.564 307.472,230.25 301.321,241.936 C297.631,249.932 289.636,256.082 284.715,262.848 C283.485,265.923 281.64,268.383 280.41,271.458 C280.41,272.073 279.795,272.073 279.795,272.688 C277.95,276.993 276.105,280.684 278.565,285.604 C282.87,294.215 296.401,294.83 306.242,297.905 C332.689,306.516 352.985,314.511 375.742,328.657 C404.649,346.494 420.025,378.476 420.025,408.613 C420.025,411.073 420.025,427.679 420.025,429.525 C419.41,444.286 418.795,469.503 418.795,469.503 C428.636,468.887 438.476,467.042 454.468,463.352 C464.308,460.892 474.149,457.202 483.375,452.896 C494.445,447.361 499.981,438.75 499.366,427.679 C499.981,426.45 499.981,423.374 499.981,420.914 Z" style="stroke:none;fill-rule:nonzero;fill:#000000;fill-opacity:1;"/>
        </g>
    </g>
</svg>
