<?xml version="1.0"?>
<svg version="1.1" xmlns="http://www.w3.org/2000/svg" xmlns:xlink="http://www.w3.org/1999/xlink" width="500" height="500">
    <desc iVinci="yes" version="4.6" gridStep="20" showGrid="no" snapToGrid="no" codePlatform="0"/>
    <g id="Layer1" name="Layer 1" opacity="1">
        <g id="Shape1">
            <desc shapeID="1" type="0" basicInfo-basicType="0" basicInfo-roundedRectRadius="12" basicInfo-polygonSides="6" basicInfo-starPoints="5" bounding="rect(-37.9502,-37.9505,75.9004,75.901)" text="" font-familyName="" font-pixelSize="20" font-bold="0" font-underline="0" font-alignment="1" strokeStyle="0" markerStart="0" markerEnd="0" shadowEnabled="0" shadowOffsetX="0" shadowOffsetY="2" shadowBlur="4" shadowOpacity="160" blurEnabled="0" blurRadius="4" transform="matrix(6.58756,0,0,6.58756,249.999,250.001)" pers-center="0,0" pers-size="0,0" pers-start="0,0" pers-end="0,0" locked="0" mesh="" flag=""/>
            <path id="shapePath1" d="M250.331,0.00224304 C113.309,-0.656387 0.662582,111.332 0.00350952,247.694 C-0.654999,386.692 110.016,499.34 247.696,499.998 C388.011,500.657 499.999,389.986 499.999,250.329 C499.999,112.65 388.669,0.661209 250.331,0.00224304 M319.5,343.214 C314.889,351.778 310.936,360.341 305.007,367.588 C290.516,385.375 274.047,400.526 253.625,411.725 C232.544,423.582 210.147,428.853 186.431,423.582 C173.915,420.947 166.01,408.431 165.352,395.915 C164.693,374.176 173.256,355.072 180.503,335.309 C195.654,295.784 211.464,256.917 226.616,218.051 C227.933,214.098 226.616,208.169 225.957,203.558 C221.346,204.216 216.734,204.216 212.781,206.193 C199.607,212.781 190.384,223.321 181.162,235.178 C177.209,240.448 172.597,244.401 167.327,248.353 C166.01,249.67 162.716,249.012 161.399,248.353 C160.081,247.036 158.764,243.742 159.423,241.766 C164.034,226.614 174.573,216.075 185.772,205.534 C198.289,193.676 211.464,183.796 227.274,177.207 C241.767,170.62 256.918,167.985 275.364,167.985 C284.586,167.327 295.785,168.644 304.349,177.207 C312.253,185.113 313.572,194.995 312.912,204.216 C310.278,225.297 301.713,245.06 293.15,264.163 C282.61,287.878 273.387,312.253 264.165,336.626 C260.871,345.191 257.578,353.754 254.283,362.318 C254.283,362.977 253.625,363.635 253.625,364.294 C254.283,368.906 253.625,374.834 256.259,378.129 C260.212,382.08 265.482,378.787 269.435,376.152 C280.634,368.906 288.539,358.365 296.443,347.825 C299.737,343.214 304.349,339.262 308.96,335.309 C310.936,333.992 315.548,333.333 316.865,334.651 C319.5,337.285 320.818,341.238 319.5,343.214 M321.476,143.611 C314.23,146.905 306.325,148.222 298.42,150.858 C281.293,149.54 266.8,142.952 260.871,126.483 C251.648,102.11 264.824,77.7357 290.516,70.4892 C306.984,65.8778 323.453,67.1954 335.969,81.0295 C355.073,102.11 343.874,132.412 321.476,143.611 Z" style="stroke:none;fill-rule:evenodd;fill:#000000;fill-opacity:1;"/>
        </g>
    </g>
</svg>
