<?xml version="1.0"?>
<svg version="1.1" xmlns="http://www.w3.org/2000/svg" xmlns:xlink="http://www.w3.org/1999/xlink" width="500" height="500">
    <desc iVinci="yes" version="4.6" gridStep="20" showGrid="no" snapToGrid="no" codePlatform="0"/>
    <g id="Layer1" name="Layer 1" opacity="1">
        <g id="Shape1">
            <desc shapeID="1" type="0" basicInfo-basicType="0" basicInfo-roundedRectRadius="12" basicInfo-polygonSides="6" basicInfo-starPoints="5" bounding="rect(-17.3501,-23.4,34.7002,46.8001)" text="" font-familyName="" font-pixelSize="20" font-bold="0" font-underline="0" font-alignment="1" strokeStyle="0" markerStart="0" markerEnd="0" shadowEnabled="0" shadowOffsetX="0" shadowOffsetY="2" shadowBlur="4" shadowOpacity="160" blurEnabled="0" blurRadius="4" transform="matrix(-10.7208,-0.0111835,0.0111835,-10.7208,249.87,249.877)" pers-center="0,0" pers-size="0,0" pers-start="0,0" pers-end="0,0" locked="0" mesh="" flag=""/>
            <path id="shapePath1" d="M63.862,250.753 C68.1466,253.975 75.6427,262.56 87.4233,274.363 C128.115,319.436 168.811,361.288 208.435,402.069 C228.783,423.532 248.06,443.921 264.123,461.092 C275.902,473.969 288.753,487.919 299.46,500.795 C300.531,500.796 301.604,500.797 301.604,500.797 C350.92,500.849 384.154,500.883 431.326,500.933 C432.398,500.934 434.542,500.936 435.615,500.937 C419.55,484.839 403.487,467.668 387.423,451.57 C377.785,440.839 367.075,430.107 357.437,419.376 C303.892,362.502 249.277,303.481 195.728,250.891 C195.728,250.891 195.729,249.821 194.657,249.82 C194.657,249.82 194.658,248.747 195.73,248.748 C249.39,195.2 304.128,136.292 357.791,80.6001 C367.451,69.8902 378.183,59.1803 387.843,48.4694 C403.942,31.3322 420.04,15.267 436.138,-0.797226 C435.066,-0.79834 432.921,-0.800583 431.849,-0.801697 C384.678,-0.850906 350.372,-0.886688 302.128,-0.937012 C301.055,-0.938141 299.984,-0.939255 299.984,-0.939255 C288.175,12.9864 276.37,25.8381 264.563,38.6908 C248.464,55.828 229.145,76.1758 208.753,97.5966 C169.043,138.295 128.261,180.065 87.4748,225.049 C76.7415,236.83 68.1555,245.398 63.8642,248.61 C63.8642,248.61 64.9351,249.685 64.9351,249.685 C64.9351,249.685 64.934,250.755 63.862,250.753 Z" style="stroke:none;fill-rule:evenodd;fill:#000000;fill-opacity:1;"/>
        </g>
    </g>
</svg>
