<?xml version="1.0"?>
<svg version="1.1" xmlns="http://www.w3.org/2000/svg" xmlns:xlink="http://www.w3.org/1999/xlink" width="500" height="500">
    <desc iVinci="yes" version="4.6" gridStep="20" showGrid="no" snapToGrid="no" codePlatform="0"/>
    <g id="Layer1" name="Layer 1" opacity="1">
        <g id="Shape1">
            <desc shapeID="1" type="0" basicInfo-basicType="0" basicInfo-roundedRectRadius="12" basicInfo-polygonSides="6" basicInfo-starPoints="5" bounding="rect(-24.1257,-39.2026,48.2514,78.4053)" text="" font-familyName="" font-pixelSize="20" font-bold="0" font-underline="0" font-alignment="1" strokeStyle="0" markerStart="0" markerEnd="0" shadowEnabled="0" shadowOffsetX="0" shadowOffsetY="2" shadowBlur="4" shadowOpacity="160" blurEnabled="0" blurRadius="4" transform="matrix(6.36049,0,0,6.36049,153.451,249.348)" pers-center="0,0" pers-size="0,0" pers-start="0,0" pers-end="0,0" locked="0" mesh="" flag=""/>
            <path id="shapePath1" d="M287.585,493.474 C258.326,495.383 231.612,497.927 204.898,498.563 C155.922,499.199 106.31,497.927 58.6068,486.478 C45.8858,483.298 33.1648,478.209 21.0798,472.485 C7.08676,465.488 -0.545807,454.04 0.726273,437.502 C0.726273,434.958 1.36235,433.05 0.726273,430.506 C-4.36215,391.071 17.8996,367.537 48.43,349.091 C72.5998,334.462 98.6778,324.921 126.028,319.197 C136.205,317.289 143.837,311.564 148.29,302.024 C152.106,293.755 152.106,286.122 146.382,277.854 C140.657,270.221 136.205,261.953 132.389,253.048 C126.028,240.963 122.212,228.878 112.035,218.065 C98.6778,204.072 94.8615,183.082 99.95,163.365 C102.494,154.46 101.858,148.1 99.95,139.831 C92.3173,101.668 99.95,66.0495 121.576,34.247 C145.11,-0.0997925 193.449,-10.2764 227.796,11.349 C237.973,18.3458 247.513,22.1619 260.234,22.7978 C278.044,24.07 288.221,36.791 295.217,52.0563 C305.394,74.3181 306.666,97.852 306.03,121.385 C306.03,130.926 303.486,140.467 302.85,149.372 C302.85,151.28 302.214,153.824 302.85,155.732 C311.118,179.902 306.666,202.164 290.129,221.882 C285.04,228.242 281.86,235.238 278.044,242.235 C273.591,251.14 269.139,260.68 264.687,269.585 C251.966,293.119 240.517,317.925 234.792,344.639 C222.707,399.339 239.245,445.771 279.316,484.57 C280.588,487.114 283.132,489.022 287.585,493.474 Z" style="stroke:none;fill-rule:nonzero;fill:#000000;fill-opacity:1;"/>
        </g>
        <g id="Shape2">
            <desc shapeID="2" type="0" basicInfo-basicType="0" basicInfo-roundedRectRadius="12" basicInfo-polygonSides="6" basicInfo-starPoints="5" bounding="rect(-19.15,-19.15,38.3,38.3)" text="" font-familyName="" font-pixelSize="20" font-bold="0" font-underline="0" font-alignment="1" strokeStyle="0" markerStart="0" markerEnd="0" shadowEnabled="0" shadowOffsetX="0" shadowOffsetY="2" shadowBlur="4" shadowOpacity="160" blurEnabled="0" blurRadius="4" transform="matrix(6.36049,0,0,6.36049,379.494,374.851)" pers-center="0,0" pers-size="0,0" pers-start="0,0" pers-end="0,0" locked="0" mesh="" flag=""/>
            <path id="shapePath2" d="M379.812,253.048 C313.026,253.048 258.326,307.112 257.69,373.897 C257.69,441.954 311.118,496.655 378.539,496.655 C446.597,496.655 501.297,443.227 501.297,375.169 C501.297,307.748 447.233,253.684 379.812,253.048 M433.24,397.431 C423.699,398.703 414.794,398.703 403.345,399.339 C403.345,404.427 403.345,409.516 403.345,413.968 C403.345,436.866 396.985,447.679 382.992,447.043 C368.999,446.407 363.274,436.23 363.274,413.332 C363.274,408.88 363.274,404.427 363.274,399.339 C352.461,398.703 342.285,398.067 332.108,397.431 C320.023,396.159 314.298,388.526 314.935,377.077 C315.571,365.629 322.567,359.268 334.016,358.632 C342.921,358.632 351.826,358.632 363.274,358.632 C363.274,347.819 362.638,339.551 363.274,331.282 C363.91,317.925 371.543,310.292 382.992,310.292 C395.077,310.292 403.345,317.925 403.345,331.918 C403.981,340.187 403.345,349.091 403.345,359.268 C413.522,359.268 422.427,359.268 431.332,359.268 C443.417,359.268 451.685,366.901 452.321,377.714 C452.957,387.89 445.961,396.159 433.24,397.431 Z" style="stroke:none;fill-rule:nonzero;fill:#000000;fill-opacity:1;"/>
        </g>
    </g>
</svg>
