<?xml version="1.0"?>
<svg version="1.1" xmlns="http://www.w3.org/2000/svg" xmlns:xlink="http://www.w3.org/1999/xlink" width="500" height="500">
    <desc iVinci="yes" version="4.6" gridStep="20" showGrid="no" snapToGrid="no" codePlatform="0"/>
    <g id="Layer1" name="Layer 1" opacity="1">
        <g id="Shape1">
            <desc shapeID="1" type="0" basicInfo-basicType="0" basicInfo-roundedRectRadius="12" basicInfo-polygonSides="6" basicInfo-starPoints="5" bounding="rect(-10.8366,-9.8441,21.6732,19.6881)" text="" font-familyName="" font-pixelSize="20" font-bold="0" font-underline="0" font-alignment="1" strokeStyle="0" markerStart="0" markerEnd="0" shadowEnabled="0" shadowOffsetX="0" shadowOffsetY="2" shadowBlur="4" shadowOpacity="160" blurEnabled="0" blurRadius="4" transform="matrix(11.9019,0,0,11.9019,305.621,304.455)" pers-center="0,0" pers-size="0,0" pers-start="0,0" pers-end="0,0" locked="0" mesh="" flag=""/>
            <path id="shapePath1" d="M434.196,389.921 C434.196,378.019 434.196,401.823 434.196,389.921 C434.196,361.356 434.196,298.277 434.196,269.712 C434.196,248.288 434.196,228.055 434.196,206.631 C434.196,199.491 434.196,191.16 425.865,188.779 C416.343,186.399 366.355,187.589 356.834,187.589 C343.742,187.589 369.926,187.589 356.834,187.589 C344.932,187.589 340.171,192.35 336.601,203.062 C333.03,214.964 330.65,228.055 327.079,239.957 C323.509,253.049 319.938,266.141 316.367,280.424 C312.797,292.326 311.607,307.797 304.466,318.509 C298.515,310.179 297.324,297.087 294.944,287.565 C291.373,275.663 288.993,264.951 285.422,253.049 C283.042,242.337 279.471,231.626 277.091,220.914 C274.711,212.582 274.711,199.491 267.57,193.54 C261.619,187.589 258.048,187.589 250.907,187.589 C237.815,187.589 209.25,187.589 209.25,187.589 C196.158,187.589 187.827,186.399 180.686,192.35 C174.735,197.111 177.115,210.203 177.115,217.343 C177.115,267.332 177.115,317.32 177.115,368.498 C177.115,380.4 177.115,392.302 177.115,404.204 C177.115,411.345 179.496,419.676 185.447,420.866 C193.778,422.057 215.201,420.866 222.342,420.866 C228.293,420.866 228.293,419.676 230.674,417.296 C235.435,412.535 235.435,388.731 235.435,379.209 C235.435,354.215 235.435,330.411 235.435,305.418 C235.435,293.516 235.435,282.804 235.435,270.902 C235.435,268.522 234.244,255.43 237.815,256.62 C239.005,256.62 242.576,272.092 242.576,273.283 C248.527,297.087 254.478,320.891 260.428,344.695 C265.189,364.927 268.76,387.541 278.281,407.774 C285.422,423.247 306.846,423.247 321.128,419.676 C338.981,416.106 340.171,392.302 343.742,378.019 C349.693,354.215 355.644,330.411 361.595,306.608 C365.165,293.516 367.546,280.424 372.306,267.332 C373.496,263.761 374.709,254.655 379.447,259 C381.648,263.565 379.447,328.162 379.447,362.547 C379.447,375.639 379.447,388.731 379.447,400.633 C379.447,405.394 379.447,412.535 383.018,416.106 C387.779,420.866 394.92,420.866 400.871,420.866 C412.382,420.866 417.959,420.866 424.377,420.866 C433.007,418.588 435.719,409.305 434.196,389.921 Z" style="stroke:#000000;stroke-opacity:1;stroke-width:1;stroke-linejoin:miter;stroke-miterlimit:2;stroke-linecap:butt;fill-rule:evenodd;fill:#000000;fill-opacity:1;"/>
        </g>
    </g>
</svg>
