<?xml version="1.0"?>
<svg version="1.1" xmlns="http://www.w3.org/2000/svg" xmlns:xlink="http://www.w3.org/1999/xlink" width="500" height="500">
    <desc iVinci="yes" version="4.6" gridStep="20" showGrid="no" snapToGrid="no" codePlatform="0"/>
    <g id="Layer1" name="Layer 1" opacity="1">
        <g id="Shape1">
            <desc shapeID="1" type="0" basicInfo-basicType="0" basicInfo-roundedRectRadius="12" basicInfo-polygonSides="6" basicInfo-starPoints="5" bounding="rect(-19.0875,-26.1855,38.175,52.3709)" text="" font-familyName="" font-pixelSize="20" font-bold="0" font-underline="0" font-alignment="1" strokeStyle="0" markerStart="0" markerEnd="0" shadowEnabled="0" shadowOffsetX="0" shadowOffsetY="2" shadowBlur="4" shadowOpacity="160" blurEnabled="0" blurRadius="4" transform="matrix(9.56098,0,0,9.56099,250,250.359)" pers-center="0,0" pers-size="0,0" pers-start="0,0" pers-end="0,0" locked="0" mesh="" flag=""/>
            <path id="shapePath1" d="M373.456,180.424 C380.149,180.424 383.973,180.424 387.798,181.38 C413.612,183.292 431.778,201.458 431.778,227.273 C432.734,302.804 432.734,378.336 431.778,453.868 C431.778,481.596 411.7,500.717 383.973,500.717 C294.1,500.717 204.227,500.717 115.31,500.717 C85.6706,500.717 67.5048,481.596 67.5048,451.957 C67.5048,383.117 67.5048,314.278 67.5048,245.438 C67.5048,197.633 77.0658,186.161 125.827,180.424 C125.827,162.258 125.827,144.092 125.827,125.926 C125.827,94.3753 135.388,66.6482 156.422,42.7457 C189.885,3.5459 244.383,-9.83972 293.144,7.37053 C339.993,24.5796 372.5,69.517 373.456,120.19 C373.456,139.312 373.456,158.434 373.456,180.424 M327.564,180.424 C327.564,161.302 327.564,144.092 327.564,126.883 C327.564,122.102 327.564,116.365 326.607,111.584 C319.915,72.3846 287.407,44.6575 247.251,44.6575 C209.007,44.6575 176.5,73.3404 171.719,112.541 C169.807,131.663 170.763,151.741 170.763,171.819 C170.763,174.688 175.544,180.424 178.412,180.424 C227.173,180.424 276.89,180.424 327.564,180.424 M280.715,418.493 C277.846,396.502 274.978,377.38 272.11,357.303 C270.198,348.697 272.11,342.005 279.759,335.312 C297.924,320.015 297.924,292.287 282.627,276.034 C266.373,257.868 239.603,255.956 221.437,272.21 C204.227,287.507 200.402,316.19 217.612,331.487 C230.998,342.961 229.085,354.434 227.173,367.819 C225.261,384.073 222.393,401.283 219.524,418.493 C239.603,418.493 258.724,418.493 280.715,418.493 Z" style="stroke:none;fill-rule:nonzero;fill:#1d98cd;fill-opacity:1;"/>
        </g>
    </g>
</svg>
