<?xml version="1.0"?>
<svg version="1.1" xmlns="http://www.w3.org/2000/svg" xmlns:xlink="http://www.w3.org/1999/xlink" width="500" height="500">
    <desc iVinci="yes" version="4.6" gridStep="20" showGrid="no" snapToGrid="no" codePlatform="0"/>
    <g id="Layer1" name="Layer 1" opacity="1">
        <g id="Shape1">
            <desc shapeID="1" type="0" basicInfo-basicType="0" basicInfo-roundedRectRadius="12" basicInfo-polygonSides="6" basicInfo-starPoints="5" bounding="rect(-10.8556,-9.79404,21.7111,19.5881)" text="" font-familyName="" font-pixelSize="20" font-bold="0" font-underline="0" font-alignment="1" strokeStyle="0" markerStart="0" markerEnd="0" shadowEnabled="0" shadowOffsetX="0" shadowOffsetY="2" shadowBlur="4" shadowOpacity="160" blurEnabled="0" blurRadius="4" transform="matrix(11.9019,0,0,11.9019,182.406,183.65)" pers-center="0,0" pers-size="0,0" pers-start="0,0" pers-end="0,0" locked="0" mesh="" flag=""/>
            <path id="shapePath1" d="M304.991,295.484 C311.731,292.009 311.607,278.043 311.607,270.902 C311.607,259 311.607,248.288 311.607,236.386 C311.607,207.823 311.607,179.258 311.607,149.503 C311.607,128.079 311.607,107.846 311.607,86.4224 C311.607,79.2816 311.607,70.9509 303.276,68.5696 C293.754,66.1898 253.288,67.3797 243.766,67.3797 C230.674,67.3797 243.766,67.3797 234.245,67.3797 C222.343,68.5696 217.582,72.1407 214.012,82.8528 C210.441,94.7546 208.061,107.846 204.49,119.748 C200.92,132.84 197.349,145.932 193.778,160.215 C190.208,172.117 189.018,187.589 181.877,198.301 C175.926,189.97 174.735,176.877 172.355,167.356 C168.784,155.454 166.404,144.742 162.833,132.84 C160.453,122.128 156.883,111.416 154.502,100.706 C152.122,92.3734 152.122,79.2816 144.981,73.3307 C139.03,67.3797 127.128,67.3797 118.796,67.3797 C105.704,67.3797 85.4711,67.3797 72.379,67.3797 C66.4281,67.3797 61.6674,66.1898 56.9066,70.9509 C52.1458,74.5205 53.336,88.8037 53.336,95.9445 C53.336,145.932 53.336,195.921 53.336,247.098 C53.336,259 53.336,270.902 53.336,282.804 C53.336,289.945 54.5262,295.896 61.6674,298.277 C67.6183,299.467 59.287,297.087 61.6674,298.277 C67.6183,300.657 99.7534,300.657 104.514,297.087 C111.655,293.516 109.275,267.332 109.275,257.81 C109.275,232.816 109.275,209.013 109.275,184.019 C109.275,172.117 109.275,161.405 109.275,149.503 C109.275,147.122 108.085,134.03 111.655,135.22 C112.846,135.22 116.416,150.693 116.416,151.883 C122.367,175.687 128.318,199.49 134.269,223.294 C139.03,243.528 142.6,266.141 152.122,286.375 C159.263,301.847 180.686,301.847 194.969,298.277 C212.821,294.706 214.012,270.902 217.582,256.62 C223.533,232.816 229.484,209.013 235.435,185.209 C239.006,172.117 241.386,159.024 246.147,145.932 C247.337,142.362 248.527,130.46 252.098,137.601 C254.478,142.362 252.098,153.073 252.098,157.834 C252.098,185.209 252.098,212.582 252.098,241.147 C252.098,254.239 252.098,267.332 252.098,279.234 C252.098,283.994 252.098,291.136 255.668,294.706 C260.429,299.467 269.951,298.277 275.902,298.277 C285.423,298.277 297.85,299.054 304.991,295.484 Z" style="stroke:#000000;stroke-opacity:1;stroke-width:1;stroke-linejoin:miter;stroke-miterlimit:2;stroke-linecap:butt;fill-rule:evenodd;fill:#000000;fill-opacity:1;"/>
        </g>
    </g>
</svg>
