<?xml version="1.0"?>
<svg version="1.1" xmlns="http://www.w3.org/2000/svg" xmlns:xlink="http://www.w3.org/1999/xlink" width="500" height="500">
    <desc iVinci="yes" version="4.6" gridStep="20" showGrid="no" snapToGrid="no" codePlatform="0"/>
    <g id="Layer1" name="Layer 1" opacity="1">
        <g id="Shape1">
            <desc shapeID="1" type="0" basicInfo-basicType="0" basicInfo-roundedRectRadius="12" basicInfo-polygonSides="6" basicInfo-starPoints="5" bounding="rect(-13.7319,-13.2319,27.4639,26.4638)" text="" font-familyName="" font-pixelSize="20" font-bold="0" font-underline="0" font-alignment="1" strokeStyle="0" markerStart="0" markerEnd="0" shadowEnabled="0" shadowOffsetX="0" shadowOffsetY="2" shadowBlur="4" shadowOpacity="160" blurEnabled="0" blurRadius="4" transform="matrix(14.5098,0,0,14.5098,199.248,300.06)" pers-center="0,0" pers-size="0,0" pers-start="0,0" pers-end="0,0" locked="0" mesh="" flag=""/>
            <path id="shapePath1" d="M266.456,108.068 C311.436,151.597 354.966,193.674 398.495,237.203 C397.044,238.656 394.142,241.557 391.24,244.458 C323.044,309.752 254.848,375.047 186.652,440.341 C182.299,444.694 176.495,447.596 172.142,449.048 C124.26,463.558 76.3777,476.615 28.4953,489.676 C19.7893,492.577 12.5344,494.026 5.27953,486.771 C-1.97537,480.969 -0.524307,472.261 2.37761,463.558 C16.8874,417.127 29.9464,370.693 44.4562,324.262 C45.907,319.909 48.8089,315.558 53.1619,311.205 C121.358,245.911 191.005,179.164 259.201,113.87 C260.652,110.969 263.554,109.516 266.456,108.068 M70.5736,441.793 C98.1424,434.538 125.711,425.831 156.182,417.127 C132.966,399.712 147.476,375.047 137.319,354.734 C121.358,353.282 105.397,351.833 87.9856,350.381 C83.6326,347.479 80.7307,344.578 74.9266,340.224 C66.2209,367.792 58.966,395.362 50.26,421.477 C58.966,428.732 64.7698,434.538 70.5736,441.793 Z" style="stroke:none;fill-rule:nonzero;fill:#000000;fill-opacity:1;"/>
        </g>
        <g id="Shape2">
            <desc shapeID="2" type="0" basicInfo-basicType="0" basicInfo-roundedRectRadius="12" basicInfo-polygonSides="6" basicInfo-starPoints="5" bounding="rect(-5.40646,-5.30005,10.8129,10.6001)" text="" font-familyName="" font-pixelSize="20" font-bold="0" font-underline="0" font-alignment="1" strokeStyle="0" markerStart="0" markerEnd="0" shadowEnabled="0" shadowOffsetX="0" shadowOffsetY="2" shadowBlur="4" shadowOpacity="160" blurEnabled="0" blurRadius="4" transform="matrix(14.5098,0,0,14.5098,421.805,84.8505)" pers-center="0,0" pers-size="0,0" pers-start="0,0" pers-end="0,0" locked="0" mesh="" flag=""/>
            <path id="shapePath2" d="M471.044,161.753 C427.515,119.676 385.437,79.048 343.358,36.9674 C356.417,25.3624 368.025,7.9478 389.789,7.9478 C402.848,7.9478 414.456,10.8526 423.162,21.0088 L487.005,83.4016 C504.417,100.813 504.417,125.479 488.456,144.342 C482.652,148.696 476.848,154.498 471.044,161.753 Z" style="stroke:none;fill-rule:nonzero;fill:#000000;fill-opacity:1;"/>
        </g>
        <g id="Shape3">
            <desc shapeID="3" type="0" basicInfo-basicType="0" basicInfo-roundedRectRadius="12" basicInfo-polygonSides="6" basicInfo-starPoints="5" bounding="rect(-5.5,-5.25,11,10.5)" text="" font-familyName="" font-pixelSize="20" font-bold="0" font-underline="0" font-alignment="1" strokeStyle="0" markerStart="0" markerEnd="0" shadowEnabled="0" shadowOffsetX="0" shadowOffsetY="2" shadowBlur="4" shadowOpacity="160" blurEnabled="0" blurRadius="4" transform="matrix(14.5098,0,0,14.5098,369.476,134.909)" pers-center="0,0" pers-size="0,0" pers-start="0,0" pers-end="0,0" locked="0" mesh="" flag=""/>
            <path id="shapePath3" d="M449.28,187.871 C440.574,196.575 431.868,203.83 423.162,211.085 C378.182,167.556 334.652,125.479 289.672,81.9492 C298.378,74.6943 307.083,65.987 315.789,58.7321 C360.77,100.813 404.299,144.342 449.28,187.871 Z" style="stroke:none;fill-rule:nonzero;fill:#000000;fill-opacity:1;"/>
        </g>
    </g>
</svg>
