<?xml version="1.0"?>
<svg version="1.1" xmlns="http://www.w3.org/2000/svg" xmlns:xlink="http://www.w3.org/1999/xlink" width="500" height="500">
    <desc iVinci="yes" version="4.6" gridStep="20" showGrid="no" snapToGrid="no" codePlatform="0"/>
    <g id="Layer1" name="Layer 1" opacity="1">
        <g id="Shape1">
            <desc shapeID="1" type="0" basicInfo-basicType="0" basicInfo-roundedRectRadius="12" basicInfo-polygonSides="6" basicInfo-starPoints="5" bounding="rect(-20,-20.1,40,40.2)" text="" font-familyName="" font-pixelSize="20" font-bold="0" font-underline="0" font-alignment="1" strokeStyle="0" markerStart="0" markerEnd="0" shadowEnabled="0" shadowOffsetX="0" shadowOffsetY="2" shadowBlur="4" shadowOpacity="160" blurEnabled="0" blurRadius="4" transform="matrix(6.02024,0,0,6.02024,380.859,373.479)" pers-center="0,0" pers-size="0,0" pers-start="0,0" pers-end="0,0" locked="0" mesh="" flag=""/>
            <path id="shapePath1" d="M499.458,358.428 C495.846,335.551 486.816,315.684 472.367,298.226 C454.306,277.155 432.031,263.91 404.94,257.89 C400.124,256.686 394.706,254.88 389.288,254.278 C388.686,254.278 387.482,252.472 386.879,252.472 C382.666,252.472 377.849,252.472 373.635,252.472 C370.023,252.472 366.411,254.88 362.798,255.482 C339.922,259.094 320.055,268.727 302.596,283.175 C281.525,301.236 268.281,324.113 262.261,350.602 C261.057,355.418 261.057,361.438 260.454,366.254 C260.454,366.856 260.454,368.06 260.454,369.265 C260.454,373.479 260.454,378.295 260.454,382.509 C260.454,386.121 261.057,389.733 261.658,393.345 C265.271,416.222 273.699,436.089 288.75,453.548 C306.81,474.619 329.085,487.863 356.176,493.884 C360.992,495.088 366.411,493.884 371.829,494.486 C372.431,494.486 373.635,493.281 374.237,493.281 C378.451,493.281 383.267,493.281 387.482,493.281 C391.094,493.281 394.706,493.884 398.318,493.884 C421.195,490.271 441.062,482.445 458.52,467.394 C479.591,449.334 492.836,427.661 498.856,400.57 C500.06,395.754 500.06,390.335 500.662,385.519 C500.662,384.917 501.264,384.315 501.264,383.111 C501.264,378.897 501.264,374.081 501.264,369.867 C500.662,365.652 500.06,361.438 499.458,358.428 M463.337,380.703 C464.541,381.907 466.347,383.111 468.153,383.713 C469.959,384.315 471.765,384.315 474.173,384.315 C472.367,403.58 465.143,421.039 453.102,436.089 C435.041,457.762 410.96,467.996 388.686,469.803 C388.686,467.996 388.686,466.19 388.084,464.384 C387.482,460.17 384.472,457.16 380.257,457.16 C376.043,457.16 372.431,459.568 371.829,463.782 C371.227,465.588 371.227,467.996 371.227,469.803 C330.891,467.996 289.352,432.477 285.739,384.315 C287.545,384.315 289.352,384.315 291.158,383.713 C295.974,383.111 298.984,379.499 298.984,375.285 C298.984,371.071 295.372,367.458 290.556,367.458 C289.352,367.458 287.545,367.458 286.342,367.458 C288.75,324.715 325.473,284.981 371.829,281.971 C371.829,283.777 371.829,285.583 372.431,287.389 C373.033,291.603 376.043,294.614 380.257,294.614 C384.472,294.614 388.084,292.205 388.686,287.991 C389.288,286.185 389.288,283.777 389.288,281.369 C408.553,283.175 426.011,290.399 441.062,303.042 C460.929,319.899 471.765,340.969 474.775,366.856 C465.143,368.06 461.531,369.867 461.531,375.285 C461.531,377.091 462.132,379.499 463.337,380.703 Z" style="stroke:none;fill-rule:nonzero;fill:url(#linearGradientFill1);fill-opacity:1;"/><defs><linearGradient id="linearGradientFill1" gradientUnits="userSpaceOnUse" x1="380.257" y1="494.189" x2="380.257" y2="252.11"><stop offset="0" stop-color="#000000" stop-opacity="1"/><stop offset="1" stop-color="#000000" stop-opacity="1"/></linearGradient></defs>
        </g>
        <g id="Shape2">
            <desc shapeID="2" type="0" basicInfo-basicType="0" basicInfo-roundedRectRadius="12" basicInfo-polygonSides="6" basicInfo-starPoints="5" bounding="rect(-6.10797,-10.55,12.2159,21.1)" text="" font-familyName="" font-pixelSize="20" font-bold="0" font-underline="0" font-alignment="1" strokeStyle="0" markerStart="0" markerEnd="0" shadowEnabled="0" shadowOffsetX="0" shadowOffsetY="2" shadowBlur="4" shadowOpacity="160" blurEnabled="0" blurRadius="4" transform="matrix(6.02024,0,0,6.02024,399.14,368.361)" pers-center="0,0" pers-size="0,0" pers-start="0,0" pers-end="0,0" locked="0" mesh="" flag=""/>
            <path id="shapePath2" d="M398.92,377.693 C398.318,377.091 397.716,375.887 397.716,375.285 C397.114,369.264 394.706,365.05 389.89,361.438 C389.288,360.836 388.686,360.234 388.686,359.03 C388.686,354.816 388.084,350 388.084,345.786 C387.482,334.347 386.879,323.511 386.879,312.072 C386.879,307.858 383.869,304.848 380.257,304.848 C376.645,304.848 373.635,307.858 373.635,312.072 C373.033,327.123 371.829,342.173 371.227,357.826 C371.227,360.234 370.625,361.438 368.819,362.642 C362.798,367.458 360.992,374.683 363.401,381.907 C365.809,388.529 372.431,393.345 379.053,393.947 C380.257,393.947 382.063,394.549 383.267,395.754 C395.91,406.59 407.95,418.028 420.593,428.865 C422.399,430.069 424.205,430.671 425.409,431.875 C430.225,431.273 433.235,429.467 435.041,425.855 C436.848,422.845 435.644,419.835 433.235,416.824 C421.797,402.978 410.359,390.335 398.92,377.693 Z" style="stroke:none;fill-rule:nonzero;fill:url(#linearGradientFill2);fill-opacity:1;"/><defs><linearGradient id="linearGradientFill2" gradientUnits="userSpaceOnUse" x1="398.866" y1="430.66" x2="398.866" y2="304.616"><stop offset="0" stop-color="#000000" stop-opacity="1"/><stop offset="1" stop-color="#000000" stop-opacity="1"/></linearGradient></defs>
        </g>
        <g id="Shape3">
            <desc shapeID="3" type="0" basicInfo-basicType="0" basicInfo-roundedRectRadius="12" basicInfo-polygonSides="6" basicInfo-starPoints="5" bounding="rect(-25.7984,-41.4211,51.5969,82.8421)" text="" font-familyName="" font-pixelSize="20" font-bold="0" font-underline="0" font-alignment="1" strokeStyle="0" markerStart="0" markerEnd="0" shadowEnabled="0" shadowOffsetX="0" shadowOffsetY="2" shadowBlur="4" shadowOpacity="160" blurEnabled="0" blurRadius="4" transform="matrix(6.02024,0,0,6.02024,155.313,249.365)" pers-center="0,0" pers-size="0,0" pers-start="0,0" pers-end="0,0" locked="0" mesh="" flag=""/>
            <path id="shapePath3" d="M305.606,498.098 L303.198,497.496 C295.974,493.884 285.138,486.659 283.332,484.853 C242.996,446.324 226.139,399.968 238.782,345.184 C244.802,318.695 255.638,294.012 268.883,270.533 C273.699,261.502 277.311,252.472 282.127,243.441 C285.739,236.217 289.352,228.993 294.168,222.973 C310.423,203.106 314.637,181.433 306.81,156.75 C306.208,154.944 306.208,152.536 306.81,150.128 C308.014,140.495 309.82,131.465 310.423,121.833 C311.025,98.3537 309.82,74.8747 300.188,52.5999 C292.964,36.9472 282.729,24.3047 265.271,23.1007 C252.628,22.4986 243.598,18.2845 232.761,11.6622 C198.446,-10.6127 149.682,0.22374 126.203,33.9371 C104.53,65.8444 96.7041,101.364 104.53,139.291 C106.336,147.72 106.938,154.342 104.53,162.77 C99.112,182.035 103.326,203.106 116.571,216.952 C126.805,227.789 131.019,239.829 137.039,252.472 C141.254,260.9 145.468,269.329 150.886,277.155 C154.498,281.971 155.702,286.787 155.702,291.603 C155.1,293.41 153.896,295.216 152.692,297.022 C147.876,306.654 140.652,312.072 130.417,313.878 C103.326,319.899 78.6434,331.939 53.3583,343.98 C32.8893,353.612 20.8488,367.458 12.4207,386.723 C8.80835,393.948 6.40047,401.172 5.19635,410.202 C3.99222,415.018 3.39035,418.631 2.18622,424.651 C1.58398,428.865 -2.02802,486.057 1.58398,486.057 C1.58398,486.057 1.58398,487.863 1.58398,487.863 C1.58398,487.863 2.7881,489.067 3.99222,489.067 C100.918,499.904 230.353,499.302 282.729,498.098 C291.158,498.098 298.984,498.098 306.208,497.496 L305.606,498.098 C306.208,498.098 306.208,498.098 305.606,498.098 Z" style="stroke:none;fill-rule:nonzero;fill:url(#linearGradientFill3);fill-opacity:1;"/><defs><linearGradient id="linearGradientFill3" gradientUnits="userSpaceOnUse" x1="155.298" y1="499.326" x2="155.298" y2="0.615677"><stop offset="0" stop-color="#000000" stop-opacity="1"/><stop offset="1" stop-color="#000000" stop-opacity="1"/></linearGradient></defs>
        </g>
    </g>
</svg>
