<?xml version="1.0"?>
<svg version="1.1" xmlns="http://www.w3.org/2000/svg" xmlns:xlink="http://www.w3.org/1999/xlink" width="500" height="500">
    <desc iVinci="yes" version="4.6" gridStep="20" showGrid="no" snapToGrid="no" codePlatform="0"/>
    <g id="Layer1" name="Layer 1" opacity="1">
        <g id="Shape1">
            <desc shapeID="1" type="0" basicInfo-basicType="0" basicInfo-roundedRectRadius="12" basicInfo-polygonSides="6" basicInfo-starPoints="5" bounding="rect(-20.1527,-20.1759,40.3053,40.3518)" text="" font-familyName="" font-pixelSize="20" font-bold="0" font-underline="0" font-alignment="1" strokeStyle="0" markerStart="0" markerEnd="0" shadowEnabled="0" shadowOffsetX="0" shadowOffsetY="2" shadowBlur="4" shadowOpacity="160" blurEnabled="0" blurRadius="4" transform="matrix(5.94894,0,0,5.94894,380.911,363.496)" pers-center="0,0" pers-size="0,0" pers-start="0,0" pers-end="0,0" locked="0" mesh="" flag=""/>
            <path id="shapePath1" d="M443.13,347.115 C439.561,370.316 435.991,369.721 429.447,385.188 C426.473,392.922 426.473,398.871 434.207,398.871 C450.864,398.871 458.597,410.769 468.71,420.287 C477.039,428.616 485.962,436.349 493.696,445.273 C503.809,456.576 503.215,464.309 491.317,475.017 C480.608,485.726 473.47,486.32 462.761,476.802 C449.079,464.309 440.751,453.601 427.663,440.514 C411.601,423.857 419.929,417.908 416.36,413.148 C409.816,406.01 412.195,407.794 400.893,413.148 C380.666,422.667 360.44,428.616 337.834,425.046 C292.622,417.908 259.308,378.05 261.092,332.838 C262.877,284.056 300.355,246.578 349.732,243.604 C394.349,241.224 431.827,270.969 441.345,312.016 C441.345,312.016 443.725,322.13 443.725,326.294 C443.13,331.053 443.725,337.597 443.13,347.115 M427.068,334.622 C426.473,292.98 391.969,259.071 350.327,259.666 C308.684,260.261 275.37,294.764 275.965,337.002 C276.56,378.05 310.469,410.769 351.516,410.769 C393.754,410.769 427.663,376.265 427.068,334.622 Z" style="stroke:none;fill-rule:nonzero;fill:url(#linearGradientFill1);fill-opacity:1;"/><defs><linearGradient id="linearGradientFill1" gradientUnits="userSpaceOnUse" x1="380.068" y1="483.596" x2="380.068" y2="243.432"><stop offset="0" stop-color="#000000" stop-opacity="1"/><stop offset="1" stop-color="#000000" stop-opacity="1"/></linearGradient></defs>
        </g>
        <g id="Shape2">
            <desc shapeID="2" type="0" basicInfo-basicType="0" basicInfo-roundedRectRadius="12" basicInfo-polygonSides="6" basicInfo-starPoints="5" bounding="rect(-5.78326,-5.80069,11.5665,11.6014)" text="" font-familyName="" font-pixelSize="20" font-bold="0" font-underline="0" font-alignment="1" strokeStyle="0" markerStart="0" markerEnd="0" shadowEnabled="0" shadowOffsetX="0" shadowOffsetY="2" shadowBlur="4" shadowOpacity="160" blurEnabled="0" blurRadius="4" transform="matrix(5.94894,0,0,5.94894,329.605,354.258)" pers-center="0,0" pers-size="0,0" pers-start="0,0" pers-end="0,0" locked="0" mesh="" flag=""/>
            <path id="shapePath2" d="M347.947,388.758 C314.038,389.353 288.457,357.823 296.786,326.889 C297.381,324.509 299.165,322.13 300.355,319.75 C300.95,322.13 301.545,324.509 302.14,326.294 C305.71,341.761 312.848,356.039 325.936,365.557 C332.48,370.316 340.808,373.886 348.542,377.455 C353.301,379.834 358.655,382.214 364.009,384.594 C358.06,386.378 352.111,388.163 347.947,388.758 Z" style="stroke:none;fill-rule:nonzero;fill:url(#linearGradientFill2);fill-opacity:1;"/><defs><linearGradient id="linearGradientFill2" gradientUnits="userSpaceOnUse" x1="329.308" y1="389.043" x2="329.308" y2="320.049"><stop offset="0" stop-color="#000000" stop-opacity="1"/><stop offset="1" stop-color="#000000" stop-opacity="1"/></linearGradient></defs>
        </g>
        <g id="Shape3">
            <desc shapeID="3" type="0" basicInfo-basicType="0" basicInfo-roundedRectRadius="12" basicInfo-polygonSides="6" basicInfo-starPoints="5" bounding="rect(-35.3944,-40.0248,70.7888,80.0496)" text="" font-familyName="" font-pixelSize="20" font-bold="0" font-underline="0" font-alignment="1" strokeStyle="0" markerStart="0" markerEnd="0" shadowEnabled="0" shadowOffsetX="0" shadowOffsetY="2" shadowBlur="4" shadowOpacity="160" blurEnabled="0" blurRadius="4" transform="matrix(5.94894,0,0,5.94894,210.559,250)" pers-center="0,0" pers-size="0,0" pers-start="0,0" pers-end="0,0" locked="0" mesh="" flag=""/>
            <path id="shapePath3" d="M419.929,106.183 C419.334,84.7668 403.272,69.8944 381.856,69.2995 C364.009,69.2995 346.757,69.2995 328.91,69.2995 C325.936,69.2995 322.961,68.7046 319.392,68.7046 C319.392,53.8322 319.392,39.5548 319.392,25.8722 C319.392,18.1386 315.228,13.9743 308.089,12.1897 C300.95,10.9999 295.596,13.3795 292.622,19.9233 C291.432,22.8978 291.432,26.4671 291.432,29.4416 C291.432,42.5293 291.432,55.0221 291.432,68.7046 C236.702,68.7046 183.756,68.7046 129.026,68.7046 C129.026,54.4271 129.026,41.3395 129.026,28.2518 C129.026,18.1386 123.672,12.1897 115.343,12.1897 C106.42,12.1897 101.066,17.5437 100.471,28.2518 C100.471,38.365 100.471,48.4782 100.471,58.5914 C100.471,69.2995 100.471,69.2995 89.1678,69.2995 C72.5109,69.2995 55.2588,69.2995 38.6018,69.2995 C18.3756,69.2995 2.90817,81.7923 0.528824,102.019 C-0.661041,115.701 0.528824,129.979 0.528824,144.851 C4.09804,144.851 7.07251,144.851 10.6417,144.851 C143.303,144.851 275.965,144.851 408.626,144.851 C410.411,144.851 412.195,144.851 413.385,144.851 C418.144,145.446 419.929,143.661 419.929,138.902 C419.929,128.194 420.524,117.486 419.929,106.183 M143.303,115.106 C139.734,127.599 127.836,136.523 114.748,136.523 C101.661,136.523 90.3577,126.409 87.3832,113.322 C85.0035,102.019 89.763,90.1208 101.066,84.1718 C101.066,91.9055 101.066,99.0442 101.066,105.588 C101.066,116.296 106.42,121.65 115.938,121.055 C124.862,120.46 129.026,115.106 129.026,104.993 C129.026,97.8544 129.026,91.3106 129.026,83.577 C141.518,90.7157 146.278,102.614 143.303,115.106 M334.264,110.942 C331.885,125.814 319.392,136.523 305.114,135.928 C290.837,135.333 278.939,124.625 277.155,110.347 C275.965,99.0442 281.914,87.1463 291.432,84.7668 C291.432,91.3106 291.432,97.8544 291.432,104.398 C291.432,115.106 296.191,121.055 305.114,121.055 C314.633,121.055 319.392,115.701 319.392,104.993 C319.392,98.4493 319.392,92.5004 319.392,85.9565 C319.392,85.3617 319.987,84.7668 319.987,84.1718 C330.1,87.7412 336.644,100.234 334.264,110.942 M1.12357,244.793 C1.12357,312.016 1.12357,378.645 1.12357,445.868 C1.12357,472.638 16.5907,488.105 42.7662,488.105 C155.201,488.105 267.041,488.105 379.476,488.105 C405.057,488.105 411.006,483.346 416.955,474.423 C418.144,472.638 401.487,458.955 397.918,452.411 C395.538,453.601 402.082,450.627 391.374,453.601 C391.374,455.981 391.374,457.765 391.374,460.145 C382.451,460.145 373.527,460.145 365.199,460.145 C350.921,460.145 337.239,460.145 322.961,460.145 C319.392,460.145 315.823,460.145 315.823,454.791 C315.823,454.196 315.823,453.601 315.823,453.006 C309.279,450.627 303.33,448.247 297.381,445.273 C297.381,448.247 297.381,450.627 297.381,453.601 C297.381,457.171 297.381,460.145 292.027,460.145 C269.421,460.145 246.22,460.145 223.614,460.145 C223.019,460.145 221.829,459.55 220.64,458.955 C220.64,434.565 220.64,409.579 220.64,384.593 C227.183,384.593 233.727,384.593 240.271,384.593 C237.297,378.05 235.512,371.506 233.727,364.367 C229.563,364.367 225.399,364.367 220.64,364.367 C220.64,338.787 220.64,314.396 220.64,288.221 C227.183,288.221 233.132,288.221 239.081,288.221 C242.056,281.677 245.03,275.133 249.195,269.184 C239.676,269.184 230.753,269.184 221.234,269.184 C221.234,244.198 221.234,219.213 221.234,193.038 C246.815,193.038 271.206,193.038 296.786,193.038 C296.786,203.746 296.786,214.454 296.786,225.162 C302.735,222.187 309.279,219.213 315.823,216.833 C315.823,210.884 315.823,205.53 315.823,199.581 C315.823,196.012 315.823,192.443 321.177,192.443 C343.783,192.443 366.389,192.443 388.995,192.443 C389.589,192.443 390.779,193.038 391.969,193.632 C391.969,201.366 391.969,208.505 391.969,216.238 C402.082,219.213 412.195,223.972 421.119,229.921 C421.119,211.479 421.119,192.443 421.119,174.001 C421.119,171.026 421.119,168.052 421.119,164.483 C281.319,164.483 142.114,164.483 1.71832,164.483 C1.12357,191.848 1.12357,218.618 1.12357,244.793 M106.42,364.367 C80.2444,364.367 55.8539,364.367 30.8683,364.367 C30.8683,339.382 30.8683,314.396 30.8683,288.221 C42.1714,288.221 53.4742,288.221 64.7773,288.221 C76.6752,288.221 88.5731,288.221 100.471,288.221 C104.04,288.221 107.015,288.815 107.015,293.575 C105.825,316.776 106.42,339.976 106.42,364.367 M105.825,454.196 C105.825,456.576 102.85,460.145 101.066,460.145 C77.8651,460.74 54.0693,460.145 30.2735,460.145 C30.2735,434.565 30.2735,409.579 30.2735,384.593 C55.2588,384.593 80.2444,384.593 105.825,384.593 C105.825,397.681 105.825,410.174 105.825,422.667 C106.42,432.78 106.42,443.488 105.825,454.196 M200.413,460.145 C191.49,460.145 183.161,460.145 174.833,460.145 C159.96,460.145 145.683,460.145 131.406,460.145 C129.026,460.145 124.862,457.171 124.862,455.386 C124.267,432.185 124.862,408.984 124.862,384.593 C150.442,384.593 175.428,384.593 201.008,384.593 C200.413,409.579 200.413,433.97 200.413,460.145 M124.862,364.367 C124.862,338.787 124.862,314.396 124.862,289.41 C149.847,289.41 174.833,289.41 200.413,289.41 C200.413,314.396 200.413,338.787 200.413,364.367 C175.428,364.367 150.442,364.367 124.862,364.367 M124.862,211.479 C124.862,192.443 124.862,192.443 143.898,192.443 C159.96,192.443 176.023,192.443 192.084,192.443 C195.059,192.443 198.033,192.443 201.008,193.038 C201.008,218.618 201.008,243.604 201.008,269.184 C175.428,269.184 151.037,269.184 124.862,269.184 C124.862,249.552 124.862,230.516 124.862,211.479 M30.2735,192.443 C38.6018,192.443 46.9305,192.443 55.2588,192.443 C70.1312,192.443 84.4088,192.443 99.2811,192.443 C104.635,192.443 106.42,194.227 106.42,199.581 C106.42,220.998 106.42,241.819 105.825,263.235 C105.825,265.615 102.85,269.184 101.066,269.184 C78.4598,269.779 55.2588,269.184 32.6529,269.184 C32.0581,269.184 31.463,268.589 30.8683,267.994 C30.2735,243.604 30.2735,218.618 30.2735,192.443 Z" style="stroke:none;fill-rule:nonzero;fill:url(#linearGradientFill3);fill-opacity:1;"/><defs><linearGradient id="linearGradientFill3" gradientUnits="userSpaceOnUse" x1="210.595" y1="488.295" x2="210.595" y2="12.1736"><stop offset="0" stop-color="#000000" stop-opacity="1"/><stop offset="1" stop-color="#000000" stop-opacity="1"/></linearGradient></defs>
        </g>
    </g>
</svg>
