<?xml version="1.0"?>
<svg version="1.1" xmlns="http://www.w3.org/2000/svg" xmlns:xlink="http://www.w3.org/1999/xlink" width="500" height="500">
    <desc iVinci="yes" version="4.6" gridStep="20" showGrid="no" snapToGrid="no" codePlatform="0"/>
    <g id="Layer1" name="Layer 1" opacity="1">
        <g id="Shape1">
            <desc shapeID="1" type="0" basicInfo-basicType="0" basicInfo-roundedRectRadius="12" basicInfo-polygonSides="6" basicInfo-starPoints="5" bounding="rect(-46.7444,-36.1722,93.4889,72.3444)" text="" font-familyName="" font-pixelSize="20" font-bold="0" font-underline="0" font-alignment="1" strokeStyle="0" markerStart="0" markerEnd="0" shadowEnabled="0" shadowOffsetX="0" shadowOffsetY="2" shadowBlur="4" shadowOpacity="160" blurEnabled="0" blurRadius="4" transform="matrix(5.34213,0,0,5.34213,250.285,219.016)" pers-center="0,0" pers-size="0,0" pers-start="0,0" pers-end="0,0" locked="0" mesh="" flag=""/>
            <path id="shapePath1" d="M459.459,153.159 C450.378,143.009 441.83,134.462 435.42,128.051 C435.42,128.051 434.885,129.12 435.42,128.051 C436.488,125.38 435.954,127.517 435.42,128.051 C380.93,182.541 323.769,239.702 269.279,294.191 C263.937,299.533 263.937,299.533 259.129,302.739 C236.692,280.302 206.777,249.852 184.34,227.949 C123.439,288.849 63.0733,349.215 0.570404,412.252 C0.570404,393.021 0.570404,376.46 0.570404,356.694 C37.9653,317.697 76.9629,276.562 115.96,234.894 C136.795,212.457 170.45,173.993 190.216,151.557 C208.913,164.378 247.377,212.457 265.006,222.073 C308.277,178.801 350.48,136.599 394.285,92.7931 C387.875,86.3826 379.861,77.8352 370.246,67.6851 C393.751,59.1377 416.188,53.2614 436.488,46.3166 C448.775,42.5771 488.841,30.2902 499.525,26.0165 C500.594,25.4823 499.525,26.0165 499.525,26.0165 C490.978,62.8772 473.349,113.627 459.459,153.159 Z" style="stroke:none;fill-rule:evenodd;fill:url(#linearGradientFill1);fill-opacity:1;"/><defs><linearGradient id="linearGradientFill1" gradientUnits="userSpaceOnUse" x1="250.846" y1="411.598" x2="250.846" y2="25.2959"><stop offset="0" stop-color="#000000" stop-opacity="1"/><stop offset="1" stop-color="#000000" stop-opacity="1"/></linearGradient></defs>
        </g>
        <g id="Shape2">
            <desc shapeID="2" type="0" basicInfo-basicType="0" basicInfo-roundedRectRadius="12" basicInfo-polygonSides="6" basicInfo-starPoints="5" bounding="rect(-8.35003,-27.8,16.7001,55.5999)" text="" font-familyName="" font-pixelSize="20" font-bold="0" font-underline="0" font-alignment="1" strokeStyle="0" markerStart="0" markerEnd="0" shadowEnabled="0" shadowOffsetX="0" shadowOffsetY="2" shadowBlur="4" shadowOpacity="160" blurEnabled="0" blurRadius="4" transform="matrix(5.34213,0,0,5.25566,390.813,323.306)" pers-center="0,0" pers-size="0,0" pers-start="0,0" pers-end="0,0" locked="0" mesh="" flag=""/>
            <path id="shapePath2" d="M435.42,177.199 C435.42,274.428 435.42,373.76 435.42,469.413 L346.206,469.413 C346.206,401.089 346.206,328.036 346.206,257.085 C373.985,231.858 403.367,205.579 435.42,177.199 Z" style="stroke:none;fill-rule:evenodd;fill:url(#linearGradientFill2);fill-opacity:1;"/><defs><linearGradient id="linearGradientFill2" gradientUnits="userSpaceOnUse" x1="390.853" y1="469.094" x2="390.853" y2="177.067"><stop offset="0" stop-color="#000000" stop-opacity="1"/><stop offset="1" stop-color="#000000" stop-opacity="1"/></linearGradient></defs>
        </g>
        <g id="Shape3">
            <desc shapeID="3" type="0" basicInfo-basicType="0" basicInfo-roundedRectRadius="12" basicInfo-polygonSides="6" basicInfo-starPoints="5" bounding="rect(-7.89993,-18.4444,15.7999,36.8889)" text="" font-familyName="" font-pixelSize="20" font-bold="0" font-underline="0" font-alignment="1" strokeStyle="0" markerStart="0" markerEnd="0" shadowEnabled="0" shadowOffsetX="0" shadowOffsetY="2" shadowBlur="4" shadowOpacity="160" blurEnabled="0" blurRadius="4" transform="matrix(5.34213,0,0,5.34213,163.505,371.355)" pers-center="0,0" pers-size="0,0" pers-start="0,0" pers-end="0,0" locked="0" mesh="" flag=""/>
            <path id="shapePath3" d="M205.708,292.589 C205.708,352.955 205.708,411.184 205.708,469.413 C202.503,470.482 205.708,469.413 205.708,469.413 L121.303,469.413 C121.303,421.334 121.303,381.268 121.303,333.723 C139.466,317.162 174.19,283.507 184.874,272.823 C189.682,276.562 198.763,286.712 205.708,292.589 Z" style="stroke:none;fill-rule:evenodd;fill:url(#linearGradientFill3);fill-opacity:1;"/><defs><linearGradient id="linearGradientFill3" gradientUnits="userSpaceOnUse" x1="163.41" y1="469.406" x2="163.41" y2="272.367"><stop offset="0" stop-color="#000000" stop-opacity="1"/><stop offset="1" stop-color="#000000" stop-opacity="1"/></linearGradient></defs>
        </g>
        <g id="Shape4">
            <desc shapeID="4" type="0" basicInfo-basicType="0" basicInfo-roundedRectRadius="12" basicInfo-polygonSides="6" basicInfo-starPoints="5" bounding="rect(-8.06018,-16.4999,16.1203,32.9999)" text="" font-familyName="" font-pixelSize="20" font-bold="0" font-underline="0" font-alignment="1" strokeStyle="0" markerStart="0" markerEnd="0" shadowEnabled="0" shadowOffsetX="0" shadowOffsetY="2" shadowBlur="4" shadowOpacity="160" blurEnabled="0" blurRadius="4" transform="matrix(5.34213,0,0,5.34214,272.806,381.268)" pers-center="0,0" pers-size="0,0" pers-start="0,0" pers-end="0,0" locked="0" mesh="" flag=""/>
            <path id="shapePath4" d="M229.748,313.423 C243.103,321.97 258.595,336.394 264.471,339.065 C280.498,326.778 302.401,307.547 314.688,293.123 C314.688,293.123 316.29,456.593 315.756,469.414 C291.182,469.414 263.403,469.414 238.295,469.414 C229.748,469.414 238.295,469.414 229.748,469.414 " style="stroke:none;fill-rule:evenodd;fill:url(#linearGradientFill4);fill-opacity:1;"/><defs><linearGradient id="linearGradientFill4" gradientUnits="userSpaceOnUse" x1="272.684" y1="470.013" x2="272.684" y2="292.6"><stop offset="0" stop-color="#000000" stop-opacity="1"/><stop offset="1" stop-color="#000000" stop-opacity="1"/></linearGradient></defs>
        </g>
        <g id="Shape5">
            <desc shapeID="5" type="0" basicInfo-basicType="0" basicInfo-roundedRectRadius="12" basicInfo-polygonSides="6" basicInfo-starPoints="5" bounding="rect(-8.44999,-10.5443,16.9,21.0888)" text="" font-familyName="" font-pixelSize="20" font-bold="0" font-underline="0" font-alignment="1" strokeStyle="0" markerStart="0" markerEnd="0" shadowEnabled="0" shadowOffsetX="0" shadowOffsetY="2" shadowBlur="4" shadowOpacity="160" blurEnabled="0" blurRadius="4" transform="matrix(5.34213,0,0,5.3196,51.5877,413.321)" pers-center="0,0" pers-size="0,0" pers-start="0,0" pers-end="0,0" locked="0" mesh="" flag=""/>
            <path id="shapePath5" d="M96.7286,468.94 C96.7286,470.005 96.7286,468.94 96.7286,468.94 L6.44671,468.94 C6.44671,459.897 6.44671,457.77 6.44671,448.194 C33.6915,421.064 64.6759,389.146 96.7286,357.229 C96.7286,364.677 96.1944,393.402 96.1944,409.361 C96.1944,411.488 96.7286,451.917 96.7286,468.94 Z" style="stroke:none;fill-rule:evenodd;fill:url(#linearGradientFill5);fill-opacity:1;"/><defs><linearGradient id="linearGradientFill5" gradientUnits="userSpaceOnUse" x1="51.5625" y1="469.367" x2="51.5625" y2="357.078"><stop offset="0" stop-color="#000000" stop-opacity="1"/><stop offset="1" stop-color="#000000" stop-opacity="1"/></linearGradient></defs>
        </g>
    </g>
</svg>
