<?xml version="1.0"?>
<svg version="1.1" xmlns="http://www.w3.org/2000/svg" xmlns:xlink="http://www.w3.org/1999/xlink" width="500" height="500">
    <desc iVinci="yes" version="4.6" gridStep="20" showGrid="no" snapToGrid="no" codePlatform="0"/>
    <g id="Layer1" name="Layer 1" opacity="1">
        <g id="Shape1">
            <desc shapeID="1" type="0" basicInfo-basicType="0" basicInfo-roundedRectRadius="12" basicInfo-polygonSides="6" basicInfo-starPoints="5" bounding="rect(-37.2054,-37.4009,74.4108,74.8018)" text="" font-familyName="" font-pixelSize="20" font-bold="0" font-underline="0" font-alignment="1" strokeStyle="0" markerStart="0" markerEnd="0" shadowEnabled="0" shadowOffsetX="0" shadowOffsetY="2" shadowBlur="4" shadowOpacity="160" blurEnabled="0" blurRadius="4" transform="matrix(5.47959,0,0,5.47959,218.084,246.043)" pers-center="0,0" pers-size="0,0" pers-start="0,0" pers-end="0,0" locked="0" mesh="" flag=""/>
            <path id="shapePath1" d="M221.402,41.1111 C110.166,40.0151 17.0129,130.428 14.2731,242.212 C11.5334,354.543 104.138,449.888 217.018,450.984 C239.484,450.984 261.403,447.696 281.677,441.121 C271.266,430.162 263.046,417.558 257.019,403.312 C255.923,403.312 254.827,403.859 253.731,403.859 C250.991,404.408 248.251,404.956 244.416,405.504 C241.676,404.408 236.196,404.408 235.101,401.668 C224.141,381.393 214.278,378.653 202.223,400.572 C200.579,403.859 190.168,404.408 184.14,403.312 C126.605,392.901 71.8088,338.653 60.8496,280.569 C59.7537,274.541 59.2058,264.13 62.4935,262.486 C81.6721,250.979 85.5078,241.664 63.0415,229.061 C59.7537,227.417 59.2058,217.006 60.3017,210.978 C70.7129,153.443 124.961,99.1945 183.044,87.1397 C192.908,84.9477 200.579,84.9477 206.059,95.9069 C213.182,109.606 223.045,109.058 229.621,96.4547 C236.744,83.8518 246.06,84.9477 256.471,88.2354 C319.486,106.318 358.939,147.415 375.926,210.43 C376.474,213.17 377.022,215.91 377.022,218.102 C392.913,219.198 408.255,223.033 421.954,229.061 C415.379,126.045 327.158,42.207 221.402,41.1111 M240.032,246.048 C238.388,216.458 239.484,197.279 234.005,151.799 C229.073,114.538 203.867,127.688 202.223,151.799 C200.579,172.621 195.1,232.897 201.675,261.938 C204.415,274.541 230.717,292.624 253.183,305.227 C257.019,292.624 263.046,281.117 270.17,271.254 C255.375,261.391 241.676,252.075 240.032,246.048 Z" style="stroke:#323232;stroke-opacity:1;stroke-width:1;stroke-linejoin:miter;stroke-miterlimit:2;stroke-linecap:round;fill-rule:nonzero;fill:#000000;fill-opacity:1;"/>
        </g>
        <g id="Shape2">
            <desc shapeID="2" type="0" basicInfo-basicType="0" basicInfo-roundedRectRadius="12" basicInfo-polygonSides="6" basicInfo-starPoints="5" bounding="rect(-18.8886,-18.8819,37.7772,37.7639)" text="" font-familyName="" font-pixelSize="20" font-bold="0" font-underline="0" font-alignment="1" strokeStyle="0" markerStart="0" markerEnd="0" shadowEnabled="0" shadowOffsetX="0" shadowOffsetY="2" shadowBlur="4" shadowOpacity="160" blurEnabled="0" blurRadius="4" transform="matrix(5.47959,0,0,5.47959,372.188,349.131)" pers-center="0,0" pers-size="0,0" pers-start="0,0" pers-end="0,0" locked="0" mesh="" flag=""/>
            <path id="shapePath2" d="M330.445,264.678 C326.61,253.171 334.829,250.431 343.596,247.692 C352.364,244.952 358.939,243.308 364.419,254.267 C373.734,272.898 387.981,273.993 402.776,257.555 C411.543,247.692 417.571,253.719 425.242,257.555 C433.462,261.391 437.297,265.774 434.01,276.185 C427.434,295.912 436.749,307.419 457.572,305.775 C467.983,305.227 471.271,309.611 473.463,318.378 C475.654,327.146 478.942,334.269 467.983,340.296 C448.804,350.708 447.161,364.954 463.051,378.106 C471.819,385.229 470.175,390.709 465.243,398.38 C460.859,405.504 459.216,414.271 446.065,410.435 C423.598,404.408 414.831,411.531 415.379,435.641 C415.379,448.792 406.064,448.245 398.94,450.984 C391.269,453.724 385.789,453.724 380.858,444.956 C369.898,424.682 356.747,423.586 341.952,440.573 C335.377,448.245 329.897,447.148 323.322,442.217 C317.294,437.833 306.335,437.285 310.171,424.134 C316.746,401.12 309.075,391.257 286.609,392.352 C274.006,392.901 272.91,385.777 270.17,377.01 C267.978,368.79 266.882,362.763 276.745,357.831 C295.376,347.968 297.02,333.721 281.129,320.022 C271.814,311.803 275.649,305.775 280.033,297.556 C284.417,288.788 288.8,284.405 299.76,288.24 C318.938,294.268 330.993,284.405 330.445,264.678 M372.09,383.585 C391.269,384.133 406.612,369.338 407.16,350.16 C407.708,329.885 392.913,314.543 372.638,314.543 C353.46,314.543 338.665,329.337 338.665,348.516 C338.665,368.242 353.46,383.037 372.09,383.585 Z" style="stroke:#323232;stroke-opacity:1;stroke-width:1;stroke-linejoin:miter;stroke-miterlimit:2;stroke-linecap:round;fill-rule:nonzero;fill:#000000;fill-opacity:1;"/>
        </g>
    </g>
</svg>
