<?xml version="1.0"?>
<svg version="1.1" xmlns="http://www.w3.org/2000/svg" xmlns:xlink="http://www.w3.org/1999/xlink" width="500" height="500">
    <desc iVinci="yes" version="4.6" gridStep="20" showGrid="no" snapToGrid="no" codePlatform="0"/>
    <g id="Layer1" name="Layer 1" opacity="1">
        <g id="Shape1">
            <desc shapeID="1" type="0" basicInfo-basicType="0" basicInfo-roundedRectRadius="12" basicInfo-polygonSides="6" basicInfo-starPoints="5" bounding="rect(-25.8827,-26.0079,51.7653,52.0157)" text="" font-familyName="" font-pixelSize="20" font-bold="0" font-underline="0" font-alignment="1" strokeStyle="0" markerStart="0" markerEnd="0" shadowEnabled="0" shadowOffsetX="0" shadowOffsetY="2" shadowBlur="4" shadowOpacity="160" blurEnabled="0" blurRadius="4" transform="matrix(9.63694,0,0,9.63695,250.571,249.364)" pers-center="0,0" pers-size="0,0" pers-start="0,0" pers-end="0,0" locked="0" mesh="" flag=""/>
            <path id="shapePath1" d="M249.439,180.054 C271.604,180.054 287.987,180.054 308.225,180.054 C353.518,180.054 398.812,180.054 445.069,180.054 C482.653,180.054 500,197.399 500,234.984 C500,306.297 500,377.611 500,447.96 C500,481.689 481.69,500 447.961,500 C360.264,500 272.568,500 185.836,500 C152.106,500 133.796,481.689 133.796,447.96 C133.796,376.648 133.796,305.334 133.796,233.057 C133.796,197.399 151.143,179.09 187.763,179.09 C191.618,179.09 196.436,179.09 202.218,179.09 C201.255,150.179 207.037,122.232 197.4,94.2846 C184.872,59.5918 149.215,38.3898 112.595,43.2083 C75.9745,48.9914 47.0636,78.8657 46.1,116.45 C45.1363,143.433 46.1,170.417 46.1,197.399 C46.1,201.254 46.1,206.073 46.1,210.891 C30.6809,210.891 16.2254,210.891 2.73381,210.891 C1.77003,209.928 1.77003,208.964 1.77003,208.964 C1.77003,174.272 -0.157318,140.542 2.73381,106.813 C8.51587,45.1364 63.4464,-2.08488 126.087,-1.12141 C181.916,-3.33017 217.044,18.7555 237.38,62.8118 C249.479,89.0227 249.439,125.948 249.439,165.598 C249.439,171.99 249.439,173.307 249.439,180.054 M344.845,418.086 C344.845,417.122 345.809,416.159 345.809,415.195 C342.918,394.957 340.027,373.756 337.136,353.519 C336.172,346.772 337.136,342.918 342.918,338.1 C363.155,321.716 364.119,293.769 346.773,275.46 C329.426,257.149 300.515,257.149 283.169,275.46 C265.822,293.769 267.75,322.68 287.987,338.1 C293.769,341.954 294.733,345.809 293.769,352.555 C289.915,373.756 287.024,395.922 284.133,418.086 C306.297,418.086 325.571,418.086 344.845,418.086 Z" style="stroke:none;fill-rule:evenodd;fill:#000000;fill-opacity:1;"/>
        </g>
    </g>
</svg>
