<?xml version="1.0"?>
<svg version="1.1" xmlns="http://www.w3.org/2000/svg" xmlns:xlink="http://www.w3.org/1999/xlink" width="500" height="500">
    <desc iVinci="yes" version="4.6" gridStep="20" showGrid="no" snapToGrid="no" codePlatform="0"/>
    <g id="Layer1" name="Layer 1" opacity="1">
        <g id="Shape1">
            <desc shapeID="1" type="0" basicInfo-basicType="0" basicInfo-roundedRectRadius="12" basicInfo-polygonSides="6" basicInfo-starPoints="5" bounding="rect(-20.0504,-20.05,40.1007,40.1)" text="" font-familyName="" font-pixelSize="20" font-bold="0" font-underline="0" font-alignment="1" strokeStyle="0" markerStart="0" markerEnd="0" shadowEnabled="0" shadowOffsetX="0" shadowOffsetY="2" shadowBlur="4" shadowOpacity="160" blurEnabled="0" blurRadius="4" transform="matrix(9.1623,0,0,9.16231,183.707,202.441)" pers-center="0,0" pers-size="0,0" pers-start="0,0" pers-end="0,0" locked="0" mesh="" flag=""/>
            <path id="shapePath1" d="M184.162,386.145 C82.4604,386.145 -3.05176e-05,303.684 -3.05176e-05,201.982 C-3.05176e-05,100.281 82.4604,18.7361 184.162,18.7361 C285.863,18.7361 368.324,101.197 367.407,202.899 C368.324,303.684 284.947,386.145 184.162,386.145 M184.162,76.1237 C115.399,76.1237 58.3037,136.756 58.3037,201.982 C58.3037,270.745 115.399,327.841 184.162,327.841 C252.925,327.841 310.02,271.924 310.02,201.982 C310.02,134.398 252.925,76.1237 184.162,76.1237 Z" style="stroke:#000000;stroke-opacity:1;stroke-width:0.5;stroke-linejoin:bevel;stroke-miterlimit:2;stroke-linecap:square;fill-rule:evenodd;fill:#000000;fill-opacity:1;"/>
        </g>
        <g id="Shape2">
            <desc shapeID="2" type="0" basicInfo-basicType="0" basicInfo-roundedRectRadius="12" basicInfo-polygonSides="6" basicInfo-starPoints="5" bounding="rect(-21,-150.456,41.9999,300.912)" text="" font-familyName="Helvetica" font-pixelSize="20" font-bold="0" font-underline="0" font-alignment="1" strokeStyle="0" markerStart="0" markerEnd="0" shadowEnabled="0" shadowOffsetX="0" shadowOffsetY="2" shadowBlur="4" shadowOpacity="160" blurEnabled="0" blurRadius="4" transform="matrix(1.26979,-1.4479,0.564879,0.495395,406.25,389.468)" pers-center="0,0" pers-size="0,0" pers-start="0,0" pers-end="0,0" locked="0" mesh="" flag=""/>
            <path id="shapePath2" d="M294.595,345.339 L347.926,284.528 C347.926,284.528 491.405,410.358 491.405,410.358 C502.259,425.193 500.737,452.207 491.405,463.785 C480.749,477.006 453.251,480.5 438.075,471.17 C438.075,471.17 294.595,345.339 294.595,345.339 Z" style="stroke:#000000;stroke-opacity:1;stroke-width:0.5;stroke-linejoin:bevel;stroke-miterlimit:2;stroke-linecap:square;fill-rule:evenodd;fill:#000000;fill-opacity:1;"/>
        </g>
    </g>
</svg>
