<?xml version="1.0"?>
<svg version="1.1" xmlns="http://www.w3.org/2000/svg" xmlns:xlink="http://www.w3.org/1999/xlink" width="500" height="500">
    <desc iVinci="yes" version="4.6" gridStep="20" showGrid="no" snapToGrid="no" codePlatform="0"/>
    <g id="Layer1" name="Layer 1" opacity="1">
        <g id="Shape1">
            <desc shapeID="1" type="0" basicInfo-basicType="0" basicInfo-roundedRectRadius="12" basicInfo-polygonSides="6" basicInfo-starPoints="5" bounding="rect(-12,-15.2479,24,30.4957)" text="" font-familyName="" font-pixelSize="20" font-bold="0" font-underline="0" font-alignment="1" strokeStyle="0" markerStart="0" markerEnd="0" shadowEnabled="0" shadowOffsetX="0" shadowOffsetY="2" shadowBlur="4" shadowOpacity="160" blurEnabled="0" blurRadius="4" transform="matrix(16.3958,0,0,16.3958,250,249.999)" pers-center="0,0" pers-size="0,0" pers-start="0,0" pers-end="0,0" locked="0" mesh="" flag=""/>
            <path id="shapePath1" d="M446.75,452.45 L446.75,104.857 C446.75,68.7872 435.273,58.9504 399.201,60.59 C387.725,62.2281 386.084,62.2281 386.084,73.7068 C386.084,91.742 386.084,109.777 386.084,129.452 C386.084,152.406 379.527,158.964 358.211,158.964 C286.071,158.964 215.568,158.964 143.427,158.964 C120.472,158.964 115.554,154.045 115.554,131.092 C115.554,113.056 115.554,96.659 115.554,78.6251 C115.554,62.2281 113.914,60.59 97.5184,60.59 C61.4477,58.9504 53.2497,67.1478 53.2497,103.218 C53.2497,221.269 53.2497,339.318 53.2497,457.368 C53.2497,467.208 54.8889,477.044 59.808,485.242 C63.0875,491.801 71.2847,495.08 76.2044,499.999 L423.796,499.999 C427.074,496.719 428.714,495.08 431.993,491.801 C441.831,486.881 445.109,477.044 446.75,467.208 C446.75,462.288 446.75,457.368 446.75,452.45 M382.806,421.298 L117.193,421.298 L117.193,383.587 L382.806,383.587 L382.806,421.298 M382.806,340.958 L117.193,340.958 L117.193,303.249 L382.806,303.249 L382.806,340.958 M382.806,262.259 L117.193,262.259 L117.193,224.548 L382.806,224.548 L382.806,262.259 M174.579,111.417 C181.138,111.417 186.056,113.056 192.614,113.056 C212.29,113.056 230.325,113.056 249.999,113.056 C271.315,113.056 292.629,113.056 313.944,113.056 C336.897,113.056 340.176,109.777 340.176,86.8223 L340.176,80.2633 C340.176,42.5546 335.258,37.635 299.188,37.635 C284.43,37.635 284.43,35.9958 279.512,22.8784 C277.872,16.3216 272.954,8.12372 268.034,4.84341 C249.999,-6.63293 230.325,3.2041 225.406,24.5195 C223.767,34.3566 218.847,37.635 210.649,37.635 C204.091,37.635 197.533,37.635 190.974,37.635 C174.579,39.2741 166.381,45.8329 164.741,62.2281 C163.101,73.7068 163.101,85.1829 163.101,98.301 C159.822,104.857 164.741,109.777 174.579,111.417 Z" style="stroke:none;fill-rule:evenodd;fill:#000000;fill-opacity:1;"/>
        </g>
    </g>
</svg>
