<?xml version="1.0"?>
<svg version="1.1" xmlns="http://www.w3.org/2000/svg" xmlns:xlink="http://www.w3.org/1999/xlink" width="500" height="500">
    <desc iVinci="yes" version="4.6" gridStep="20" showGrid="no" snapToGrid="no" codePlatform="0"/>
    <g id="Layer1" name="Layer 1" opacity="1">
        <g id="Shape1">
            <desc shapeID="1" type="0" basicInfo-basicType="0" basicInfo-roundedRectRadius="12" basicInfo-polygonSides="6" basicInfo-starPoints="5" bounding="rect(-16.6971,-23.4007,33.3943,46.8015)" text="" font-familyName="" font-pixelSize="20" font-bold="0" font-underline="0" font-alignment="1" strokeStyle="0" markerStart="0" markerEnd="0" shadowEnabled="0" shadowOffsetX="0" shadowOffsetY="2" shadowBlur="4" shadowOpacity="160" blurEnabled="0" blurRadius="4" transform="matrix(-9.97209,-0.00118712,0.00127625,-10.7208,333.494,248.856)" pers-center="0,0" pers-size="0,0" pers-start="0,0" pers-end="0,0" locked="0" mesh="" flag=""/>
            <path id="shapePath1" d="M166.988,249.9 C170.977,253.117 177.956,261.695 188.924,273.487 C226.813,318.522 264.702,360.336 301.594,401.08 C320.539,422.524 338.486,442.895 353.442,460.051 C364.41,472.917 376.375,486.856 386.346,499.721 C387.342,499.721 388.34,499.721 388.34,499.721 C434.212,499.727 452.103,499.744 495.98,499.749 C496.977,499.749 498.972,499.75 499.969,499.75 C485.013,483.667 470.057,466.51 455.101,450.428 C446.127,439.706 436.156,428.984 427.182,418.262 C377.329,361.437 326.477,302.467 276.623,249.927 C276.623,249.927 276.623,248.857 275.626,248.857 C275.626,248.857 275.626,247.784 276.623,247.784 C326.49,194.186 377.356,135.227 427.223,79.4852 C436.199,68.7664 446.172,58.0466 455.149,47.3267 C470.109,30.1745 485.069,14.0942 500.029,-1.98492 C499.031,-1.98505 497.037,-1.98528 496.04,-1.9854 C452.162,-1.99062 433.275,-2.00777 388.4,-2.01311 C387.402,-2.01323 386.406,-2.01334 386.406,-2.01334 C375.434,11.9233 364.464,24.786 353.493,37.6497 C338.533,54.8019 320.58,75.1678 301.63,96.6077 C264.728,137.343 226.829,179.151 188.93,224.173 C178.957,235.964 170.978,244.54 166.989,247.757 C166.989,247.757 167.986,248.83 167.986,248.83 C167.986,248.83 167.986,249.9 166.988,249.9 Z" style="stroke:none;fill-rule:evenodd;fill:#000000;fill-opacity:1;"/>
        </g>
        <g id="Shape2">
            <desc shapeID="2" type="0" basicInfo-basicType="0" basicInfo-roundedRectRadius="12" basicInfo-polygonSides="6" basicInfo-starPoints="5" bounding="rect(-16.6971,-23.4007,33.3943,46.8015)" text="" font-familyName="" font-pixelSize="20" font-bold="0" font-underline="0" font-alignment="1" strokeStyle="0" markerStart="0" markerEnd="0" shadowEnabled="0" shadowOffsetX="0" shadowOffsetY="2" shadowBlur="4" shadowOpacity="160" blurEnabled="0" blurRadius="4" transform="matrix(-9.97209,-0.00118712,0.00127625,-10.7208,166.633,249.597)" pers-center="0,0" pers-size="0,0" pers-start="0,0" pers-end="0,0" locked="0" mesh="" flag=""/>
            <path id="shapePath2" d="M0.128006,250.64 C4.11614,253.858 11.096,262.436 22.064,274.228 C59.9525,319.262 97.8414,361.077 134.733,401.821 C153.678,423.265 171.626,443.635 186.582,460.791 C197.55,473.657 209.515,487.596 219.485,500.462 C220.482,500.462 221.48,500.462 221.48,500.462 C267.352,500.468 285.242,500.485 329.12,500.49 C330.117,500.49 332.111,500.49 333.109,500.49 C318.153,484.407 303.196,467.251 288.241,451.168 C279.267,440.446 269.296,429.724 260.322,419.002 C210.468,362.178 159.617,303.208 109.763,250.668 C109.763,250.668 109.763,249.598 108.766,249.598 C108.766,249.598 108.766,248.525 109.763,248.525 C159.63,194.927 210.495,135.968 260.362,80.2258 C269.339,69.507 279.312,58.7872 288.289,48.0673 C303.248,30.9151 318.209,14.8348 333.169,-1.24434 C332.171,-1.24446 330.177,-1.24469 329.18,-1.24481 C285.302,-1.25003 266.414,-1.26717 221.539,-1.27251 C220.541,-1.27263 219.545,-1.27274 219.545,-1.27274 C208.573,12.6639 197.603,25.5266 186.632,38.3903 C171.672,55.5425 153.72,75.9084 134.77,97.3483 C97.868,138.084 59.9691,179.891 22.0698,224.914 C12.0962,236.705 4.11716,245.281 0.12825,248.497 C0.12825,248.497 1.12524,249.57 1.12524,249.57 C1.12524,249.57 1.12512,250.64 0.128006,250.64 Z" style="stroke:none;fill-rule:evenodd;fill:#000000;fill-opacity:1;"/>
        </g>
    </g>
</svg>
