<?xml version="1.0"?>
<svg version="1.1" xmlns="http://www.w3.org/2000/svg" xmlns:xlink="http://www.w3.org/1999/xlink" width="500" height="500">
    <desc iVinci="yes" version="4.6" gridStep="20" showGrid="no" snapToGrid="no" codePlatform="0"/>
    <g id="Layer1" name="Layer 1" opacity="1">
        <g id="Shape1">
            <desc shapeID="1" type="0" basicInfo-basicType="0" basicInfo-roundedRectRadius="12" basicInfo-polygonSides="6" basicInfo-starPoints="5" bounding="rect(-164.249,-201.007,328.498,402.014)" text="" font-familyName="" font-pixelSize="20" font-bold="0" font-underline="0" font-alignment="1" strokeStyle="0" markerStart="0" markerEnd="0" shadowEnabled="0" shadowOffsetX="0" shadowOffsetY="2" shadowBlur="4" shadowOpacity="160" blurEnabled="0" blurRadius="4" transform="matrix(1.24616,0,0,1.24616,250,250.487)" pers-center="0,0" pers-size="0,0" pers-start="0,0" pers-end="0,0" locked="0" mesh="" flag=""/>
            <path id="shapePath1" d="M454.275,422.903 C457.446,383.586 435.884,357.585 404.177,342.366 C379.445,330.317 355.348,318.902 328.08,313.196 C317.934,311.294 310.323,305.586 305.885,296.708 C303.983,292.27 300.178,288.464 299.544,284.659 C299.544,283.391 299.544,282.757 300.178,281.489 C301.446,278.317 303.348,275.147 304.617,272.611 C309.689,265.636 314.129,257.391 317.934,249.148 C323.64,237.099 328.08,225.051 338.226,214.269 C351.543,200.319 355.348,180.026 350.275,161.001 C350.275,160.367 349.006,159.733 347.739,159.099 L345.837,153.392 C345.202,151.49 345.202,148.953 345.837,147.051 C347.104,137.538 349.006,128.66 349.006,119.147 C349.641,95.6847 348.372,72.8557 338.86,51.2947 C331.885,36.0754 321.738,24.0266 304.617,22.7583 C292.568,22.1242 283.055,18.3191 272.91,11.3438 C239.299,-10.2173 189.837,-0.0708313 167.007,33.5387 C163.203,39.2462 160.032,44.3193 157.495,50.0263 C156.228,52.5631 154.958,55.0997 154.324,57.636 C144.178,82.3679 142.276,109.002 147.984,136.904 C149.886,145.148 149.886,151.49 147.984,160.367 C145.446,169.245 145.446,178.124 146.715,186.368 C148.617,196.514 153.056,206.026 160.032,213.636 C165.739,219.978 169.543,226.318 172.715,233.293 C175.252,238.368 177.154,243.441 179.691,248.514 C183.495,256.757 187.934,264.367 193.007,271.976 C194.275,274.513 195.544,277.051 196.812,279.587 C196.812,280.22 197.446,280.22 197.446,280.855 C198.08,283.391 198.08,285.928 198.08,288.464 C197.446,291.001 195.544,293.538 194.275,296.074 C189.837,304.952 182.226,310.66 172.081,312.562 C165.105,313.83 158.13,315.733 151.153,318.27 C134.666,323.342 119.447,329.684 104.227,337.928 C101.691,339.197 98.52,340.464 95.9833,341.732 C64.2762,356.952 43.3494,382.952 45.886,422.269 C45.886,424.171 43.9836,476.806 47.1543,479.342 C47.1543,479.342 48.4225,479.976 49.0567,479.976 L51.5933,479.976 L46.5201,481.244 C46.5201,481.244 209.495,525.635 451.737,481.244 C453.006,481.244 451.737,480.61 449.835,479.342 C451.103,479.342 451.737,478.708 451.737,478.708 C456.177,477.44 454.275,425.44 454.275,422.903 Z" style="stroke:none;fill-rule:evenodd;fill:#000000;fill-opacity:1;"/>
        </g>
    </g>
</svg>
