<?xml version="1.0"?>
<svg version="1.1" xmlns="http://www.w3.org/2000/svg" xmlns:xlink="http://www.w3.org/1999/xlink" width="500" height="500">
    <desc iVinci="yes" version="4.6" gridStep="20" showGrid="no" snapToGrid="no" codePlatform="0"/>
    <g id="Layer1" name="Layer 1" opacity="1">
        <g id="Shape1">
            <desc shapeID="1" type="0" basicInfo-basicType="0" basicInfo-roundedRectRadius="12" basicInfo-polygonSides="6" basicInfo-starPoints="5" bounding="rect(-11.9,-14.0499,23.7999,28.0999)" text="" font-familyName="" font-pixelSize="20" font-bold="0" font-underline="0" font-alignment="1" strokeStyle="0" markerStart="0" markerEnd="0" shadowEnabled="0" shadowOffsetX="0" shadowOffsetY="2" shadowBlur="4" shadowOpacity="160" blurEnabled="0" blurRadius="4" transform="matrix(17.7989,0,0,17.7989,250,250.074)" pers-center="0,0" pers-size="0,0" pers-start="0,0" pers-end="0,0" locked="0" mesh="" flag=""/>
            <path id="shapePath1" d="M349.673,76.5355 L349.673,0 L152.107,0 L152.107,76.5355 L38.1936,76.5355 L38.1936,144.171 L75.571,144.171 L75.571,500.147 L424.429,500.147 L424.429,144.171 L461.806,144.171 L461.806,76.5355 L349.673,76.5355 M196.603,402.253 L150.326,402.253 L150.326,190.447 L196.603,190.447 L196.603,402.253 M196.603,30.2572 L310.515,30.2572 L310.515,76.5355 L196.603,76.5355 L196.603,30.2572 M276.698,402.253 L230.421,402.253 L230.421,190.447 L276.698,190.447 L276.698,402.253 M355.013,402.253 L308.736,402.253 L308.736,190.447 L355.013,190.447 L355.013,402.253 Z" style="stroke:none;fill-rule:evenodd;fill:#000000;fill-opacity:1;"/>
        </g>
    </g>
</svg>
