<?xml version="1.0"?>
<svg version="1.1" xmlns="http://www.w3.org/2000/svg" xmlns:xlink="http://www.w3.org/1999/xlink" width="500" height="500">
    <desc iVinci="yes" version="4.6" gridStep="20" showGrid="no" snapToGrid="no" codePlatform="0"/>
    <g id="Layer1" name="Layer 1" opacity="1">
        <g id="Shape1">
            <desc shapeID="1" type="3" basicInfo-basicType="0" basicInfo-roundedRectRadius="12" basicInfo-polygonSides="6" basicInfo-starPoints="5" bounding="rect(-11,-12,22,24)" text="" font-familyName="" font-pixelSize="20" font-bold="0" font-underline="0" font-alignment="1" strokeStyle="0" markerStart="0" markerEnd="0" shadowEnabled="0" shadowOffsetX="0" shadowOffsetY="2" shadowBlur="4" shadowOpacity="160" blurEnabled="0" blurRadius="4" transform="matrix(1,0,0,1,3848.84,250.614)" pers-center="0,0" pers-size="0,0" pers-start="0,0" pers-end="0,0" locked="0" mesh="" flag=""/>
            <path id="shapePath1" d="M0,0 Z" style="stroke:#000000;stroke-opacity:1;stroke-width:0;stroke-linejoin:bevel;stroke-miterlimit:2;stroke-linecap:square;fill:none;"/>
        </g>
        <g id="Shape2">
            <desc shapeID="2" type="0" basicInfo-basicType="0" basicInfo-roundedRectRadius="12" basicInfo-polygonSides="6" basicInfo-starPoints="5" bounding="rect(-207.298,-227.03,414.595,454.058)" text="" font-familyName="" font-pixelSize="20" font-bold="0" font-underline="0" font-alignment="1" strokeStyle="0" markerStart="0" markerEnd="0" shadowEnabled="0" shadowOffsetX="0" shadowOffsetY="2" shadowBlur="4" shadowOpacity="160" blurEnabled="0" blurRadius="4" transform="matrix(1.10285,0,0,1.10285,250,250.378)" pers-center="0,0" pers-size="0,0" pers-start="0,0" pers-end="0,0" locked="0" mesh="" flag=""/>
            <path id="shapePath2" d="M103.766,-0.000579834 C58.5241,-0.000579834 21.3824,37.1375 21.3824,82.3757 L21.3824,346.301 C21.3824,389.769 55.6801,425.736 98.4998,428.487 C103.539,469.018 138.413,500.756 180.231,500.756 L396.235,500.756 C441.476,500.756 478.618,463.619 478.618,418.38 L478.618,154.455 C478.618,110.986 444.322,75.0193 401.505,72.269 C396.464,31.7391 361.591,-0.000579834 319.771,-0.000579834 L103.766,-0.000579834 M103.766,46.034 L319.771,46.034 C340.304,46.034 356.115,61.8446 356.115,82.3757 L356.115,346.301 C356.115,350.743 355.371,354.965 354.003,358.853 C353.803,359.404 353.586,359.946 353.359,360.484 C352.447,362.648 351.326,364.71 350.024,366.639 C348.721,368.572 347.237,370.373 345.595,372.014 C343.95,373.659 342.149,375.143 340.221,376.443 C338.294,377.743 336.235,378.863 334.065,379.777 C331.894,380.693 329.62,381.401 327.257,381.881 C324.896,382.363 322.43,382.619 319.856,382.619 L120.869,382.619 C120.715,382.625 120.561,382.633 120.408,382.643 L103.766,382.643 C83.2334,382.643 67.4221,366.831 67.4221,346.301 L67.4221,82.3757 C67.4221,61.8446 83.2334,46.034 103.766,46.034 M101.429,93.795 L101.429,125.693 L324.118,125.693 L324.118,93.795 L101.429,93.795 M402.237,118.694 C419.75,121.454 432.581,135.99 432.581,154.455 L432.581,418.38 C432.581,438.91 416.77,454.719 396.235,454.719 L180.231,454.719 C163.322,454.719 149.775,443.924 145.462,428.677 L319.771,428.677 C322.618,428.677 325.432,428.526 328.208,428.24 C330.989,427.961 333.735,427.545 336.439,426.994 C341.818,425.899 347.01,424.279 351.945,422.198 C356.882,420.117 361.575,417.571 365.962,414.611 C370.348,411.653 374.425,408.289 378.145,404.569 C381.868,400.846 385.234,396.768 388.189,392.386 C388.189,392.386 388.189,392.385 388.189,392.384 C391.147,388.001 393.695,383.312 395.778,378.37 C397.862,373.426 399.48,368.236 400.572,362.865 C401.666,357.494 402.237,351.936 402.237,346.28 L402.237,118.694 M102.392,170.488 L102.392,202.386 L325.078,202.386 L325.078,170.488 L102.392,170.488 M102.392,234.426 L102.392,266.324 L325.078,266.324 L325.078,234.426 L102.392,234.426 M102.888,301.407 L102.888,333.304 L325.577,333.304 L325.577,301.407 L102.888,301.407 Z" style="stroke:none;fill-rule:evenodd;fill:#000000;fill-opacity:1;"/>
        </g>
    </g>
</svg>
