<?xml version="1.0"?>
<svg version="1.1" xmlns="http://www.w3.org/2000/svg" xmlns:xlink="http://www.w3.org/1999/xlink" width="500" height="500">
    <desc iVinci="yes" version="4.6" gridStep="20" showGrid="no" snapToGrid="no" codePlatform="0"/>
    <g id="Layer1" name="Layer 1" opacity="1">
        <g id="Shape1">
            <desc shapeID="1" type="0" basicInfo-basicType="0" basicInfo-roundedRectRadius="12" basicInfo-polygonSides="6" basicInfo-starPoints="5" bounding="rect(-6.47916,-6.2285,12.9582,12.4571)" text="" font-familyName="" font-pixelSize="20" font-bold="0" font-underline="0" font-alignment="1" strokeStyle="0" markerStart="0" markerEnd="0" shadowEnabled="0" shadowOffsetX="0" shadowOffsetY="2" shadowBlur="4" shadowOpacity="160" blurEnabled="0" blurRadius="4" transform="matrix(14.7753,0,0,14.7753,95.7499,118.151)" pers-center="0,0" pers-size="0,0" pers-start="0,0" pers-end="0,0" locked="0" mesh="" flag=""/>
            <path id="shapePath1" d="M95.3842,26.153 C139.179,25.069 177.967,54.2516 189.059,96.6314 C199.498,141.105 175.352,186.425 132.618,202.571 C96.856,217.745 55.47,209.807 27.861,182.477 C6.76582,162.363 -3.25872,133.265 0.969879,104.427 C5.19848,75.5867 23.1563,50.5921 49.1375,37.3823 C63.2869,29.6105 79.2463,25.7363 95.3842,26.153 Z" style="stroke:none;fill-rule:evenodd;fill:#000000;fill-opacity:1;"/>
        </g>
        <g id="Shape2">
            <desc shapeID="2" type="0" basicInfo-basicType="0" basicInfo-roundedRectRadius="12" basicInfo-polygonSides="6" basicInfo-starPoints="5" bounding="rect(-6.41874,-6.21017,12.8375,12.4204)" text="" font-familyName="" font-pixelSize="20" font-bold="0" font-underline="0" font-alignment="1" strokeStyle="0" markerStart="0" markerEnd="0" shadowEnabled="0" shadowOffsetX="0" shadowOffsetY="2" shadowBlur="4" shadowOpacity="160" blurEnabled="0" blurRadius="4" transform="matrix(14.7753,0,0,14.7753,405.16,117.883)" pers-center="0,0" pers-size="0,0" pers-start="0,0" pers-end="0,0" locked="0" mesh="" flag=""/>
            <path id="shapePath2" d="M403.745,26.153 C443.148,25.2151 479.028,48.7415 493.873,85.2541 C508.451,122.768 496.391,165.398 464.323,189.716 C424.825,219.532 369.352,215.488 334.596,180.26 C309.638,153.135 303.301,113.723 318.497,80.1408 C333.694,46.5592 367.485,25.307 404.335,26.153 " style="stroke:none;fill-rule:evenodd;fill:#000000;fill-opacity:1;"/>
        </g>
        <g id="Shape3">
            <desc shapeID="3" type="0" basicInfo-basicType="0" basicInfo-roundedRectRadius="12" basicInfo-polygonSides="6" basicInfo-starPoints="5" bounding="rect(-6.50299,-6.21671,13.0061,12.4334)" text="" font-familyName="" font-pixelSize="20" font-bold="0" font-underline="0" font-alignment="1" strokeStyle="0" markerStart="0" markerEnd="0" shadowEnabled="0" shadowOffsetX="0" shadowOffsetY="2" shadowBlur="4" shadowOpacity="160" blurEnabled="0" blurRadius="4" transform="matrix(14.7753,0,0,14.7753,96.1022,382.024)" pers-center="0,0" pers-size="0,0" pers-start="0,0" pers-end="0,0" locked="0" mesh="" flag=""/>
            <path id="shapePath3" d="M95.8933,473.8 C55.6544,475.026 19.2284,450.125 5.76347,412.186 C-5.56419,382.993 0.116325,349.932 20.5388,326.195 C38.2026,304.549 64.2676,291.477 92.1787,290.263 C120.09,289.049 147.191,299.811 166.667,319.84 C186.516,340.14 195.562,368.652 191.046,396.682 C186.53,424.714 168.986,448.94 143.765,461.979 C129.314,470.4 112.752,474.503 96.0412,473.8 " style="stroke:none;fill-rule:evenodd;fill:#000000;fill-opacity:1;"/>
        </g>
        <g id="Shape4">
            <desc shapeID="4" type="0" basicInfo-basicType="0" basicInfo-roundedRectRadius="12" basicInfo-polygonSides="6" basicInfo-starPoints="5" bounding="rect(-6.47635,-6.21498,12.9528,12.4299)" text="" font-familyName="" font-pixelSize="20" font-bold="0" font-underline="0" font-alignment="1" strokeStyle="0" markerStart="0" markerEnd="0" shadowEnabled="0" shadowOffsetX="0" shadowOffsetY="2" shadowBlur="4" shadowOpacity="160" blurEnabled="0" blurRadius="4" transform="matrix(14.7753,0,0,14.7753,404.137,382.05)" pers-center="0,0" pers-size="0,0" pers-start="0,0" pers-end="0,0" locked="0" mesh="" flag=""/>
            <path id="shapePath4" d="M404.04,473.845 C358.56,475.035 318.8,443.378 309.774,398.785 C302.273,355.1 327.18,312.323 368.875,297.279 C403.343,283.332 442.758,290.398 470.233,315.454 C488.527,331.384 499.257,354.292 499.784,378.543 C501.269,427.265 464.803,468.829 416.303,473.697 C412.268,473.933 408.223,473.933 404.188,473.697 " style="stroke:none;fill-rule:evenodd;fill:#000000;fill-opacity:1;"/>
        </g>
    </g>
</svg>
