<?xml version="1.0"?>
<svg version="1.1" xmlns="http://www.w3.org/2000/svg" xmlns:xlink="http://www.w3.org/1999/xlink" width="500" height="500">
    <desc iVinci="yes" version="4.6" gridStep="20" showGrid="no" snapToGrid="no" codePlatform="0"/>
    <g id="Layer1" name="Layer 1" opacity="1">
        <g id="Shape1">
            <desc shapeID="1" type="0" basicInfo-basicType="0" basicInfo-roundedRectRadius="12" basicInfo-polygonSides="6" basicInfo-starPoints="5" bounding="rect(-274.086,-237.543,548.173,475.087)" text="" font-familyName="" font-pixelSize="20" font-bold="0" font-underline="0" font-alignment="1" strokeStyle="0" markerStart="0" markerEnd="0" shadowEnabled="0" shadowOffsetX="0" shadowOffsetY="2" shadowBlur="4" shadowOpacity="160" blurEnabled="0" blurRadius="4" transform="matrix(0.911884,0,0,0.911884,249.935,250)" pers-center="0,0" pers-size="0,0" pers-start="0,0" pers-end="0,0" locked="0" mesh="" flag=""/>
            <path id="shapePath1" d="M487.63,45.6271 C479.474,37.4703 469.672,33.3878 458.212,33.3878 L41.6558,33.3878 C30.2007,33.3878 20.397,37.4703 12.2348,45.6271 C4.07706,53.7866 1.52588e-05,63.5894 1.52588e-05,75.0454 L1.52588e-05,358.307 C1.52588e-05,369.766 4.07706,379.567 12.2348,387.729 C20.397,395.886 30.2007,399.961 41.6558,399.961 L183.288,399.961 C183.288,406.555 181.898,413.33 179.121,420.268 C176.345,427.211 173.567,433.283 170.79,438.488 C168.016,443.699 166.627,447.513 166.627,449.941 C166.627,454.453 168.275,458.367 171.573,461.656 C174.869,464.958 178.775,466.612 183.288,466.612 L316.586,466.612 C321.099,466.612 325.006,464.959 328.302,461.656 C331.603,458.368 333.251,454.454 333.251,449.941 C333.251,447.691 331.859,443.913 329.083,438.62 C326.305,433.33 323.528,427.161 320.754,420.139 C317.976,413.108 316.587,406.383 316.587,399.961 L458.219,399.961 C469.673,399.961 479.474,395.886 487.631,387.729 C495.792,379.568 499.87,369.766 499.87,358.307 L499.87,75.0454 C499.873,63.5894 495.791,53.7866 487.63,45.6271 M466.545,291.656 C466.545,293.913 465.721,295.863 464.073,297.514 C462.422,299.159 460.469,299.983 458.212,299.983 L41.6558,299.983 C39.4007,299.983 37.4475,299.159 35.7988,297.514 C34.151,295.857 33.3257,293.913 33.3257,291.656 L33.3257,75.0454 C33.3257,72.7885 34.1483,70.837 35.7988,69.1884 C37.4484,67.5424 39.4016,66.7153 41.6558,66.7153 L458.218,66.7153 C460.472,66.7153 462.429,67.5397 464.073,69.1884 C465.721,70.838 466.545,72.7894 466.545,75.0454 L466.545,291.656 Z" style="stroke:none;fill-rule:nonzero;fill:#000000;fill-opacity:1;"/>
        </g>
    </g>
</svg>
