<?xml version="1.0"?>
<svg version="1.1" xmlns="http://www.w3.org/2000/svg" xmlns:xlink="http://www.w3.org/1999/xlink" width="500" height="500">
    <desc iVinci="yes" version="4.6" gridStep="20" showGrid="no" snapToGrid="no" codePlatform="0"/>
    <g id="Layer1" name="Layer 1" opacity="1">
        <g id="Shape1">
            <desc shapeID="1" type="0" basicInfo-basicType="0" basicInfo-roundedRectRadius="12" basicInfo-polygonSides="6" basicInfo-starPoints="5" bounding="rect(-33.0022,-37.4235,66.0045,74.8471)" text="" font-familyName="" font-pixelSize="20" font-bold="0" font-underline="0" font-alignment="1" strokeStyle="0" markerStart="0" markerEnd="0" shadowEnabled="0" shadowOffsetX="0" shadowOffsetY="2" shadowBlur="4" shadowOpacity="160" blurEnabled="0" blurRadius="4" transform="matrix(6.67944,0,0,6.67944,250,249.968)" pers-center="0,0" pers-size="0,0" pers-start="0,0" pers-end="0,0" locked="0" mesh="" flag=""/>
            <path id="shapePath1" d="M30.2321,163.902 C30.2321,262.557 30.2321,361.145 30.2321,459.801 C29.9355,470.718 34.2214,481.261 42.0509,488.875 C49.8806,496.489 60.5394,500.478 71.4443,499.877 L427.191,499.877 C453.909,499.877 470.273,483.512 470.273,456.661 C470.273,361.234 470.273,265.785 470.273,170.314 L470.273,160.562 L30.6997,160.562 C30.4807,161.665 30.3246,162.78 30.2321,163.902 M61.4918,190.619 L439.682,190.619 L439.682,468.884 C439.682,468.884 59.5549,468.884 61.6922,468.884 L61.6922,190.686 L61.4918,190.619 M470.407,101.315 C470.806,90.1734 466.545,79.369 458.649,71.4979 C450.753,63.6272 439.935,59.4012 428.794,59.8358 C411.16,59.8358 393.527,59.8358 375.893,59.8358 L365.072,59.8358 C365.072,44.0724 365.072,29.6446 365.072,15.2172 C364.906,7.02774 358.133,0.523605 349.943,0.689529 C341.754,0.855469 335.25,7.62907 335.416,15.8181 C335.416,30.1791 335.416,44.5401 335.416,59.1012 L165.157,59.1012 C165.157,43.9387 165.157,29.4445 165.157,15.0166 C165.447,10.9191 163.926,6.90015 160.995,4.0211 C158.065,1.14206 154.02,-0.307648 149.928,0.0547791 C140.91,0.0547791 135.5,5.99957 135.233,16.8202 C135.233,30.6467 135.233,44.5401 135.233,59.8358 L124.546,59.8358 C106.645,59.8358 88.6771,59.8358 70.7763,59.8358 C52.8754,59.8358 35.9096,70.7902 32.7703,88.0233 C30.624,104.993 29.5533,122.082 29.5641,139.188 L470.407,139.188 C470.407,126.163 470.474,113.739 470.407,101.382 L470.407,101.315 M179.317,107.393 C176.015,120.172 164.714,129.265 151.525,129.759 C138.336,130.252 126.389,122.027 122.141,109.531 C117.733,96.6396 122.141,84.2159 135.166,74.9983 C135.166,83.4809 135.166,90.6948 135.166,97.9087 C134.253,105.461 139.177,112.488 146.588,114.207 C151.101,115.577 155.999,114.644 159.692,111.711 C163.386,108.777 165.403,104.218 165.09,99.5117 C165.09,91.6969 165.09,83.9485 165.09,75.0651 C176.844,81.1897 182.76,94.6615 179.317,107.46 L179.317,107.393 M379.7,104.454 C377.36,118.684 365.322,129.297 350.912,129.836 C337.184,129.809 325.125,120.717 321.322,107.527 C317.505,94.9546 323.396,81.4731 335.215,75.7329 C335.215,83.5477 335.215,90.9618 335.215,98.3094 C335.215,108.796 340.759,114.474 350.177,114.474 C359.595,114.474 364.738,108.996 364.872,98.2426 C364.872,90.8285 364.872,83.4144 364.872,75.666 C375.94,80.6536 382.112,92.6101 379.767,104.521 L379.7,104.454 Z" style="stroke:#000000;stroke-opacity:1;stroke-width:0;stroke-linejoin:bevel;stroke-miterlimit:2;stroke-linecap:square;fill-rule:nonzero;fill:#000000;fill-opacity:1;"/>
        </g>
        <g id="Shape2">
            <desc shapeID="2" type="0" basicInfo-basicType="0" basicInfo-roundedRectRadius="12" basicInfo-polygonSides="6" basicInfo-starPoints="5" bounding="rect(-14.6831,-14.1738,29.3661,28.3476)" text="" font-familyName="" font-pixelSize="20" font-bold="0" font-underline="0" font-alignment="1" strokeStyle="0" markerStart="0" markerEnd="0" shadowEnabled="0" shadowOffsetX="0" shadowOffsetY="2" shadowBlur="4" shadowOpacity="160" blurEnabled="0" blurRadius="4" transform="matrix(6.67944,0,0,6.67944,249.918,331.672)" pers-center="0,0" pers-size="0,0" pers-start="0,0" pers-end="0,0" locked="0" mesh="" flag=""/>
            <path id="shapePath2" d="M333.812,246.192 C350.578,257.814 352.047,264.36 340.492,281.66 C311.815,324.141 283.071,366.444 254.26,408.569 C238.764,431.146 226.607,431.947 206.903,412.51 C192.654,398.35 178.426,384.122 164.221,369.828 C147.456,352.996 147.656,346.851 165.223,329.752 C180.118,315.124 187.199,315.391 203.43,332.157 C210.109,339.304 216.788,347.185 224.27,356.002 L293.201,254.274 C307.362,233.501 313.64,232.299 333.812,246.192 Z" style="stroke:#000000;stroke-opacity:1;stroke-width:0;stroke-linejoin:bevel;stroke-miterlimit:2;stroke-linecap:square;fill-rule:nonzero;fill:#000000;fill-opacity:1;"/>
        </g>
    </g>
</svg>
