<?xml version="1.0"?>
<svg version="1.1" xmlns="http://www.w3.org/2000/svg" xmlns:xlink="http://www.w3.org/1999/xlink" width="500" height="500">
    <desc iVinci="yes" version="4.6" gridStep="20" showGrid="no" snapToGrid="no" codePlatform="0"/>
    <g id="Layer1" name="Layer 1" opacity="1">
        <g id="Shape1">
            <desc shapeID="1" type="0" basicInfo-basicType="0" basicInfo-roundedRectRadius="12" basicInfo-polygonSides="6" basicInfo-starPoints="5" bounding="rect(-39.3519,-37.0332,78.7038,74.0663)" text="" font-familyName="" font-pixelSize="20" font-bold="0" font-underline="0" font-alignment="1" strokeStyle="0" markerStart="0" markerEnd="0" shadowEnabled="0" shadowOffsetX="0" shadowOffsetY="2" shadowBlur="4" shadowOpacity="160" blurEnabled="0" blurRadius="4" transform="matrix(6.35687,0,0,6.35687,249.845,250)" pers-center="0,0" pers-size="0,0" pers-start="0,0" pers-end="0,0" locked="0" mesh="" flag=""/>
            <path id="shapePath1" d="M162.597,191.535 C155.541,219.187 142.573,232.6 117.654,235.398 C103.974,237.608 90.8753,242.536 79.1313,249.891 C56.5644,262.604 56.6279,280.786 80.1484,292.799 C97.265,301.344 115.496,307.442 134.309,310.917 C201.374,324.256 270.533,322.911 337.03,306.976 C350.506,303.915 363.477,298.949 375.552,292.228 C396.784,279.514 396.466,263.94 376.252,250.4 C362.648,241.245 339.509,234.952 314.272,233.936 C310.331,240.292 306.58,247.984 301.558,254.722 C280.835,283.01 254.072,300.237 217.711,298.521 C181.35,296.804 164.822,269.025 180.206,236.033 C194.867,201.498 229.361,179.632 266.85,181.11 C286.492,181.11 301.622,181.936 317.133,172.21 C369.45,139.408 463.341,20.9803 470.969,16.8481 C480.81,12.3552 492.423,14.6878 499.766,22.6323 C506.631,30.8966 360.55,185.114 344.531,195.667 C360.55,200.18 377.714,202.914 388.266,206.283 C461.497,229.994 460.671,237.368 449.165,307.04 C442.825,347.291 425.39,384.977 398.818,415.869 C367.067,452.545 322.728,475.997 274.542,481.599 C232.322,488.445 189.121,486.06 147.913,474.607 C97.92,460.885 55.8205,427.113 31.5819,381.287 C12.3334,345.57 1.46425,305.942 -0.202469,265.402 C-1.28313,244.424 5.70938,230.503 24.4621,221.921 C67.5617,202.088 113.077,193.823 162.597,191.535 Z" style="stroke:none;fill-rule:nonzero;fill:#000000;fill-opacity:1;"/>
        </g>
    </g>
</svg>
