<?xml version="1.0"?>
<svg version="1.1" xmlns="http://www.w3.org/2000/svg" xmlns:xlink="http://www.w3.org/1999/xlink" width="500" height="500">
    <desc iVinci="yes" version="4.6" gridStep="20" showGrid="no" snapToGrid="no" codePlatform="0"/>
    <g id="Layer1" name="Layer 1" opacity="1">
        <g id="Shape1">
            <desc shapeID="1" type="0" basicInfo-basicType="0" basicInfo-roundedRectRadius="12" basicInfo-polygonSides="6" basicInfo-starPoints="5" bounding="rect(-31.29,-31.475,62.58,62.95)" text="" font-familyName="" font-pixelSize="20" font-bold="0" font-underline="0" font-alignment="1" strokeStyle="0" markerStart="0" markerEnd="0" shadowEnabled="0" shadowOffsetX="0" shadowOffsetY="2" shadowBlur="4" shadowOpacity="160" blurEnabled="0" blurRadius="4" transform="matrix(6.23522,0,0,6.23522,195.1,285.853)" pers-center="0,0" pers-size="0,0" pers-start="0,0" pers-end="0,0" locked="0" mesh="" flag=""/>
            <path id="shapePath1" d="M376.981,205.013 L390.2,254.209 C379.039,275.408 349.422,271.792 345.618,302.282 C341.69,333.832 368.377,337.574 379.974,358.399 L354.597,403.418 C282.705,386.084 272.417,406.224 274.849,467.578 L224.967,482.106 C185.498,422.809 175.085,421.749 122.709,470.945 L79.8108,446.69 C72.5156,424.368 98.2047,406.036 78.8131,381.968 C59.4216,357.901 37.7854,370.87 14.0292,364.572 L-3.05176e-05,319.055 C9.66455,296.795 41.963,303.218 45.0183,272.228 C47.9488,242.736 26.6867,234.194 10.8493,215.051 L35.416,169.036 C58.611,165.793 76.5685,187.741 100.699,168.35 C123.146,150.143 115.165,131.624 113.169,107.556 L162.552,89.5989 C184.001,101.072 179.637,131.562 209.815,135.49 C239.994,139.418 247.226,116.41 267.117,101.446 L314.629,127.883 L302.159,170.657 C313.694,209.502 343.186,210.001 376.981,205.013 M197.095,221.536 C161.385,220.899 131.92,249.332 131.283,285.042 C130.645,320.752 159.078,350.218 194.788,350.855 C229.86,351.591 259.009,323.999 260.196,288.939 C261.622,271.415 255.583,254.103 243.567,241.268 C231.552,228.433 214.675,221.267 197.095,221.536 Z" style="stroke:#000000;stroke-opacity:1;stroke-width:0;stroke-linejoin:bevel;stroke-miterlimit:2;stroke-linecap:square;fill-rule:nonzero;fill:#000000;fill-opacity:1;"/>
        </g>
        <g id="Shape2">
            <desc shapeID="2" type="0" basicInfo-basicType="0" basicInfo-roundedRectRadius="12" basicInfo-polygonSides="6" basicInfo-starPoints="5" bounding="rect(-14.3879,-15.2797,28.7758,30.5595)" text="" font-familyName="" font-pixelSize="20" font-bold="0" font-underline="0" font-alignment="1" strokeStyle="0" markerStart="0" markerEnd="0" shadowEnabled="0" shadowOffsetX="0" shadowOffsetY="2" shadowBlur="4" shadowOpacity="160" blurEnabled="0" blurRadius="4" transform="matrix(6.23522,0,0,6.23522,410.268,113.166)" pers-center="0,0" pers-size="0,0" pers-start="0,0" pers-end="0,0" locked="0" mesh="" flag=""/>
            <path id="shapePath2" d="M398.493,17.8938 C406.411,23.4433 414.58,26.935 419.505,33.1078 C430.916,47.1994 443.449,51.1901 461.78,48.509 C483.229,45.3914 492.27,56.1158 486.16,77.066 C480.922,95.1483 480.86,109.053 492.395,125.202 C505.738,143.471 501.499,155.817 479.488,160.244 C457.478,164.671 447.689,175.271 440.019,194.039 C433.41,210.126 418.57,213.493 407.658,200.274 C393.505,183.314 378.415,176.206 356.467,178.887 C339.009,181.007 329.219,169.285 334.706,153.447 C341.939,132.56 340.942,116.036 326.289,98.7024 C314.567,84.6732 322.049,70.0826 337.637,67.5263 C359.959,64.0346 373.677,54.6194 381.283,33.4819 C383.466,27.8704 391.447,24.1915 398.493,17.8938 M442.139,113.605 C442.265,96.733 429.119,82.7361 412.273,81.8048 C403.501,81.1556 394.869,84.2877 388.555,90.4114 C382.241,96.5351 378.846,105.066 379.226,113.854 C378.795,130.701 391.83,144.84 408.656,145.778 C417.451,146.187 426.03,142.981 432.402,136.904 C438.773,130.827 442.381,122.409 442.389,113.605 L442.139,113.605 Z" style="stroke:none;fill-rule:nonzero;fill:#000000;fill-opacity:1;"/>
        </g>
    </g>
</svg>
