<?xml version="1.0"?>
<svg version="1.1" xmlns="http://www.w3.org/2000/svg" xmlns:xlink="http://www.w3.org/1999/xlink" width="500" height="500">
    <desc iVinci="yes" version="4.6" gridStep="20" showGrid="no" snapToGrid="no" codePlatform="0"/>
    <g id="Layer1" name="Layer 1" opacity="1">
        <g id="Shape1">
            <desc shapeID="1" type="0" basicInfo-basicType="0" basicInfo-roundedRectRadius="12" basicInfo-polygonSides="6" basicInfo-starPoints="5" bounding="rect(-33.775,-19.885,67.55,39.77)" text="" font-familyName="" font-pixelSize="20" font-bold="0" font-underline="0" font-alignment="1" strokeStyle="0" markerStart="0" markerEnd="0" shadowEnabled="0" shadowOffsetX="0" shadowOffsetY="2" shadowBlur="4" shadowOpacity="160" blurEnabled="0" blurRadius="4" transform="matrix(6.3049,0,0,6.3049,287.22,361.723)" pers-center="0,0" pers-size="0,0" pers-start="0,0" pers-end="0,0" locked="0" mesh="" flag=""/>
            <path id="shapePath1" d="M500.168,236.35 L500.168,487.096 L74.2717,487.096 L74.2717,236.35 L500.168,236.35 M286.621,267.874 L166.197,267.874 C161.147,267.452 156.15,269.159 152.414,272.584 C148.678,276.008 146.543,280.839 146.526,285.906 C146.318,298.985 135.583,309.438 122.504,309.298 C112.533,310.089 104.73,318.217 104.346,328.212 C104.346,350.742 104.346,373.271 104.346,395.801 C104.667,405.776 112.43,413.918 122.378,414.715 C135.426,414.639 146.175,424.941 146.652,437.98 C146.584,443.046 148.649,447.906 152.344,451.373 C156.038,454.839 161.02,456.592 166.071,456.202 L406.981,456.202 C417.036,456.469 425.641,449.038 426.842,439.053 C428.922,423.29 435.164,417.111 451.179,414.715 C461.26,413.629 468.781,404.924 468.391,394.792 C468.391,372.935 468.391,351.057 468.391,329.158 C468.823,318.663 460.78,309.752 450.296,309.108 C437.585,308.846 427.305,298.677 426.905,285.969 C426.649,280.757 424.291,275.87 420.371,272.425 C416.45,268.98 411.301,267.269 406.099,267.685 L286.684,267.685 L286.621,267.874 Z" style="stroke:#000000;stroke-opacity:1;stroke-width:0;stroke-linejoin:bevel;stroke-miterlimit:2;stroke-linecap:square;fill-rule:nonzero;fill:#000000;fill-opacity:1;"/>
        </g>
        <g id="Shape2">
            <desc shapeID="2" type="0" basicInfo-basicType="0" basicInfo-roundedRectRadius="12" basicInfo-polygonSides="6" basicInfo-starPoints="5" bounding="rect(-38.12,-22.32,76.24,44.64)" text="" font-familyName="" font-pixelSize="20" font-bold="0" font-underline="0" font-alignment="1" strokeStyle="0" markerStart="0" markerEnd="0" shadowEnabled="0" shadowOffsetX="0" shadowOffsetY="2" shadowBlur="4" shadowOpacity="160" blurEnabled="0" blurRadius="4" transform="matrix(6.3049,0,0,6.3049,240.343,153.63)" pers-center="0,0" pers-size="0,0" pers-start="0,0" pers-end="0,0" locked="0" mesh="" flag=""/>
            <path id="shapePath2" d="M41.5493,294.355 L0,218.255 L374.511,12.9041 L480.686,206.149 L405.657,206.149 C409.195,201.655 413.074,197.439 417.258,193.54 C425.976,187.818 428.738,176.301 423.563,167.248 C412.929,147.787 402.253,128.326 391.534,108.865 C386.568,100.52 376.2,97.1267 367.261,100.921 C355.332,106.974 340.756,102.926 333.655,91.5891 C328.091,82.8579 316.627,80.0757 307.679,85.2842 C237.884,123.555 168.152,162.015 98.1674,199.97 C91.0074,203.693 83.1907,205.984 75.1543,206.717 C55.9245,208.608 45.08,218.885 44.7648,238.241 C44.4495,257.597 44.7648,275.125 44.7648,293.598 L41.5493,294.355 Z" style="stroke:#000000;stroke-opacity:1;stroke-width:0;stroke-linejoin:bevel;stroke-miterlimit:2;stroke-linecap:square;fill-rule:nonzero;fill:#000000;fill-opacity:1;"/>
        </g>
        <g id="Shape3">
            <desc shapeID="3" type="0" basicInfo-basicType="0" basicInfo-roundedRectRadius="12" basicInfo-polygonSides="6" basicInfo-starPoints="5" bounding="rect(-10.91,-3.80116,21.82,7.60237)" text="" font-familyName="" font-pixelSize="20" font-bold="0" font-underline="0" font-alignment="1" strokeStyle="0" markerStart="0" markerEnd="0" shadowEnabled="0" shadowOffsetX="0" shadowOffsetY="2" shadowBlur="4" shadowOpacity="160" blurEnabled="0" blurRadius="4" transform="matrix(6.3049,0,0,6.3049,250.557,181.742)" pers-center="0,0" pers-size="0,0" pers-start="0,0" pers-end="0,0" locked="0" mesh="" flag=""/>
            <path id="shapePath3" d="M181.77,205.708 C196.939,172.477 232.268,153.296 268.4,158.673 C294.313,161.826 316.758,182.317 319.343,205.708 L181.77,205.708 Z" style="stroke:#000000;stroke-opacity:1;stroke-width:0;stroke-linejoin:bevel;stroke-miterlimit:2;stroke-linecap:square;fill-rule:nonzero;fill:#000000;fill-opacity:1;"/>
        </g>
        <g id="Shape4">
            <desc shapeID="4" type="0" basicInfo-basicType="0" basicInfo-roundedRectRadius="12" basicInfo-polygonSides="6" basicInfo-starPoints="5" bounding="rect(-3.9712,-4.00076,7.94238,8.00149)" text="" font-familyName="" font-pixelSize="20" font-bold="0" font-underline="0" font-alignment="1" strokeStyle="0" markerStart="0" markerEnd="0" shadowEnabled="0" shadowOffsetX="0" shadowOffsetY="2" shadowBlur="4" shadowOpacity="160" blurEnabled="0" blurRadius="4" transform="matrix(6.3049,0,0,6.3049,358.624,165.928)" pers-center="0,0" pers-size="0,0" pers-start="0,0" pers-end="0,0" locked="0" mesh="" flag=""/>
            <path id="shapePath4" d="M359.064,140.705 C372.993,141.053 384.002,152.626 383.654,166.555 C383.305,180.483 371.732,191.492 357.803,191.144 C344.048,190.597 333.272,179.12 333.593,165.357 C333.903,151.552 345.257,140.563 359.064,140.705 Z" style="stroke:#000000;stroke-opacity:1;stroke-width:0;stroke-linejoin:bevel;stroke-miterlimit:2;stroke-linecap:square;fill-rule:nonzero;fill:#000000;fill-opacity:1;"/>
        </g>
        <g id="Shape5">
            <desc shapeID="5" type="0" basicInfo-basicType="0" basicInfo-roundedRectRadius="12" basicInfo-polygonSides="6" basicInfo-starPoints="5" bounding="rect(-12.0121,-10.5268,24.0241,21.0536)" text="" font-familyName="" font-pixelSize="20" font-bold="0" font-underline="0" font-alignment="1" strokeStyle="0" markerStart="0" markerEnd="0" shadowEnabled="0" shadowOffsetX="0" shadowOffsetY="2" shadowBlur="4" shadowOpacity="160" blurEnabled="0" blurRadius="4" transform="matrix(6.3049,0,0,6.3049,286.763,362.18)" pers-center="0,0" pers-size="0,0" pers-start="0,0" pers-end="0,0" locked="0" mesh="" flag=""/>
            <path id="shapePath5" d="M211.088,361.818 C211.088,331.932 235.677,304.128 268.274,297.886 C287.463,293.499 307.588,296.115 325.018,305.262 C346.644,317.305 361.712,334.139 362.469,360.682 C363.225,387.226 349.039,404.817 327.792,417.805 C294.872,436.391 253.557,430.433 227.229,403.304 C216.227,392.378 210.363,377.306 211.088,361.818 Z" style="stroke:#000000;stroke-opacity:1;stroke-width:0;stroke-linejoin:bevel;stroke-miterlimit:2;stroke-linecap:square;fill-rule:nonzero;fill:#000000;fill-opacity:1;"/>
        </g>
        <g id="Shape6">
            <desc shapeID="6" type="0" basicInfo-basicType="0" basicInfo-roundedRectRadius="12" basicInfo-polygonSides="6" basicInfo-starPoints="5" bounding="rect(-4.00049,-3.98748,8.00099,7.97492)" text="" font-familyName="" font-pixelSize="20" font-bold="0" font-underline="0" font-alignment="1" strokeStyle="0" markerStart="0" markerEnd="0" shadowEnabled="0" shadowOffsetX="0" shadowOffsetY="2" shadowBlur="4" shadowOpacity="160" blurEnabled="0" blurRadius="4" transform="matrix(6.3049,0,0,6.3049,413.1,362.239)" pers-center="0,0" pers-size="0,0" pers-start="0,0" pers-end="0,0" locked="0" mesh="" flag=""/>
            <path id="shapePath6" d="M387.878,361.502 C388.324,347.722 399.753,336.854 413.539,337.102 C427.593,337.682 438.603,349.394 438.317,363.456 C437.082,377.446 425.047,387.98 411.017,387.352 C397.794,385.987 387.775,374.795 387.878,361.502 Z" style="stroke:#000000;stroke-opacity:1;stroke-width:0;stroke-linejoin:bevel;stroke-miterlimit:2;stroke-linecap:square;fill-rule:nonzero;fill:#000000;fill-opacity:1;"/>
        </g>
        <g id="Shape7">
            <desc shapeID="7" type="0" basicInfo-basicType="0" basicInfo-roundedRectRadius="12" basicInfo-polygonSides="6" basicInfo-starPoints="5" bounding="rect(-4.01789,-4.00038,8.03575,8.00078)" text="" font-familyName="" font-pixelSize="20" font-bold="0" font-underline="0" font-alignment="1" strokeStyle="0" markerStart="0" markerEnd="0" shadowEnabled="0" shadowOffsetX="0" shadowOffsetY="2" shadowBlur="4" shadowOpacity="160" blurEnabled="0" blurRadius="4" transform="matrix(6.3049,0,0,6.3049,160.351,362.131)" pers-center="0,0" pers-size="0,0" pers-start="0,0" pers-end="0,0" locked="0" mesh="" flag=""/>
            <path id="shapePath7" d="M185.679,362.574 C185.439,376.329 174.218,387.354 160.46,387.352 C146.531,387.474 135.141,376.282 135.02,362.353 C134.898,348.425 146.09,337.035 160.018,336.913 C166.86,336.792 173.458,339.457 178.297,344.296 C183.135,349.135 185.8,355.732 185.679,362.574 Z" style="stroke:#000000;stroke-opacity:1;stroke-width:0;stroke-linejoin:bevel;stroke-miterlimit:2;stroke-linecap:square;fill-rule:nonzero;fill:#000000;fill-opacity:1;"/>
        </g>
    </g>
</svg>
