<?xml version="1.0"?>
<svg version="1.1" xmlns="http://www.w3.org/2000/svg" xmlns:xlink="http://www.w3.org/1999/xlink" width="500" height="500">
    <desc iVinci="yes" version="4.6" gridStep="20" showGrid="no" snapToGrid="no" codePlatform="0"/>
    <g id="Layer1" name="Layer 1" opacity="1">
        <g id="Shape1">
            <desc shapeID="1" type="0" basicInfo-basicType="0" basicInfo-roundedRectRadius="12" basicInfo-polygonSides="6" basicInfo-starPoints="5" bounding="rect(-30.3125,-36.95,60.625,73.9)" text="" font-familyName="" font-pixelSize="20" font-bold="0" font-underline="0" font-alignment="1" strokeStyle="0" markerStart="0" markerEnd="0" shadowEnabled="0" shadowOffsetX="0" shadowOffsetY="2" shadowBlur="4" shadowOpacity="160" blurEnabled="0" blurRadius="4" transform="matrix(6.76622,0,0,6.76622,250,250.012)" pers-center="0,0" pers-size="0,0" pers-start="0,0" pers-end="0,0" locked="0" mesh="" flag=""/>
            <path id="shapePath1" d="M139.48,173.892 C130.684,140.061 138.803,133.295 146.923,133.295 C148.953,133.295 148.953,133.295 150.982,133.971 L150.982,133.295 C150.982,133.295 127.301,54.1298 184.137,19.6221 C184.137,19.6221 173.988,11.5026 174.664,1.52588e-05 C174.664,1.52588e-05 201.052,2.70651 226.088,2.70651 C237.59,2.70651 248.416,2.02988 257.212,0.676621 C260.595,1.52588e-05 263.978,1.52588e-05 267.361,1.52588e-05 C291.043,0.676621 313.372,18.9454 317.432,36.5376 C317.432,36.5376 318.108,36.5376 318.108,36.5376 C325.551,36.5376 372.238,39.9207 349.909,133.971 C349.909,133.971 349.909,133.971 349.909,134.648 C351.263,134.648 351.939,133.971 353.293,133.971 C361.412,133.971 369.531,140.737 360.735,174.569 C353.969,201.634 347.203,208.4 342.467,208.4 C341.113,208.4 339.083,207.723 338.407,206.37 C335.024,227.345 326.228,253.733 303.899,272.002 C249.093,313.953 197.669,272.679 197.669,272.679 C175.341,254.41 165.868,228.022 162.485,207.047 C161.132,207.723 160.455,208.4 159.102,208.4 C153.012,207.723 146.246,200.957 139.48,173.892 M454.786,409.357 C456.139,387.705 454.786,343.048 416.218,333.575 C364.795,320.719 322.845,290.948 322.845,290.948 L284.277,413.416 L278.864,430.332 L261.272,380.938 C304.576,320.042 249.769,322.749 249.769,322.749 C249.769,322.749 194.963,320.719 238.267,380.938 L221.351,429.655 L215.938,413.416 L209.849,393.794 L177.371,290.271 C177.371,290.271 135.42,320.042 83.9968,332.898 C45.4293,342.371 43.3994,387.028 45.4293,408.68 C45.4293,408.68 44.7527,439.128 50.1656,451.307 C50.1656,451.307 125.271,500.024 251.123,500.024 L251.123,497.318 L251.123,500.024 C376.974,500.024 452.079,451.307 452.079,451.307 C455.463,439.805 454.786,409.357 454.786,409.357 Z" style="stroke:none;fill-rule:nonzero;fill:#000000;fill-opacity:1;"/>
        </g>
    </g>
</svg>
