<?xml version="1.0"?>
<svg version="1.1" xmlns="http://www.w3.org/2000/svg" xmlns:xlink="http://www.w3.org/1999/xlink" width="500" height="500">
    <desc iVinci="yes" version="4.6" gridStep="20" showGrid="no" snapToGrid="no" codePlatform="0"/>
    <g id="Layer1" name="Layer 1" opacity="1">
        <g id="Shape1">
            <desc shapeID="1" type="0" basicInfo-basicType="0" basicInfo-roundedRectRadius="12" basicInfo-polygonSides="6" basicInfo-starPoints="5" bounding="rect(-15.28,-15.27,30.5601,30.54)" text="" font-familyName="" font-pixelSize="20" font-bold="0" font-underline="0" font-alignment="1" strokeStyle="0" markerStart="0" markerEnd="0" shadowEnabled="0" shadowOffsetX="0" shadowOffsetY="2" shadowBlur="4" shadowOpacity="160" blurEnabled="0" blurRadius="4" transform="matrix(16.3613,0,0,16.3613,250.002,250.162)" pers-center="0,0" pers-size="0,0" pers-start="0,0" pers-end="0,0" locked="0" mesh="" flag=""/>
            <path id="shapePath1" d="M249.838,0.323914 C111.857,0.323914 3.05176e-05,112.181 3.05176e-05,250.162 C3.05176e-05,388.143 111.857,500 249.838,500 C294.798,499.924 339.388,491.891 381.548,476.277 L385.31,474.967 L363.387,416.23 L359.622,417.538 C324.461,430.71 287.222,437.471 249.674,437.499 C146.212,437.499 62.3377,353.627 62.3377,250.162 C62.3377,146.699 146.212,62.8254 249.674,62.8254 C353.139,62.8254 437.013,146.699 437.013,250.162 L437.013,305.136 C437.013,318.238 426.39,328.861 413.288,328.861 C400.186,328.861 389.565,318.238 389.565,305.136 L389.565,250.162 C389.033,184.477 342.666,128.097 278.319,114.895 C213.972,101.692 149.15,135.257 122.796,195.428 C96.4425,255.596 115.726,326.001 169.062,364.342 C222.398,402.685 295.277,398.535 343.916,354.384 C365.65,384.806 404.538,397.716 440.151,386.329 C475.761,374.945 499.95,341.869 500.004,304.483 L500.004,250.162 C499.554,112.239 387.761,0.593536 249.838,0.323914 M249.838,327.551 C206.736,327.551 171.794,292.609 171.794,249.507 C171.794,206.405 206.736,171.465 249.838,171.465 C292.94,171.465 327.882,206.405 327.882,249.507 C328.056,270.32 319.911,290.338 305.255,305.116 C290.602,319.893 270.651,328.206 249.838,328.206 L249.838,327.551 Z" style="stroke:none;fill-rule:nonzero;fill:#000000;fill-opacity:1;"/>
        </g>
    </g>
</svg>
