<?xml version="1.0"?>
<svg version="1.1" xmlns="http://www.w3.org/2000/svg" xmlns:xlink="http://www.w3.org/1999/xlink" width="500" height="500">
    <desc iVinci="yes" version="4.6" gridStep="20" showGrid="no" snapToGrid="no" codePlatform="0"/>
    <g id="Layer1" name="Layer 1" opacity="1">
        <g id="Shape1">
            <desc shapeID="1" type="0" basicInfo-basicType="0" basicInfo-roundedRectRadius="12" basicInfo-polygonSides="6" basicInfo-starPoints="5" bounding="rect(-249.408,-246.777,498.816,493.554)" text="" font-familyName="" font-pixelSize="20" font-bold="0" font-underline="0" font-alignment="1" strokeStyle="0" markerStart="0" markerEnd="0" shadowEnabled="0" shadowOffsetX="0" shadowOffsetY="2" shadowBlur="4" shadowOpacity="160" blurEnabled="0" blurRadius="4" transform="matrix(1,0,0,1,249.799,246.869)" pers-center="0,0" pers-size="0,0" pers-start="0,0" pers-end="0,0" locked="0" mesh="" flag=""/>
            <path id="shapePath1" d="M488.683,200.039 L429.751,190.568 C426.594,180.045 422.385,169.521 416.07,158.998 C426.594,144.265 439.222,129.532 449.746,114.799 C451.851,112.694 451.851,110.589 451.851,107.432 C451.851,105.328 450.798,102.171 449.746,100.066 C436.065,81.1235 413.966,61.1288 396.076,45.3434 C393.971,43.2387 390.814,42.1864 387.657,42.1864 C384.5,42.1864 382.395,43.2387 380.29,45.3434 L333.987,80.0711 C324.516,74.8094 315.045,71.6523 304.521,68.4952 L295.05,9.56343 C293.997,4.30165 288.736,0.0922394 283.474,0.0922394 L211.914,0.0922394 C205.6,0.0922394 201.39,4.30165 200.338,9.56343 C195.076,28.5058 192.972,49.5529 190.867,69.5476 C180.343,72.7047 170.872,76.9141 161.401,82.1758 L117.202,47.4482 C115.097,45.3434 111.94,44.2911 108.783,44.2911 C98.2597,44.2911 54.0609,91.647 46.6944,102.171 C44.5897,104.275 43.5373,106.38 43.5373,109.537 C43.5373,112.694 44.5897,114.799 46.6944,116.904 C58.2703,131.636 69.8462,146.369 81.4221,161.102 C76.1603,170.574 71.9509,180.045 68.7938,190.568 L8.80966,200.039 C3.5479,201.092 0.390839,206.354 0.390839,211.615 L0.390839,283.175 C0.390839,288.437 4.60025,293.699 9.86201,294.751 L68.7938,303.17 C71.9509,313.694 76.1603,325.27 82.4744,334.741 C71.9509,349.474 59.3226,364.207 48.7991,378.94 C46.6944,381.044 46.6944,383.149 46.6944,386.306 C46.6944,389.463 47.7467,391.568 48.7991,393.672 C62.4797,412.615 84.5791,432.61 102.469,448.395 C104.574,450.5 107.731,451.552 110.888,451.552 C114.045,451.552 117.202,450.5 119.307,448.395 L164.558,413.667 C174.029,418.929 183.5,422.086 194.024,425.243 L203.495,484.175 C204.547,489.437 209.809,493.646 215.071,493.646 L286.631,493.646 C292.945,493.646 297.155,489.437 298.207,484.175 C303.469,465.233 305.573,444.185 307.678,424.191 C318.202,421.034 327.673,416.824 337.144,411.562 L381.343,446.29 C383.448,448.395 386.605,449.447 389.762,449.447 C400.285,449.447 444.484,402.091 451.851,391.568 C453.955,389.463 455.008,387.358 455.008,384.201 C455.008,381.044 453.955,378.94 451.851,375.782 C440.275,361.05 428.699,347.369 417.123,331.584 C422.385,322.112 426.594,312.641 429.751,302.118 L489.735,292.647 C494.997,291.594 499.206,286.332 499.206,281.071 L499.206,209.511 C498.154,206.354 494.997,201.092 488.683,200.039 M250.851,362.102 C187.71,362.102 136.144,310.537 136.144,247.395 C136.144,184.254 187.71,132.689 250.851,132.689 C313.992,132.689 365.558,184.254 365.558,247.395 C364.505,310.537 312.94,362.102 250.851,362.102 Z" style="stroke:none;fill-rule:nonzero;fill:#000000;fill-opacity:1;"/>
        </g>
        <g id="Shape2">
            <desc shapeID="2" type="0" basicInfo-basicType="0" basicInfo-roundedRectRadius="12" basicInfo-polygonSides="6" basicInfo-starPoints="5" bounding="rect(-24.7303,-24.2041,49.4606,48.4083)" text="" font-familyName="" font-pixelSize="20" font-bold="0" font-underline="0" font-alignment="1" strokeStyle="0" markerStart="0" markerEnd="0" shadowEnabled="0" shadowOffsetX="0" shadowOffsetY="2" shadowBlur="4" shadowOpacity="160" blurEnabled="0" blurRadius="4" transform="matrix(1,0,0,1,251.325,306.327)" pers-center="0,0" pers-size="0,0" pers-start="0,0" pers-end="0,0" locked="0" mesh="" flag=""/>
            <path id="shapePath2" d="M269.741,282.123 L232.909,282.123 C229.752,282.123 226.595,285.28 226.595,288.437 L226.595,324.217 C226.595,327.374 229.752,330.531 232.909,330.531 L269.741,330.531 C272.898,330.531 276.055,327.374 276.055,324.217 L276.055,288.437 C275.003,284.228 272.898,282.123 269.741,282.123 Z" style="stroke:none;fill-rule:nonzero;fill:#000000;fill-opacity:1;"/>
        </g>
        <g id="Shape3">
            <desc shapeID="3" type="0" basicInfo-basicType="0" basicInfo-roundedRectRadius="12" basicInfo-polygonSides="6" basicInfo-starPoints="5" bounding="rect(-26.835,-48.4083,53.67,96.8165)" text="" font-familyName="" font-pixelSize="20" font-bold="0" font-underline="0" font-alignment="1" strokeStyle="0" markerStart="0" markerEnd="0" shadowEnabled="0" shadowOffsetX="0" shadowOffsetY="2" shadowBlur="4" shadowOpacity="160" blurEnabled="0" blurRadius="4" transform="matrix(1,0,0,1,250.272,209.511)" pers-center="0,0" pers-size="0,0" pers-start="0,0" pers-end="0,0" locked="0" mesh="" flag=""/>
            <path id="shapePath3" d="M271.846,161.102 L229.752,161.102 C227.647,161.102 226.595,162.155 225.542,163.207 C224.49,164.259 223.437,166.364 223.437,167.416 L226.595,253.709 C226.595,255.814 229.752,257.919 232.909,257.919 L267.636,257.919 C270.793,257.919 273.95,255.814 273.95,253.709 L277.107,166.364 C277.107,165.312 276.055,163.207 275.003,163.207 C275.003,162.155 273.95,161.102 271.846,161.102 Z" style="stroke:none;fill-rule:nonzero;fill:#000000;fill-opacity:1;"/>
        </g>
    </g>
</svg>
