<?xml version="1.0"?>
<svg version="1.1" xmlns="http://www.w3.org/2000/svg" xmlns:xlink="http://www.w3.org/1999/xlink" width="500" height="500">
    <desc iVinci="yes" version="4.6" gridStep="20" showGrid="no" snapToGrid="no" codePlatform="0"/>
    <g id="Layer1" name="Layer 1" opacity="1">
        <g id="Shape1">
            <desc shapeID="1" type="0" basicInfo-basicType="0" basicInfo-roundedRectRadius="12" basicInfo-polygonSides="6" basicInfo-starPoints="5" bounding="rect(-704,-192,1408,384)" text="" font-familyName="" font-pixelSize="20" font-bold="0" font-underline="0" font-alignment="1" strokeStyle="0" markerStart="0" markerEnd="0" shadowEnabled="0" shadowOffsetX="0" shadowOffsetY="2" shadowBlur="4" shadowOpacity="160" blurEnabled="0" blurRadius="4" transform="matrix(0.326703,0,0,0.326703,250,250)" pers-center="0,0" pers-size="0,0" pers-start="0,0" pers-end="0,0" locked="0" mesh="" flag=""/>
            <path id="shapePath1" d="M145.455,218.636 L145.455,281.363 C145.455,290.076 142.406,297.481 136.307,303.579 C130.209,309.678 122.804,312.727 114.091,312.727 L51.3644,312.727 C42.6524,312.727 35.2471,309.678 29.1486,303.579 C23.0501,297.481 20.0009,290.076 20.0009,281.363 L20.0009,218.636 C20.0009,209.924 23.0501,202.519 29.1486,196.421 C35.2471,190.322 42.6524,187.273 51.3644,187.273 L114.091,187.273 C122.804,187.273 130.209,190.322 136.307,196.421 C142.406,202.519 145.455,209.924 145.455,218.636 M312.727,218.636 L312.727,281.363 C312.727,290.076 309.678,297.481 303.579,303.579 C297.481,309.678 290.076,312.727 281.363,312.727 L218.636,312.727 C209.924,312.727 202.519,309.678 196.421,303.579 C190.322,297.481 187.273,290.076 187.273,281.363 L187.273,218.636 C187.273,209.924 190.322,202.519 196.421,196.421 C202.519,190.322 209.924,187.273 218.636,187.273 L281.363,187.273 C290.076,187.273 297.481,190.322 303.579,196.421 C309.678,202.519 312.727,209.924 312.727,218.636 M479.999,218.636 L479.999,281.363 C479.999,290.076 476.95,297.481 470.851,303.579 C464.753,309.678 457.348,312.727 448.636,312.727 L385.909,312.727 C377.196,312.727 369.791,309.678 363.693,303.579 C357.594,297.481 354.545,290.076 354.545,281.363 L354.545,218.636 C354.545,209.924 357.594,202.519 363.693,196.421 C369.791,190.322 377.196,187.273 385.909,187.273 L448.636,187.273 C457.348,187.273 464.753,190.322 470.851,196.421 C476.95,202.519 479.999,209.924 479.999,218.636 Z" style="stroke:none;fill-rule:nonzero;fill:#000000;fill-opacity:1;"/>
        </g>
    </g>
</svg>
