<?xml version="1.0"?>
<svg version="1.1" xmlns="http://www.w3.org/2000/svg" xmlns:xlink="http://www.w3.org/1999/xlink" width="500" height="500">
    <desc iVinci="yes" version="4.6" gridStep="20" showGrid="no" snapToGrid="no" codePlatform="0"/>
    <g id="Layer1" name="Layer 1" opacity="1">
        <g id="Shape1">
            <desc shapeID="1" type="0" basicInfo-basicType="0" basicInfo-roundedRectRadius="12" basicInfo-polygonSides="6" basicInfo-starPoints="5" bounding="rect(-17.3501,-23.4,34.7002,46.8001)" text="" font-familyName="" font-pixelSize="20" font-bold="0" font-underline="0" font-alignment="1" strokeStyle="0" markerStart="0" markerEnd="0" shadowEnabled="0" shadowOffsetX="0" shadowOffsetY="2" shadowBlur="4" shadowOpacity="160" blurEnabled="0" blurRadius="4" transform="matrix(0.0119317,10.6749,-10.6749,0.0119317,250.262,250.139)" pers-center="0,0" pers-size="0,0" pers-start="0,0" pers-end="0,0" locked="0" mesh="" flag=""/>
            <path id="shapePath1" d="M251.535,435.348 C254.734,431.075 263.267,423.593 274.994,411.837 C319.786,371.223 361.371,330.611 401.892,291.069 C423.22,270.762 443.48,251.524 460.543,235.493 C473.339,223.736 487.202,210.91 500,200.222 C499.998,199.155 499.997,198.087 499.997,198.087 C499.943,148.982 499.905,115.89 499.853,68.9202 C499.852,67.8527 499.849,65.7179 499.848,64.6495 C483.854,80.6803 466.791,96.7115 450.796,112.741 C440.132,122.361 429.469,133.048 418.805,142.668 C362.289,196.106 303.639,250.614 251.389,304.047 C251.389,304.047 250.324,304.048 250.325,305.116 C250.325,305.116 249.257,305.117 249.255,304.05 C195.821,250.735 137.048,196.358 81.4789,143.045 C70.7941,133.449 60.1069,122.786 49.4211,113.19 C32.3226,97.1972 16.2917,81.2028 0.261551,65.2083 C0.262787,66.2757 0.265137,68.4115 0.266327,69.4789 C0.318817,116.448 0.357056,150.607 0.410736,198.645 C0.411896,199.713 0.413086,200.779 0.413086,200.779 C14.3045,212.508 27.1266,224.235 39.9496,235.963 C57.0481,251.957 77.3503,271.149 98.7232,291.408 C139.333,330.86 181.012,371.377 225.891,411.892 C237.644,422.554 246.194,431.085 249.402,435.351 C249.402,435.351 250.47,434.282 250.47,434.282 C250.47,434.282 251.535,434.281 251.535,435.348 Z" style="stroke:none;fill-rule:evenodd;fill:#000000;fill-opacity:1;"/>
        </g>
    </g>
</svg>
