<?xml version="1.0"?>
<svg version="1.1" xmlns="http://www.w3.org/2000/svg" xmlns:xlink="http://www.w3.org/1999/xlink" width="500" height="500">
    <desc iVinci="yes" version="4.6" gridStep="20" showGrid="no" snapToGrid="no" codePlatform="0"/>
    <g id="Layer1" name="Layer 1" opacity="1">
        <g id="Shape1">
            <desc shapeID="1" type="0" basicInfo-basicType="0" basicInfo-roundedRectRadius="12" basicInfo-polygonSides="6" basicInfo-starPoints="5" bounding="rect(-190.564,-149.261,381.127,298.522)" text="" font-familyName="" font-pixelSize="20" font-bold="0" font-underline="0" font-alignment="1" strokeStyle="0" markerStart="0" markerEnd="0" shadowEnabled="0" shadowOffsetX="0" shadowOffsetY="2" shadowBlur="4" shadowOpacity="160" blurEnabled="0" blurRadius="4" transform="matrix(1.29492,0,0,1.29492,250,250)" pers-center="0,0" pers-size="0,0" pers-start="0,0" pers-end="0,0" locked="0" mesh="" flag=""/>
            <path id="shapePath1" d="M52.2913,56.7196 C48.6401,56.7291 45.4143,56.8029 42.4679,56.9844 C30.6824,57.7105 21.6433,62.0691 14.9611,69.4235 C7.92998,77.162 4.5175,86.7521 3.65875,98.7451 C2.8,110.738 3.51021,126.281 3.51021,151.679 L23.3507,151.679 C23.3507,125.943 22.7421,110.019 23.4476,100.166 C24.1531,90.3134 25.1791,87.6778 29.6413,82.7668 C34.4525,77.4716 34.3331,77.3686 43.6821,76.7926 C53.0311,76.2166 70.1184,77.0833 100.51,77.0833 L100.51,57.2492 C85.5182,57.2492 73.9489,56.9982 64.6593,56.8423 C60.0145,56.7644 55.9424,56.7101 52.2913,56.7196 M447.519,57.6884 C443.868,57.6789 439.79,57.7332 435.145,57.8111 C425.855,57.9669 414.292,58.218 399.3,58.218 L399.3,78.052 C429.692,78.052 446.773,77.1854 456.122,77.7614 C465.471,78.3374 465.352,78.4403 470.163,83.7355 C474.625,88.6466 475.658,91.2821 476.363,101.135 C477.068,110.987 476.46,126.911 476.46,152.648 L496.3,152.648 C496.3,127.25 497.004,111.707 496.145,99.7139 C495.287,87.7209 491.881,78.1308 484.849,70.3923 C478.167,63.0379 469.135,58.6793 457.349,57.9532 C454.403,57.7717 451.171,57.6979 447.519,57.6884 M217.603,120.53 L217.603,216.548 L238.735,216.548 L238.735,120.53 L217.603,120.53 M369.113,120.639 L369.113,216.664 L390.245,216.664 L390.245,120.639 L369.113,120.639 M66.2094,120.678 L66.2094,216.703 L87.3416,216.703 L87.3416,120.678 L66.2094,120.678 M174.066,120.678 L174.066,216.703 L195.199,216.703 L195.199,120.678 L174.066,120.678 M325.124,120.678 L325.124,216.703 L346.256,216.703 L346.256,120.678 L325.124,120.678 M410.448,120.678 L410.448,216.703 L431.58,216.703 L431.58,120.678 L410.448,120.678 M110.721,121.272 L110.721,216.115 L150.693,216.115 L150.693,121.272 L110.721,121.272 M261.85,121.272 L261.85,216.115 L301.822,216.115 L301.822,121.272 L261.85,121.272 M59.1244,238.578 C54.9498,238.53 51.0717,240.73 48.9706,244.338 C46.8694,247.945 46.8694,252.404 48.9706,256.011 C51.0717,259.619 54.9498,261.818 59.1244,261.771 L436.533,261.771 C440.001,262.566 443.641,261.726 446.41,259.492 C449.178,257.258 450.768,253.877 450.723,250.32 L450.723,250.171 C450.721,243.769 445.531,238.58 439.13,238.578 L59.1244,238.578 M219.05,282.638 L219.05,378.657 L240.182,378.657 L240.182,282.638 L219.05,282.638 M370.56,282.748 L370.56,378.773 L391.692,378.773 L391.692,282.748 L370.56,282.748 M67.6561,282.787 L67.6561,378.812 L88.7883,378.812 L88.7883,282.787 L67.6561,282.787 M175.513,282.787 L175.513,378.812 L196.645,378.812 L196.645,282.787 L175.513,282.787 M326.571,282.787 L326.571,378.812 L347.703,378.812 L347.703,282.787 L326.571,282.787 M411.894,282.787 L411.894,378.812 L433.026,378.812 L433.026,282.787 L411.894,282.787 M112.168,283.381 L112.168,378.224 L152.14,378.224 L152.14,283.381 L112.168,283.381 M263.297,283.381 L263.297,378.224 L303.269,378.224 L303.269,283.381 L263.297,283.381 M476.654,347.352 C476.654,373.089 477.256,389.013 476.55,398.865 C475.845,408.718 474.819,411.353 470.357,416.264 C465.545,421.56 465.665,421.663 456.316,422.239 C446.967,422.815 429.886,421.941 399.494,421.941 L399.494,441.782 C429.478,441.782 445.751,442.773 457.536,442.047 C469.322,441.321 478.355,436.962 485.037,429.608 C492.068,421.869 495.48,412.279 496.339,400.286 C497.198,388.293 496.494,372.75 496.494,347.352 L476.654,347.352 M3.69749,348.321 C3.69749,373.719 2.99374,389.255 3.85251,401.248 C4.71126,413.241 8.11726,422.838 15.1484,430.576 C21.8306,437.931 30.8697,442.289 42.6552,443.016 C54.4407,443.742 70.7133,442.751 100.698,442.751 L100.698,422.91 C70.3057,422.91 53.2249,423.783 43.8758,423.207 C34.5268,422.631 34.6462,422.528 29.8351,417.233 C25.3729,412.322 24.3468,409.687 23.6413,399.834 C22.9359,389.981 23.538,374.057 23.538,348.321 L3.69749,348.321 Z" style="stroke:#000000;stroke-opacity:1;stroke-width:0.973111;stroke-linejoin:round;stroke-miterlimit:2;stroke-linecap:butt;fill-rule:nonzero;fill:#000000;fill-opacity:1;"/>
        </g>
    </g>
</svg>
