<?xml version="1.0"?>
<svg version="1.1" xmlns="http://www.w3.org/2000/svg" xmlns:xlink="http://www.w3.org/1999/xlink" width="500" height="500">
    <desc iVinci="yes" version="4.6" gridStep="20" showGrid="no" snapToGrid="no" codePlatform="0"/>
    <g id="Layer1" name="Layer 1" opacity="1">
        <g id="Shape1">
            <desc shapeID="1" type="0" basicInfo-basicType="0" basicInfo-roundedRectRadius="12" basicInfo-polygonSides="6" basicInfo-starPoints="5" bounding="rect(-768,-704,1536,1408)" text="" font-familyName="" font-pixelSize="20" font-bold="0" font-underline="0" font-alignment="1" strokeStyle="0" markerStart="0" markerEnd="0" shadowEnabled="0" shadowOffsetX="0" shadowOffsetY="2" shadowBlur="4" shadowOpacity="160" blurEnabled="0" blurRadius="4" transform="matrix(0.299549,0,0,0.299549,250,250)" pers-center="0,0" pers-size="0,0" pers-start="0,0" pers-end="0,0" locked="0" mesh="" flag=""/>
            <path id="shapePath1" d="M125.388,384.198 L125.388,422.54 L19.9463,422.54 L19.9463,384.198 L125.388,384.198 M230.829,345.856 C236.021,345.856 240.514,347.753 244.309,351.547 C248.103,355.341 250,359.835 250,365.027 L250,441.711 C250,446.904 248.103,451.397 244.309,455.191 C240.514,458.985 236.021,460.883 230.829,460.883 L154.144,460.883 C148.952,460.883 144.459,458.985 140.665,455.191 C136.87,451.397 134.973,446.904 134.973,441.711 L134.973,365.027 C134.973,359.835 136.87,355.341 140.665,351.547 C144.459,347.753 148.952,345.856 154.144,345.856 L230.829,345.856 M278.757,230.829 L278.757,269.171 L19.9463,269.171 L19.9463,230.829 L278.757,230.829 M87.0453,77.4597 L87.0453,115.802 L19.9463,115.802 L19.9463,77.4597 L87.0453,77.4597 M480.054,384.198 L480.054,422.54 L259.586,422.54 L259.586,384.198 L480.054,384.198 M192.487,39.1175 C197.679,39.1175 202.172,41.0146 205.966,44.8089 C209.761,48.6032 211.658,53.0964 211.658,58.2886 L211.658,134.973 C211.658,140.165 209.761,144.659 205.966,148.453 C202.172,152.247 197.679,154.144 192.487,154.144 L115.802,154.144 C110.61,154.144 106.117,152.247 102.322,148.453 C98.528,144.659 96.6309,140.165 96.6309,134.973 L96.6309,58.2886 C96.6309,53.0964 98.528,48.6032 102.322,44.8089 C106.117,41.0146 110.61,39.1175 115.802,39.1175 L192.487,39.1175 M384.198,192.487 C389.39,192.487 393.884,194.384 397.678,198.178 C401.472,201.972 403.369,206.466 403.369,211.658 L403.369,288.342 C403.369,293.535 401.472,298.028 397.678,301.822 C393.884,305.616 389.39,307.513 384.198,307.513 L307.513,307.513 C302.321,307.513 297.828,305.616 294.034,301.822 C290.239,298.028 288.342,293.535 288.342,288.342 L288.342,211.658 C288.342,206.466 290.239,201.972 294.034,198.178 C297.828,194.384 302.321,192.487 307.513,192.487 L384.198,192.487 M480.054,230.829 L480.054,269.171 L412.955,269.171 L412.955,230.829 L480.054,230.829 M480.054,77.4597 L480.054,115.802 L221.243,115.802 L221.243,77.4597 L480.054,77.4597 Z" style="stroke:none;fill-rule:nonzero;fill:#000000;fill-opacity:1;"/>
        </g>
    </g>
</svg>
