<?xml version="1.0"?>
<svg version="1.1" xmlns="http://www.w3.org/2000/svg" xmlns:xlink="http://www.w3.org/1999/xlink" width="500" height="500">
    <desc iVinci="yes" version="4.6" gridStep="20" showGrid="no" snapToGrid="no" codePlatform="0"/>
    <g id="Layer1" name="Layer 1" opacity="1">
        <g id="Shape1">
            <desc shapeID="1" type="0" basicInfo-basicType="0" basicInfo-roundedRectRadius="12" basicInfo-polygonSides="6" basicInfo-starPoints="5" bounding="rect(-832.002,-768.001,1664,1536)" text="" font-familyName="Helvetica" font-pixelSize="20" font-bold="0" font-underline="0" font-alignment="1" strokeStyle="0" markerStart="0" markerEnd="0" shadowEnabled="0" shadowOffsetX="0" shadowOffsetY="2" shadowBlur="4" shadowOpacity="160" blurEnabled="0" blurRadius="4" transform="matrix(0.300465,0,0,-0.300465,249.988,250)" pers-center="0,0" pers-size="0,0" pers-start="0,0" pers-end="0,0" locked="0" mesh="" flag=""/>
            <path id="shapePath1" d="M115.379,442.298 L384.596,442.298 L384.596,365.379 L115.379,365.379 L115.379,442.298 M115.379,250 L384.596,250 L384.596,134.621 L336.521,134.621 C328.509,134.621 321.298,131.416 316.09,126.208 C310.882,121 307.677,113.789 307.677,105.776 L307.677,57.702 L115.379,57.702 L115.379,250 M461.515,269.23 C461.515,263.887 459.265,259.168 455.806,255.709 C452.347,252.25 447.177,250 442.285,250 C437.393,250 432.223,252.25 428.764,255.709 C425.305,259.168 423.055,264.338 423.055,269.23 C423.055,274.122 425.305,279.292 428.764,282.751 C432.223,286.21 437.393,288.459 442.285,288.459 C447.177,288.459 452.347,286.21 455.806,282.751 C459.265,279.292 461.515,274.511 461.515,269.23 M499.975,269.23 L499.975,394.223 C499.975,396.827 498.85,399.254 497.12,400.984 C495.39,402.714 492.964,403.838 490.36,403.838 L423.055,403.838 L423.055,451.913 C423.055,459.925 419.85,467.136 414.642,472.344 C409.434,477.552 402.223,480.757 394.211,480.757 L105.764,480.757 C97.7515,480.757 90.5404,477.552 85.3322,472.344 C80.1242,467.136 76.9192,459.925 76.9192,451.913 L76.9192,403.838 L9.61494,403.838 C7.01093,403.838 4.58408,402.714 2.85446,400.984 C1.12466,399.254 3.05176e-05,396.827 3.05176e-05,394.223 L3.05176e-05,269.23 C3.05176e-05,253.405 6.57947,238.914 16.9764,228.517 C27.3734,218.12 41.8649,211.54 57.6894,211.54 L76.9192,211.54 L76.9192,48.0871 C76.9192,40.0747 80.1241,32.8635 85.3322,27.6555 C90.5403,22.4474 97.7515,19.2424 105.764,19.2424 L307.677,19.2424 C315.689,19.2424 325.769,21.7898 334.118,25.2517 C342.434,28.6999 351.344,34.0654 356.953,39.6741 L402.624,85.3448 C408.232,90.9535 413.598,99.8638 417.046,108.18 C420.508,116.529 423.055,126.609 423.055,134.621 L423.055,211.54 L442.285,211.54 C458.11,211.54 472.601,218.12 482.998,228.517 C493.395,238.914 499.975,253.405 499.975,269.23 Z" style="stroke:none;fill-rule:evenodd;fill:#000000;fill-opacity:1;"/>
        </g>
    </g>
</svg>
