<?xml version="1.0"?>
<svg version="1.1" xmlns="http://www.w3.org/2000/svg" xmlns:xlink="http://www.w3.org/1999/xlink" width="500" height="500">
    <desc iVinci="yes" version="4.6" gridStep="20" showGrid="no" snapToGrid="no" codePlatform="0"/>
    <g id="Layer1" name="Layer 1" opacity="1">
        <g id="Shape1">
            <desc shapeID="1" type="0" basicInfo-basicType="0" basicInfo-roundedRectRadius="12" basicInfo-polygonSides="6" basicInfo-starPoints="5" bounding="rect(-249.775,-160.272,499.549,320.544)" text="" font-familyName="" font-pixelSize="20" font-bold="0" font-underline="0" font-alignment="1" strokeStyle="0" markerStart="0" markerEnd="0" shadowEnabled="0" shadowOffsetX="0" shadowOffsetY="2" shadowBlur="4" shadowOpacity="160" blurEnabled="0" blurRadius="4" transform="matrix(1,0,0,1,249.144,160.512)" pers-center="0,0" pers-size="0,0" pers-start="0,0" pers-end="0,0" locked="0" mesh="" flag=""/>
            <path id="shapePath1" d="M493.715,179.245 C442.719,263.544 348.013,320.784 249.144,320.784 C150.275,320.784 56.6091,263.544 4.57272,179.245 C1.45053,173.001 -0.63092,166.756 -0.63092,160.512 C-0.63092,154.268 1.45053,146.982 4.57272,141.779 C55.5684,57.4799 150.275,0.239899 249.144,0.239899 C348.013,0.239899 441.678,57.4799 493.715,141.779 C496.837,148.023 498.918,154.268 498.918,160.512 C498.918,166.756 496.837,174.041 493.715,179.245 M357.379,61.6428 C368.827,80.3759 374.031,102.231 374.031,124.086 C374.031,192.775 317.832,248.974 249.144,248.974 C180.456,248.974 124.256,192.775 124.256,124.086 C124.256,102.231 130.501,80.3759 140.908,61.6428 C97.1975,83.4981 60.772,118.883 34.7538,160.512 C82.6273,234.404 159.641,285.399 249.144,285.399 C338.646,285.399 415.66,234.404 463.534,160.512 C436.475,119.924 401.09,84.5388 357.379,61.6428 M249.144,39.7875 C202.311,39.7875 164.845,78.2945 164.845,124.086 C164.845,131.372 171.089,137.616 178.374,137.616 C185.659,137.616 191.904,131.372 191.904,124.086 C191.904,91.8239 217.922,65.8057 250.184,65.8057 C257.47,65.8057 263.714,59.5614 263.714,52.2763 C263.714,44.9912 256.429,39.7875 249.144,39.7875 Z" style="stroke:none;fill-rule:nonzero;fill:#000000;fill-opacity:1;"/>
        </g>
    </g>
</svg>
