<?xml version="1.0"?>
<svg version="1.1" xmlns="http://www.w3.org/2000/svg" xmlns:xlink="http://www.w3.org/1999/xlink" width="500" height="500">
    <desc iVinci="yes" version="4.6" gridStep="20" showGrid="no" snapToGrid="no" codePlatform="0"/>
    <g id="Layer1" name="Layer 1" opacity="1">
        <g id="Shape1">
            <desc shapeID="1" type="0" basicInfo-basicType="0" basicInfo-roundedRectRadius="12" basicInfo-polygonSides="6" basicInfo-starPoints="5" bounding="rect(-499,-291.001,998.001,582.002)" text="" font-familyName="" font-pixelSize="20" font-bold="0" font-underline="0" font-alignment="1" strokeStyle="0" markerStart="0" markerEnd="0" shadowEnabled="0" shadowOffsetX="0" shadowOffsetY="2" shadowBlur="4" shadowOpacity="160" blurEnabled="0" blurRadius="4" transform="matrix(0.460933,0,0,-0.460933,250,250)" pers-center="0,0" pers-size="0,0" pers-start="0,0" pers-end="0,0" locked="0" mesh="" flag=""/>
            <path id="shapePath1" d="M480.006,345.874 C480.006,341.879 478.469,338.346 475.396,335.273 L260.601,120.478 C257.529,117.405 253.995,115.868 250,115.868 C246.005,115.868 242.471,117.405 239.399,120.478 L24.6037,335.273 C21.5309,338.346 19.9944,341.879 19.9944,345.874 C19.9944,349.869 21.5309,353.403 24.6037,356.476 L47.6504,379.522 C50.7233,382.595 54.2571,384.132 58.2519,384.132 C62.2466,384.132 65.7804,382.595 68.8533,379.522 L250,198.375 L431.147,379.522 C434.22,382.595 437.753,384.132 441.748,384.132 C445.743,384.132 449.277,382.595 452.35,379.522 L475.396,356.476 C478.469,353.403 480.006,349.869 480.006,345.874 Z" style="stroke:none;fill-rule:evenodd;fill:#000000;fill-opacity:1;"/>
        </g>
    </g>
</svg>
