<?xml version="1.0"?>
<svg version="1.1" xmlns="http://www.w3.org/2000/svg" xmlns:xlink="http://www.w3.org/1999/xlink" width="500" height="500">
    <desc iVinci="yes" version="4.6" gridStep="20" showGrid="no" snapToGrid="no" codePlatform="0"/>
    <g id="Layer1" name="Layer 1" opacity="1">
        <g id="Shape1">
            <desc shapeID="1" type="0" basicInfo-basicType="0" basicInfo-roundedRectRadius="12" basicInfo-polygonSides="6" basicInfo-starPoints="5" bounding="rect(-768,-768,1536,1536)" text="" font-familyName="" font-pixelSize="20" font-bold="0" font-underline="0" font-alignment="1" strokeStyle="0" markerStart="0" markerEnd="0" shadowEnabled="0" shadowOffsetX="0" shadowOffsetY="2" shadowBlur="4" shadowOpacity="160" blurEnabled="0" blurRadius="4" transform="matrix(0.325521,0,0,0.325521,250,250)" pers-center="0,0" pers-size="0,0" pers-start="0,0" pers-end="0,0" locked="0" mesh="" flag=""/>
            <path id="shapePath1" d="M291.667,406.25 L291.667,343.75 C291.667,340.712 290.69,338.216 288.737,336.263 C286.784,334.31 284.288,333.333 281.25,333.333 L218.75,333.333 C215.712,333.333 213.216,334.31 211.263,336.263 C209.31,338.216 208.333,340.712 208.333,343.75 L208.333,406.25 C208.333,409.288 209.31,411.784 211.263,413.737 C213.216,415.69 215.712,416.667 218.75,416.667 L281.25,416.667 C284.288,416.667 286.784,415.69 288.737,413.737 C290.69,411.784 291.667,409.288 291.667,406.25 M375,187.5 C375,168.403 368.978,150.716 356.934,134.44 C344.889,118.164 329.861,105.577 311.849,96.6797 C293.837,87.7821 275.391,83.3333 256.51,83.3333 C203.776,83.3333 163.52,106.445 135.742,152.669 C132.487,157.878 133.355,162.435 138.346,166.341 L181.315,198.893 C182.834,200.195 184.896,200.846 187.5,200.846 C190.972,200.846 193.685,199.544 195.638,196.94 C207.14,182.183 216.471,172.201 223.633,166.992 C231.011,161.784 240.343,159.18 251.628,159.18 C262.044,159.18 271.322,162.001 279.46,167.643 C287.598,173.286 291.667,179.688 291.667,186.849 C291.667,195.095 289.497,201.714 285.156,206.706 C280.816,211.697 273.438,216.58 263.021,221.354 C249.349,227.431 236.816,236.816 225.423,249.512 C214.03,262.207 208.333,275.825 208.333,290.365 L208.333,302.083 C208.333,305.122 209.31,307.617 211.263,309.57 C213.216,311.523 215.712,312.5 218.75,312.5 L281.25,312.5 C284.288,312.5 286.784,311.523 288.737,309.57 C290.69,307.617 291.667,305.122 291.667,302.083 C291.667,297.96 294,292.589 298.665,285.97 C303.331,279.351 309.245,273.98 316.406,269.857 C323.351,265.951 328.668,262.858 332.357,260.579 C336.046,258.301 341.037,254.503 347.331,249.186 C353.624,243.869 358.453,238.661 361.816,233.561 C365.18,228.461 368.218,221.897 370.931,213.867 C373.644,205.838 375,197.049 375,187.5 M500,250 C500,295.356 488.824,337.185 466.471,375.488 C444.119,413.791 413.791,444.119 375.488,466.471 C337.185,488.824 295.356,500 250,500 C204.644,500 162.815,488.824 124.512,466.471 C86.2088,444.119 55.8811,413.791 33.5286,375.488 C11.1762,337.185 0,295.356 0,250 C0,204.644 11.1762,162.815 33.5286,124.512 C55.8811,86.2088 86.2088,55.8811 124.512,33.5286 C162.815,11.1762 204.644,0 250,0 C295.356,0 337.185,11.1762 375.488,33.5286 C413.791,55.8811 444.119,86.2088 466.471,124.512 C488.824,162.815 500,204.644 500,250 Z" style="stroke:none;fill-rule:nonzero;fill:#000000;fill-opacity:1;"/>
        </g>
    </g>
</svg>
