<?xml version="1.0"?>
<svg version="1.1" xmlns="http://www.w3.org/2000/svg" xmlns:xlink="http://www.w3.org/1999/xlink" width="500" height="500">
    <desc iVinci="yes" version="4.6" gridStep="20" showGrid="no" snapToGrid="no" codePlatform="0"/>
    <g id="Layer1" name="Layer 1" opacity="1">
        <g id="Shape1">
            <desc shapeID="1" type="0" basicInfo-basicType="0" basicInfo-roundedRectRadius="12" basicInfo-polygonSides="6" basicInfo-starPoints="5" bounding="rect(-960,-768,1920,1536)" text="" font-familyName="" font-pixelSize="20" font-bold="0" font-underline="0" font-alignment="1" strokeStyle="0" markerStart="0" markerEnd="0" shadowEnabled="0" shadowOffsetX="0" shadowOffsetY="2" shadowBlur="4" shadowOpacity="160" blurEnabled="0" blurRadius="4" transform="matrix(0.260417,0,0,0.243306,250,250)" pers-center="0,0" pers-size="0,0" pers-start="0,0" pers-end="0,0" locked="0" mesh="" flag=""/>
            <path id="shapePath1" d="M458.333,63.1409 C469.792,63.1409 479.601,66.9527 487.76,74.5763 C495.92,82.1999 500,91.3644 500,102.07 L500,397.93 C500,408.636 495.92,417.8 487.76,425.424 C479.601,433.047 469.792,436.859 458.333,436.859 L41.6667,436.859 C30.2083,436.859 20.3993,433.047 12.2396,425.424 C4.07986,417.8 0,408.636 0,397.93 L0,102.07 C0,91.3644 4.07986,82.1999 12.2396,74.5763 C20.3993,66.9527 30.2083,63.1409 41.6667,63.1409 L458.333,63.1409 M41.6667,94.2841 C39.4097,94.2841 37.4566,95.0546 35.8073,96.5955 C34.158,98.1364 33.3333,99.9612 33.3333,102.07 L33.3333,156.57 L466.667,156.57 L466.667,102.07 C466.667,99.9612 465.842,98.1364 464.193,96.5955 C462.543,95.0546 460.59,94.2841 458.333,94.2841 L41.6667,94.2841 M458.333,405.716 C460.59,405.716 462.543,404.945 464.193,403.405 C465.842,401.864 466.667,400.039 466.667,397.93 L466.667,250 L33.3333,250 L33.3333,397.93 C33.3333,400.039 34.158,401.864 35.8073,403.405 C37.4566,404.945 39.4097,405.716 41.6667,405.716 L458.333,405.716 M66.6667,374.573 L66.6667,343.43 L133.333,343.43 L133.333,374.573 L66.6667,374.573 M166.667,374.573 L166.667,343.43 L266.667,343.43 L266.667,374.573 L166.667,374.573 Z" style="stroke:none;fill-rule:nonzero;fill:#000000;fill-opacity:1;"/>
        </g>
    </g>
</svg>
