<?xml version="1.0"?>
<svg version="1.1" xmlns="http://www.w3.org/2000/svg" xmlns:xlink="http://www.w3.org/1999/xlink" width="500" height="500">
    <desc iVinci="yes" version="4.6" gridStep="20" showGrid="no" snapToGrid="no" codePlatform="0"/>
    <g id="Layer1" name="Layer 1" opacity="1">
        <g id="Shape1">
            <desc shapeID="1" type="0" basicInfo-basicType="0" basicInfo-roundedRectRadius="12" basicInfo-polygonSides="6" basicInfo-starPoints="5" bounding="rect(-768,-896,1536,1792)" text="" font-familyName="" font-pixelSize="20" font-bold="0" font-underline="0" font-alignment="1" strokeStyle="0" markerStart="0" markerEnd="0" shadowEnabled="0" shadowOffsetX="0" shadowOffsetY="2" shadowBlur="4" shadowOpacity="160" blurEnabled="0" blurRadius="4" transform="matrix(0.279944,0,0,0.279944,250,250.829)" pers-center="0,0" pers-size="0,0" pers-start="0,0" pers-end="0,0" locked="0" mesh="" flag=""/>
            <path id="shapePath1" d="M445.961,106.379 C451.186,111.604 455.665,118.696 459.398,127.654 C463.13,136.612 464.997,144.824 464.997,152.289 L464.997,474.784 C464.997,482.25 462.384,488.595 457.158,493.821 C451.933,499.046 445.587,501.659 438.122,501.659 L61.8779,501.659 C54.4127,501.659 48.0673,499.046 42.8417,493.821 C37.6161,488.595 35.0033,482.25 35.0033,474.784 L35.0033,26.8746 C35.0033,19.4094 37.6161,13.064 42.8417,7.83842 C48.0673,2.61281 54.4127,0 61.8779,0 L312.707,0 C320.173,0 328.384,1.8663 337.342,5.59888 C346.301,9.33145 353.393,13.8105 358.618,19.0362 L445.961,106.379 M321.666,38.0723 L321.666,143.331 L426.924,143.331 C425.058,137.919 423.005,134.093 420.766,131.853 L333.143,44.2311 C330.904,41.9915 327.078,39.9386 321.666,38.0723 M429.164,465.826 L429.164,179.164 L312.707,179.164 C305.242,179.164 298.897,176.551 293.671,171.326 C288.446,166.1 285.833,159.755 285.833,152.289 L285.833,35.8328 L70.8361,35.8328 L70.8361,465.826 L429.164,465.826 M285.273,299.82 C291.432,304.672 299.27,309.898 308.788,315.496 C319.799,314.19 330.717,313.537 341.542,313.537 C368.976,313.537 385.493,318.109 391.092,327.254 C394.078,331.36 394.264,336.212 391.651,341.811 C391.651,341.998 391.558,342.184 391.372,342.371 L390.812,342.931 L390.812,343.211 C389.692,350.303 383.067,353.849 370.936,353.849 C361.977,353.849 351.246,351.982 338.742,348.25 C326.238,344.517 314.107,339.572 302.349,333.413 C261.104,337.892 224.525,345.637 192.612,356.648 C164.057,405.545 141.475,429.993 124.865,429.993 C122.066,429.993 119.453,429.34 117.027,428.034 L110.308,424.674 C110.121,424.488 109.562,424.021 108.628,423.275 C106.762,421.408 106.202,418.049 106.949,413.197 C108.628,405.732 113.854,397.193 122.626,387.582 C131.397,377.971 143.715,368.966 159.578,360.567 C162.191,358.888 164.337,359.448 166.017,362.247 C166.39,362.62 166.577,362.994 166.577,363.367 C176.281,347.503 186.266,329.12 196.531,308.218 C209.222,282.836 218.926,258.388 225.645,234.873 C221.166,219.569 218.32,204.685 217.107,190.222 C215.894,175.758 216.5,163.86 218.926,154.529 C220.979,147.064 224.898,143.331 230.684,143.331 L236.843,143.331 C241.135,143.331 244.401,144.731 246.641,147.53 C250,151.449 250.84,157.795 249.16,166.566 C248.787,167.686 248.414,168.433 248.04,168.806 C248.227,169.366 248.32,170.112 248.32,171.046 L248.32,179.444 C247.947,202.399 246.641,220.316 244.401,233.193 C254.666,263.8 268.29,286.009 285.273,299.82 M124.025,414.876 C133.73,410.397 146.514,395.654 162.378,370.645 C152.86,378.111 144.695,385.949 137.883,394.161 C131.071,402.372 126.452,409.278 124.025,414.876 M235.443,157.328 C232.643,165.167 232.457,177.484 234.883,194.281 C235.07,192.974 235.723,188.869 236.843,181.963 C236.843,181.403 237.496,177.391 238.802,169.926 C238.989,169.179 239.362,168.433 239.922,167.686 C239.735,167.5 239.642,167.313 239.642,167.126 C239.455,166.753 239.362,166.473 239.362,166.287 C239.175,162.181 237.962,158.821 235.723,156.209 C235.723,156.395 235.63,156.582 235.443,156.768 L235.443,157.328 M200.73,342.371 C225.925,332.293 252.426,324.735 280.234,319.696 C279.861,319.509 278.648,318.622 276.595,317.036 C274.542,315.45 273.049,314.19 272.116,313.257 C257.932,300.753 246.081,284.329 236.563,263.987 C231.524,280.037 223.779,298.42 213.327,319.136 C207.729,329.587 203.529,337.332 200.73,342.371 M381.573,337.892 C377.094,333.413 364.03,331.173 342.381,331.173 C356.565,336.399 368.136,339.012 377.094,339.012 C379.707,339.012 381.387,338.918 382.133,338.732 C382.133,338.545 381.947,338.265 381.573,337.892 Z" style="stroke:none;fill-rule:nonzero;fill:#000000;fill-opacity:1;"/>
        </g>
    </g>
</svg>
