<?xml version="1.0"?>
<svg version="1.1" xmlns="http://www.w3.org/2000/svg" xmlns:xlink="http://www.w3.org/1999/xlink" width="500" height="500">
    <desc iVinci="yes" version="4.6" gridStep="20" showGrid="no" snapToGrid="no" codePlatform="0"/>
    <g id="Layer1" name="Layer 1" opacity="1">
        <g id="Shape1">
            <desc shapeID="1" type="0" basicInfo-basicType="0" basicInfo-roundedRectRadius="12" basicInfo-polygonSides="6" basicInfo-starPoints="5" bounding="rect(-249.1,-249.1,498.199,498.199)" text="" font-familyName="" font-pixelSize="20" font-bold="0" font-underline="0" font-alignment="1" strokeStyle="0" markerStart="0" markerEnd="0" shadowEnabled="0" shadowOffsetX="0" shadowOffsetY="2" shadowBlur="4" shadowOpacity="160" blurEnabled="0" blurRadius="4" transform="matrix(1,0,0,1,250,250)" pers-center="0,0" pers-size="0,0" pers-start="0,0" pers-end="0,0" locked="0" mesh="" flag=""/>
            <path id="shapePath1" d="M250,0.900391 C112.722,0.900391 0.900391,112.722 0.900391,250 C0.900391,387.278 112.722,499.1 250,499.1 C387.278,499.1 499.1,387.278 499.1,250 C499.1,112.722 387.278,0.900391 250,0.900391 M250,50.9004 C360.256,50.9004 449.1,139.744 449.1,250 C449.1,360.256 360.256,449.1 250,449.1 C139.744,449.1 50.9004,360.256 50.9004,250 C50.9004,139.744 139.744,50.9004 250,50.9004 Z" style="stroke:none;fill-rule:nonzero;fill:#000000;fill-opacity:1;"/>
        </g>
    </g>
</svg>
