<?xml version="1.0"?>
<svg version="1.1" xmlns="http://www.w3.org/2000/svg" xmlns:xlink="http://www.w3.org/1999/xlink" width="500" height="500">
    <desc iVinci="yes" version="4.6" gridStep="20" showGrid="no" snapToGrid="no" codePlatform="0"/>
    <g id="Layer1" name="Layer 1" opacity="1">
        <g id="Shape1">
            <desc shapeID="1" type="0" basicInfo-basicType="0" basicInfo-roundedRectRadius="12" basicInfo-polygonSides="6" basicInfo-starPoints="5" bounding="rect(-20.8,-20.8499,41.5999,41.7)" text="" font-familyName="" font-pixelSize="20" font-bold="0" font-underline="0" font-alignment="1" strokeStyle="0" markerStart="0" markerEnd="0" shadowEnabled="0" shadowOffsetX="0" shadowOffsetY="2" shadowBlur="4" shadowOpacity="160" blurEnabled="0" blurRadius="4" transform="matrix(12.0048,0,0,12.0048,250.301,250.299)" pers-center="0,0" pers-size="0,0" pers-start="0,0" pers-end="0,0" locked="0" mesh="" flag=""/>
            <path id="shapePath1" d="M456.782,398.559 C456.782,427.37 438.775,448.979 411.164,456.181 C406.362,457.381 401.561,457.381 396.759,457.381 C294.718,457.381 199.881,457.381 97.8402,457.381 C69.0284,457.381 47.42,439.374 41.4176,412.964 C40.2167,408.162 40.2167,403.36 40.2167,398.559 C40.2167,296.519 40.2167,210.083 40.2167,108.043 C40.2167,78.031 58.2239,56.4233 84.6345,50.4209 C90.6369,49.2193 95.4391,49.2193 100.241,49.2193 C150.661,49.2193 201.081,49.2193 252.701,49.2193 C304.322,49.2193 347.539,49.2193 399.16,49.2193 C427.971,49.2193 449.58,67.2264 455.582,93.6378 C456.782,98.44 456.782,103.241 456.782,108.043 C456.782,210.083 456.782,296.519 456.782,398.559 L500,94.838 C500,45.6187 465.186,7.20261 418.367,1.20021 C417.167,1.20021 415.967,1.52588e-05 414.766,1.52588e-05 C305.523,1.52588e-05 197.48,1.52588e-05 88.2358,1.52588e-05 C79.833,2.40186 71.4296,2.40186 63.0261,6.00243 C28.2119,20.409 7.80441,45.6187 1.80202,82.8332 C1.80202,84.0334 0.601089,86.4352 0.601089,87.6354 C0.601089,196.879 0.601089,304.921 0.601089,414.165 C1.80202,421.367 3.0022,429.771 5.40331,436.974 C18.6083,475.389 53.4224,500.6 94.2382,500.6 C198.68,500.6 301.921,500.6 406.362,500.6 C459.183,500.6 500,459.783 500,406.962 C500,286.914 500,183.674 500,94.838 " style="stroke:none;fill-rule:evenodd;fill:#000000;fill-opacity:1;"/>
        </g>
        <g id="Shape2">
            <desc shapeID="2" type="0" basicInfo-basicType="0" basicInfo-roundedRectRadius="12" basicInfo-polygonSides="6" basicInfo-starPoints="5" bounding="rect(-11.75,-4.0499,23.4999,8.09993)" text="" font-familyName="" font-pixelSize="20" font-bold="0" font-underline="0" font-alignment="1" strokeStyle="0" markerStart="0" markerEnd="0" shadowEnabled="0" shadowOffsetX="0" shadowOffsetY="2" shadowBlur="4" shadowOpacity="160" blurEnabled="0" blurRadius="4" transform="matrix(-12.0047,0.0468434,-0.0208086,-5.33268,250.301,250.3)" pers-center="0,0" pers-size="0,0" pers-start="0,0" pers-end="0,0" locked="0" mesh="" flag=""/>
            <path id="shapePath2" d="M133.171,229.159 C119.966,229.211 109.18,234.052 109.203,239.918 L109.288,261.782 C109.311,267.648 120.135,272.405 133.34,272.354 L367.431,271.44 C380.636,271.389 391.421,266.547 391.398,260.681 L391.313,238.817 C391.29,232.951 380.467,228.194 367.262,228.246 L133.171,229.159 Z" style="stroke:none;fill-rule:evenodd;fill:#000000;fill-opacity:1;"/>
        </g>
    </g>
</svg>
