<?xml version="1.0" encoding="UTF-8" standalone="no"?>
<svg
   xmlns:dc="http://purl.org/dc/elements/1.1/"
   xmlns:cc="http://creativecommons.org/ns#"
   xmlns:rdf="http://www.w3.org/1999/02/22-rdf-syntax-ns#"
   xmlns:svg="http://www.w3.org/2000/svg"
   xmlns="http://www.w3.org/2000/svg"
   xmlns:sodipodi="http://sodipodi.sourceforge.net/DTD/sodipodi-0.dtd"
   xmlns:inkscape="http://www.inkscape.org/namespaces/inkscape"
   version="1.1"
   width="500"
   height="500"
   id="svg4814"
   sodipodi:docname="uEA95-need-help.svg"
   inkscape:version="0.92.2 5c3e80d, 2017-08-06">
  <metadata
     id="metadata4820">
    <rdf:RDF>
      <cc:Work
         rdf:about="">
        <dc:format>image/svg+xml</dc:format>
        <dc:type
           rdf:resource="http://purl.org/dc/dcmitype/StillImage" />
      </cc:Work>
    </rdf:RDF>
  </metadata>
  <defs
     id="defs4818" />
  <sodipodi:namedview
     pagecolor="#ffffff"
     bordercolor="#666666"
     borderopacity="1"
     objecttolerance="10"
     gridtolerance="10"
     guidetolerance="10"
     inkscape:pageopacity="0"
     inkscape:pageshadow="2"
     inkscape:window-width="1920"
     inkscape:window-height="959"
     id="namedview4816"
     showgrid="false"
     inkscape:zoom="0.472"
     inkscape:cx="250"
     inkscape:cy="250"
     inkscape:window-x="0"
     inkscape:window-y="1"
     inkscape:window-maximized="1"
     inkscape:current-layer="svg4814" />
  <desc
     iVinci="yes"
     version="4.6"
     gridStep="20"
     showGrid="no"
     snapToGrid="no"
     codePlatform="0"
     id="desc4807" />
  <g
     id="Layer1"
     name="Layer 1"
     transform="matrix(29.341934,0,0,29.341934,-203.41934,-205.39353)"
     style="opacity:1">
    <g
       id="Shape1">
      <desc
         shapeID="1"
         type="0"
         basicInfo-basicType="0"
         basicInfo-roundedRectRadius="12"
         basicInfo-polygonSides="6"
         basicInfo-starPoints="5"
         bounding="rect(-20.8,-20.8499,41.5999,41.7)"
         text=""
         font-familyName=""
         font-pixelSize="20"
         font-bold="0"
         font-underline="0"
         font-alignment="1"
         strokeStyle="0"
         markerStart="0"
         markerEnd="0"
         shadowEnabled="0"
         shadowOffsetX="0"
         shadowOffsetY="2"
         shadowBlur="4"
         shadowOpacity="160"
         blurEnabled="0"
         blurRadius="4"
         transform="matrix(12.0048,0,0,12.0048,250.301,250.299)"
         pers-center="0,0"
         pers-size="0,0"
         pers-start="0,0"
         pers-end="0,0"
         locked="0"
         mesh=""
         flag=""
         id="desc4809" />
      <path
         d="m 15.499131,21.645801 c 0.682951,0 1.247356,0.532761 1.247356,1.198292 0,0.665476 -0.564299,1.196365 -1.247356,1.196365 -0.681464,0 -1.245302,-0.531351 -1.245302,-1.196365 0,-0.666489 0.563388,-1.198292 1.245302,-1.198292 z m 0.792873,-4.322194 v 2.364831 c 0,0.437468 -0.361787,0.776706 -0.793032,0.776706 -0.431244,0 -0.793031,-0.339238 -0.793031,-0.776706 v -3.080741 c 0,-0.437468 0.361787,-0.776706 0.793031,-0.776706 2.16642,0 3.914964,-1.639051 3.914964,-3.635924 0,-1.999934 -1.749783,-3.6417051 -3.914964,-3.6417051 -2.164009,0 -3.912908,1.6425261 -3.912908,3.6417051 0,0.45703 -0.360033,0.776609 -0.793032,0.776755 C 10.363719,12.971822 10,12.632604 10,12.195117 10,9.3220217 12.473544,7 15.498972,7 18.52543,7 21,9.3229849 21,12.195117 c 0,2.603981 -2.044728,4.764802 -4.707996,5.12849 z"
         id="shapePath1"
         style="fill:#000000;fill-opacity:1;fill-rule:evenodd;stroke:none"
         inkscape:connector-curvature="0" />
    </g>
  </g>
</svg>
