<?xml version="1.0"?>
<svg version="1.1" xmlns="http://www.w3.org/2000/svg" xmlns:xlink="http://www.w3.org/1999/xlink" width="500" height="500">
    <desc iVinci="yes" version="4.6" gridStep="20" showGrid="no" snapToGrid="no" codePlatform="0"/>
    <g id="Layer1" name="Layer 1" opacity="1">
        <g id="Shape1">
            <path id="shapePath1" d="M215.919,448.58 C215.919,466.939 200.984,481.872 182.627,481.872 C164.269,481.872 149.334,466.938 149.334,448.58 C149.334,430.223 164.269,415.288 182.627,415.288 C200.984,415.288 215.919,430.219 215.919,448.58 M420.369,415.287 C402.011,415.287 387.076,430.222 387.076,448.579 C387.076,466.938 402.011,481.872 420.369,481.872 C438.726,481.872 453.661,466.937 453.661,448.579 C453.661,430.222 438.726,415.287 420.369,415.287 M497.24,127.658 C494.98,124.941 491.629,123.37 488.096,123.365 L101.798,122.984 L78.2191,27.1981 C76.9053,21.8723 72.1288,18.1277 66.6459,18.1277 L11.8413,18.1277 C5.25681,18.1277 -0.0781708,23.4627 -0.0781708,30.0472 C-0.0781708,36.6317 5.25681,41.9666 11.8413,41.9666 L57.3013,41.9666 L125.169,317.679 L135.355,365.692 C139.481,385.156 156.919,399.282 176.817,399.282 L437.661,399.282 C444.245,399.282 449.58,393.947 449.58,387.363 C449.58,380.778 444.245,375.443 437.661,375.443 L176.817,375.443 C168.111,375.443 160.48,369.262 158.678,360.744 L151.508,326.942 L455.198,326.942 C460.953,326.942 465.885,322.827 466.923,317.166 L499.805,137.426 C500.442,133.952 499.502,130.371 497.24,127.658 Z" style="stroke:none;fill-rule:evenodd;fill:#000000;fill-opacity:1;"/>
        </g>
    </g>
</svg>
