<?xml version="1.0"?>
<svg version="1.1" xmlns="http://www.w3.org/2000/svg" xmlns:xlink="http://www.w3.org/1999/xlink" width="500" height="500">
    <desc iVinci="yes" version="4.6" gridStep="20" showGrid="no" snapToGrid="no" codePlatform="0"/>
    <g id="Layer1" name="Layer 2" opacity="1">
        <g id="Shape1">
            <desc shapeID="1" type="0" basicInfo-basicType="2" basicInfo-roundedRectRadius="12" basicInfo-polygonSides="6" basicInfo-starPoints="5" bounding="rect(-226,-41.5,452,83)" text="" font-familyName="Helvetica" font-pixelSize="20" font-bold="0" font-underline="0" font-alignment="1" strokeStyle="0" markerStart="0" markerEnd="0" shadowEnabled="0" shadowOffsetX="0" shadowOffsetY="2" shadowBlur="4" shadowOpacity="160" blurEnabled="0" blurRadius="4" transform="matrix(1.06416,0,0,1.12048,250,250)" pers-center="0,0" pers-size="0,0" pers-start="0,0" pers-end="0,0" locked="0" mesh="" flag=""/>
            <path id="shapePath1" d="M9.49997,216.946 C9.49997,209.52 15.2173,203.5 22.2699,203.5 L477.73,203.5 C484.783,203.5 490.5,209.52 490.5,216.946 L490.5,283.054 C490.5,290.48 484.783,296.5 477.73,296.5 L22.2699,296.5 C15.2173,296.5 9.49997,290.48 9.49997,283.054 L9.49997,216.946 Z" style="stroke:none;fill-rule:evenodd;fill:#000000;fill-opacity:1;"/>
        </g>
        <g id="Shape2">
            <desc shapeID="2" type="0" basicInfo-basicType="2" basicInfo-roundedRectRadius="12" basicInfo-polygonSides="6" basicInfo-starPoints="5" bounding="rect(-226,-41.5,452,83)" text="" font-familyName="Helvetica" font-pixelSize="20" font-bold="0" font-underline="0" font-alignment="1" strokeStyle="0" markerStart="0" markerEnd="0" shadowEnabled="0" shadowOffsetX="0" shadowOffsetY="2" shadowBlur="4" shadowOpacity="160" blurEnabled="0" blurRadius="4" transform="matrix(1.06416,0,0,1.12048,250,429.333)" pers-center="0,0" pers-size="0,0" pers-start="0,0" pers-end="0,0" locked="0" mesh="" flag=""/>
            <path id="shapePath2" d="M9.49998,396.279 C9.49998,388.853 15.2173,382.833 22.2699,382.833 L477.73,382.833 C484.783,382.833 490.5,388.853 490.5,396.279 L490.5,462.388 C490.5,469.813 484.783,475.833 477.73,475.833 L22.2699,475.833 C15.2173,475.833 9.49998,469.813 9.49998,462.388 L9.49998,396.279 Z" style="stroke:none;fill-rule:evenodd;fill:#000000;fill-opacity:1;"/>
        </g>
        <g id="Shape3">
            <desc shapeID="3" type="0" basicInfo-basicType="2" basicInfo-roundedRectRadius="12" basicInfo-polygonSides="6" basicInfo-starPoints="5" bounding="rect(-226,-41.5,452,83)" text="" font-familyName="Helvetica" font-pixelSize="20" font-bold="0" font-underline="0" font-alignment="1" strokeStyle="0" markerStart="0" markerEnd="0" shadowEnabled="0" shadowOffsetX="0" shadowOffsetY="2" shadowBlur="4" shadowOpacity="160" blurEnabled="0" blurRadius="4" transform="matrix(1.06416,0,0,1.12048,250,70.3333)" pers-center="0,0" pers-size="0,0" pers-start="0,0" pers-end="0,0" locked="0" mesh="" flag=""/>
            <path id="shapePath3" d="M9.49997,37.2791 C9.49997,29.8532 15.2173,23.8333 22.2699,23.8333 L477.73,23.8333 C484.783,23.8333 490.5,29.8532 490.5,37.2791 L490.5,103.388 C490.5,110.813 484.783,116.833 477.73,116.833 L22.2699,116.833 C15.2173,116.833 9.49997,110.813 9.49997,103.388 L9.49997,37.2791 Z" style="stroke:none;fill-rule:evenodd;fill:#000000;fill-opacity:1;"/>
        </g>
    </g>
</svg>
