<?xml version="1.0"?>
<svg version="1.1" xmlns="http://www.w3.org/2000/svg" xmlns:xlink="http://www.w3.org/1999/xlink" width="500" height="500">
    <desc iVinci="yes" version="4.6" gridStep="20" showGrid="no" snapToGrid="no" codePlatform="0"/>
    <g id="Layer1" name="Layer 1" opacity="1">
        <g id="Shape1">
            <desc shapeID="1" type="0" basicInfo-basicType="0" basicInfo-roundedRectRadius="12" basicInfo-polygonSides="6" basicInfo-starPoints="5" bounding="rect(-228.468,-230,456.936,460)" text="" font-familyName="" font-pixelSize="20" font-bold="0" font-underline="0" font-alignment="1" strokeStyle="0" markerStart="0" markerEnd="0" shadowEnabled="0" shadowOffsetX="0" shadowOffsetY="2" shadowBlur="4" shadowOpacity="160" blurEnabled="0" blurRadius="4" transform="matrix(1,0,0,1,250,250)" pers-center="0,0" pers-size="0,0" pers-start="0,0" pers-end="0,0" locked="0" mesh="" flag=""/>
            <path id="shapePath1" d="M249.999,20 C149.209,20 60.2894,69.8244 53.0048,128.426 L37.0204,128.426 C32.7368,128.426 29.2762,131.894 29.2762,136.17 L29.2762,174.893 C29.2762,179.168 32.7368,182.639 37.0204,182.639 L68.6708,182.639 L68.6708,425.787 L38.454,425.787 C29.129,425.787 21.5321,433.377 21.5321,442.709 L21.5321,463.076 C21.5321,472.408 29.129,480 38.454,480 L461.546,480 C470.87,480 478.468,472.408 478.468,463.076 L478.468,442.709 C478.468,433.377 470.87,425.787 461.546,425.787 L433.651,425.787 L433.651,182.639 L462.978,182.639 C467.261,182.639 470.722,179.168 470.722,174.893 L470.722,136.17 C470.722,131.894 467.261,128.426 462.978,128.426 L446.993,128.426 C439.709,69.8244 350.789,20 249.999,20 M249.999,35.4883 C332.016,35.4883 423.299,74.7342 431.409,128.426 L68.5887,128.426 C76.6987,74.7342 167.983,35.4883 249.999,35.4883 M44.7665,143.914 L455.233,143.914 L455.233,167.148 L44.7665,167.148 L44.7665,143.914 M82.6708,182.639 L138.866,182.639 L138.866,425.787 L82.6708,425.787 L82.6708,182.639 M152.866,182.639 L209.063,182.639 L209.063,425.787 L152.866,425.787 L152.866,182.639 M223.063,182.639 L279.259,182.639 L279.259,425.787 L223.063,425.787 L223.063,182.639 M293.259,182.639 L349.454,182.639 L349.454,425.787 L293.259,425.787 L293.259,182.639 M363.454,182.639 L419.651,182.639 L419.651,425.787 L363.454,425.787 L363.454,182.639 M38.454,441.275 L461.546,441.275 C462.335,441.275 462.978,441.919 462.978,442.709 L462.978,463.076 C462.978,463.867 462.335,464.51 461.546,464.51 L38.454,464.51 C37.6636,464.51 37.0204,463.867 37.0204,463.076 L37.0204,442.709 C37.0204,441.919 37.6636,441.275 38.454,441.275 Z" style="stroke:none;fill-rule:evenodd;fill:#000000;fill-opacity:1;"/>
        </g>
    </g>
</svg>
