<?xml version="1.0"?>
<svg version="1.1" xmlns="http://www.w3.org/2000/svg" xmlns:xlink="http://www.w3.org/1999/xlink" width="500" height="500">
    <desc iVinci="yes" version="4.6" gridStep="20" showGrid="no" snapToGrid="no" codePlatform="0"/>
    <g id="Layer1" name="Layer 1" opacity="1">
        <g id="Shape1">
            <desc shapeID="1" type="0" basicInfo-basicType="0" basicInfo-roundedRectRadius="12" basicInfo-polygonSides="6" basicInfo-starPoints="5" bounding="rect(-197.904,-255.995,395.808,511.991)" text="" font-familyName="" font-pixelSize="20" font-bold="0" font-underline="0" font-alignment="1" strokeStyle="0" markerStart="0" markerEnd="0" shadowEnabled="0" shadowOffsetX="0" shadowOffsetY="2" shadowBlur="4" shadowOpacity="160" blurEnabled="0" blurRadius="4" transform="matrix(0.976546,0,0,0.976546,250,249.992)" pers-center="0,0" pers-size="0,0" pers-start="0,0" pers-end="0,0" locked="0" mesh="" flag=""/>
            <path id="shapePath1" d="M151.416,3.05176e-05 C142.27,0.0767212 134.876,7.47118 134.8,16.6174 L134.8,36.4794 L113.235,36.4794 C104.089,36.5561 96.6953,43.9506 96.6194,53.0969 L96.6194,74.66 L73.3536,74.66 C64.208,74.7367 56.8137,82.1311 56.7378,91.2775 L56.7378,483.365 C56.8137,492.512 64.208,499.906 73.3536,499.983 L348.569,499.983 C357.714,499.906 365.109,492.512 365.185,483.365 L365.185,461.802 L388.451,461.802 C397.596,461.726 404.99,454.331 405.067,445.184 L405.067,425.323 L426.631,425.323 C435.776,425.246 443.171,417.853 443.247,408.705 L443.247,79.3993 C443.267,79.0735 443.267,78.7466 443.247,78.4209 C443.275,76.4289 442.581,74.4952 441.294,72.977 L381.442,1.39713 L379.767,3.05176e-05 L378.092,3.05176e-05 L376.138,3.05176e-05 L151.416,3.05176e-05 M151.416,15.3616 L366.642,15.3616 L366.642,58.8315 L343.261,37.8766 L341.587,36.4794 L339.911,36.4794 L337.958,36.4794 L151.416,36.4794 L151.416,15.4995 L151.416,15.3616 M328.462,51.841 L328.462,104.905 L303.38,76.057 L301.705,74.66 L300.03,74.66 L298.075,74.66 L112.846,73.8734 L113.135,51.8853 L328.462,51.841 M288.58,90.0215 L288.58,153.222 C288.58,157.848 292.354,162.069 296.957,161.6 L348.569,161.6 L348.569,483.248 L72.7609,483.477 L72.5055,90.3215 C72.5055,90.3215 237.624,91.8018 288.58,90.0215 M383.326,86.9397 L426.631,86.9397 L426.631,406.104 L405.067,406.104 L405.067,115.879 C405.087,115.553 405.087,115.226 405.067,114.901 C405.095,112.908 404.401,110.975 403.113,109.456 M342.022,123.419 L388.451,123.419 L387.981,444.384 L365.185,443.444 L365.185,154.059 C365.205,153.734 365.205,153.407 365.185,153.081 C365.213,151.088 364.519,149.155 363.232,147.637 L342.022,123.419 " style="stroke:#323232;stroke-opacity:1;stroke-width:1;stroke-linejoin:;stroke-miterlimit:2;stroke-linecap:round;fill-rule:nonzero;fill:#000000;fill-opacity:1;"/>
        </g>
    </g>
</svg>
