<?xml version="1.0"?>
<svg version="1.1" xmlns="http://www.w3.org/2000/svg" xmlns:xlink="http://www.w3.org/1999/xlink" width="500" height="500">
    <desc iVinci="yes" version="4.6" gridStep="20" showGrid="no" snapToGrid="no" codePlatform="0"/>
    <g id="Layer1" name="Layer 1" opacity="1">
        <g id="Shape1">
            <desc shapeID="1" type="0" basicInfo-basicType="0" basicInfo-roundedRectRadius="12" basicInfo-polygonSides="6" basicInfo-starPoints="5" bounding="rect(-11.788,-14.5955,23.576,29.1909)" text="" font-familyName="" font-pixelSize="20" font-bold="0" font-underline="0" font-alignment="1" strokeStyle="0" markerStart="0" markerEnd="0" shadowEnabled="0" shadowOffsetX="0" shadowOffsetY="2" shadowBlur="4" shadowOpacity="160" blurEnabled="0" blurRadius="4" transform="matrix(13.3141,0,0,13.3141,216.715,285.708)" pers-center="0,0" pers-size="0,0" pers-start="0,0" pers-end="0,0" locked="0" mesh="" flag=""/>
            <path id="shapePath1" d="M340.376,480.033 L93.054,480.033 C74.6939,480.033 59.7688,465.096 59.7688,446.749 L59.7688,124.668 C59.7688,106.321 74.6939,91.3831 93.054,91.3831 L126.398,91.3831 L126.398,104.697 L93.054,104.697 C82.0432,104.697 73.0829,113.657 73.0829,124.668 L73.0829,446.735 C73.0829,457.746 82.0432,466.707 93.054,466.707 L340.376,466.707 C351.387,466.707 360.347,457.746 360.347,446.735 L360.347,408.577 L373.661,408.577 L373.661,446.735 C373.661,465.096 358.736,480.033 340.376,480.033 Z" style="stroke:none;fill-rule:evenodd;fill:#000000;fill-opacity:1;"/>
        </g>
        <g id="Shape2">
            <desc shapeID="2" type="0" basicInfo-basicType="0" basicInfo-roundedRectRadius="12" basicInfo-polygonSides="6" basicInfo-starPoints="5" bounding="rect(-11.788,-14.595,23.5759,29.1899)" text="" font-familyName="" font-pixelSize="20" font-bold="0" font-underline="0" font-alignment="1" strokeStyle="0" markerStart="0" markerEnd="0" shadowEnabled="0" shadowOffsetX="0" shadowOffsetY="2" shadowBlur="4" shadowOpacity="160" blurEnabled="0" blurRadius="4" transform="matrix(13.3141,0,0,13.3141,283.285,214.285)" pers-center="0,0" pers-size="0,0" pers-start="0,0" pers-end="0,0" locked="0" mesh="" flag=""/>
            <path id="shapePath2" d="M406.946,408.604 L159.625,408.604 C141.264,408.604 126.339,393.666 126.339,375.319 L126.339,53.2517 C126.339,34.905 141.264,19.9666 159.625,19.9666 L340.748,19.9666 C344.423,19.9666 347.405,22.9489 347.405,26.6236 C347.405,30.2983 344.437,33.2806 340.762,33.2806 L159.625,33.2806 C148.614,33.2806 139.653,42.241 139.653,53.2517 L139.653,375.319 C139.653,386.33 148.614,395.29 159.625,395.29 L406.946,395.29 C417.957,395.29 426.917,386.33 426.917,375.319 L426.917,121.966 C426.917,118.291 429.899,115.309 433.574,115.309 C437.249,115.309 440.231,118.291 440.231,121.966 L440.231,375.319 C440.231,393.679 425.306,408.604 406.946,408.604 Z" style="stroke:none;fill-rule:evenodd;fill:#000000;fill-opacity:1;"/>
        </g>
        <g id="Shape3">
            <desc shapeID="3" type="0" basicInfo-basicType="0" basicInfo-roundedRectRadius="12" basicInfo-polygonSides="6" basicInfo-starPoints="5" bounding="rect(-3.49019,-3.58151,6.98037,7.16302)" text="" font-familyName="" font-pixelSize="20" font-bold="0" font-underline="0" font-alignment="1" strokeStyle="0" markerStart="0" markerEnd="0" shadowEnabled="0" shadowOffsetX="0" shadowOffsetY="2" shadowBlur="4" shadowOpacity="160" blurEnabled="0" blurRadius="4" transform="matrix(13.3141,0,0,13.3141,380.56,80.9382)" pers-center="0,0" pers-size="0,0" pers-start="0,0" pers-end="0,0" locked="0" mesh="" flag=""/>
            <path id="shapePath3" d="M427.029,128.623 L340.749,128.623 C337.074,128.623 334.092,125.641 334.092,121.966 L334.092,33.2537 L338.03,33.2537 L347.405,42.9774 L347.405,115.309 L417.903,115.309 L427.029,124.655 L427.029,128.623 Z" style="stroke:none;fill-rule:evenodd;fill:#000000;fill-opacity:1;"/>
        </g>
        <g id="Shape4">
            <desc shapeID="4" type="0" basicInfo-basicType="0" basicInfo-roundedRectRadius="12" basicInfo-polygonSides="6" basicInfo-starPoints="5" bounding="rect(-3.8445,-3.929,7.68899,7.85799)" text="" font-familyName="" font-pixelSize="20" font-bold="0" font-underline="0" font-alignment="1" strokeStyle="0" markerStart="0" markerEnd="0" shadowEnabled="0" shadowOffsetX="0" shadowOffsetY="2" shadowBlur="4" shadowOpacity="160" blurEnabled="0" blurRadius="4" transform="matrix(13.3141,0,0,13.3141,387.168,74.3013)" pers-center="0,0" pers-size="0,0" pers-start="0,0" pers-end="0,0" locked="0" mesh="" flag=""/>
            <path id="shapePath4" d="M428.808,126.612 L335.982,31.2702 L345.528,21.9903 L438.354,117.332 L428.808,126.612 Z" style="stroke:none;fill-rule:evenodd;fill:#000000;fill-opacity:1;"/>
        </g>
    </g>
</svg>
