<?xml version="1.0"?>
<svg version="1.1" xmlns="http://www.w3.org/2000/svg" xmlns:xlink="http://www.w3.org/1999/xlink" width="500" height="500">
    <desc iVinci="yes" version="4.6" gridStep="20" showGrid="no" snapToGrid="no" codePlatform="0"/>
    <g id="Layer1" name="Layer 1" opacity="1">
        <g id="Shape1">
            <desc shapeID="1" type="0" basicInfo-basicType="0" basicInfo-roundedRectRadius="12" basicInfo-polygonSides="6" basicInfo-starPoints="5" bounding="rect(-72.386,-80.7183,144.772,161.437)" text="" font-familyName="" font-pixelSize="20" font-bold="0" font-underline="0" font-alignment="1" strokeStyle="0" markerStart="0" markerEnd="0" shadowEnabled="0" shadowOffsetX="0" shadowOffsetY="2" shadowBlur="4" shadowOpacity="160" blurEnabled="0" blurRadius="4" transform="matrix(1,0,0,1.11769,250.008,94.214)" pers-center="0,0" pers-size="0,0" pers-start="0,0" pers-end="0,0" locked="0" mesh="" flag=""/>
            <path id="shapePath1" d="M318.338,74.3843 L259.394,8.50296 C256.722,5.51649 253.158,3.98748 249.474,3.99643 C245.722,3.95618 242.078,5.51649 239.406,8.50296 L181.678,73.0252 C176.27,79.0696 176.27,88.8964 181.678,94.9364 L189.122,103.257 C194.342,109.091 203.454,109.091 208.678,103.257 L230.778,78.5019 L230.778,169.469 C230.778,169.746 230.922,169.974 230.966,170.233 C231.566,178.16 237.514,184.432 244.766,184.432 L255.286,184.432 C262.93,184.432 269.214,177.494 269.214,168.95 L269.214,158.792 C269.214,158.748 269.214,158.716 269.214,158.681 L269.214,79.852 L291.322,104.611 C296.73,110.656 305.502,110.656 310.906,104.611 L318.338,96.3 C323.746,90.251 323.746,80.4198 318.338,74.3843 Z" style="stroke:none;fill-rule:nonzero;fill:#000000;fill-opacity:1;"/>
        </g>
        <g id="Shape2">
            <desc shapeID="2" type="0" basicInfo-basicType="0" basicInfo-roundedRectRadius="12" basicInfo-polygonSides="6" basicInfo-starPoints="5" bounding="rect(-72.3845,-80.72,144.769,161.44)" text="" font-familyName="" font-pixelSize="20" font-bold="0" font-underline="0" font-alignment="1" strokeStyle="0" markerStart="0" markerEnd="0" shadowEnabled="0" shadowOffsetX="0" shadowOffsetY="2" shadowBlur="4" shadowOpacity="160" blurEnabled="0" blurRadius="4" transform="matrix(1,0,0,1.07453,250.002,409.268)" pers-center="0,0" pers-size="0,0" pers-start="0,0" pers-end="0,0" locked="0" mesh="" flag=""/>
            <path id="shapePath2" d="M318.33,407.278 L310.89,399.267 C305.67,393.649 296.554,393.649 291.326,399.267 L269.218,423.07 L269.218,347.62 C269.218,347.578 269.218,347.552 269.218,347.513 L269.218,337.748 C269.218,329.53 262.93,322.532 255.294,322.532 L244.766,322.532 C237.522,322.532 231.574,328.717 230.97,336.346 C230.926,336.6 230.782,336.987 230.782,337.249 L230.782,424.376 L208.682,400.578 C203.458,394.964 194.326,394.964 189.102,400.578 L181.662,408.576 C176.262,414.383 176.27,423.835 181.678,429.646 L239.41,491.672 C242.014,494.479 245.49,496.004 249.078,496.004 L249.598,496.004 C253.314,496.004 256.782,494.483 259.39,491.672 L318.33,428.339 C323.738,422.532 323.738,413.085 318.33,407.278 Z" style="stroke:none;fill-rule:nonzero;fill:#000000;fill-opacity:1;"/>
        </g>
        <g id="Shape3">
            <desc shapeID="3" type="0" basicInfo-basicType="0" basicInfo-roundedRectRadius="12" basicInfo-polygonSides="6" basicInfo-starPoints="5" bounding="rect(-80.5794,-72.388,161.159,144.776)" text="" font-familyName="" font-pixelSize="20" font-bold="0" font-underline="0" font-alignment="1" strokeStyle="0" markerStart="0" markerEnd="0" shadowEnabled="0" shadowOffsetX="0" shadowOffsetY="2" shadowBlur="4" shadowOpacity="160" blurEnabled="0" blurRadius="4" transform="matrix(1.07563,0,0,1,90.949,250.144)" pers-center="0,0" pers-size="0,0" pers-start="0,0" pers-end="0,0" locked="0" mesh="" flag=""/>
            <path id="shapePath3" d="M162.361,230.776 L161.088,230.776 L152.539,230.776 C152.509,230.776 152.479,230.776 152.444,230.776 L77.2793,230.776 L101.107,208.744 C103.916,206.136 105.461,202.712 105.461,199.004 C105.461,195.292 103.916,191.84 101.107,189.236 L93.0996,181.808 C87.2826,176.4 77.8214,176.408 72.013,181.816 L8.61127,240.756 C5.73719,243.424 4.20119,247.004 4.27864,250.676 C4.19689,254.496 5.73719,258.072 8.61127,260.744 L70.7051,318.476 C73.6136,321.18 77.4299,322.532 81.2505,322.532 C85.0712,322.532 88.8875,321.18 91.796,318.476 L99.7986,311.036 C102.608,308.428 104.157,304.944 104.157,301.236 C104.157,297.524 102.612,294.004 99.7986,291.4 L75.98,269.216 L162.813,269.216 C163.076,269.216 163.506,269.156 163.755,269.112 C171.388,268.512 177.622,262.644 177.622,255.396 L177.622,244.86 C177.622,237.224 170.584,230.776 162.361,230.776 Z" style="stroke:none;fill-rule:nonzero;fill:#000000;fill-opacity:1;"/>
        </g>
        <g id="Shape4">
            <desc shapeID="4" type="0" basicInfo-basicType="0" basicInfo-roundedRectRadius="12" basicInfo-polygonSides="6" basicInfo-starPoints="5" bounding="rect(-80.579,-72.382,161.158,144.764)" text="" font-familyName="" font-pixelSize="20" font-bold="0" font-underline="0" font-alignment="1" strokeStyle="0" markerStart="0" markerEnd="0" shadowEnabled="0" shadowOffsetX="0" shadowOffsetY="2" shadowBlur="4" shadowOpacity="160" blurEnabled="0" blurRadius="4" transform="matrix(1.07553,0,0,1,409.059,250.15)" pers-center="0,0" pers-size="0,0" pers-start="0,0" pers-end="0,0" locked="0" mesh="" flag=""/>
            <path id="shapePath4" d="M491.386,240.76 L427.99,181.824 C422.178,176.416 412.717,176.416 406.905,181.824 L398.908,189.268 C396.098,191.872 394.549,195.356 394.549,199.064 C394.549,202.776 396.094,206.136 398.908,208.744 L422.728,230.776 L347.089,230.776 C347.05,230.776 347.02,230.776 346.985,230.776 L337.215,230.776 C328.994,230.776 322.394,237.22 322.394,244.86 L322.394,255.396 C322.394,262.644 328.379,268.504 336.015,269.108 C336.269,269.156 336.454,269.216 336.712,269.216 L424.032,269.216 L400.202,291.396 C397.397,294 395.849,297.512 395.849,301.212 C395.849,304.928 397.393,308.42 400.202,311.028 L408.213,318.472 C411.117,321.176 414.933,322.532 418.753,322.532 C422.573,322.532 426.385,321.18 429.293,318.476 L491.39,260.744 C494.255,258.08 495.791,254.5 495.722,250.824 C495.787,247.004 494.251,243.424 491.386,240.76 Z" style="stroke:none;fill-rule:nonzero;fill:#000000;fill-opacity:1;"/>
        </g>
    </g>
</svg>
