<?xml version="1.0"?>
<svg version="1.1" xmlns="http://www.w3.org/2000/svg" xmlns:xlink="http://www.w3.org/1999/xlink" width="500" height="500">
    <desc iVinci="yes" version="4.6" gridStep="20" showGrid="no" snapToGrid="no" codePlatform="0"/>
    <g id="Layer1" name="Layer 1" opacity="1">
        <g id="Shape1">
            <desc shapeID="1" type="0" basicInfo-basicType="0" basicInfo-roundedRectRadius="12" basicInfo-polygonSides="6" basicInfo-starPoints="5" bounding="rect(-21.572,-21.573,43.144,43.146)" text="" font-familyName="" font-pixelSize="20" font-bold="0" font-underline="0" font-alignment="1" strokeStyle="0" markerStart="0" markerEnd="0" shadowEnabled="0" shadowOffsetX="0" shadowOffsetY="2" shadowBlur="4" shadowOpacity="160" blurEnabled="0" blurRadius="4" transform="matrix(1.90395,0,0,1.92708,123.5,126.711)" pers-center="0,0" pers-size="0,0" pers-start="0,0" pers-end="0,0" locked="0" mesh="" flag=""/>
            <path id="shapePath1" d="M123.5,85.1381 C100.853,85.1381 82.428,103.788 82.428,126.711 C82.428,149.634 100.854,168.284 123.5,168.284 C146.146,168.284 164.572,149.634 164.572,126.711 C164.572,103.788 146.146,85.1381 123.5,85.1381 M123.5,139.378 C116.6,139.378 110.987,133.695 110.987,126.711 C110.987,119.727 116.6,114.044 123.5,114.044 C130.4,114.044 136.013,119.727 136.013,126.711 C136.013,133.695 130.4,139.378 123.5,139.378 Z" style="stroke:none;fill-rule:nonzero;fill:#000000;fill-opacity:1;"/>
        </g>
        <g id="Shape2">
            <desc shapeID="2" type="0" basicInfo-basicType="0" basicInfo-roundedRectRadius="12" basicInfo-polygonSides="6" basicInfo-starPoints="5" bounding="rect(-149.66,-77.882,299.321,155.764)" text="" font-familyName="" font-pixelSize="20" font-bold="0" font-underline="0" font-alignment="1" strokeStyle="0" markerStart="0" markerEnd="0" shadowEnabled="0" shadowOffsetX="0" shadowOffsetY="2" shadowBlur="4" shadowOpacity="160" blurEnabled="0" blurRadius="4" transform="matrix(1.44181,1.37494,-1.40638,1.47477,266.281,262.626)" pers-center="0,0" pers-size="0,0" pers-start="0,0" pers-end="0,0" locked="0" mesh="" flag=""/>
            <path id="shapePath2" d="M477.752,467.228 L483.841,405.25 C484.381,399.753 482.401,394.364 478.459,390.605 L306.03,226.174 C333.625,166.214 320.68,95.1919 272.321,49.0751 C210.405,-9.96893 110.895,-6.48087 50.4998,56.8519 C-9.89563,120.185 -8.65769,219.748 53.2579,278.792 C94.3725,318 151.28,331.507 204.207,315.327 L234.695,344.4 L234.427,396.89 C234.399,402.087 236.627,406.988 240.471,410.37 C244.342,413.745 249.511,415.264 254.668,414.542 L290.154,409.573 L291.029,451.335 C291.234,461.166 299.241,468.867 309.07,468.688 L363.986,467.695 L385.437,488.151 C389.379,491.91 394.856,493.633 400.321,492.833 L461.939,483.811 C470.35,482.579 476.92,475.69 477.752,467.228 M404.515,455.657 L384.054,436.146 C380.689,432.937 376.179,431.19 371.479,431.275 L326.905,432.081 L325.981,388.034 C325.871,382.922 323.616,378.159 319.764,374.874 C315.909,371.604 310.819,370.143 305.746,370.855 L270.786,375.751 L270.988,336.062 C271.012,331.14 269.039,326.463 265.518,323.105 L221.698,281.316 C216.702,276.552 209.353,275.145 202.799,277.698 C160.087,294.338 112.487,284.584 78.5741,252.244 C30.9656,206.847 30.0152,130.296 76.4523,81.6008 C122.889,32.9052 199.399,30.2219 247.006,75.621 C286.937,113.7 295.598,173.666 268.073,221.45 C263.875,228.736 265.111,237.839 271.067,243.519 L446.906,411.202 L443.094,450.009 L404.515,455.657 Z" style="stroke:none;fill-rule:nonzero;fill:#000000;fill-opacity:1;"/>
        </g>
    </g>
</svg>
