<?xml version="1.0"?>
<svg version="1.1" xmlns="http://www.w3.org/2000/svg" xmlns:xlink="http://www.w3.org/1999/xlink" width="500" height="500">
    <desc iVinci="yes" version="4.6" gridStep="20" showGrid="no" snapToGrid="no" codePlatform="0"/>
    <g id="Layer1" name="Layer 1" opacity="1">
        <g id="Shape1">
            <desc shapeID="1" type="0" basicInfo-basicType="0" basicInfo-roundedRectRadius="12" basicInfo-polygonSides="6" basicInfo-starPoints="5" bounding="rect(-21.975,-24.9747,43.95,49.9495)" text="" font-familyName="" font-pixelSize="20" font-bold="0" font-underline="0" font-alignment="1" strokeStyle="0" markerStart="0" markerEnd="0" shadowEnabled="0" shadowOffsetX="0" shadowOffsetY="2" shadowBlur="4" shadowOpacity="160" blurEnabled="0" blurRadius="4" transform="matrix(9.61064,0,0,9.61064,250,250)" pers-center="0,0" pers-size="0,0" pers-start="0,0" pers-end="0,0" locked="0" mesh="" flag=""/>
            <path id="shapePath1" d="M312.901,82.1772 L398.575,154.522 L427.737,119.56 C432.611,113.716 434.92,106.282 434.251,98.577 C433.592,90.893 430.029,83.9739 424.205,79.0546 L382.36,43.7223 C376.537,38.8011 369.133,36.4661 361.46,37.1402 C353.795,37.8195 346.901,41.4139 342.012,47.2689 L312.901,82.1772 M381.32,175.223 L295.647,102.878 L100.917,336.426 L106.12,335.831 C114.052,334.948 121.873,337.411 127.597,342.66 C133.338,347.923 136.519,355.563 136.354,363.609 L135.979,381.972 L153.834,378.409 C161.654,376.839 169.665,378.659 175.811,383.429 C181.964,388.203 185.755,395.56 186.246,403.596 L186.568,408.86 L381.32,175.223 M161.114,432.042 L159.484,405.278 C159.471,405.079 159.451,404.964 159.44,404.905 C159.338,404.899 159.199,404.908 159.03,404.942 L140.288,408.674 C132.272,410.267 124.226,408.339 118.261,403.3 C112.288,398.247 108.987,390.59 109.153,382.349 L109.547,363.074 C109.55,362.913 109.538,362.785 109.518,362.692 C109.453,362.691 109.331,362.692 109.13,362.716 L82.1473,365.808 L65.8968,462.375 L161.114,432.042 M63.3726,490.023 C57.2082,490.023 51.5511,488.02 47.129,484.17 C40.3797,478.255 37.594,468.932 39.2919,458.832 L56.0107,359.489 C57.3783,351.363 62.2079,340.841 67.4667,334.532 L321.504,29.8611 C330.987,18.4839 344.367,11.497 359.133,10.1988 C373.894,8.88443 388.27,13.4353 399.579,22.9888 L441.421,58.3187 C452.73,67.8685 459.681,81.344 460.979,96.2255 C462.265,111.108 457.744,125.595 448.256,136.977 L194.244,441.685 C188.888,448.109 179.205,454.628 171.251,457.171 L73.0818,488.451 C69.8185,489.494 66.5518,490.023 63.3726,490.023 Z" style="stroke:none;fill-rule:nonzero;fill:#000000;fill-opacity:1;"/>
        </g>
    </g>
</svg>
