<?xml version="1.0"?>
<svg version="1.1" xmlns="http://www.w3.org/2000/svg" xmlns:xlink="http://www.w3.org/1999/xlink" width="500" height="500">
    <desc iVinci="yes" version="4.6" gridStep="20" showGrid="no" snapToGrid="no" codePlatform="0"/>
    <g id="Layer1" name="Layer 1" opacity="1">
        <g id="Shape1">
            <desc shapeID="1" type="0" basicInfo-basicType="0" basicInfo-roundedRectRadius="12" basicInfo-polygonSides="6" basicInfo-starPoints="5" bounding="rect(-960,-704,1920,1408)" text="" font-familyName="" font-pixelSize="20" font-bold="0" font-underline="0" font-alignment="1" strokeStyle="0" markerStart="0" markerEnd="0" shadowEnabled="0" shadowOffsetX="0" shadowOffsetY="2" shadowBlur="4" shadowOpacity="160" blurEnabled="0" blurRadius="4" transform="matrix(0.261343,0,0,0.261343,250.89,183.986)" pers-center="0,0" pers-size="0,0" pers-start="0,0" pers-end="0,0" locked="0" mesh="" flag=""/>
            <path id="shapePath1" d="M334.519,192.349 C334.519,189.909 333.735,187.906 332.167,186.338 L240.174,94.3449 C238.606,92.7768 236.603,91.9928 234.164,91.9928 C231.724,91.9928 229.721,92.7768 228.153,94.3449 L136.421,186.076 C134.679,188.167 133.808,190.258 133.808,192.349 C133.808,194.788 134.592,196.791 136.16,198.359 C137.728,199.928 139.732,200.712 142.171,200.712 L200.712,200.712 L200.712,292.704 C200.712,294.969 201.539,296.929 203.194,298.585 C204.85,300.24 206.81,301.067 209.075,301.067 L259.253,301.067 C261.517,301.067 263.478,300.24 265.133,298.585 C266.788,296.929 267.615,294.969 267.615,292.704 L267.615,200.712 L326.156,200.712 C328.421,200.712 330.381,199.884 332.037,198.229 C333.692,196.574 334.519,194.614 334.519,192.349 M501.779,267.615 C501.779,295.318 491.979,318.969 472.378,338.57 C452.777,358.171 429.126,367.971 401.423,367.971 L117.082,367.971 C84.8494,367.971 57.2777,356.516 34.3667,333.605 C11.4556,310.694 1.52588e-05,283.122 1.52588e-05,250.889 C1.52588e-05,228.24 6.09802,207.332 18.294,188.167 C30.4901,169.002 46.8676,154.628 67.4266,145.045 C67.0781,139.819 66.9039,136.073 66.9039,133.808 C66.9039,96.8712 79.9711,65.3358 106.105,39.2015 C132.24,13.0672 163.775,0 200.712,0 C227.891,0 252.762,7.57896 275.325,22.7369 C297.888,37.8948 314.309,58.0182 324.588,83.1071 C336.959,72.305 351.42,66.9039 367.971,66.9039 C386.44,66.9039 402.207,73.4374 415.274,86.5046 C428.342,99.5718 434.875,115.339 434.875,133.808 C434.875,147.049 431.303,159.071 424.16,169.873 C446.81,175.274 465.409,187.078 479.957,205.285 C494.505,223.492 501.779,244.269 501.779,267.615 Z" style="stroke:none;fill-rule:nonzero;fill:#000000;fill-opacity:1;"/>
        </g>
    </g>
</svg>
