<?xml version="1.0"?>
<svg version="1.1" xmlns="http://www.w3.org/2000/svg" xmlns:xlink="http://www.w3.org/1999/xlink" width="500" height="500">
    <desc iVinci="yes" version="4.6" gridStep="20" showGrid="no" snapToGrid="no" codePlatform="0"/>
    <g id="Layer1" name="Layer 1" opacity="1">
        <g id="Shape1">
            <desc shapeID="1" type="0" basicInfo-basicType="0" basicInfo-roundedRectRadius="12" basicInfo-polygonSides="6" basicInfo-starPoints="5" bounding="rect(-768,-800,1536,1600)" text="" font-familyName="" font-pixelSize="20" font-bold="0" font-underline="0" font-alignment="1" strokeStyle="0" markerStart="0" markerEnd="0" shadowEnabled="0" shadowOffsetX="0" shadowOffsetY="2" shadowBlur="4" shadowOpacity="160" blurEnabled="0" blurRadius="4" transform="matrix(0.310745,0,0,0.310745,250,250)" pers-center="0,0" pers-size="0,0" pers-start="0,0" pers-end="0,0" locked="0" mesh="" flag=""/>
            <path id="shapePath1" d="M165.477,399.158 C165.477,411.587 161.075,422.153 152.271,430.854 C143.466,439.555 132.953,443.905 120.73,443.905 C108.3,443.905 97.7349,439.555 89.034,430.854 C80.3332,422.153 75.9827,411.587 75.9827,399.158 C75.9827,386.728 80.3332,376.163 89.034,367.462 C97.7349,358.761 108.3,354.41 120.73,354.41 C132.953,354.41 143.466,358.761 152.271,367.462 C161.075,376.163 165.477,386.728 165.477,399.158 M299.719,458.821 C299.719,469.8 295.835,479.174 288.066,486.943 C280.298,494.712 270.924,498.596 259.944,498.596 C248.964,498.596 239.59,494.712 231.821,486.943 C224.053,479.174 220.168,469.8 220.168,458.821 C220.168,447.841 224.053,438.467 231.821,430.698 C239.59,422.93 248.964,419.045 259.944,419.045 C270.924,419.045 280.298,422.93 288.066,430.698 C295.835,438.467 299.719,447.841 299.719,458.821 M110.786,259.944 C110.786,273.617 105.918,285.321 96.1812,295.058 C86.4445,304.795 74.7398,309.663 61.067,309.663 C47.3942,309.663 35.6895,304.795 25.9528,295.058 C16.2161,285.321 11.3478,273.617 11.3478,259.944 C11.3478,246.271 16.2161,234.566 25.9528,224.83 C35.6895,215.093 47.3942,210.225 61.067,210.225 C74.7398,210.225 86.4445,215.093 96.1812,224.83 C105.918,234.566 110.786,246.271 110.786,259.944 M433.961,399.158 C433.961,408.687 430.543,416.87 423.707,423.707 C416.87,430.543 408.687,433.961 399.158,433.961 C389.628,433.961 381.445,430.543 374.609,423.707 C367.772,416.87 364.354,408.687 364.354,399.158 C364.354,389.628 367.772,381.445 374.609,374.609 C381.445,367.772 389.628,364.354 399.158,364.354 C408.687,364.354 416.87,367.772 423.707,374.609 C430.543,381.445 433.961,389.628 433.961,399.158 M175.421,120.73 C175.421,135.853 170.087,148.749 159.418,159.418 C148.749,170.087 135.853,175.421 120.73,175.421 C105.607,175.421 92.7112,170.087 82.0423,159.418 C71.3734,148.749 66.0389,135.853 66.0389,120.73 C66.0389,105.607 71.3734,92.7112 82.0423,82.0423 C92.7112,71.3734 105.607,66.0389 120.73,66.0389 C135.853,66.0389 148.749,71.3734 159.418,82.0423 C170.087,92.7112 175.421,105.607 175.421,120.73 M319.607,61.067 C319.607,77.6401 313.806,91.7272 302.205,103.328 C290.604,114.929 276.517,120.73 259.944,120.73 C243.371,120.73 229.284,114.929 217.683,103.328 C206.081,91.7272 200.281,77.6401 200.281,61.067 C200.281,44.4939 206.081,30.4068 217.683,18.8057 C229.284,7.2045 243.371,1.40395 259.944,1.40395 C276.517,1.40395 290.604,7.2045 302.205,18.8057 C313.806,30.4068 319.607,44.4939 319.607,61.067 M488.652,259.944 C488.652,268.23 485.752,275.274 479.951,281.074 C474.151,286.875 467.107,289.775 458.821,289.775 C450.534,289.775 443.491,286.875 437.69,281.074 C431.889,275.274 428.989,268.23 428.989,259.944 C428.989,251.657 431.889,244.614 437.69,238.813 C443.491,233.013 450.534,230.112 458.821,230.112 C467.107,230.112 474.151,233.013 479.951,238.813 C485.752,244.614 488.652,251.657 488.652,259.944 M424.017,120.73 C424.017,127.566 421.583,133.419 416.715,138.287 C411.846,143.155 405.994,145.59 399.158,145.59 C392.321,145.59 386.469,143.155 381.601,138.287 C376.732,133.419 374.298,127.566 374.298,120.73 C374.298,113.894 376.732,108.041 381.601,103.173 C386.469,98.3046 392.321,95.8704 399.158,95.8704 C405.994,95.8704 411.846,98.3046 416.715,103.173 C421.583,108.041 424.017,113.894 424.017,120.73 Z" style="stroke:none;fill-rule:nonzero;fill:#000000;fill-opacity:1;"/>
        </g>
    </g>
</svg>
