<?xml version="1.0"?>
<svg version="1.1" xmlns="http://www.w3.org/2000/svg" xmlns:xlink="http://www.w3.org/1999/xlink" width="500" height="500">
    <desc iVinci="yes" version="4.6" gridStep="20" showGrid="no" snapToGrid="no" codePlatform="0"/>
    <g id="Layer1" name="Layer 1" opacity="1">
        <g id="Shape1">
            <desc shapeID="1" type="0" basicInfo-basicType="0" basicInfo-roundedRectRadius="12" basicInfo-polygonSides="6" basicInfo-starPoints="5" bounding="rect(-213,-255.5,426,511)" text="" font-familyName="" font-pixelSize="20" font-bold="0" font-underline="0" font-alignment="1" strokeStyle="0" markerStart="0" markerEnd="0" shadowEnabled="0" shadowOffsetX="0" shadowOffsetY="2" shadowBlur="4" shadowOpacity="160" blurEnabled="0" blurRadius="4" transform="matrix(0.93942,0,0,0.93942,250,250)" pers-center="0,0" pers-size="0,0" pers-start="0,0" pers-end="0,0" locked="0" mesh="" flag=""/>
            <path id="shapePath1" d="M319.517,413.929 L319.517,182.831 L347.7,182.831 L347.7,413.929 L319.517,413.929 M235.909,413.929 L235.909,182.831 L264.091,182.831 L264.091,413.929 L235.909,413.929 M151.361,413.929 L151.361,182.831 L179.544,182.831 L179.544,413.929 L151.361,413.929 M307.305,56.9492 L416.277,56.9492 C427.55,56.9492 436.945,65.404 436.945,77.6165 L436.945,108.617 L62.1161,108.617 L62.1161,77.6165 C62.1161,65.404 71.5103,56.9492 82.7833,56.9492 L192.695,56.9492 L192.695,42.8579 C192.695,31.5849 202.09,22.1907 213.363,22.1907 L286.637,22.1907 C297.91,22.1907 307.305,31.5849 307.305,42.8579 L307.305,56.9492 M421.914,77.6165 C421.914,74.7982 419.096,71.98 416.277,71.98 L291.335,71.98 L291.335,42.8579 C291.335,40.0397 289.456,38.1608 286.637,38.1608 L213.363,38.1608 C210.544,38.1608 207.726,40.0397 207.726,42.8579 L207.726,71.98 L82.7833,71.98 C79.965,71.98 78.0862,74.7982 78.0862,77.6165 L78.0862,92.6472 L421.914,92.6472 L421.914,77.6165 M434.126,77.6165 C434.126,67.2828 426.611,59.7675 416.277,59.7675 L303.547,59.7675 L303.547,42.8579 C303.547,33.4637 296.032,25.9484 286.637,25.9484 L213.363,25.9484 C203.029,25.9484 195.514,33.4637 195.514,42.8579 L195.514,59.7675 L82.7833,59.7675 C73.3891,59.7675 64.9343,67.2828 64.9343,77.6165 L64.9343,105.799 L434.126,105.799 L434.126,77.6165 M319.517,43.7974 L416.277,43.7974 C435.066,43.7974 450.096,58.8281 450.096,77.6165 L450.096,120.83 L49.9036,120.83 L49.9036,77.6165 C49.9036,58.8281 64.9343,43.7974 82.7833,43.7974 L179.544,43.7974 L179.544,42.8579 C179.544,25.009 194.574,9.97824 213.363,9.97824 L286.637,9.97824 C304.486,9.97824 319.517,25.009 319.517,42.8579 L319.517,43.7974 M432.247,102.041 L432.247,441.172 C432.247,468.415 410.641,490.022 383.398,490.022 L116.602,490.022 C89.3592,490.022 66.8132,468.415 66.8132,441.172 L66.8132,102.041 L94.9958,102.041 L94.9958,441.172 C94.9958,452.445 104.39,461.839 116.602,461.839 L383.398,461.839 C394.671,461.839 404.065,452.445 404.065,441.172 L404.065,102.041 L432.247,102.041 Z" style="stroke:none;fill-rule:nonzero;fill:#000000;fill-opacity:1;"/>
        </g>
    </g>
</svg>
