<?xml version="1.0" encoding="UTF-8"?>
<svg
   version="1.1"
   xmlns="http://www.w3.org/2000/svg"
   xmlns:xlink="http://www.w3.org/1999/xlink"
   width="83"
   height="35" >
  <defs>
    <style>
        path {
            fill:#ffffff;
            fill-opacity:1;fill-rule:nonzero;stroke:none"
        }
    </style>
  </defs>
  <path
     d="m 10.9248,1.22893 -8.29519,0 C 1.93037,1.22284 1.258,1.49792 0.76355,1.99238 0.269096,2.48683 -0.00598908,3.1592 9.91821e-5,3.85844 l 0,18.83126 C 0.0585251,24.0983 1.2175,25.2102 2.62735,25.2102 c 1.40985,0 2.56883,-1.1119 2.62725,-2.5205 l 0,-5.2229 4.19727,0 5.11893,6.4834 c 0.5909,0.8486 1.5593,1.3548 2.5934,1.3555 0.649,0.0084 1.2748,-0.2417 1.7393,-0.6951 0.4644,-0.4535 0.7295,-1.073 0.7366,-1.7221 -0.0268,-0.7539 -0.3309,-1.4714 -0.8539,-2.0151 l -3.6506,-4.4322 c 2.9006,-1.1927 4.7801,-3.515 4.7801,-7.26501 l 0,-0.06777 c 0,-2.25903 -0.7184,-4.1295 -2.0467,-5.45781 C 16.3148,2.08284 13.9609,1.22893 10.9248,1.22893 m 3.6867,8.22286 c 0,2.01051 -1.4684,3.37501 -4.0256,3.37501 l -5.32678,0 0,-6.85391 5.21838,0 c 2.5617,0 4.1295,1.16114 4.1295,3.41113 l 0,0.06777 0.0045,0 M 29.9006,6.48343 c -5.3268,0 -9.0361,4.29667 -9.0361,9.51507 l 0,0.0587 c 0,5.5933 4.0662,9.4472 9.5557,9.4472 2.3152,0.0616 4.573,-0.7258 6.3479,-2.2138 0.4378,-0.39 0.6864,-0.9498 0.6822,-1.5361 0.0174,-0.5425 -0.1883,-1.0684 -0.5691,-1.4551 -0.3807,-0.3867 -0.9033,-0.6006 -1.446,-0.5916 -0.4555,-0.0158 -0.9019,0.1298 -1.2605,0.4111 -1.0584,0.8076 -2.3555,1.24 -3.6867,1.2289 -2.3223,0 -3.9579,-1.2289 -4.4729,-3.5828 l 10.274,0 c 0.659,0.016 1.2948,-0.2435 1.7544,-0.716 0.4596,-0.4724 0.7015,-1.1152 0.6673,-1.7734 -0.009,-3.7771 -2.7018,-8.79217 -8.8147,-8.79217 l 0.0045,0 m -3.9578,8.05117 c 0.4111,-2.3539 1.8072,-3.89 3.9578,-3.89 2.1506,0 3.5467,1.5677 3.8584,3.89 l -7.8162,0 M 54.7816,6.61897 C 53.6737,6.6057 52.688,7.31974 52.3554,8.37649 L 48.3614,19.0527 44.4352,8.44427 C 44.1279,7.31488 43.0789,6.54927 41.9096,6.6009 40.559,6.61121 39.451,7.67357 39.384,9.02258 c 0.01,0.43352 0.102,0.86124 0.2711,1.26052 l 5.5979,12.9307 c 0.5828,1.3554 1.5361,2.259 2.9367,2.259 l 0.2756,0 c 1.3961,0 2.3539,-0.9036 2.9367,-2.259 L 56.9999,10.2831 C 57.1614,9.89248 57.2532,9.47654 57.271,9.0542 57.2663,8.39958 57.0001,7.774 56.5317,7.31664 56.0633,6.85929 55.4316,6.6081 54.777,6.61897 l 0.0046,0 M 66.8628,6.48343 c -5.3222,0 -9.0361,4.29667 -9.0361,9.51507 l 0,0.0587 c 0,5.5933 4.0663,9.4472 9.5557,9.4472 2.3153,0.0616 4.5731,-0.7258 6.3479,-2.2138 0.4378,-0.39 0.6864,-0.9498 0.6822,-1.5361 0.0174,-0.5425 -0.1883,-1.0684 -0.569,-1.4551 -0.3808,-0.3867 -0.9034,-0.6006 -1.446,-0.5916 -0.457,-0.0165 -0.9051,0.1291 -1.2651,0.4111 -1.0584,0.8076 -2.3555,1.24 -3.6867,1.2289 -2.3223,0 -3.9578,-1.2289 -4.4729,-3.5828 l 10.274,0 c 0.6566,0.0146 1.2897,-0.2443 1.748,-0.7146 0.4583,-0.4703 0.7007,-1.1098 0.6692,-1.7658 0,-3.7861 -2.7108,-8.80117 -8.8057,-8.80117 l 0.0045,0 M 62.905,14.5346 c 0.4112,-2.3539 1.8072,-3.89 3.9578,-3.89 2.1506,0 3.5512,1.5677 3.8585,3.89 l -7.8163,0 M 80.4125,0.00453568 C 79.7243,0.00333309 79.064,0.276176 78.5774,0.762787 78.0908,1.2494 77.8179,1.90973 77.8191,2.5979 l 0,20.1279 c 0,1.4323 1.1611,2.5934 2.5934,2.5934 1.4323,0 2.5934,-1.1611 2.5934,-2.5934 l 0,-20.13242 C 83.0059,1.90401 82.7314,1.243 82.2431,0.756395 81.7548,0.269783 81.0928,-0.00238419 80.4035,1.71661e-5 l 0.009,0.0045185139 z"
     />
  <path
     d="M 74.222656 30.587891 C 73.973056 30.587891 73.771484 30.789462 73.771484 31.039062 L 73.771484 31.042969 L 73.771484 34.207031 C 73.770184 34.320031 73.814631 34.427912 73.894531 34.507812 C 73.974431 34.587713 74.082313 34.632059 74.195312 34.630859 C 74.312613 34.638359 74.428072 34.596125 74.513672 34.515625 C 74.599372 34.435225 74.648638 34.324531 74.648438 34.207031 L 74.648438 32.240234 L 75.398438 33.402344 C 75.468137 33.537644 75.607566 33.623047 75.759766 33.623047 C 75.911966 33.623047 76.051394 33.537644 76.121094 33.402344 L 76.884766 32.226562 L 76.884766 34.201172 C 76.830866 34.385872 76.899841 34.585766 77.056641 34.697266 C 77.213341 34.808766 77.423278 34.808766 77.580078 34.697266 C 77.736878 34.585766 77.805753 34.385872 77.751953 34.201172 L 77.751953 31.039062 C 77.751953 30.789463 77.548328 30.587891 77.298828 30.587891 L 77.205078 30.587891 C 77.043978 30.581991 76.893506 30.667094 76.816406 30.808594 L 75.759766 32.525391 L 74.707031 30.8125 C 74.625231 30.6707 74.472294 30.585591 74.308594 30.587891 L 74.222656 30.587891 z M 53.679688 30.591797 C 53.563288 30.584297 53.448781 30.625578 53.363281 30.705078 C 53.277781 30.784578 53.227562 30.895019 53.226562 31.011719 C 53.227563 31.124719 53.266537 31.235019 53.335938 31.324219 L 54.615234 33.058594 L 54.654297 33.058594 L 54.654297 34.183594 C 54.604297 34.367294 54.676231 34.562575 54.832031 34.671875 C 54.987731 34.781275 55.195763 34.781275 55.351562 34.671875 C 55.507362 34.562575 55.577344 34.367294 55.527344 34.183594 L 55.527344 33.044922 L 56.804688 31.318359 C 56.872487 31.231459 56.912269 31.125725 56.917969 31.015625 C 56.924569 30.901025 56.881881 30.790084 56.800781 30.708984 C 56.719681 30.627884 56.608641 30.585097 56.494141 30.591797 C 56.318641 30.598097 56.159519 30.696109 56.074219 30.849609 L 55.09375 32.246094 L 54.130859 30.857422 C 54.042359 30.690622 53.868488 30.588497 53.679688 30.591797 z M 69.082031 30.591797 C 68.832531 30.591797 68.628906 30.793469 68.628906 31.042969 L 68.628906 34.128906 C 68.648106 34.369506 68.854403 34.552922 69.095703 34.544922 L 71.318359 34.544922 C 71.421059 34.546122 71.518797 34.505794 71.591797 34.433594 C 71.664797 34.361494 71.707031 34.262756 71.707031 34.160156 C 71.707031 33.945556 71.532959 33.773438 71.318359 33.773438 L 69.509766 33.773438 L 69.509766 32.941406 L 71.019531 32.941406 C 71.122131 32.942606 71.219969 32.902278 71.292969 32.830078 C 71.365969 32.757978 71.408203 32.659341 71.408203 32.556641 C 71.405803 32.343141 71.233031 32.170369 71.019531 32.167969 L 69.509766 32.167969 L 69.509766 31.365234 L 71.277344 31.365234 C 71.379944 31.366434 71.477781 31.326106 71.550781 31.253906 C 71.623781 31.181806 71.666016 31.083169 71.666016 30.980469 C 71.663616 30.766969 71.490944 30.594197 71.277344 30.591797 L 69.082031 30.591797 z M 49.988281 30.595703 C 49.179581 30.595703 48.601562 31.070663 48.601562 31.789062 C 48.601562 32.575162 49.116316 32.7967 49.916016 33 C 50.575616 33.1672 50.710938 33.280553 50.710938 33.501953 C 50.710938 33.732353 50.497525 33.871094 50.140625 33.871094 C 49.773325 33.866194 49.418006 33.742225 49.128906 33.515625 C 49.056906 33.462425 48.970259 33.433294 48.880859 33.433594 C 48.773359 33.432394 48.67015 33.473328 48.59375 33.548828 C 48.51735 33.624328 48.474509 33.728437 48.474609 33.835938 C 48.473109 33.965438 48.533019 34.088216 48.636719 34.166016 C 49.070519 34.475416 49.590247 34.641425 50.123047 34.640625 C 50.977047 34.640625 51.578125 34.202116 51.578125 33.416016 C 51.578125 32.724716 51.126466 32.434463 50.322266 32.226562 C 49.635566 32.050363 49.46875 31.969131 49.46875 31.707031 C 49.48575 31.591131 49.551237 31.489228 49.648438 31.423828 C 49.745638 31.358428 49.864716 31.337234 49.978516 31.365234 C 50.274516 31.377534 50.562547 31.468759 50.810547 31.630859 C 50.876847 31.672359 50.95295 31.693559 51.03125 31.693359 C 51.13865 31.694559 51.241959 31.653725 51.318359 31.578125 C 51.394759 31.502625 51.4375 31.400369 51.4375 31.292969 C 51.4381 31.152169 51.365141 31.021219 51.244141 30.949219 C 50.868341 30.712719 50.432181 30.589203 49.988281 30.595703 z M 59.986328 30.595703 C 59.177528 30.595703 58.599609 31.070663 58.599609 31.789062 C 58.599609 32.575162 59.110556 32.7967 59.910156 33 C 60.574356 33.1672 60.708984 33.280553 60.708984 33.501953 C 60.708984 33.732353 60.497525 33.871094 60.140625 33.871094 C 59.773225 33.866194 59.416053 33.742225 59.126953 33.515625 C 59.055053 33.462425 58.968406 33.433294 58.878906 33.433594 C 58.771506 33.432394 58.668197 33.473328 58.591797 33.548828 C 58.515397 33.624328 58.472656 33.728437 58.472656 33.835938 C 58.471256 33.965438 58.531066 34.088216 58.634766 34.166016 C 59.068666 34.475116 59.588294 34.641125 60.121094 34.640625 C 60.974994 34.640625 61.576172 34.202116 61.576172 33.416016 C 61.576172 32.724716 61.124513 32.434463 60.320312 32.226562 C 59.633513 32.050363 59.466797 31.969131 59.466797 31.707031 C 59.485097 31.591831 59.549584 31.490881 59.646484 31.425781 C 59.743284 31.360681 59.862963 31.338634 59.976562 31.365234 C 60.272562 31.377734 60.560494 31.468959 60.808594 31.630859 C 60.874894 31.672659 60.950997 31.693759 61.029297 31.693359 C 61.136797 31.694559 61.240006 31.653725 61.316406 31.578125 C 61.392806 31.502625 61.4376 31.400369 61.4375 31.292969 C 61.4381 31.152169 61.363188 31.021219 61.242188 30.949219 C 60.866487 30.712519 60.430228 30.589003 59.986328 30.595703 z M 81.316406 30.595703 C 80.507706 30.595703 79.929688 31.070663 79.929688 31.789062 C 79.929687 32.575162 80.440534 32.7967 81.240234 33 C 81.899834 33.1672 82.035156 33.280553 82.035156 33.501953 C 82.035156 33.732353 81.821744 33.871094 81.464844 33.871094 C 81.097544 33.866194 80.742225 33.742225 80.453125 33.515625 C 80.381125 33.462425 80.294478 33.433294 80.205078 33.433594 C 80.097578 33.432394 79.994369 33.473328 79.917969 33.548828 C 79.841569 33.624328 79.798828 33.728437 79.798828 33.835938 C 79.797428 33.965438 79.857237 34.088216 79.960938 34.166016 C 80.396038 34.476316 80.916772 34.642425 81.451172 34.640625 C 82.305072 34.640625 82.90625 34.202116 82.90625 33.416016 C 82.90625 32.724716 82.454591 32.434463 81.650391 32.226562 C 80.963591 32.050363 80.796875 31.969131 80.796875 31.707031 C 80.815175 31.591831 80.879762 31.490881 80.976562 31.425781 C 81.073463 31.360681 81.192941 31.338634 81.306641 31.365234 C 81.602641 31.377734 81.890572 31.468959 82.138672 31.630859 C 82.205072 31.672359 82.281075 31.693559 82.359375 31.693359 C 82.466775 31.694559 82.570184 31.653725 82.646484 31.578125 C 82.722884 31.502625 82.765625 31.400369 82.765625 31.292969 C 82.766225 31.152169 82.693266 31.021219 82.572266 30.949219 C 82.196666 30.712519 81.760406 30.589003 81.316406 30.595703 z M 63.691406 30.615234 C 63.469306 30.615234 63.289062 30.793525 63.289062 31.015625 C 63.289063 31.237725 63.469306 31.417969 63.691406 31.417969 L 64.527344 31.417969 L 64.527344 34.169922 C 64.477444 34.353622 64.547325 34.548803 64.703125 34.658203 C 64.858925 34.767503 65.066856 34.767503 65.222656 34.658203 C 65.378456 34.548803 65.448337 34.353622 65.398438 34.169922 L 65.398438 31.417969 L 66.234375 31.417969 C 66.456475 31.417969 66.636719 31.237725 66.636719 31.015625 C 66.636719 30.793525 66.456475 30.615234 66.234375 30.615234 L 63.691406 30.615234 z "
     />
</svg>
