<?xml version="1.0"?>
<svg version="1.1" xmlns="http://www.w3.org/2000/svg" xmlns:xlink="http://www.w3.org/1999/xlink" width="500" height="500">
    <desc iVinci="yes" version="4.6" gridStep="20" showGrid="no" snapToGrid="no" codePlatform="0"/>
    <g id="Layer1" name="Layer 1" opacity="1">
        <g id="Shape1">
            <desc shapeID="1" type="0" basicInfo-basicType="0" basicInfo-roundedRectRadius="12" basicInfo-polygonSides="6" basicInfo-starPoints="5" bounding="rect(-7.05014,-6.85002,14.1001,13.7)" text="" font-familyName="" font-pixelSize="20" font-bold="0" font-underline="0" font-alignment="1" strokeStyle="0" markerStart="0" markerEnd="0" shadowEnabled="0" shadowOffsetX="0" shadowOffsetY="2" shadowBlur="4" shadowOpacity="160" blurEnabled="0" blurRadius="4" transform="matrix(14.5218,0,0,14.5218,275.666,120.475)" pers-center="0,0" pers-size="0,0" pers-start="0,0" pers-end="0,0" locked="0" mesh="" flag=""/>
            <path id="shapePath1" d="M173.285,97.9649 C218.303,71.8272 261.869,47.1388 306.887,21.0005 C330.123,61.6604 353.357,100.871 378.045,142.983 C333.026,169.122 290.914,193.81 244.444,219.95 C219.756,177.836 196.521,138.627 173.285,97.9649 Z" style="stroke:none;fill-rule:evenodd;fill:#000000;fill-opacity:1;"/>
        </g>
        <g id="Shape2">
            <desc shapeID="2" type="0" basicInfo-basicType="0" basicInfo-roundedRectRadius="12" basicInfo-polygonSides="6" basicInfo-starPoints="5" bounding="rect(-7.04995,-5.96978,14.1,11.9394)" text="" font-familyName="" font-pixelSize="20" font-bold="0" font-underline="0" font-alignment="1" strokeStyle="0" markerStart="0" markerEnd="0" shadowEnabled="0" shadowOffsetX="0" shadowOffsetY="2" shadowBlur="4" shadowOpacity="160" blurEnabled="0" blurRadius="4" transform="matrix(14.5218,0,0,14.5218,354.083,247.102)" pers-center="0,0" pers-size="0,0" pers-start="0,0" pers-end="0,0" locked="0" mesh="" flag=""/>
            <path id="shapePath2" d="M456.462,280.941 C424.515,299.82 396.923,321.603 364.975,331.767 C346.096,337.576 315.601,330.315 301.078,317.245 C279.295,296.915 269.13,266.419 251.705,237.375 C296.722,211.236 338.836,186.549 385.306,160.41 C408.54,198.166 431.776,237.375 456.462,280.941 Z" style="stroke:none;fill-rule:evenodd;fill:#000000;fill-opacity:1;"/>
        </g>
        <g id="Shape3">
            <desc shapeID="3" type="0" basicInfo-basicType="0" basicInfo-roundedRectRadius="12" basicInfo-polygonSides="6" basicInfo-starPoints="5" bounding="rect(-9.61639,-11.4307,19.2328,22.8614)" text="" font-familyName="" font-pixelSize="20" font-bold="0" font-underline="0" font-alignment="1" strokeStyle="0" markerStart="0" markerEnd="0" shadowEnabled="0" shadowOffsetX="0" shadowOffsetY="2" shadowBlur="4" shadowOpacity="160" blurEnabled="0" blurRadius="4" transform="matrix(14.5218,0,0,14.5218,139.647,181.748)" pers-center="0,0" pers-size="0,0" pers-start="0,0" pers-end="0,0" locked="0" mesh="" flag=""/>
            <path id="shapePath3" d="M279.295,333.221 C270.583,339.028 263.322,343.386 256.061,347.743 C205.233,259.158 154.407,173.48 106.485,86.349 C90.5115,57.3052 73.0851,41.3297 39.685,48.5907 C32.4241,50.0442 23.7104,50.0442 16.4494,47.1388 C10.6413,44.2352 0,35.2133 0,32.617 C0,29.5598 10.6413,22.4523 14.9977,21.0005 C62.9196,6.47859 99.2241,22.4523 123.911,64.5663 C174.738,153.149 225.564,241.733 279.295,333.221 Z" style="stroke:none;fill-rule:evenodd;fill:#000000;fill-opacity:1;"/>
        </g>
        <g id="Shape4">
            <desc shapeID="4" type="0" basicInfo-basicType="0" basicInfo-roundedRectRadius="12" basicInfo-polygonSides="6" basicInfo-starPoints="5" bounding="rect(-4.95158,-4.94993,9.90318,9.89986)" text="" font-familyName="" font-pixelSize="20" font-bold="0" font-underline="0" font-alignment="1" strokeStyle="0" markerStart="0" markerEnd="0" shadowEnabled="0" shadowOffsetX="0" shadowOffsetY="2" shadowBlur="4" shadowOpacity="160" blurEnabled="0" blurRadius="4" transform="matrix(14.5218,0,0,14.5218,311.992,412.364)" pers-center="0,0" pers-size="0,0" pers-start="0,0" pers-end="0,0" locked="0" mesh="" flag=""/>
            <path id="shapePath4" d="M240.086,411.637 C240.086,370.978 270.583,340.482 311.244,340.482 C350.453,340.482 383.853,370.978 383.853,410.185 C385.306,450.848 351.906,484.246 311.244,484.246 C272.034,482.795 240.086,450.848 240.086,411.637 M360.618,410.185 C360.618,384.048 338.836,362.265 312.697,362.265 C286.556,362.265 263.322,384.048 263.322,410.185 C263.322,437.777 286.556,461.012 314.148,459.56 C338.836,459.56 360.618,437.777 360.618,410.185 Z" style="stroke:none;fill-rule:evenodd;fill:#000000;fill-opacity:1;"/>
        </g>
        <g id="Shape5">
            <desc shapeID="5" type="0" basicInfo-basicType="0" basicInfo-roundedRectRadius="12" basicInfo-polygonSides="6" basicInfo-starPoints="5" bounding="rect(-4.25,-2.57006,8.5,5.14007)" text="" font-familyName="" font-pixelSize="20" font-bold="0" font-underline="0" font-alignment="1" strokeStyle="0" markerStart="0" markerEnd="0" shadowEnabled="0" shadowOffsetX="0" shadowOffsetY="2" shadowBlur="4" shadowOpacity="160" blurEnabled="0" blurRadius="4" transform="matrix(14.5218,0,0,14.5218,438.309,335.899)" pers-center="0,0" pers-size="0,0" pers-start="0,0" pers-end="0,0" locked="0" mesh="" flag=""/>
            <path id="shapePath5" d="M376.592,355.004 C408.54,336.125 440.488,317.245 473.888,299.82 C481.149,296.915 491.315,299.82 500.027,301.272 C495.671,308.533 492.766,320.151 486.958,324.506 C460.819,341.934 433.227,357.907 404.184,372.429 C396.923,375.333 385.306,369.526 376.592,366.62 C376.592,360.811 376.592,357.907 376.592,355.004 Z" style="stroke:none;fill-rule:evenodd;fill:#000000;fill-opacity:1;"/>
        </g>
    </g>
</svg>
