<?xml version="1.0"?>
<svg version="1.1" xmlns="http://www.w3.org/2000/svg" xmlns:xlink="http://www.w3.org/1999/xlink" width="500" height="500">
    <desc iVinci="yes" version="4.6" gridStep="20" showGrid="no" snapToGrid="no" codePlatform="0"/>
    <g id="Layer1" name="Layer 1" opacity="1">
        <g id="Shape1">
            <desc shapeID="1" type="0" basicInfo-basicType="0" basicInfo-roundedRectRadius="12" basicInfo-polygonSides="6" basicInfo-starPoints="5" bounding="rect(-20.8,-20.8499,41.5999,41.7)" text="" font-familyName="" font-pixelSize="20" font-bold="0" font-underline="0" font-alignment="1" strokeStyle="0" markerStart="0" markerEnd="0" shadowEnabled="0" shadowOffsetX="0" shadowOffsetY="2" shadowBlur="4" shadowOpacity="160" blurEnabled="0" blurRadius="4" transform="matrix(12.0048,0,0,12.0048,250.301,250.299)" pers-center="0,0" pers-size="0,0" pers-start="0,0" pers-end="0,0" locked="0" mesh="" flag=""/>
            <path id="shapePath1" d="M500,94.838 C500,183.674 500,286.914 500,406.962 C500,459.783 459.183,500.6 406.362,500.6 C301.921,500.6 198.68,500.6 94.2382,500.6 C53.4224,500.6 18.6083,475.389 5.40331,436.974 C3.0022,429.771 1.80202,421.367 0.601089,414.165 C0.601089,304.921 0.601089,196.879 0.601089,87.6354 C0.601089,86.4352 1.80202,84.0334 1.80202,82.8332 C7.80441,45.6187 28.2119,20.409 63.0261,6.00243 C71.4296,2.40186 79.833,2.40186 88.2358,1.52588e-05 C197.48,1.52588e-05 305.523,1.52588e-05 414.766,1.52588e-05 C415.967,1.52588e-05 417.167,1.20021 418.367,1.20021 C465.186,7.20261 500,45.6187 500,94.838 M456.782,398.559 C456.782,296.519 456.782,210.083 456.782,108.043 C456.782,103.241 456.782,98.44 455.582,93.6378 C449.58,67.2264 427.971,49.2193 399.16,49.2193 C347.539,49.2193 304.322,49.2193 252.701,49.2193 C201.081,49.2193 150.661,49.2193 100.241,49.2193 C95.4391,49.2193 90.6369,49.2193 84.6345,50.4209 C58.2239,56.4233 40.2167,78.031 40.2167,108.043 C40.2167,210.083 40.2167,296.519 40.2167,398.559 C40.2167,403.36 40.2167,408.162 41.4176,412.964 C47.42,439.374 69.0284,457.381 97.8402,457.381 C199.881,457.381 294.718,457.381 396.759,457.381 C401.561,457.381 406.362,457.381 411.164,456.181 C438.775,448.979 456.782,427.37 456.782,398.559 Z" style="stroke:none;fill-rule:evenodd;fill:#000000;fill-opacity:1;"/>
        </g>
    </g>
</svg>
