<?xml version="1.0"?>
<svg version="1.1" xmlns="http://www.w3.org/2000/svg" xmlns:xlink="http://www.w3.org/1999/xlink" width="500" height="500">
    <desc iVinci="yes" version="4.6" gridStep="20" showGrid="no" snapToGrid="no" codePlatform="0"/>
    <g id="Layer1" name="Layer 1" opacity="1">
        <g id="Shape1">
            <desc shapeID="1" type="0" basicInfo-basicType="0" basicInfo-roundedRectRadius="12" basicInfo-polygonSides="6" basicInfo-starPoints="5" bounding="rect(-40.1001,-39.4,80.2001,78.7999)" text="" font-familyName="" font-pixelSize="20" font-bold="0" font-underline="0" font-alignment="1" strokeStyle="0" markerStart="0" markerEnd="0" shadowEnabled="0" shadowOffsetX="0" shadowOffsetY="2" shadowBlur="4" shadowOpacity="160" blurEnabled="0" blurRadius="4" transform="matrix(6.23435,0,0,6.23435,249.998,250)" pers-center="0,0" pers-size="0,0" pers-start="0,0" pers-end="0,0" locked="0" mesh="" flag=""/>
            <path id="shapePath1" d="M371.568,444.512 C371.568,475.061 350.995,495.633 321.07,495.633 C231.295,495.633 142.143,495.633 52.3687,495.633 C25.5611,495.633 10.5985,485.036 1.24695,459.475 C1.24695,458.851 0.623688,458.228 0,457.604 L0,162.096 C1.24695,159.602 2.49387,156.486 3.1171,153.991 C11.2222,135.912 24.9374,124.066 44.8874,124.066 C102.243,123.443 160.223,124.066 217.579,124.066 C218.203,124.066 218.826,124.69 220.073,124.69 C218.203,126.559 216.956,128.43 215.708,130.301 C201.993,144.016 188.278,157.108 175.186,171.447 C170.822,175.812 166.457,178.305 160.223,177.682 C137.156,177.058 114.712,177.682 91.6456,177.682 C67.9546,177.682 54.2389,191.397 54.2389,215.087 C54.2389,278.679 54.2389,342.269 54.2389,405.236 C54.2389,428.926 68.5779,442.642 92.2692,443.265 C155.236,443.265 218.203,443.265 281.17,443.265 C305.483,443.265 319.199,429.55 319.822,404.612 C319.822,388.403 319.822,371.571 319.822,355.361 C319.822,352.244 320.446,349.126 322.317,347.257 C337.279,331.671 352.241,316.708 367.827,301.746 C369.074,300.498 370.945,299.251 372.815,296.758 C372.815,299.875 373.438,302.369 373.438,304.862 C371.568,350.373 371.568,397.132 371.568,444.512 M499.996,272.444 C471.318,243.766 443.886,216.334 417.078,189.527 C357.229,249.377 298.003,307.98 240.022,365.959 C206.357,332.294 172.692,299.251 139.026,265.586 C197.006,207.607 256.232,149.004 318.576,87.2836 C314.211,84.79 310.471,83.5431 308.6,81.0492 C283.04,55.4885 258.103,29.9274 232.542,4.36668 L499.996,4.36668 L499.996,272.444 Z" style="stroke:none;fill-rule:evenodd;fill:#000000;fill-opacity:1;"/>
        </g>
    </g>
</svg>
