<?xml version="1.0"?>
<svg version="1.1" xmlns="http://www.w3.org/2000/svg" xmlns:xlink="http://www.w3.org/1999/xlink" width="500" height="500">
    <desc iVinci="yes" version="4.6" gridStep="20" showGrid="yes" snapToGrid="no" codePlatform="0"/>
    <g id="Layer1" name="Layer 1" opacity="1">
        <g id="Shape1">
            <desc shapeID="1" type="0" basicInfo-basicType="0" basicInfo-roundedRectRadius="12" basicInfo-polygonSides="6" basicInfo-starPoints="5" bounding="rect(-13.4375,-3.59998,26.875,7.19995)" text="" font-familyName="" font-pixelSize="20" font-bold="0" font-underline="0" font-alignment="1" strokeStyle="0" markerStart="0" markerEnd="0" shadowEnabled="0" shadowOffsetX="0" shadowOffsetY="2" shadowBlur="4" shadowOpacity="160" blurEnabled="0" blurRadius="4" transform="matrix(12.8035,0,0,12.8035,242.271,383.891)" pers-center="0,0" pers-size="0,0" pers-start="0,0" pers-end="0,0" locked="0" mesh="" flag=""/>
            <path id="shapePath1" d="M413.358,340.359 C413.358,339.079 413.358,339.079 413.358,337.799 C404.396,337.799 396.713,337.799 387.751,337.799 C387.751,339.079 387.751,340.359 387.751,340.359 C387.751,340.359 387.751,340.359 387.751,341.639 C387.751,357.004 387.751,372.367 387.751,387.731 C387.751,390.293 387.751,392.853 386.471,395.414 C386.471,396.694 385.191,397.974 383.91,399.254 C383.91,399.254 383.91,400.535 382.63,400.535 C380.069,403.096 376.228,404.376 371.106,404.376 C327.575,404.376 285.324,404.376 241.792,404.376 C198.259,404.376 156.008,404.376 112.477,404.376 C107.355,404.376 103.514,403.096 100.953,400.535 C100.953,400.535 100.953,400.535 99.6733,399.254 C98.3924,397.974 97.1124,396.694 97.1124,395.414 C97.1124,392.853 95.8316,390.293 95.8316,387.731 C95.8316,372.367 95.8316,357.004 95.8316,341.639 C95.8316,341.639 95.8316,341.639 95.8316,340.359 C95.8316,339.079 95.8316,339.079 95.8316,337.799 C86.8698,337.799 77.9072,337.799 70.2246,337.799 C70.2246,339.079 70.2246,339.079 70.2246,340.359 C70.2246,340.359 70.2246,341.639 70.2246,341.639 C70.2246,358.284 70.2246,373.648 70.2246,390.293 C70.2246,409.498 81.7481,423.581 98.3924,428.703 C98.3924,428.703 99.6733,428.703 99.6733,428.703 C100.953,428.703 102.233,429.983 103.514,429.983 C106.075,429.983 107.355,429.983 109.916,429.983 C109.916,429.983 109.916,429.983 111.196,429.983 C154.728,429.983 198.259,429.983 241.792,429.983 C285.324,429.983 328.855,429.983 372.387,429.983 C372.387,429.983 372.387,429.983 373.667,429.983 C376.228,429.983 378.789,429.983 380.069,429.983 C381.35,429.983 382.63,429.983 383.91,428.703 C383.91,428.703 385.191,428.703 385.191,428.703 C401.835,423.581 412.078,409.498 413.358,390.293 C413.358,373.648 413.358,358.284 413.358,341.639 C414.638,341.639 414.638,340.359 413.358,340.359 Z" style="stroke:none;fill-rule:nonzero;fill:#000000;fill-opacity:1;"/>
        </g>
        <g id="Shape2">
            <desc shapeID="2" type="0" basicInfo-basicType="0" basicInfo-roundedRectRadius="12" basicInfo-polygonSides="6" basicInfo-starPoints="5" bounding="rect(-9.91549,-11.85,19.8309,23.7)" text="" font-familyName="" font-pixelSize="20" font-bold="0" font-underline="0" font-alignment="1" strokeStyle="0" markerStart="0" markerEnd="0" shadowEnabled="0" shadowOffsetX="0" shadowOffsetY="2" shadowBlur="4" shadowOpacity="160" blurEnabled="0" blurRadius="4" transform="matrix(12.8035,0,0,12.8035,240.511,207.843)" pers-center="0,0" pers-size="0,0" pers-start="0,0" pers-end="0,0" locked="0" mesh="" flag=""/>
            <path id="shapePath2" d="M130.401,254.576 C161.13,285.303 191.858,316.032 221.306,345.48 C225.147,349.321 228.988,353.162 232.829,355.722 C236.67,358.284 239.231,359.564 241.792,359.564 C244.352,359.564 248.193,358.284 250.754,355.722 C254.595,353.162 258.436,349.321 262.277,345.48 C293.005,314.752 323.734,285.303 353.182,254.576 C355.743,252.014 363.425,241.773 365.985,239.211 C367.265,236.651 368.546,232.809 365.985,232.809 C362.145,231.529 308.37,232.809 307.089,232.809 C307.089,231.529 307.089,228.969 307.089,227.688 C307.089,196.96 307.089,86.8494 307.089,56.1223 L240.511,56.1223 L173.933,56.1223 C173.933,86.8494 173.933,196.96 173.933,227.688 C173.933,228.969 173.933,230.249 173.933,232.809 C171.372,232.809 118.878,232.809 115.037,232.809 C112.477,232.809 113.757,236.651 115.037,239.211 C118.878,241.773 127.84,252.014 130.401,254.576 Z" style="stroke:none;fill-rule:nonzero;fill:#000000;fill-opacity:1;"/>
        </g>
    </g>
</svg>
