<?xml version="1.0"?>
<svg version="1.1" xmlns="http://www.w3.org/2000/svg" xmlns:xlink="http://www.w3.org/1999/xlink" width="500" height="500">
    <desc iVinci="yes" version="4.6" gridStep="20" showGrid="no" snapToGrid="no" codePlatform="0"/>
    <g id="Layer1" name="Layer 1" opacity="1">
        <g id="Shape1">
            <desc shapeID="1" type="0" basicInfo-basicType="0" basicInfo-roundedRectRadius="12" basicInfo-polygonSides="6" basicInfo-starPoints="5" bounding="rect(-24.2774,-39.2461,48.5548,78.4924)" text="" font-familyName="" font-pixelSize="20" font-bold="0" font-underline="0" font-alignment="1" strokeStyle="0" markerStart="0" markerEnd="0" shadowEnabled="0" shadowOffsetX="0" shadowOffsetY="2" shadowBlur="4" shadowOpacity="160" blurEnabled="0" blurRadius="4" transform="matrix(6.37032,0,0,6.37032,165.581,250.01)" pers-center="0,0" pers-size="0,0" pers-start="0,0" pers-end="0,0" locked="0" mesh="" flag=""/>
            <path id="shapePath1" d="M318.066,162.98 C323.162,182.728 319.34,203.114 305.962,217.765 C295.77,228.595 291.311,240.698 285.577,252.802 C281.756,261.083 277.296,268.727 272.199,276.372 C270.289,279.557 269.014,282.742 267.103,285.927 C265.829,291.024 266.467,296.12 269.014,301.853 C273.474,311.409 281.118,316.505 291.311,319.053 C297.044,320.327 297.044,321.601 303.415,323.512 C303.415,324.787 303.415,326.061 303.415,327.972 C303.415,330.519 303.415,332.431 303.415,334.979 C286.852,336.253 274.748,359.186 274.748,376.386 C274.748,407.601 274.748,438.177 274.748,469.393 C274.748,482.133 279.207,494.237 290.037,498.696 C262.008,501.245 242.259,499.333 214.23,499.333 C165.815,499.97 116.764,498.696 69.6235,487.229 C56.8829,484.044 44.1422,479.585 32.0387,473.214 C18.0242,466.208 10.3797,454.741 11.6538,438.177 C11.6538,435.63 12.2906,433.719 11.6538,431.171 C6.55737,391.038 28.8535,368.104 59.4312,349.631 C83.6382,334.979 109.757,325.423 137.149,319.69 C147.341,317.779 154.986,312.045 159.445,302.49 C161.994,297.394 163.267,292.298 161.356,286.565 C160.082,283.379 158.171,280.194 156.26,277.009 C151.163,270.002 146.705,261.721 142.882,253.438 C136.512,241.335 132.689,229.231 122.497,218.401 C109.119,204.387 105.298,183.365 110.394,163.618 C112.942,154.699 112.305,148.329 110.394,140.047 C102.749,101.826 110.394,66.1515 132.053,34.2999 C155.622,-0.0999603 204.037,-10.2923 238.437,11.3665 C248.63,18.3741 258.185,22.1961 270.925,22.8334 C288.763,24.1072 298.955,36.8478 305.962,52.1367 C316.155,74.4328 317.429,98.0031 316.792,121.573 C316.792,131.129 314.244,140.684 313.607,149.603 C313.607,151.514 312.97,154.062 313.607,155.973 C314.244,157.884 314.881,159.795 315.517,161.707 C316.792,161.707 318.066,162.343 318.066,162.98 Z" style="stroke:none;fill-rule:evenodd;fill:#000000;fill-opacity:1;"/>
        </g>
        <g id="Shape2">
            <desc shapeID="2" type="0" basicInfo-basicType="0" basicInfo-roundedRectRadius="12" basicInfo-polygonSides="6" basicInfo-starPoints="5" bounding="rect(-14.9722,-19.45,29.9444,38.9)" text="" font-familyName="" font-pixelSize="20" font-bold="0" font-underline="0" font-alignment="1" strokeStyle="0" markerStart="0" markerEnd="0" shadowEnabled="0" shadowOffsetX="0" shadowOffsetY="2" shadowBlur="4" shadowOpacity="160" blurEnabled="0" blurRadius="4" transform="matrix(6.37032,0,0,6.37032,393.696,373.519)" pers-center="0,0" pers-size="0,0" pers-start="0,0" pers-end="0,0" locked="0" mesh="" flag=""/>
            <path id="shapePath2" d="M355.651,335.616 C355.651,333.068 355.651,331.157 355.651,328.609 C356.288,322.875 356.288,317.142 356.925,311.409 C358.199,302.49 362.021,294.209 369.028,287.201 C379.858,277.009 400.244,276.372 411.71,282.105 C421.902,287.201 426.999,296.12 429.547,306.313 C432.094,314.594 432.094,323.512 432.094,332.431 C432.094,333.704 432.094,334.342 432.094,335.616 L460.761,335.616 C460.761,330.519 460.761,325.423 460.761,320.327 C460.123,305.675 456.938,292.297 449.294,279.557 C441.013,266.18 429.547,257.261 414.258,252.802 C409.799,251.528 404.702,250.891 399.606,249.617 L388.14,249.617 C386.228,250.253 384.317,250.253 381.769,250.891 C363.296,254.076 348.643,263.631 338.451,279.557 C332.08,290.387 328.259,302.49 327.621,315.23 C326.985,322.238 327.621,328.609 327.621,335.616 L355.651,335.616 M488.79,369.379 C486.879,356.637 475.412,345.171 459.487,345.171 C415.531,345.171 372.213,345.171 328.259,345.171 C326.347,345.171 325.074,345.171 323.162,345.171 C307.873,347.72 298.318,359.186 298.318,374.475 C298.318,389.764 298.318,405.053 298.318,420.341 C298.318,436.267 298.318,452.193 298.318,468.118 C298.318,480.859 304.688,489.778 315.517,494.873 C318.066,496.148 320.614,496.148 323.162,497.422 L463.309,497.422 C465.857,496.785 469.042,496.148 471.591,494.873 C480.509,490.414 486.243,483.407 488.154,473.852 C488.154,473.214 488.154,473.214 488.79,472.578 L488.79,370.653 C489.428,370.016 488.79,370.016 488.79,369.379 M405.339,426.711 C404.065,427.986 403.429,429.26 403.429,430.534 C403.429,436.904 403.429,442.637 403.429,449.008 C403.429,456.651 397.057,461.111 390.687,458.563 C387.502,457.289 384.955,454.741 384.955,450.919 C384.955,447.096 384.955,443.275 384.955,439.452 C384.955,436.267 384.955,433.082 384.955,429.896 C384.955,428.622 384.317,427.348 383.68,426.711 C377.31,421.615 374.762,415.245 376.036,407.601 C377.947,399.319 383.043,394.86 390.687,392.949 C398.969,391.038 408.524,395.497 411.71,403.778 C414.895,412.059 412.346,421.615 405.339,426.711 Z" style="stroke:none;fill-rule:evenodd;fill:#000000;fill-opacity:1;"/>
        </g>
    </g>
</svg>
