<?xml version="1.0"?>
<svg version="1.1" xmlns="http://www.w3.org/2000/svg" xmlns:xlink="http://www.w3.org/1999/xlink" width="500" height="500">
    <desc iVinci="yes" version="4.6" gridStep="20" showGrid="no" snapToGrid="no" codePlatform="0"/>
    <g id="Layer1" name="Layer 1" opacity="1">
        <g id="Shape1">
            <desc shapeID="1" type="0" basicInfo-basicType="0" basicInfo-roundedRectRadius="12" basicInfo-polygonSides="6" basicInfo-starPoints="5" bounding="rect(-18.8001,-12,37.6002,24.0001)" text="" font-familyName="" font-pixelSize="20" font-bold="0" font-underline="0" font-alignment="1" strokeStyle="0" markerStart="0" markerEnd="0" shadowEnabled="0" shadowOffsetX="0" shadowOffsetY="2" shadowBlur="4" shadowOpacity="160" blurEnabled="0" blurRadius="4" transform="matrix(13.2988,0,0,13.2988,250.019,250)" pers-center="0,0" pers-size="0,0" pers-start="0,0" pers-end="0,0" locked="0" mesh="" flag=""/>
            <path id="shapePath1" d="M464.131,250.001 C436.204,206.115 400.297,172.868 357.74,151.588 C369.709,171.536 375.029,191.485 375.029,214.094 C375.029,248.671 363.06,277.928 337.792,301.866 C313.854,325.805 283.266,339.104 250.019,339.104 C216.771,339.104 186.184,327.134 162.247,301.866 C138.308,277.928 125.01,247.342 125.01,214.094 C125.01,191.485 130.33,170.207 142.299,151.588 C99.7415,172.868 63.8346,206.115 35.9072,250.001 C61.1749,288.567 91.7628,319.156 128.999,341.764 C166.236,364.37 207.463,376.34 250.019,376.34 C292.575,376.34 333.802,364.37 371.038,341.764 C408.276,317.825 440.193,287.238 464.131,250.001 M263.318,142.28 C263.318,138.29 261.989,135.631 259.329,132.971 C256.669,130.311 254.009,128.982 250.019,128.982 C226.081,128.982 206.133,136.96 190.174,154.25 C172.886,171.536 164.906,191.485 164.906,214.094 C164.906,218.083 166.236,220.743 168.896,223.403 C171.555,226.063 174.215,227.393 178.204,227.393 C182.195,227.393 184.855,226.063 187.514,223.403 C190.174,220.743 191.504,218.083 191.504,214.094 C191.504,198.135 196.823,184.835 208.793,172.868 C220.762,160.899 234.061,155.579 250.019,155.579 C254.009,155.579 256.669,154.25 259.329,151.588 C261.989,148.93 263.318,146.27 263.318,142.28 M500.039,250.001 C500.039,256.65 498.708,263.299 494.719,268.619 C468.121,311.176 433.544,345.753 389.657,371.02 C345.772,396.288 299.225,409.587 250.019,409.587 C200.814,409.587 154.267,396.288 110.38,371.02 C66.4947,345.753 31.9172,311.176 5.31953,268.619 C1.33006,261.97 4.57764e-05,255.321 4.57764e-05,250.001 C4.57764e-05,243.351 1.33006,236.702 5.31953,231.382 C31.9172,188.826 66.4947,154.25 110.38,128.982 C154.267,103.712 200.814,90.4135 250.019,90.4135 C299.225,90.4135 345.772,103.712 389.657,128.982 C433.544,154.25 468.121,188.826 494.719,231.382 C498.708,236.702 500.039,243.351 500.039,250.001 Z" style="stroke:none;fill-rule:evenodd;fill:#000000;fill-opacity:1;"/>
        </g>
    </g>
</svg>
