<?xml version="1.0"?>
<svg version="1.1" xmlns="http://www.w3.org/2000/svg" xmlns:xlink="http://www.w3.org/1999/xlink" width="500" height="500">
    <desc iVinci="yes" version="4.6" gridStep="20" showGrid="no" snapToGrid="no" codePlatform="0"/>
    <g id="Layer1" name="Layer 1" opacity="1">
        <g id="Shape1">
            <desc shapeID="1" type="0" basicInfo-basicType="0" basicInfo-roundedRectRadius="12" basicInfo-polygonSides="6" basicInfo-starPoints="5" bounding="rect(-215.047,-175.013,430.095,350.027)" text="" font-familyName="" font-pixelSize="20" font-bold="0" font-underline="0" font-alignment="1" strokeStyle="0" markerStart="0" markerEnd="0" shadowEnabled="0" shadowOffsetX="0" shadowOffsetY="2" shadowBlur="4" shadowOpacity="160" blurEnabled="0" blurRadius="4" transform="matrix(1.15885,0,0,1.15885,249.208,250)" pers-center="0,0" pers-size="0,0" pers-start="0,0" pers-end="0,0" locked="0" mesh="" flag=""/>
            <path id="shapePath1" d="M68.4014,47.1974 C38.0827,47.274 8.85432,47.7089 8.85432,47.7089 C4.10573,47.7799 0.293137,51.6488 0.291977,56.3979 L0.291977,400.892 L0,402.386 L0.291977,402.443 L0.291977,444.123 C0.29245,448.923 4.18343,452.814 8.98334,452.814 L398.284,452.814 C403.623,452.814 405.915,450.247 408.019,448.185 C410.122,446.124 411.968,443.718 413.949,440.836 C417.909,435.072 422.252,427.409 426.999,418.286 C436.494,400.04 447.464,376.059 457.94,352.087 C478.89,304.144 497.807,256.288 497.807,256.288 C498.211,255.265 498.417,254.175 498.415,253.076 L498.302,200.265 C498.289,193.724 495.19,191.478 492.605,189.032 C490.021,186.586 487.409,184.481 482.871,183.525 C482.277,183.4 481.671,183.338 481.064,183.34 L445.889,183.398 L445.794,107.906 C445.771,91.897 432.896,77.6775 415.791,76.6393 C415.62,76.629 415.449,76.6236 415.277,76.6235 L158.192,76.284 C158.166,76.2262 158.088,76.1217 157.66,75.6095 C156.663,74.4159 155.181,71.8084 153.627,68.6949 C152.072,65.5814 150.403,61.9814 148.029,58.4554 C145.655,54.9293 142.346,51.0823 136.993,49.2819 C132.951,47.9227 131.087,48.2097 126.896,47.9737 C122.705,47.7376 117.377,47.5714 111.247,47.4509 C98.9882,47.2098 83.5608,47.1591 68.4014,47.1974 M68.4444,64.5801 C83.535,64.542 98.8867,64.5948 110.905,64.8314 C116.915,64.9495 122.101,65.1142 125.918,65.3293 C128.518,65.4757 130.897,65.8936 131.631,65.9585 C131.719,66.0214 132.404,66.3723 133.609,68.163 C134.924,70.1164 136.423,73.1546 138.073,76.4583 C139.722,79.762 141.479,83.3503 144.317,86.7499 C147.156,90.1494 152.013,93.659 157.902,93.6667 L414.822,94.0062 C422.149,94.5068 428.403,102.087 428.412,107.93 L428.507,183.428 L112.705,183.951 C100.889,183.97 92.0498,191.154 87.3142,198.798 C87.1037,199.138 86.9169,199.492 86.7551,199.858 L17.6747,351.911 L17.6747,65.0169 C24.3732,64.9242 42.6188,64.6454 68.4444,64.5801 M479.26,200.725 C479.639,200.937 480.25,201.271 480.657,201.657 C480.905,201.892 480.874,202.043 480.924,202.25 L481.03,251.414 C480.106,253.749 462.271,298.767 442.012,345.127 C431.618,368.913 420.725,392.691 411.581,410.263 C407.009,419.049 402.839,426.31 399.621,430.993 C398.126,433.169 396.903,434.622 396.12,435.431 L17.6747,435.431 L17.6747,402.578 L20.3749,388.756 L102.295,207.696 C104.389,204.508 108.615,201.34 112.734,201.333 L479.26,200.725 Z" style="stroke:none;fill-rule:evenodd;fill:#000000;fill-opacity:1;"/>
        </g>
    </g>
</svg>
