<?xml version="1.0"?>
<svg version="1.1" xmlns="http://www.w3.org/2000/svg" xmlns:xlink="http://www.w3.org/1999/xlink" width="500" height="500">
    <desc iVinci="yes" version="4.6" gridStep="20" showGrid="no" snapToGrid="no" codePlatform="0"/>
    <g id="Layer1" name="Layer 1" opacity="1">
        <g id="Shape1">
            <desc shapeID="1" type="0" basicInfo-basicType="0" basicInfo-roundedRectRadius="12" basicInfo-polygonSides="6" basicInfo-starPoints="5" bounding="rect(-50.6549,-41.0209,101.31,82.0419)" text="" font-familyName="" font-pixelSize="20" font-bold="0" font-underline="0" font-alignment="1" strokeStyle="0" markerStart="0" markerEnd="0" shadowEnabled="0" shadowOffsetX="0" shadowOffsetY="2" shadowBlur="4" shadowOpacity="160" blurEnabled="0" blurRadius="4" transform="matrix(4.93601,0,0,4.93601,250.033,250)" pers-center="0,0" pers-size="0,0" pers-start="0,0" pers-end="0,0" locked="0" mesh="" flag=""/>
            <path id="shapePath1" d="M67.1635,382.663 C67.1635,357.489 79.5035,330.835 104.184,316.027 C123.434,304.18 140.216,297.763 162.429,290.359 C170.326,287.891 181.679,287.398 185.628,279.994 C187.602,276.045 186.122,272.59 184.641,269.134 C184.641,268.641 184.147,268.641 184.147,268.147 C183.16,265.679 181.679,263.211 180.198,260.743 C176.25,254.82 169.339,249.884 165.884,242.974 C160.948,233.102 158.48,223.23 150.582,214.838 C139.723,203.485 139.229,190.652 143.672,175.35 C143.672,174.857 145.646,164.985 146.633,164.491 C147.127,163.01 147.127,161.036 146.633,159.061 C145.646,151.657 144.166,144.253 143.672,136.849 C143.178,128.952 143.672,121.054 144.166,113.156 C134.293,112.663 123.928,115.131 115.536,120.56 C108.626,125.003 102.703,127.471 94.8054,127.964 C83.4523,128.952 76.5421,136.849 72.0995,146.721 C65.6828,161.036 64.6955,176.337 65.1893,191.639 C65.1893,197.562 66.67,203.979 67.6573,209.902 C67.6573,211.383 68.1508,212.864 67.6573,214.345 C67.1635,215.332 66.67,216.813 66.67,217.8 C65.6828,218.294 65.1893,218.787 64.6955,218.787 C61.2402,231.127 63.7083,244.948 72.5933,253.833 C79.0101,260.743 81.9716,268.641 85.9203,276.538 C88.3883,281.968 91.3501,286.904 94.8054,291.84 C95.7923,293.815 96.7796,295.789 97.7669,297.763 C98.7541,301.219 98.2603,304.18 96.2861,307.635 C93.3243,313.559 88.3883,317.507 81.4781,318.495 C63.7083,322.443 46.926,328.367 31.1307,337.745 C11.3866,349.591 -0.459915,368.842 0.0338745,390.56 C0.0338745,392.535 0.0338745,395.003 0.0338745,396.484 C-0.459915,405.862 4.47611,413.266 13.3612,417.708 C21.2587,421.657 29.1562,424.619 37.5474,426.593 C50.8747,430.049 59.266,431.529 67.6573,432.023 C67.6573,432.023 67.1635,410.798 66.67,398.458 C67.1635,398.458 67.1635,384.637 67.1635,382.663 M157.492,74.1619 C156.999,74.1619 156.999,74.1619 157.492,74.1619 C157.986,74.1619 157.986,74.6555 158.48,74.6555 C157.492,74.1619 157.492,74.1619 157.492,74.1619 M415.152,389.573 C417.62,357.489 400.344,336.758 374.677,324.418 C354.44,315.039 335.189,305.167 313.471,300.725 C305.079,298.751 299.156,294.802 295.701,287.398 C294.22,283.942 291.259,280.981 290.765,277.526 C290.765,276.538 290.765,276.045 291.259,275.058 C292.246,272.59 293.727,270.122 295.207,267.654 C299.156,261.73 302.611,255.314 306.067,248.897 C311.003,239.025 314.458,229.646 322.355,220.762 C333.215,209.409 336.176,193.12 332.227,177.325 C332.227,176.831 331.24,176.337 330.253,175.844 C329.759,174.363 329.266,172.882 328.772,171.401 C328.279,169.921 328.279,167.946 328.772,165.972 C329.759,158.568 331.24,151.164 331.734,143.76 C332.227,125.003 331.24,106.246 323.343,88.97 C317.913,76.63 309.522,66.7579 295.207,65.7707 C285.335,65.2771 277.931,61.8219 269.54,56.8859 C241.898,39.1163 201.917,47.5075 183.654,74.6555 C180.692,79.098 178.224,83.5404 175.756,87.9828 C174.769,89.9572 173.782,91.9316 172.794,94.3996 C164.403,114.637 163.416,135.862 167.858,158.568 C169.339,164.985 169.833,170.414 167.858,177.325 C165.884,184.235 165.39,191.639 166.871,198.549 C168.352,206.941 171.807,214.345 177.73,220.762 C182.173,225.698 185.628,231.127 188.096,236.557 C190.07,240.506 192.045,244.948 194.019,248.897 C196.981,255.314 200.436,261.73 204.878,267.654 C205.866,269.628 206.853,271.602 208.334,274.07 C208.334,274.564 208.827,274.564 208.827,275.058 C209.321,277.032 209.321,279.006 209.321,280.981 C208.827,282.955 207.346,284.93 205.866,287.398 C202.41,294.802 196.487,299.244 188.096,300.725 C182.173,301.712 176.743,303.687 171.314,305.167 C157.986,309.116 145.646,314.546 133.306,320.963 C130.838,321.95 128.864,322.937 126.396,323.924 C100.728,336.264 83.4523,356.995 85.9203,389.08 C85.9203,391.054 84.4396,433.01 86.9076,434.985 C86.9076,434.985 87.8948,435.478 88.8821,435.478 C89.8694,435.478 90.3628,435.478 90.8563,435.478 L86.9076,436.465 C86.9076,436.465 218.699,472.498 415.152,436.465 C416.14,436.465 415.152,435.972 413.672,434.985 C414.659,434.985 415.152,434.491 415.152,434.491 C417.127,433.504 415.152,391.548 415.152,389.573 M500.052,392.535 C500.545,371.31 488.699,352.059 468.955,339.719 C453.16,330.341 436.377,323.924 418.608,320.469 C411.697,318.988 406.761,315.533 403.8,309.61 C402.319,306.155 401.332,302.699 402.319,299.738 C403.306,297.763 404.293,295.789 405.28,293.815 C408.736,288.879 411.204,283.942 414.165,278.513 C418.114,270.615 421.076,262.718 427.492,255.807 C436.377,246.429 438.845,233.102 435.39,220.762 C435.39,220.268 434.896,220.268 433.416,219.774 C432.922,218.787 432.922,217.306 432.428,216.319 C431.935,214.838 431.935,213.357 432.428,211.877 C432.922,205.953 434.403,199.537 434.896,193.613 C435.39,178.312 434.403,163.01 427.986,148.696 C423.544,138.824 416.633,130.433 405.28,129.939 C397.383,129.445 390.966,126.977 384.549,122.535 C376.158,117.105 365.792,114.637 355.92,115.131 C356.414,123.028 356.908,130.926 356.414,138.824 C356.414,146.228 354.44,153.632 353.452,161.036 C353.452,162.517 352.959,164.491 353.452,166.465 C354.933,166.959 356.414,176.831 356.414,177.325 C360.363,192.626 359.869,205.46 349.504,216.813 C341.606,225.204 339.138,235.076 334.202,244.948 C331.24,251.365 324.33,256.794 319.887,262.718 C318.407,265.186 317.419,267.654 315.939,270.122 C315.939,270.615 315.445,270.615 315.445,271.109 C313.964,274.564 312.483,278.019 314.458,281.968 C317.913,289.372 329.759,289.866 337.657,292.334 C359.869,299.738 376.652,306.155 395.902,318.001 C420.088,332.809 432.922,359.957 432.922,384.637 C432.922,386.612 432.922,400.432 432.922,402.407 C432.428,414.747 431.935,435.478 431.935,435.972 C440.326,435.478 448.224,433.997 462.045,430.542 C470.436,428.568 478.827,425.606 486.231,421.657 C495.116,417.215 500.052,409.811 499.558,400.432 C500.052,396.977 500.052,394.509 500.052,392.535 Z" style="stroke:none;fill-rule:nonzero;fill:url(#linearGradientFill1);fill-opacity:1;"/><defs><linearGradient id="linearGradientFill1" gradientUnits="userSpaceOnUse" x1="250.2" y1="453.873" x2="250.2" y2="47.5568"><stop offset="0" stop-color="#000000" stop-opacity="1"/><stop offset="1" stop-color="#000000" stop-opacity="1"/></linearGradient></defs>
        </g>
    </g>
</svg>
