<?xml version="1.0"?>
<svg version="1.1" xmlns="http://www.w3.org/2000/svg" xmlns:xlink="http://www.w3.org/1999/xlink" width="500" height="500">
    <desc iVinci="yes" version="4.6" gridStep="20" showGrid="no" snapToGrid="no" codePlatform="0"/>
    <g id="Layer1" name="Layer 1" opacity="1">
        <g id="Shape1">
            <desc shapeID="1" type="0" basicInfo-basicType="0" basicInfo-roundedRectRadius="12" basicInfo-polygonSides="6" basicInfo-starPoints="5" bounding="rect(-38.1021,-38.1011,76.2043,76.2022)" text="" font-familyName="" font-pixelSize="20" font-bold="0" font-underline="0" font-alignment="1" strokeStyle="0" markerStart="0" markerEnd="0" shadowEnabled="0" shadowOffsetX="0" shadowOffsetY="2" shadowBlur="4" shadowOpacity="160" blurEnabled="0" blurRadius="4" transform="matrix(5.98639,0,0,5.98639,248.008,245.335)" pers-center="0,0" pers-size="0,0" pers-start="0,0" pers-end="0,0" locked="0" mesh="" flag=""/>
            <path id="shapePath1" d="M248.019,17.2573 C371.937,16.6588 476.699,117.23 476.1,245.937 C475.502,372.25 374.332,474.019 246.223,473.42 C119.312,472.822 18.1415,368.658 19.9377,242.346 C21.1347,119.026 122.903,16.06 248.019,17.2573 M86.3865,233.366 C100.754,233.366 115.121,233.366 129.489,233.366 C132.482,233.366 133.679,232.169 133.679,229.176 C133.679,224.387 134.278,218.999 134.876,214.21 C136.672,191.461 140.863,169.312 148.046,147.761 C149.244,143.57 149.244,142.971 144.455,142.971 C119.312,142.971 94.1687,142.971 69.0258,142.971 C66.0326,142.971 64.8356,143.57 63.0394,146.564 C49.2708,172.305 40.8901,199.842 38.4954,229.176 C37.8969,232.767 39.0939,233.366 42.6859,233.366 C57.6519,233.366 72.019,233.366 86.3865,233.366 M86.3865,256.713 C72.019,256.713 57.6519,256.713 43.2844,256.713 C40.2912,256.713 39.0939,257.312 39.6927,260.305 C40.2912,263.298 40.2912,266.291 40.2912,268.686 C43.2844,294.427 51.0667,318.972 63.6383,341.72 C64.8356,344.713 67.23,345.91 70.2232,345.91 C84.5907,345.91 98.9578,345.91 113.325,345.91 C124.101,345.91 134.278,345.91 145.053,345.91 C149.842,345.91 149.842,345.91 148.645,341.121 C147.448,336.931 146.25,333.339 145.053,329.148 C139.067,306.999 135.475,283.652 134.278,260.903 C134.278,257.312 132.482,256.114 128.89,256.114 C114.523,257.312 100.754,256.713 86.3865,256.713 M351.583,143.57 C351.583,144.767 352.182,145.965 352.182,146.564 C360.563,173.502 365.951,201.638 366.549,229.774 C366.549,232.169 367.747,233.366 370.142,233.366 C374.332,233.366 379.121,233.366 383.311,233.366 C406.658,233.366 430.005,233.366 453.352,233.366 C455.747,233.366 458.141,233.366 457.543,229.774 C456.944,224.985 456.345,220.196 455.747,215.407 C452.155,191.461 444.373,168.713 433.597,147.761 C431.801,144.767 430.005,143.57 426.413,143.57 C403.067,143.57 379.72,143.57 356.373,143.57 C354.577,143.57 353.379,143.57 351.583,143.57 M351.583,346.509 C353.978,346.509 355.176,346.509 356.373,346.509 C377.924,346.509 400.073,346.509 421.624,346.509 C431.202,346.509 431.202,346.509 435.393,338.128 C447.965,313.584 455.148,287.842 456.944,260.305 C456.944,257.91 455.747,256.713 453.352,256.713 C425.216,256.713 397.679,256.713 369.543,256.713 C367.148,256.713 365.951,257.312 365.951,260.305 C365.951,264.495 365.352,268.686 365.352,272.876 C364.155,291.434 361.162,309.992 356.373,327.951 C355.176,333.339 353.379,339.325 351.583,346.509 M259.393,188.468 C259.393,201.638 259.393,215.407 259.393,228.577 C259.393,232.169 259.992,233.366 263.583,233.366 C290.522,233.366 316.863,233.366 343.801,233.366 C346.794,233.366 348.59,232.169 347.992,229.176 C347.393,221.393 346.794,213.012 345.597,205.23 C343.203,185.475 338.413,165.72 331.828,146.564 C330.631,143.57 329.434,142.971 326.441,142.971 C305.488,142.971 283.937,142.971 262.985,142.971 C259.393,142.971 258.794,144.169 258.794,147.761 C259.393,161.53 259.393,175.298 259.393,188.468 M240.835,188.468 C240.835,174.699 240.835,161.53 240.835,147.761 C240.835,144.767 240.237,143.57 236.645,143.57 C215.692,143.57 194.142,143.57 173.189,143.57 C170.794,143.57 168.999,144.169 168.4,147.162 C166.604,153.747 164.21,160.332 162.414,167.516 C157.026,187.271 153.434,207.624 152.835,228.577 C152.835,233.965 152.835,233.965 158.223,233.965 C184.563,233.965 210.305,233.965 236.645,233.965 C240.237,233.965 240.835,232.767 240.835,229.774 C240.835,215.407 240.835,202.237 240.835,188.468 M259.393,301.611 C259.393,315.379 259.393,328.55 259.393,342.318 C259.393,345.311 259.992,346.509 262.985,346.509 C284.536,346.509 306.087,346.509 327.638,346.509 C330.033,346.509 331.23,345.311 331.828,342.917 C333.026,338.727 334.223,334.536 335.42,330.944 C342.005,308.196 345.597,284.849 347.393,261.502 C347.393,257.91 346.196,256.713 342.604,256.713 C316.264,256.713 289.325,256.713 262.985,256.713 C259.393,256.713 258.794,257.91 258.794,260.903 C259.393,274.672 259.393,288.441 259.393,301.611 M240.835,301.611 C240.835,288.441 240.835,275.271 240.835,262.101 C240.835,257.312 240.835,257.312 235.448,257.312 C209.107,257.312 182.767,257.312 157.026,257.312 C156.427,257.312 155.828,257.312 154.632,257.312 C152.835,257.312 152.237,257.91 152.237,260.305 C152.835,264.495 152.835,269.285 153.434,273.475 C155.23,297.42 160.618,320.169 167.801,342.917 C168.999,345.91 170.196,346.509 173.189,346.509 C194.142,346.509 215.094,346.509 236.046,346.509 C239.638,346.509 240.237,345.311 240.237,341.72 C240.835,328.55 240.835,315.379 240.835,301.611 M288.726,37.0123 C289.325,38.2097 289.924,38.8085 289.924,39.407 C297.108,48.3866 303.692,56.7677 310.876,66.3458 C322.25,81.9102 333.026,98.6724 340.808,116.632 C342.005,119.625 343.801,120.822 346.794,120.822 C368.345,120.822 389.897,120.822 411.447,120.822 C412.645,120.822 413.842,120.822 415.638,120.822 C386.903,71.1348 342.005,48.9851 288.726,37.0123 M80.9986,369.856 C114.523,414.155 157.026,441.693 211.502,452.468 C210.903,451.271 210.903,451.271 210.305,450.672 C203.72,442.291 197.135,434.509 191.148,426.128 C179.176,409.366 167.801,392.006 159.421,373.448 C158.223,370.454 156.427,369.257 153.434,369.257 C130.686,369.257 107.937,369.257 85.1891,369.257 C83.9918,369.856 82.7948,369.856 80.9986,369.856 M80.9986,119.625 C82.196,120.223 82.196,120.223 82.196,120.223 C104.944,120.223 127.693,120.223 150.441,120.223 C151.638,120.223 153.434,119.026 154.033,117.829 C164.808,95.0804 180.373,75.3254 195.937,56.1689 C201.325,49.584 206.713,43.5976 212.101,36.4138 C189.352,39.407 168.4,45.9919 149.244,56.7677 C122.305,72.9307 100.754,95.0804 80.9986,119.625 M292.917,453.066 C321.652,445.883 347.393,435.706 370.142,418.345 C387.502,405.175 401.27,388.414 414.441,370.454 C413.243,370.454 412.645,369.856 412.046,369.856 C389.897,369.856 367.747,369.856 345.597,369.856 C343.203,369.856 342.005,371.053 340.808,372.849 C330.631,395.597 318.06,417.747 303.692,438.1 C300.699,442.89 297.108,447.679 292.917,453.066 M240.835,38.2097 C240.237,38.2097 240.237,38.2097 239.638,37.6112 C213.897,61.5567 190.55,87.2982 174.387,120.223 C176.781,120.223 177.978,120.822 179.176,120.822 C198.332,120.822 217.489,120.822 236.046,120.822 C239.638,120.822 240.835,119.625 240.835,116.033 C240.835,91.4887 240.835,66.3458 240.835,41.8017 C240.835,40.6044 240.835,39.407 240.835,38.2097 M259.393,453.665 C290.522,433.311 307.284,403.379 321.053,370.454 C319.257,370.454 317.461,369.856 316.264,369.856 C298.903,369.856 281.543,369.856 264.182,369.856 C259.393,369.856 259.393,369.856 259.393,374.645 C259.393,399.189 259.393,424.332 259.393,448.876 C259.393,450.073 259.393,451.271 259.393,453.665 M180.373,370.454 C182.169,389.611 224.073,446.482 240.835,453.066 C240.835,451.869 240.835,451.271 240.835,450.073 C240.835,424.931 240.835,399.788 240.835,374.046 C240.835,371.053 239.638,369.856 236.645,369.856 C218.686,369.856 200.726,369.856 183.366,369.856 C182.169,369.856 180.971,369.856 180.373,370.454 M317.461,120.223 C302.495,89.094 285.733,60.3594 259.992,36.4138 C259.992,37.6112 259.393,38.2097 259.393,38.8085 C259.393,64.5499 259.393,90.8898 259.393,116.632 C259.393,119.625 260.59,120.223 263.583,120.223 C280.346,120.223 297.108,120.223 313.869,120.223 C314.468,120.822 315.665,120.223 317.461,120.223 Z" style="stroke:none;fill-rule:nonzero;fill:#888888;fill-opacity:1;"/>
        </g>
    </g>
</svg>
