<?xml version="1.0"?>
<svg version="1.1" xmlns="http://www.w3.org/2000/svg" xmlns:xlink="http://www.w3.org/1999/xlink" width="500" height="500">
    <desc iVinci="yes" version="4.6" gridStep="20" showGrid="no" snapToGrid="no" codePlatform="0"/>
    <g id="Layer1" name="Layer 1" opacity="1">
        <g id="Shape1">
            <desc shapeID="1" type="0" basicInfo-basicType="0" basicInfo-roundedRectRadius="12" basicInfo-polygonSides="6" basicInfo-starPoints="5" bounding="rect(-71.6869,-70.8743,143.374,141.749)" text="" font-familyName="" font-pixelSize="20" font-bold="0" font-underline="0" font-alignment="1" strokeStyle="0" markerStart="0" markerEnd="0" shadowEnabled="0" shadowOffsetX="0" shadowOffsetY="2" shadowBlur="4" shadowOpacity="160" blurEnabled="0" blurRadius="4" transform="matrix(1,0,0,1,355.786,130.709)" pers-center="0,0" pers-size="0,0" pers-start="0,0" pers-end="0,0" locked="0" mesh="" flag=""/>
            <path id="shapePath1" d="M284.099,104.03 C296.605,91.5234 309.112,79.0167 322.869,67.7605 C330.373,60.2568 339.128,59.0064 350.384,60.2568 C351.635,61.5071 354.136,64.0094 356.637,66.5101 C377.899,87.7708 399.16,109.033 420.421,130.294 C427.925,136.547 429.176,144.051 425.424,152.806 C422.922,157.809 421.672,162.811 417.92,166.563 C406.664,179.07 394.157,190.326 382.901,201.583 C382.901,201.583 382.901,201.583 381.651,201.583 C381.651,201.583 381.651,201.583 380.4,201.583 C349.133,170.316 319.117,140.3 287.851,109.033 C286.6,106.531 285.349,105.28 284.099,104.03 Z" style="stroke:#323232;stroke-opacity:1;stroke-width:1;stroke-linejoin:;stroke-miterlimit:2;stroke-linecap:butt;fill:none;"/>
        </g>
        <g id="Shape2">
            <desc shapeID="2" type="0" basicInfo-basicType="0" basicInfo-roundedRectRadius="12" basicInfo-polygonSides="6" basicInfo-starPoints="5" bounding="rect(-90.048,-90.048,180.096,180.096)" text="" font-familyName="" font-pixelSize="20" font-bold="0" font-underline="0" font-alignment="1" strokeStyle="0" markerStart="0" markerEnd="0" shadowEnabled="0" shadowOffsetX="0" shadowOffsetY="2" shadowBlur="4" shadowOpacity="160" blurEnabled="0" blurRadius="4" transform="matrix(1,0,0,1,204.056,212.838)" pers-center="0,0" pers-size="0,0" pers-start="0,0" pers-end="0,0" locked="0" mesh="" flag=""/>
            <path id="shapePath2" d="M142.773,302.886 C141.522,284.126 136.52,279.123 114.008,276.622 C165.285,225.344 216.562,174.067 267.839,122.79 C277.845,132.796 284.098,139.049 294.104,149.054 C242.826,200.331 194.05,252.86 142.773,302.886 Z" style="stroke:#323232;stroke-opacity:1;stroke-width:1;stroke-linejoin:;stroke-miterlimit:2;stroke-linecap:butt;fill:none;"/>
        </g>
        <g id="Shape3">
            <desc shapeID="3" type="0" basicInfo-basicType="0" basicInfo-roundedRectRadius="12" basicInfo-polygonSides="6" basicInfo-starPoints="5" bounding="rect(-91.2985,-91.2985,182.597,182.597)" text="" font-familyName="" font-pixelSize="20" font-bold="0" font-underline="0" font-alignment="1" strokeStyle="0" markerStart="0" markerEnd="0" shadowEnabled="0" shadowOffsetX="0" shadowOffsetY="2" shadowBlur="4" shadowOpacity="160" blurEnabled="0" blurRadius="4" transform="matrix(1,0,0,1,237.824,246.605)" pers-center="0,0" pers-size="0,0" pers-start="0,0" pers-end="0,0" locked="0" mesh="" flag=""/>
            <path id="shapePath3" d="M300.358,155.307 C310.363,165.313 320.368,175.317 329.123,184.073 C277.846,235.35 226.568,286.627 175.291,337.904 C175.291,331.651 174.04,322.896 169.038,317.893 C162.784,311.64 155.28,310.39 146.526,310.39 C150.278,305.387 292.854,162.811 300.358,155.307 Z" style="stroke:#323232;stroke-opacity:1;stroke-width:1;stroke-linejoin:;stroke-miterlimit:2;stroke-linecap:butt;fill:none;"/>
        </g>
        <g id="Shape4">
            <desc shapeID="4" type="0" basicInfo-basicType="0" basicInfo-roundedRectRadius="12" basicInfo-polygonSides="6" basicInfo-starPoints="5" bounding="rect(-89.4225,-90.048,178.845,180.096)" text="" font-familyName="" font-pixelSize="20" font-bold="0" font-underline="0" font-alignment="1" strokeStyle="0" markerStart="0" markerEnd="0" shadowEnabled="0" shadowOffsetX="0" shadowOffsetY="2" shadowBlur="4" shadowOpacity="160" blurEnabled="0" blurRadius="4" transform="matrix(1,0,0,1,272.217,282.875)" pers-center="0,0" pers-size="0,0" pers-start="0,0" pers-end="0,0" locked="0" mesh="" flag=""/>
            <path id="shapePath4" d="M335.376,192.827 C344.131,201.583 351.635,209.086 361.64,219.091 C357.888,224.094 229.07,355.413 209.059,372.923 C207.808,364.169 206.558,356.664 200.304,350.41 C194.051,345.409 190.299,342.907 182.795,342.907 C234.072,291.63 285.349,242.854 335.376,192.827 Z" style="stroke:#323232;stroke-opacity:1;stroke-width:1;stroke-linejoin:;stroke-miterlimit:2;stroke-linecap:butt;fill:none;"/>
        </g>
        <g id="Shape5">
            <desc shapeID="5" type="0" basicInfo-basicType="0" basicInfo-roundedRectRadius="12" basicInfo-polygonSides="6" basicInfo-starPoints="5" bounding="rect(-57.5093,-57.6867,115.019,115.373)" text="" font-familyName="" font-pixelSize="20" font-bold="0" font-underline="0" font-alignment="1" strokeStyle="0" markerStart="0" markerEnd="0" shadowEnabled="0" shadowOffsetX="0" shadowOffsetY="2" shadowBlur="4" shadowOpacity="160" blurEnabled="0" blurRadius="4" transform="matrix(1,0,0,1,142.752,342.75)" pers-center="0,0" pers-size="0,0" pers-start="0,0" pers-end="0,0" locked="0" mesh="" flag=""/>
            <path id="shapePath5" d="M132.768,400.437 C116.509,384.179 101.501,369.17 85.2427,352.913 C92.7467,329.15 97.7493,309.139 106.504,285.376 C112.757,285.376 117.76,284.126 122.763,286.627 C130.267,290.379 135.269,295.382 135.269,304.136 C135.269,307.889 135.269,312.891 135.269,317.893 C140.272,317.893 144.024,317.893 147.776,317.893 C157.781,317.893 166.536,325.397 167.787,337.904 C167.787,341.656 167.787,345.409 167.787,350.41 C177.792,349.16 187.797,349.16 194.051,356.664 C200.304,362.917 201.555,370.422 199.053,380.427 C177.792,387.93 156.531,392.933 132.768,400.437 Z" style="stroke:#323232;stroke-opacity:1;stroke-width:1;stroke-linejoin:;stroke-miterlimit:2;stroke-linecap:butt;fill:none;"/>
        </g>
        <g id="Shape6">
            <desc shapeID="6" type="0" basicInfo-basicType="0" basicInfo-roundedRectRadius="12" basicInfo-polygonSides="6" basicInfo-starPoints="5" bounding="rect(-33.1428,-33.142,66.2856,66.284)" text="" font-familyName="" font-pixelSize="20" font-bold="0" font-underline="0" font-alignment="1" strokeStyle="0" markerStart="0" markerEnd="0" shadowEnabled="0" shadowOffsetX="0" shadowOffsetY="2" shadowBlur="4" shadowOpacity="160" blurEnabled="0" blurRadius="4" transform="matrix(1,0,0,1,93.3722,392.308)" pers-center="0,0" pers-size="0,0" pers-start="0,0" pers-end="0,0" locked="0" mesh="" flag=""/>
            <path id="shapePath6" d="M60.2294,425.45 C67.7334,404.19 73.9868,382.929 81.4908,362.917 C81.4908,361.667 82.7414,360.416 82.7414,359.166 C97.7493,374.173 111.507,387.93 126.515,402.939 C105.253,410.443 83.9921,417.947 60.2294,425.45 Z" style="stroke:#323232;stroke-opacity:1;stroke-width:1;stroke-linejoin:;stroke-miterlimit:2;stroke-linecap:butt;fill:none;"/>
        </g>
        <g id="Shape7">
            <desc shapeID="7" type="0" basicInfo-basicType="0" basicInfo-roundedRectRadius="12" basicInfo-polygonSides="6" basicInfo-starPoints="5" bounding="rect(-55.4829,-55.2006,110.966,110.401)" text="" font-familyName="" font-pixelSize="20" font-bold="0" font-underline="0" font-alignment="1" strokeStyle="0" markerStart="0" markerEnd="0" shadowEnabled="0" shadowOffsetX="0" shadowOffsetY="2" shadowBlur="4" shadowOpacity="160" blurEnabled="0" blurRadius="4" transform="matrix(1,0,0,1,323.323,164.234)" pers-center="0,0" pers-size="0,0" pers-start="0,0" pers-end="0,0" locked="0" mesh="" flag=""/>
            <path id="shapePath7" d="M372.217,219.434 C337.199,184.416 302.859,150.304 267.84,115.286 C269.091,112.784 271.592,110.283 274.093,109.033 C280.347,112.784 372.103,206.249 378.806,212.837 C376.534,215.348 374.719,216.933 372.217,219.434 Z" style="stroke:#323232;stroke-opacity:1;stroke-width:1;stroke-linejoin:;stroke-miterlimit:2;stroke-linecap:butt;fill:none;"/>
        </g>
    </g>
</svg>
