<?xml version="1.0"?>
<svg version="1.1" xmlns="http://www.w3.org/2000/svg" xmlns:xlink="http://www.w3.org/1999/xlink" width="500" height="500">
    <desc iVinci="yes" version="4.6" gridStep="20" showGrid="no" snapToGrid="no" codePlatform="0"/>
    <g id="Layer1" name="Layer 1" opacity="1">
        <g id="Shape1">
            <desc shapeID="1" type="0" basicInfo-basicType="0" basicInfo-roundedRectRadius="12" basicInfo-polygonSides="6" basicInfo-starPoints="5" bounding="rect(-1.20001,-1.40074,2.40003,2.80137)" text="" font-familyName="" font-pixelSize="20" font-bold="0" font-underline="0" font-alignment="1" strokeStyle="0" markerStart="0" markerEnd="0" shadowEnabled="0" shadowOffsetX="0" shadowOffsetY="2" shadowBlur="4" shadowOpacity="160" blurEnabled="0" blurRadius="4" transform="matrix(16.4166,0,0,16.4166,125.643,256.245)" pers-center="0,0" pers-size="0,0" pers-start="0,0" pers-end="0,0" locked="0" mesh="" flag=""/>
            <path id="shapePath1" d="M145.343,255.115 C145.352,248.63 142.477,242.475 137.497,238.319 C132.518,234.165 125.949,232.438 119.569,233.608 C114.991,233.494 110.416,233.934 105.943,234.922 L105.943,278.098 C109.569,278.769 113.257,279.046 116.943,278.918 C123.967,280.066 131.143,278.096 136.598,273.525 C142.053,268.952 145.245,262.231 145.343,255.115 Z" style="stroke:#000000;stroke-opacity:1;stroke-width:0;stroke-linejoin:bevel;stroke-miterlimit:2;stroke-linecap:square;fill-rule:nonzero;fill:#000000;fill-opacity:1;"/>
        </g>
        <g id="Shape2">
            <desc shapeID="2" type="0" basicInfo-basicType="0" basicInfo-roundedRectRadius="12" basicInfo-polygonSides="6" basicInfo-starPoints="5" bounding="rect(-1.85571,-2.96917,3.71143,5.93828)" text="" font-familyName="" font-pixelSize="20" font-bold="0" font-underline="0" font-alignment="1" strokeStyle="0" markerStart="0" markerEnd="0" shadowEnabled="0" shadowOffsetX="0" shadowOffsetY="2" shadowBlur="4" shadowOpacity="160" blurEnabled="0" blurRadius="4" transform="matrix(16.4166,0,0,16.4166,263.144,282.164)" pers-center="0,0" pers-size="0,0" pers-start="0,0" pers-end="0,0" locked="0" mesh="" flag=""/>
            <path id="shapePath2" d="M247.618,233.608 C242.606,233.506 237.597,233.944 232.679,234.922 L232.679,330.63 C236.501,330.999 240.349,330.999 244.171,330.63 C274.213,330.63 293.421,314.214 293.421,279.411 C294.602,266.938 290.157,254.589 281.299,245.73 C272.44,236.872 260.091,232.427 247.618,233.608 Z" style="stroke:#000000;stroke-opacity:1;stroke-width:0;stroke-linejoin:bevel;stroke-miterlimit:2;stroke-linecap:square;fill-rule:nonzero;fill:#000000;fill-opacity:1;"/>
        </g>
        <g id="Shape3">
            <desc shapeID="3" type="0" basicInfo-basicType="0" basicInfo-roundedRectRadius="12" basicInfo-polygonSides="6" basicInfo-starPoints="5" bounding="rect(-13.4851,-15.23,26.9702,30.4601)" text="" font-familyName="" font-pixelSize="20" font-bold="0" font-underline="0" font-alignment="1" strokeStyle="0" markerStart="0" markerEnd="0" shadowEnabled="0" shadowOffsetX="0" shadowOffsetY="2" shadowBlur="4" shadowOpacity="160" blurEnabled="0" blurRadius="4" transform="matrix(16.4166,0,0,16.4166,250,250.024)" pers-center="0,0" pers-size="0,0" pers-start="0,0" pers-end="0,0" locked="0" mesh="" flag=""/>
            <path id="shapePath3" d="M443.303,177.3 L431.319,177.3 L431.319,119.349 C431.343,118.966 431.343,118.583 431.319,118.2 C431.352,115.858 430.535,113.583 429.021,111.798 L332.655,1.64323 L330.685,-1.52588e-05 L328.715,-1.52588e-05 L326.417,-1.52588e-05 L88.2129,-1.52588e-05 C77.4605,0.0901642 68.7663,8.7834 68.6771,19.5367 L68.6771,178.777 L56.6924,178.777 C41.1886,178.777 28.6207,191.346 28.6207,206.85 L28.6207,352.628 C28.6207,368.132 41.1886,380.701 56.6924,380.701 L68.6771,380.701 L68.6771,480.513 C68.7663,491.267 77.4605,499.96 88.2129,500.05 L411.783,500.05 C422.535,499.96 431.229,491.267 431.319,480.513 L431.319,380.701 L443.303,380.701 C458.807,380.701 471.375,368.132 471.375,352.628 L471.375,205.864 C471.507,198.333 468.609,191.067 463.329,185.694 C458.051,180.324 450.834,177.298 443.303,177.3 M88.2129,18.0598 L315.253,18.0598 L315.253,118.365 C315.253,123.804 319.664,128.214 325.104,128.214 L411.783,128.214 L411.783,177.464 L88.2129,177.464 L88.2129,18.2221 L88.2129,18.0598 M328.879,278.917 C330.163,301.332 321.23,323.119 304.583,338.183 C284.915,352.01 261.099,358.674 237.111,357.06 C224.546,357.171 211.988,356.457 199.517,354.926 L199.517,211.117 C214.355,208.943 229.338,207.9 244.335,207.999 C265.589,206.54 286.712,212.327 304.254,224.415 C320.74,237.573 329.901,257.85 328.879,278.917 M73.2732,355.583 L73.2732,211.117 C88.1007,208.842 103.091,207.798 118.091,207.999 C133.918,206.708 149.715,210.816 162.908,219.654 C173.297,227.796 179.354,240.273 179.325,253.473 C179.858,266.439 174.982,279.044 165.863,288.276 C152.543,299.302 135.512,304.823 118.254,303.707 C114.483,303.963 110.698,303.963 106.927,303.707 L106.927,356.076 L74.0939,356.076 L73.2732,355.583 M411.783,473.455 L88.2129,473.455 L88.2129,379.06 L411.783,379.06 L411.783,473.455 M440.184,236.399 L383.875,236.399 L383.875,269.232 L436.408,269.232 L436.408,296.156 L383.875,296.156 L383.875,354.926 L351.042,354.926 L351.042,208.492 L440.84,208.492 L440.84,235.579 L440.184,236.399 Z" style="stroke:#000000;stroke-opacity:1;stroke-width:0;stroke-linejoin:bevel;stroke-miterlimit:2;stroke-linecap:square;fill-rule:nonzero;fill:#000000;fill-opacity:1;"/>
        </g>
    </g>
</svg>
