<?xml version="1.0"?>
<svg version="1.1" xmlns="http://www.w3.org/2000/svg" xmlns:xlink="http://www.w3.org/1999/xlink" width="500" height="500">
    <desc iVinci="yes" version="4.6" gridStep="20" showGrid="no" snapToGrid="no" codePlatform="0"/>
    <g id="Layer1" name="Layer 1" opacity="1">
        <g id="Shape1">
            <desc shapeID="1" type="0" basicInfo-basicType="0" basicInfo-roundedRectRadius="12" basicInfo-polygonSides="6" basicInfo-starPoints="5" bounding="rect(-12.9,-17.7095,25.7999,35.419)" text="" font-familyName="" font-pixelSize="20" font-bold="0" font-underline="0" font-alignment="1" strokeStyle="0" markerStart="0" markerEnd="0" shadowEnabled="0" shadowOffsetX="0" shadowOffsetY="2" shadowBlur="4" shadowOpacity="160" blurEnabled="0" blurRadius="4" transform="matrix(9.36355,0,0,9.36355,251.405,165.824)" pers-center="0,0" pers-size="0,0" pers-start="0,0" pers-end="0,0" locked="0" mesh="" flag=""/>
            <path id="shapePath1" d="M333.804,119.095 C338.486,119.095 340.358,119.095 343.167,120.031 C360.022,121.905 372.194,133.141 372.194,150.932 C372.194,200.559 372.194,251.121 372.194,300.748 C372.194,319.475 359.085,331.648 340.358,331.648 C281.368,331.648 221.441,331.648 162.451,331.648 C142.787,331.648 130.615,319.475 130.615,298.876 C130.615,252.994 130.615,208.049 130.615,162.167 C130.615,130.332 137.169,122.841 169.005,119.095 C169.005,106.923 169.005,95.6865 169.005,83.5145 C169.005,62.914 175.56,44.187 188.669,28.2694 C211.141,2.05098 246.723,-6.37645 279.495,4.8605 C310.395,16.0963 331.931,46.0603 332.867,78.8328 C333.804,91.9408 333.804,105.05 333.804,119.095 M303.84,119.095 C303.84,105.986 303.84,94.7503 303.84,83.5145 C303.84,79.7689 303.84,76.9594 302.904,73.2137 C298.222,46.9965 276.686,28.2694 250.468,29.2055 C225.187,29.2055 202.714,46.9953 198.969,73.2137 C197.096,86.3217 197.982,99.6281 197.982,112.737 C197.982,114.61 197.982,119.095 197.982,119.095 C232.628,119.095 270.132,119.095 303.84,119.095 M272.941,276.403 C271.068,262.358 269.195,249.249 267.323,236.14 C266.386,230.522 267.323,225.84 272.004,222.094 C284.177,211.795 284.177,194.004 273.877,182.768 C262.641,170.595 245.786,169.659 233.614,180.895 C222.378,191.195 219.568,209.922 230.805,220.222 C239.232,227.712 238.296,235.204 237.359,243.631 C235.487,254.867 233.614,265.166 232.677,277.339 C245.786,276.403 258.895,276.403 272.941,276.403 Z" style="stroke:none;fill-rule:evenodd;fill:#000000;fill-opacity:1;"/>
        </g>
        <g id="Shape2">
            <desc shapeID="2" type="0" basicInfo-basicType="0" basicInfo-roundedRectRadius="12" basicInfo-polygonSides="6" basicInfo-starPoints="5" bounding="rect(-6.09999,-6.45008,12.2,12.9)" text="" font-familyName="" font-pixelSize="20" font-bold="0" font-underline="0" font-alignment="1" strokeStyle="0" markerStart="0" markerEnd="0" shadowEnabled="0" shadowOffsetX="0" shadowOffsetY="2" shadowBlur="4" shadowOpacity="160" blurEnabled="0" blurRadius="4" transform="matrix(9.36355,0,0,9.36355,148.405,439.798)" pers-center="0,0" pers-size="0,0" pers-start="0,0" pers-end="0,0" locked="0" mesh="" flag=""/>
            <path id="shapePath2" d="M134.36,379.402 L162.451,379.402 L205.523,500.192 L178.369,500.192 L169.942,474.91 L125.933,474.91 L117.506,500.192 L91.2879,500.192 L134.36,379.402 M132.488,454.311 L163.387,454.311 L148.406,406.557 L132.488,454.311 Z" style="stroke:none;fill-rule:evenodd;fill:#000000;fill-opacity:1;"/>
        </g>
        <g id="Shape3">
            <desc shapeID="3" type="0" basicInfo-basicType="0" basicInfo-roundedRectRadius="12" basicInfo-polygonSides="6" basicInfo-starPoints="5" bounding="rect(-4.54998,-6.45008,9.09997,12.9)" text="" font-familyName="" font-pixelSize="20" font-bold="0" font-underline="0" font-alignment="1" strokeStyle="0" markerStart="0" markerEnd="0" shadowEnabled="0" shadowOffsetX="0" shadowOffsetY="2" shadowBlur="4" shadowOpacity="160" blurEnabled="0" blurRadius="4" transform="matrix(9.36355,0,0,9.36355,263.109,439.798)" pers-center="0,0" pers-size="0,0" pers-start="0,0" pers-end="0,0" locked="0" mesh="" flag=""/>
            <path id="shapePath3" d="M220.505,379.402 L245.786,379.402 L245.786,478.656 L305.713,478.656 L305.713,500.192 L220.505,500.192 L220.505,379.402 Z" style="stroke:none;fill-rule:evenodd;fill:#000000;fill-opacity:1;"/>
        </g>
        <g id="Shape4">
            <desc shapeID="4" type="0" basicInfo-basicType="0" basicInfo-roundedRectRadius="12" basicInfo-polygonSides="6" basicInfo-starPoints="5" bounding="rect(-4.54998,-6.45008,9.09997,12.9)" text="" font-familyName="" font-pixelSize="20" font-bold="0" font-underline="0" font-alignment="1" strokeStyle="0" markerStart="0" markerEnd="0" shadowEnabled="0" shadowOffsetX="0" shadowOffsetY="2" shadowBlur="4" shadowOpacity="160" blurEnabled="0" blurRadius="4" transform="matrix(9.36355,0,0,9.36355,366.108,439.798)" pers-center="0,0" pers-size="0,0" pers-start="0,0" pers-end="0,0" locked="0" mesh="" flag=""/>
            <path id="shapePath4" d="M323.504,379.402 L348.785,379.402 L348.785,478.656 L408.712,478.656 L408.712,500.192 L323.504,500.192 L323.504,379.402 Z" style="stroke:none;fill-rule:evenodd;fill:#000000;fill-opacity:1;"/>
        </g>
    </g>
</svg>
