<?xml version="1.0"?>
<svg version="1.1" xmlns="http://www.w3.org/2000/svg" xmlns:xlink="http://www.w3.org/1999/xlink" width="500" height="500">
    <desc iVinci="yes" version="4.6" gridStep="20" showGrid="no" snapToGrid="no" codePlatform="0"/>
    <g id="Layer1" name="Layer 1" opacity="1">
        <g id="Shape1">
            <desc shapeID="1" type="0" basicInfo-basicType="0" basicInfo-roundedRectRadius="12" basicInfo-polygonSides="6" basicInfo-starPoints="5" bounding="rect(-30.4,-35.9,60.8,71.8)" text="" font-familyName="" font-pixelSize="20" font-bold="0" font-underline="0" font-alignment="1" strokeStyle="0" markerStart="0" markerEnd="0" shadowEnabled="0" shadowOffsetX="0" shadowOffsetY="2" shadowBlur="4" shadowOpacity="160" blurEnabled="0" blurRadius="4" transform="matrix(6.03663,0,0,6.03663,250,283.118)" pers-center="0,0" pers-size="0,0" pers-start="0,0" pers-end="0,0" locked="0" mesh="" flag=""/>
            <path id="shapePath1" d="M67.0902,92.9641 C76.1451,71.2323 83.9927,66.403 108.139,66.403 C115.383,66.403 122.024,66.403 129.871,66.403 C129.871,83.3055 129.871,99.0008 129.871,115.903 C123.231,115.903 115.987,115.903 109.347,115.903 C102.706,115.903 100.292,118.922 100.292,125.562 C100.292,229.996 100.292,335.033 100.292,439.467 C100.292,447.918 101.499,449.125 110.554,449.125 C204.122,449.125 297.086,449.125 390.654,449.125 C399.709,449.125 400.312,448.522 400.312,438.863 C400.312,361.594 400.312,284.929 400.312,207.66 C400.312,181.703 400.312,155.745 400.312,129.788 C400.312,117.714 399.709,117.111 387.635,116.507 C384.617,116.507 380.995,116.507 377.977,116.507 C374.958,116.507 371.336,116.507 368.318,116.507 C368.318,100.208 368.318,84.5128 368.318,68.8176 C382.806,68.8176 397.294,67.6103 411.178,69.4213 C423.251,70.6286 431.703,83.3055 432.91,96.5861 C433.514,100.812 433.514,104.434 433.514,108.659 C433.514,224.563 433.514,339.862 433.514,455.766 C433.514,457.577 433.514,459.991 433.514,461.802 C432.91,487.76 420.837,499.833 394.879,499.833 C298.293,499.833 202.311,499.833 105.725,499.833 C85.8038,499.833 72.5231,491.382 66.4865,472.064 C67.0902,345.295 67.0902,219.13 67.0902,92.9641 Z" style="stroke:none;fill-rule:nonzero;fill:url(#linearGradientFill1);fill-opacity:1;"/><defs><linearGradient id="linearGradientFill1" gradientUnits="userSpaceOnUse" x1="250.429" y1="499.607" x2="250.429" y2="66.4066"><stop offset="0" stop-color="#000000" stop-opacity="1"/><stop offset="1" stop-color="#000000" stop-opacity="1"/></linearGradient></defs>
        </g>
        <g id="Shape2">
            <desc shapeID="2" type="0" basicInfo-basicType="0" basicInfo-roundedRectRadius="12" basicInfo-polygonSides="6" basicInfo-starPoints="5" bounding="rect(-16.6375,-11.05,33.275,22.1)" text="" font-familyName="" font-pixelSize="20" font-bold="0" font-underline="0" font-alignment="1" strokeStyle="0" markerStart="0" markerEnd="0" shadowEnabled="0" shadowOffsetX="0" shadowOffsetY="2" shadowBlur="4" shadowOpacity="160" blurEnabled="0" blurRadius="4" transform="matrix(6.03663,0,0,6.03663,250.226,66.7048)" pers-center="0,0" pers-size="0,0" pers-start="0,0" pers-end="0,0" locked="0" mesh="" flag=""/>
            <path id="shapePath2" d="M260.866,7.62939e-06 C263.884,1.20734 266.903,2.41464 269.921,4.22565 C285.616,10.8659 294.067,22.9392 298.293,38.6344 C302.519,52.5187 298.897,49.5004 313.384,50.104 C319.421,50.104 326.061,50.104 332.098,50.104 C343.568,50.7077 349.604,55.537 350.208,67.0066 C350.812,83.3055 350.812,99.6044 350.208,115.903 C349.604,128.58 342.964,133.41 329.08,133.41 C304.933,133.41 280.787,133.41 256.036,133.41 C228.268,133.41 200.5,133.41 172.731,133.41 C155.225,133.41 149.792,127.977 149.792,110.47 C149.792,95.9824 149.792,82.0982 150.395,67.6103 C150.999,54.9334 157.036,50.104 169.713,50.104 C179.371,50.104 189.634,50.104 199.896,50.104 C201.707,30.1831 210.158,14.4879 228.268,5.43296 C231.89,3.62197 235.512,1.81099 239.738,7.62939e-06 C246.982,7.62939e-06 253.622,7.62939e-06 260.866,7.62939e-06 Z" style="stroke:none;fill-rule:nonzero;fill:url(#linearGradientFill2);fill-opacity:1;"/><defs><linearGradient id="linearGradientFill2" gradientUnits="userSpaceOnUse" x1="250.694" y1="133.04" x2="250.694" y2="0.0645981"><stop offset="0" stop-color="#000000" stop-opacity="1"/><stop offset="1" stop-color="#000000" stop-opacity="1"/></linearGradient></defs>
        </g>
        <g id="Shape3">
            <desc shapeID="3" type="0" basicInfo-basicType="0" basicInfo-roundedRectRadius="12" basicInfo-polygonSides="6" basicInfo-starPoints="5" bounding="rect(-9.7063,-2.8,19.4126,5.6)" text="" font-familyName="" font-pixelSize="20" font-bold="0" font-underline="0" font-alignment="1" strokeStyle="0" markerStart="0" markerEnd="0" shadowEnabled="0" shadowOffsetX="0" shadowOffsetY="2" shadowBlur="4" shadowOpacity="160" blurEnabled="0" blurRadius="4" transform="matrix(6.03663,0,0,6.03663,308.593,374.875)" pers-center="0,0" pers-size="0,0" pers-start="0,0" pers-end="0,0" locked="0" mesh="" flag=""/>
            <path id="shapePath3" d="M309.159,357.972 C324.854,357.972 340.549,357.972 356.245,357.972 C365.903,357.972 367.111,359.18 367.111,368.234 C367.111,373.064 366.507,378.497 367.111,383.326 C367.714,389.966 364.696,391.777 358.659,391.777 C329.684,391.777 300.708,391.777 271.732,391.777 C266.903,391.777 262.073,391.777 257.244,391.777 C252.415,391.777 250,389.966 250,384.533 C250,379.1 250,373.667 250,368.234 C250,359.783 251.207,357.972 259.659,357.972 C276.561,357.972 292.86,357.972 309.159,357.972 Z" style="stroke:none;fill-rule:nonzero;fill:url(#linearGradientFill3);fill-opacity:1;"/><defs><linearGradient id="linearGradientFill3" gradientUnits="userSpaceOnUse" x1="308.917" y1="391.436" x2="308.917" y2="357.789"><stop offset="0" stop-color="#000000" stop-opacity="1"/><stop offset="1" stop-color="#000000" stop-opacity="1"/></linearGradient></defs>
        </g>
        <g id="Shape4">
            <desc shapeID="4" type="0" basicInfo-basicType="0" basicInfo-roundedRectRadius="12" basicInfo-polygonSides="6" basicInfo-starPoints="5" bounding="rect(-9.65634,-2.8,19.3127,5.6)" text="" font-familyName="" font-pixelSize="20" font-bold="0" font-underline="0" font-alignment="1" strokeStyle="0" markerStart="0" markerEnd="0" shadowEnabled="0" shadowOffsetX="0" shadowOffsetY="2" shadowBlur="4" shadowOpacity="160" blurEnabled="0" blurRadius="4" transform="matrix(6.03663,0,0,6.03663,309.499,295.191)" pers-center="0,0" pers-size="0,0" pers-start="0,0" pers-end="0,0" locked="0" mesh="" flag=""/>
            <path id="shapePath4" d="M309.159,278.289 C325.458,278.289 342.36,278.289 358.659,278.289 C364.696,278.289 367.714,280.1 367.714,286.74 C367.111,292.173 367.111,298.21 367.714,304.246 C368.318,309.679 365.3,312.094 360.47,312.094 C356.245,312.094 352.623,312.094 348.397,312.094 C319.421,312.094 291.049,312.094 262.073,312.094 C251.811,312.094 251.207,311.49 251.207,301.228 C251.207,278.892 251.207,278.892 273.543,278.892 C285.012,278.289 297.086,278.289 309.159,278.289 Z" style="stroke:none;fill-rule:nonzero;fill:url(#linearGradientFill4);fill-opacity:1;"/><defs><linearGradient id="linearGradientFill4" gradientUnits="userSpaceOnUse" x1="308.937" y1="311.76" x2="308.937" y2="278.115"><stop offset="0" stop-color="#000000" stop-opacity="1"/><stop offset="1" stop-color="#000000" stop-opacity="1"/></linearGradient></defs>
        </g>
        <g id="Shape5">
            <desc shapeID="5" type="0" basicInfo-basicType="0" basicInfo-roundedRectRadius="12" basicInfo-polygonSides="6" basicInfo-starPoints="5" bounding="rect(-9.70736,-2.7575,19.4147,5.515)" text="" font-familyName="" font-pixelSize="20" font-bold="0" font-underline="0" font-alignment="1" strokeStyle="0" markerStart="0" markerEnd="0" shadowEnabled="0" shadowOffsetX="0" shadowOffsetY="2" shadowBlur="4" shadowOpacity="160" blurEnabled="0" blurRadius="4" transform="matrix(6.03663,0,0,6.03663,308.511,216.459)" pers-center="0,0" pers-size="0,0" pers-start="0,0" pers-end="0,0" locked="0" mesh="" flag=""/>
            <path id="shapePath5" d="M308.555,233.014 C292.256,233.014 275.354,233.014 259.055,233.014 C251.811,233.014 249.396,230.599 250,223.959 C250.604,218.526 250,213.093 250,207.66 C250,202.227 251.811,199.813 257.244,199.813 C291.049,199.813 324.854,199.813 358.659,199.813 C364.092,199.813 367.111,201.624 367.111,207.66 C367.111,213.697 367.111,219.733 367.111,225.77 C367.111,231.203 365.3,233.618 359.867,233.014 C342.964,233.014 326.061,233.014 308.555,233.014 Z" style="stroke:none;fill-rule:nonzero;fill:url(#linearGradientFill5);fill-opacity:1;"/><defs><linearGradient id="linearGradientFill5" gradientUnits="userSpaceOnUse" x1="308.86" y1="233.025" x2="308.86" y2="199.595"><stop offset="0" stop-color="#000000" stop-opacity="1"/><stop offset="1" stop-color="#000000" stop-opacity="1"/></linearGradient></defs>
        </g>
        <g id="Shape6">
            <desc shapeID="6" type="0" basicInfo-basicType="0" basicInfo-roundedRectRadius="12" basicInfo-polygonSides="6" basicInfo-starPoints="5" bounding="rect(-8.10204,-6.83787,16.2041,13.6757)" text="" font-familyName="" font-pixelSize="20" font-bold="0" font-underline="0" font-alignment="1" strokeStyle="0" markerStart="0" markerEnd="0" shadowEnabled="0" shadowOffsetX="0" shadowOffsetY="2" shadowBlur="4" shadowOpacity="160" blurEnabled="0" blurRadius="4" transform="matrix(6.03663,0,0,6.03663,184.599,208.112)" pers-center="0,0" pers-size="0,0" pers-start="0,0" pers-end="0,0" locked="0" mesh="" flag=""/>
            <path id="shapePath6" d="M172.731,210.679 C187.823,196.191 200.5,184.117 213.78,171.44 C219.817,165.404 224.043,165.404 230.079,170.837 C235.512,175.666 233.701,180.495 230.079,185.325 C216.195,204.038 202.311,222.752 188.427,240.862 C179.975,252.331 173.335,252.331 165.487,240.258 C156.432,227.581 147.981,214.3 138.323,201.624 C133.493,195.587 135.908,191.361 140.737,187.136 C146.17,182.91 149.792,183.514 154.018,188.343 C159.451,196.191 166.091,202.831 172.731,210.679 Z" style="stroke:none;fill-rule:nonzero;fill:url(#linearGradientFill6);fill-opacity:1;"/><defs><linearGradient id="linearGradientFill6" gradientUnits="userSpaceOnUse" x1="184.085" y1="249.558" x2="184.085" y2="167.21"><stop offset="0" stop-color="#000000" stop-opacity="1"/><stop offset="1" stop-color="#000000" stop-opacity="1"/></linearGradient></defs>
        </g>
        <g id="Shape7">
            <desc shapeID="7" type="0" basicInfo-basicType="0" basicInfo-roundedRectRadius="12" basicInfo-polygonSides="6" basicInfo-starPoints="5" bounding="rect(-8.10078,-6.85454,16.2015,13.7091)" text="" font-familyName="" font-pixelSize="20" font-bold="0" font-underline="0" font-alignment="1" strokeStyle="0" markerStart="0" markerEnd="0" shadowEnabled="0" shadowOffsetX="0" shadowOffsetY="2" shadowBlur="4" shadowOpacity="160" blurEnabled="0" blurRadius="4" transform="matrix(6.03663,0,0,6.03663,184.251,375.076)" pers-center="0,0" pers-size="0,0" pers-start="0,0" pers-end="0,0" locked="0" mesh="" flag=""/>
            <path id="shapePath7" d="M176.353,377.289 C189.03,364.009 201.103,351.332 213.177,338.655 C219.817,331.411 227.665,332.015 232.494,341.07 C233.701,342.881 233.098,346.503 231.89,348.314 C216.799,369.442 201.103,390.57 185.408,411.095 C179.975,418.338 172.731,418.338 167.298,410.491 C157.036,396.003 146.774,381.515 137.115,367.027 C132.889,360.99 137.115,357.972 140.737,354.35 C144.963,350.125 149.188,350.125 153.414,353.747 C160.658,361.594 167.902,369.442 176.353,377.289 Z" style="stroke:none;fill-rule:nonzero;fill:url(#linearGradientFill7);fill-opacity:1;"/><defs><linearGradient id="linearGradientFill7" gradientUnits="userSpaceOnUse" x1="183.711" y1="416.383" x2="183.711" y2="334.049"><stop offset="0" stop-color="#000000" stop-opacity="1"/><stop offset="1" stop-color="#000000" stop-opacity="1"/></linearGradient></defs>
        </g>
        <g id="Shape8">
            <desc shapeID="8" type="0" basicInfo-basicType="0" basicInfo-roundedRectRadius="12" basicInfo-polygonSides="6" basicInfo-starPoints="5" bounding="rect(-8.21458,-6.81804,16.4292,13.6361)" text="" font-familyName="" font-pixelSize="20" font-bold="0" font-underline="0" font-alignment="1" strokeStyle="0" markerStart="0" markerEnd="0" shadowEnabled="0" shadowOffsetX="0" shadowOffsetY="2" shadowBlur="4" shadowOpacity="160" blurEnabled="0" blurRadius="4" transform="matrix(6.03663,0,0,6.03663,184.21,292.064)" pers-center="0,0" pers-size="0,0" pers-start="0,0" pers-end="0,0" locked="0" mesh="" flag=""/>
            <path id="shapePath8" d="M175.749,294.588 C188.426,281.307 200.5,268.63 212.573,255.953 C216.798,251.124 221.628,248.709 227.664,253.538 C235.512,259.575 235.512,260.782 229.475,268.63 C215.591,287.344 202.311,305.454 188.426,324.167 C179.371,336.24 173.335,336.24 164.884,324.167 C155.829,311.49 147.377,299.417 138.322,286.74 C134.097,281.307 132.286,276.478 139.53,271.648 C146.774,266.215 147.377,265.612 155.225,273.459 C161.865,280.1 168.505,287.344 175.749,294.588 Z" style="stroke:none;fill-rule:nonzero;fill:url(#linearGradientFill8);fill-opacity:1;"/><defs><linearGradient id="linearGradientFill8" gradientUnits="userSpaceOnUse" x1="184.082" y1="332.925" x2="184.082" y2="250.788"><stop offset="0" stop-color="#000000" stop-opacity="1"/><stop offset="1" stop-color="#000000" stop-opacity="1"/></linearGradient></defs>
        </g>
    </g>
</svg>
