<?xml version="1.0"?>
<svg version="1.1" xmlns="http://www.w3.org/2000/svg" xmlns:xlink="http://www.w3.org/1999/xlink" width="500" height="500">
    <desc iVinci="yes" version="4.6" gridStep="20" showGrid="no" snapToGrid="no" codePlatform="0"/>
    <g id="Layer1" name="Layer 1" opacity="1">
        <g id="Shape1">
            <desc shapeID="1" type="0" basicInfo-basicType="0" basicInfo-roundedRectRadius="12" basicInfo-polygonSides="6" basicInfo-starPoints="5" bounding="rect(-42.85,-37.4501,85.7,74.9)" text="" font-familyName="" font-pixelSize="20" font-bold="0" font-underline="0" font-alignment="1" strokeStyle="0" markerStart="0" markerEnd="0" shadowEnabled="0" shadowOffsetX="0" shadowOffsetY="2" shadowBlur="4" shadowOpacity="160" blurEnabled="0" blurRadius="4" transform="matrix(5.83429,0,0,5.83429,250.001,250)" pers-center="0,0" pers-size="0,0" pers-start="0,0" pers-end="0,0" locked="0" mesh="" flag=""/>
            <path id="shapePath1" d="M133.024,33.8393 C159.278,33.8393 182.615,42.0067 204.201,58.9263 C231.623,80.5136 245.625,106.768 245.625,137.689 C245.625,152.858 242.124,168.028 234.54,182.614 C226.955,197.199 216.454,209.451 203.035,220.537 C177.948,240.372 148.192,250.291 113.77,250.291 C79.3479,250.291 50.7599,240.372 29.173,219.953 C9.91989,201.283 0.00161743,177.946 0.00161743,149.358 C0.00161743,116.103 11.6702,88.681 35.5907,68.2611 C47.2593,57.7597 61.845,49.5916 79.9314,43.7573 C97.4341,36.7565 114.937,33.8393 133.024,33.8393 M111.437,82.2635 C106.185,82.2635 101.518,84.5973 98.018,88.681 C94.5171,92.765 92.7666,98.6003 92.7666,105.601 C92.7666,126.021 96.8503,147.608 105.603,169.195 C109.686,179.113 113.187,186.115 116.687,190.198 C120.188,194.282 124.856,196.033 130.69,196.033 C142.358,196.033 148.192,187.864 148.192,172.112 C148.192,148.192 143.525,125.438 134.191,103.851 C128.939,89.8483 121.355,82.2635 111.437,82.2635 M187.866,310.384 L282.381,151.109 C307.469,107.351 324.389,76.4292 333.14,58.343 C338.39,47.841 343.641,40.8401 348.309,36.7565 C352.977,33.2553 359.977,31.5054 369.312,31.5054 C389.149,31.5054 399.067,36.1724 399.067,46.0912 C399.067,53.092 390.9,68.2611 374.563,92.1823 C362.311,109.685 345.392,137.106 323.221,174.445 L226.955,337.222 C207.119,373.978 188.449,407.817 170.946,438.739 C165.112,450.407 160.444,457.992 155.777,462.076 C151.693,466.16 145.859,467.91 138.858,467.91 C128.356,467.91 119.604,466.16 112.603,463.243 C105.603,460.326 102.686,456.241 102.686,451.574 C102.686,447.49 105.019,442.24 109.102,435.822 C114.937,427.07 132.44,400.232 161.028,355.308 L187.866,310.384 M387.399,252.041 C413.652,252.041 436.99,260.209 458.577,277.129 C485.997,298.715 500,324.97 500,355.892 C500,371.061 496.499,386.229 488.916,400.816 C481.331,415.401 470.828,427.653 457.409,438.739 C432.322,458.576 402.568,468.494 368.146,468.494 C333.723,468.494 305.135,458.576 283.548,438.155 C264.294,419.486 254.377,396.148 254.377,367.56 C254.377,334.305 266.045,306.883 289.965,286.464 C301.635,275.962 316.804,267.794 334.306,261.96 C351.809,254.958 369.312,252.041 387.399,252.041 M365.811,300.467 C359.977,300.467 355.894,302.8 352.393,306.883 C348.892,310.968 347.142,316.802 347.142,323.803 C347.142,344.807 351.226,365.81 359.977,387.397 C364.061,397.315 367.562,404.317 371.063,408.4 C374.563,412.484 379.23,414.235 385.064,414.235 C396.734,414.235 402.568,406.066 402.568,390.314 C402.568,366.394 397.9,343.64 389.149,322.053 C383.314,308.051 375.73,301.049 365.811,300.467 Z" style="stroke:none;fill-rule:evenodd;fill:#000000;fill-opacity:1;"/>
        </g>
    </g>
</svg>
