<?xml version="1.0"?>
<svg version="1.1" xmlns="http://www.w3.org/2000/svg" xmlns:xlink="http://www.w3.org/1999/xlink" width="500" height="500">
    <desc iVinci="yes" version="4.6" gridStep="20" showGrid="no" snapToGrid="no" codePlatform="0"/>
    <g id="Layer1" name="Layer 1" opacity="1">
        <g id="Shape1">
            <desc shapeID="1" type="0" basicInfo-basicType="0" basicInfo-roundedRectRadius="12" basicInfo-polygonSides="6" basicInfo-starPoints="5" bounding="rect(-44.0642,-30.4444,88.1283,60.8889)" text="" font-familyName="" font-pixelSize="20" font-bold="0" font-underline="0" font-alignment="1" strokeStyle="0" markerStart="0" markerEnd="0" shadowEnabled="0" shadowOffsetX="0" shadowOffsetY="2" shadowBlur="4" shadowOpacity="160" blurEnabled="0" blurRadius="4" transform="matrix(5.68153,0,0,5.68153,250.352,187.345)" pers-center="0,0" pers-size="0,0" pers-start="0,0" pers-end="0,0" locked="0" mesh="" flag=""/>
            <path id="shapePath1" d="M153.437,328.815 C163.096,328.815 172.186,328.815 181.276,328.815 C259.681,328.815 338.087,328.815 416.492,328.815 C418.764,328.815 421.037,328.815 423.309,328.815 C432.968,329.952 439.218,336.201 439.218,344.724 C439.218,353.246 432.968,359.496 422.741,360.064 C412.515,360.632 402.288,360.064 391.493,360.064 C310.247,360.064 229.001,360.064 148.324,360.064 C130.711,360.064 127.87,357.223 124.461,340.178 C105.144,244.729 85.8267,149.279 67.0777,53.8295 C65.9414,47.0116 63.1006,45.3072 56.8509,45.8753 C43.7834,46.4435 30.716,45.8753 17.6484,45.8753 C6.85352,45.8753 0.035614,40.1938 0.035614,31.1034 C-0.532394,21.4447 5.71715,14.6269 17.0802,14.6269 C36.9655,14.0587 56.2829,14.6269 76.1682,14.6269 C86.3949,14.6269 92.0764,19.7403 93.7808,29.967 C94.349,35.0804 95.4854,39.6257 96.6216,45.8753 C100.599,45.8753 104.576,45.8753 107.985,45.8753 C231.274,45.8753 354.563,45.8753 477.284,45.8753 C498.874,45.8753 503.987,52.125 498.874,72.5785 C484.102,132.235 469.33,192.459 454.558,252.115 C452.285,260.637 447.172,265.182 438.65,265.75 C435.809,265.75 432.4,265.75 429.559,265.75 C337.518,265.75 246.046,265.75 154.005,265.75 C150.028,265.75 146.051,265.75 140.938,265.75 C144.915,286.772 148.892,307.226 153.437,328.815 M272.749,233.934 C272.749,181.096 272.749,129.962 272.749,78.26 C246.614,78.26 226.729,78.26 201.162,78.26 C202.866,136.212 207.411,191.322 209.684,233.934 C235.819,233.934 246.614,233.934 272.749,233.934 M298.316,78.26 C298.316,130.53 298.316,182.232 298.316,233.934 C324.451,233.934 335.246,233.934 360.813,233.934 C363.085,182.8 369.335,129.962 369.335,78.26 C343.768,78.26 324.451,78.26 298.316,78.26 M184.117,233.934 C182.413,187.345 175.595,130.53 172.186,78.26 C143.778,78.26 131.279,78.26 102.871,78.26 C113.666,131.098 123.893,182.8 134.12,233.934 C152.869,233.934 166.504,233.934 184.117,233.934 M389.22,234.502 C399.447,234.502 411.378,234.502 420.469,234.502 C426.15,234.502 427.855,232.798 428.991,227.684 C433.536,207.799 439.218,187.914 444.331,167.46 C451.717,137.916 459.103,108.372 466.489,78.26 C440.922,78.26 422.741,78.26 397.743,78.26 C398.311,130.53 389.22,181.664 389.22,234.502 Z" style="stroke:none;fill-rule:nonzero;fill:url(#linearGradientFill1);fill-opacity:1;"/><defs><linearGradient id="linearGradientFill1" gradientUnits="userSpaceOnUse" x1="250.365" y1="360.335" x2="250.365" y2="14.4292"><stop offset="0" stop-color="#000000" stop-opacity="1"/><stop offset="1" stop-color="#000000" stop-opacity="1"/></linearGradient></defs>
        </g>
        <g id="Shape2">
            <desc shapeID="2" type="0" basicInfo-basicType="0" basicInfo-roundedRectRadius="12" basicInfo-polygonSides="6" basicInfo-starPoints="5" bounding="rect(-8.30002,-8.25,16.6,16.5)" text="" font-familyName="" font-pixelSize="20" font-bold="0" font-underline="0" font-alignment="1" strokeStyle="0" markerStart="0" markerEnd="0" shadowEnabled="0" shadowOffsetX="0" shadowOffsetY="2" shadowBlur="4" shadowOpacity="160" blurEnabled="0" blurRadius="4" transform="matrix(5.68153,0,0,5.68153,391.493,438.753)" pers-center="0,0" pers-size="0,0" pers-start="0,0" pers-end="0,0" locked="0" mesh="" flag=""/>
            <path id="shapePath2" d="M438.65,438.469 C438.65,464.604 417.628,485.626 391.493,485.626 C365.926,485.626 344.336,464.036 344.336,438.469 C344.336,412.902 365.358,392.448 390.925,391.88 C417.628,391.88 438.65,412.334 438.65,438.469 M392.061,423.129 C383.539,423.129 376.721,429.947 376.721,438.469 C376.721,447.559 383.539,454.945 392.061,454.945 C400.583,454.945 407.401,448.127 407.401,439.605 C407.401,430.515 400.583,423.129 392.061,423.129 Z" style="stroke:none;fill-rule:nonzero;fill:url(#linearGradientFill2);fill-opacity:1;"/><defs><linearGradient id="linearGradientFill2" gradientUnits="userSpaceOnUse" x1="391.906" y1="485.723" x2="391.906" y2="391.854"><stop offset="0" stop-color="#000000" stop-opacity="1"/><stop offset="1" stop-color="#000000" stop-opacity="1"/></linearGradient></defs>
        </g>
        <g id="Shape3">
            <desc shapeID="3" type="0" basicInfo-basicType="0" basicInfo-roundedRectRadius="12" basicInfo-polygonSides="6" basicInfo-starPoints="5" bounding="rect(-8.25095,-8.25,16.5019,16.5)" text="" font-familyName="" font-pixelSize="20" font-bold="0" font-underline="0" font-alignment="1" strokeStyle="0" markerStart="0" markerEnd="0" shadowEnabled="0" shadowOffsetX="0" shadowOffsetY="2" shadowBlur="4" shadowOpacity="160" blurEnabled="0" blurRadius="4" transform="matrix(5.68153,0,0,5.68153,171.896,438.753)" pers-center="0,0" pers-size="0,0" pers-start="0,0" pers-end="0,0" locked="0" mesh="" flag=""/>
            <path id="shapePath3" d="M218.775,438.469 C218.775,464.604 197.753,485.626 171.618,485.626 C146.051,485.626 125.029,464.604 125.029,439.037 C124.461,413.47 146.051,391.88 172.186,391.88 C198.321,391.88 218.775,412.334 218.775,438.469 M172.186,423.129 C164.232,423.129 156.846,429.947 156.278,437.901 C155.71,446.423 163.096,454.377 171.618,454.377 C180.14,454.377 187.526,446.991 187.526,438.469 C187.526,430.515 180.708,423.129 172.186,423.129 Z" style="stroke:none;fill-rule:nonzero;fill:url(#linearGradientFill3);fill-opacity:1;"/><defs><linearGradient id="linearGradientFill3" gradientUnits="userSpaceOnUse" x1="171.919" y1="485.691" x2="171.919" y2="391.859"><stop offset="0" stop-color="#000000" stop-opacity="1"/><stop offset="1" stop-color="#000000" stop-opacity="1"/></linearGradient></defs>
        </g>
    </g>
</svg>
