<?xml version="1.0"?>
<svg version="1.1" xmlns="http://www.w3.org/2000/svg" xmlns:xlink="http://www.w3.org/1999/xlink" width="500" height="500">
    <desc iVinci="yes" version="4.6" gridStep="20" showGrid="no" snapToGrid="no" codePlatform="0"/>
    <g id="Layer1" name="Layer 1" opacity="1">
        <g id="Shape1">
            <desc shapeID="1" type="0" basicInfo-basicType="0" basicInfo-roundedRectRadius="12" basicInfo-polygonSides="6" basicInfo-starPoints="5" bounding="rect(-26.65,-26.6001,53.3,53.2001)" text="" font-familyName="" font-pixelSize="20" font-bold="0" font-underline="0" font-alignment="1" strokeStyle="0" markerStart="0" markerEnd="0" shadowEnabled="0" shadowOffsetX="0" shadowOffsetY="2" shadowBlur="4" shadowOpacity="160" blurEnabled="0" blurRadius="4" transform="matrix(9.38966,0,0,9.38966,250.235,249.766)" pers-center="0,0" pers-size="0,0" pers-start="0,0" pers-end="0,0" locked="0" mesh="" flag=""/>
            <path id="shapePath1" d="M500.469,93.8966 C500.469,182.16 500.469,286.385 500.469,405.634 C500.469,458.216 460.093,499.531 406.572,499.531 C302.347,499.531 198.122,499.531 93.8966,499.531 C52.5824,499.531 18.7793,474.178 4.69485,435.68 C1.87805,428.169 0.939316,420.657 1.52588e-05,413.145 C1.52588e-05,304.225 1.52588e-05,195.305 1.52588e-05,87.3243 C1.52588e-05,85.4469 0.939316,84.507 0.939316,82.6295 C6.57289,45.0709 27.2302,19.7192 61.9721,6.5735 C69.4837,3.75613 78.8734,2.8174 87.3237,7.62939e-05 C196.244,7.62939e-05 305.164,7.62939e-05 413.145,7.62939e-05 C414.084,7.62939e-05 415.962,0.939926 416.901,0.939926 C465.727,6.5735 500.469,45.0709 500.469,93.8966 M462.91,402.817 C462.91,300.469 462.91,198.123 462.91,95.7753 C462.91,91.0804 462.91,86.3856 461.971,81.6908 C456.338,54.4605 433.802,37.5587 405.633,37.5587 C353.99,37.5587 303.286,37.5587 251.643,37.5587 C200.939,37.5587 150.235,37.5587 98.5914,37.5587 C93.8966,37.5587 88.263,37.5587 83.5682,38.4986 C56.338,44.1321 39.4367,66.6675 39.4367,95.7753 C39.4367,198.123 39.4367,300.469 39.4367,402.817 C39.4367,407.511 39.4367,412.206 40.3754,416.901 C46.0096,444.131 68.5444,461.033 96.7134,461.033 C199.061,461.033 301.408,461.033 403.755,461.033 C408.45,461.033 413.145,461.033 417.84,460.093 C445.07,454.46 462.91,431.924 462.91,402.817 Z" style="stroke:none;fill-rule:evenodd;fill:#1d98cd;fill-opacity:1;"/>
        </g>
        <g id="Shape2">
            <desc shapeID="2" type="0" basicInfo-basicType="0" basicInfo-roundedRectRadius="12" basicInfo-polygonSides="6" basicInfo-starPoints="5" bounding="rect(-16.05,-16,32.1001,32)" text="" font-familyName="" font-pixelSize="20" font-bold="0" font-underline="0" font-alignment="1" strokeStyle="0" markerStart="0" markerEnd="0" shadowEnabled="0" shadowOffsetX="0" shadowOffsetY="2" shadowBlur="4" shadowOpacity="160" blurEnabled="0" blurRadius="4" transform="matrix(9.38966,0,0,9.38966,252.113,249.766)" pers-center="0,0" pers-size="0,0" pers-start="0,0" pers-end="0,0" locked="0" mesh="" flag=""/>
            <path id="shapePath2" d="M343.662,400 C241.314,400 261.032,400 158.685,400 C130.516,400 107.981,383.099 102.348,355.868 C101.408,351.174 101.408,346.479 101.408,341.784 C101.408,239.436 101.408,260.094 101.408,157.747 C101.408,128.639 118.31,106.104 145.54,100.47 C150.235,99.5313 155.869,99.5313 160.564,99.5313 C211.267,99.5313 200.939,99.5313 252.582,99.5313 C304.225,99.5313 293.896,99.5313 345.539,99.5313 C373.708,99.5313 396.244,116.432 401.877,143.662 C402.817,148.357 402.817,153.052 402.817,157.747 C402.817,260.094 402.817,239.436 402.817,341.784 C402.817,370.892 385.915,393.427 358.685,399.061 C353.052,400 347.417,400 343.662,400 Z" style="stroke:none;fill-rule:evenodd;fill:#1d98cd;fill-opacity:1;"/>
        </g>
    </g>
</svg>
