<?xml version="1.0"?>
<svg version="1.1" xmlns="http://www.w3.org/2000/svg" xmlns:xlink="http://www.w3.org/1999/xlink" width="500" height="500">
    <desc iVinci="yes" version="4.6" gridStep="20" showGrid="no" snapToGrid="no" codePlatform="0"/>
    <g id="Layer1" name="Layer 1" opacity="1">
        <g id="Shape1">
            <desc shapeID="1" type="0" basicInfo-basicType="0" basicInfo-roundedRectRadius="12" basicInfo-polygonSides="6" basicInfo-starPoints="5" bounding="rect(-20.8,-20.8499,41.5999,41.7)" text="" font-familyName="" font-pixelSize="20" font-bold="0" font-underline="0" font-alignment="1" strokeStyle="0" markerStart="0" markerEnd="0" shadowEnabled="0" shadowOffsetX="0" shadowOffsetY="2" shadowBlur="4" shadowOpacity="160" blurEnabled="0" blurRadius="4" transform="matrix(12.0048,0,0,12.0048,249.7,250.299)" pers-center="0,0" pers-size="0,0" pers-start="0,0" pers-end="0,0" locked="0" mesh="" flag=""/>
            <path id="shapePath1" d="M499.399,94.8379 C499.399,183.673 499.399,286.914 499.399,406.962 C499.399,459.783 458.582,500.6 405.761,500.6 C301.32,500.6 198.079,500.6 93.6371,500.6 C52.8213,500.6 18.0072,475.388 4.80219,436.974 C2.40111,429.771 1.20093,421.367 0,414.164 C0,304.921 0,196.878 0,87.6353 C0,86.4352 1.20093,84.0333 1.20093,82.8331 C7.20332,45.6187 27.6108,20.4089 62.4249,6.00232 C70.8284,2.40175 79.2319,2.40175 87.6347,-9.15527e-05 C196.878,-9.15527e-05 304.921,-9.15527e-05 414.164,-9.15527e-05 C415.365,-9.15527e-05 416.566,1.20015 417.766,1.20015 C464.585,7.2025 498.198,45.6187 499.399,94.8379 M200.48,201.681 C176.703,201.681 149.204,201.681 115.917,201.681 C104.327,201.681 93.6371,214.142 93.6371,224.11 C93.6371,228.91 93.6371,269.195 93.6371,275.659 C93.6371,288.535 104.996,298.919 116.891,298.919 C148.187,298.919 191.067,298.919 200.48,298.919 C200.48,324.631 200.48,333.882 200.48,382.368 C200.48,396.098 213.385,405.762 222.981,405.762 C230.15,405.762 260.875,405.762 273.612,405.762 C288.127,405.762 296.518,391.13 296.518,383.669 C296.518,351.902 296.518,303.448 296.518,298.919 C329.592,298.919 350.148,298.919 379.607,298.919 C389.407,299.237 403.361,290.225 403.361,275.659 C403.361,265.501 403.361,241.382 403.361,224.11 C403.361,215.205 394.312,201.681 379.607,201.681 C361.094,201.681 321.842,201.681 296.518,201.681 C296.518,177.508 296.518,147.694 296.518,118.511 C296.518,108.424 287.392,96.0381 274.768,96.0381 C252.132,96.0381 241.377,96.0381 222.981,96.0381 C212.271,96.0381 200.48,106.614 200.48,118.511 C200.48,145.631 200.48,172.639 200.48,201.681 Z" style="stroke:none;fill-rule:evenodd;fill:#000000;fill-opacity:1;"/>
        </g>
    </g>
</svg>
