<?xml version="1.0"?>
<svg version="1.1" xmlns="http://www.w3.org/2000/svg" xmlns:xlink="http://www.w3.org/1999/xlink" width="500" height="500">
    <desc iVinci="yes" version="4.6" gridStep="20" showGrid="no" snapToGrid="no" codePlatform="0"/>
    <g id="Layer1" name="Layer 1" opacity="1">
        <g id="Shape1">
            <desc shapeID="1" type="0" basicInfo-basicType="0" basicInfo-roundedRectRadius="12" basicInfo-polygonSides="6" basicInfo-starPoints="5" bounding="rect(-53.4808,-41.2609,106.961,82.5218)" text="" font-familyName="" font-pixelSize="20" font-bold="0" font-underline="0" font-alignment="1" strokeStyle="0" markerStart="0" markerEnd="0" shadowEnabled="0" shadowOffsetX="0" shadowOffsetY="2" shadowBlur="4" shadowOpacity="160" blurEnabled="0" blurRadius="4" transform="matrix(4.66997,0,0,4.66997,249.753,250)" pers-center="0,0" pers-size="0,0" pers-start="0,0" pers-end="0,0" locked="0" mesh="" flag=""/>
            <path id="shapePath1" d="M485.569,384.779 C517.792,293.248 493.508,191.91 419.255,123.728 C333.328,44.3387 205.838,34.9988 107.768,101.779 C14.369,164.824 -24.8587,291.847 16.2369,396.454 C24.6428,417.936 37.2518,440.352 57.3327,442.687 C71.8095,442.687 420.656,442.687 442.605,442.687 C463.153,442.687 421.123,442.687 442.605,442.687 C451.011,442.687 458.016,438.484 463.62,431.479 C463.62,431.479 464.087,431.012 464.087,431.012 C464.087,430.545 464.554,430.545 464.554,430.078 C472.96,419.337 478.564,403.459 483.701,390.85 C484.635,388.515 485.102,386.647 485.569,384.779 M457.549,316.131 C458.016,334.344 439.803,324.537 433.265,329.674 C420.656,325.938 404.311,332.009 402.443,316.598 C400.575,300.253 415.986,299.786 426.727,301.187 C437.935,302.121 456.615,296.984 457.549,316.131 M382.829,237.675 C388.9,221.331 404.778,213.859 420.656,209.189 C429.062,206.854 434.666,215.727 433.732,220.397 C429.062,238.142 413.184,244.68 398.707,251.685 C388.433,251.218 379.56,247.015 382.829,237.675 M321.653,171.362 C325.389,155.484 330.526,138.672 348.271,132.601 C356.21,129.799 360.413,138.205 359.946,144.743 C358.078,162.022 351.073,176.032 335.196,183.504 C326.79,182.57 319.785,178.834 321.653,171.362 M249.735,107.383 C264.212,106.916 265.146,122.327 265.146,134.002 C265.146,145.677 264.679,161.088 250.669,161.555 C233.39,162.489 238.994,145.21 237.126,134.936 C238.994,124.662 233.39,107.85 249.735,107.383 M236.192,301.187 C276.354,297.918 312.78,284.842 361.814,271.299 C339.399,316.131 314.648,346.953 302.973,386.18 C295.034,414.2 266.547,423.54 237.126,417.469 C207.239,411.398 190.427,391.784 189.026,361.897 C187.625,330.141 205.371,303.522 236.192,301.187 M154.001,133.068 C168.478,141.474 176.417,155.017 176.417,172.763 C176.417,180.702 169.879,185.372 163.341,182.57 C146.996,175.098 140.458,159.687 139.057,143.342 C139.057,135.403 146.529,133.535 154.001,133.068 M82.5505,209.656 C97.4943,215.26 111.971,222.732 117.108,238.609 C113.372,250.284 107.768,255.421 98.4283,250.284 C86.2864,243.279 69.9415,239.543 67.6066,222.265 C66.2056,213.392 72.2765,205.92 82.5505,209.656 M40.5208,313.329 C43.3227,296.984 60.6016,298.385 73.6775,298.852 C85.8194,298.852 97.9613,300.253 99.3623,316.131 C93.2914,333.877 78.8145,331.075 65.7386,330.141 C54.0637,329.674 37.7188,329.207 40.5208,313.329 Z" style="stroke:none;fill-rule:evenodd;fill:url(#linearGradientFill1);fill-opacity:1;"/><defs><linearGradient id="linearGradientFill1" gradientUnits="userSpaceOnUse" x1="249.916" y1="442.633" x2="249.916" y2="57.2517"><stop offset="0" stop-color="#000000" stop-opacity="1"/><stop offset="1" stop-color="#000000" stop-opacity="1"/></linearGradient></defs>
        </g>
        <g id="Shape2">
            <desc shapeID="2" type="0" basicInfo-basicType="0" basicInfo-roundedRectRadius="12" basicInfo-polygonSides="6" basicInfo-starPoints="5" bounding="rect(-5.70178,-5.45781,11.4036,10.9157)" text="" font-familyName="" font-pixelSize="20" font-bold="0" font-underline="0" font-alignment="1" strokeStyle="0" markerStart="0" markerEnd="0" shadowEnabled="0" shadowOffsetX="0" shadowOffsetY="2" shadowBlur="4" shadowOpacity="160" blurEnabled="0" blurRadius="4" transform="matrix(4.66997,0,0,4.66997,243.189,355.612)" pers-center="0,0" pers-size="0,0" pers-start="0,0" pers-end="0,0" locked="0" mesh="" flag=""/>
            <path id="shapePath2" d="M244.598,381.043 C260.009,380.576 267.014,370.302 269.816,354.892 C267.481,339.014 258.608,329.674 240.862,330.141 C225.451,330.608 216.111,340.415 216.578,354.892 C217.045,371.236 226.852,381.977 244.598,381.043 Z" style="stroke:none;fill-rule:evenodd;fill:url(#linearGradientFill2);fill-opacity:1;"/><defs><linearGradient id="linearGradientFill2" gradientUnits="userSpaceOnUse" x1="243.215" y1="381.018" x2="243.215" y2="330.025"><stop offset="0" stop-color="#000000" stop-opacity="1"/><stop offset="1" stop-color="#000000" stop-opacity="1"/></linearGradient></defs>
        </g>
    </g>
</svg>
