<?xml version="1.0"?>
<svg version="1.1" xmlns="http://www.w3.org/2000/svg" xmlns:xlink="http://www.w3.org/1999/xlink" width="500" height="500">
    <desc iVinci="yes" version="4.6" gridStep="20" showGrid="no" snapToGrid="no" codePlatform="0"/>
    <g id="Layer1" name="Layer 1" opacity="1">
        <g id="Shape1">
            <desc shapeID="1" type="0" basicInfo-basicType="0" basicInfo-roundedRectRadius="12" basicInfo-polygonSides="6" basicInfo-starPoints="5" bounding="rect(-15.6032,-15.172,31.2065,30.3441)" text="" font-familyName="" font-pixelSize="20" font-bold="0" font-underline="0" font-alignment="1" strokeStyle="0" markerStart="0" markerEnd="0" shadowEnabled="0" shadowOffsetX="0" shadowOffsetY="2" shadowBlur="4" shadowOpacity="160" blurEnabled="0" blurRadius="4" transform="matrix(16.0221,0,0,16.0221,249.996,249.931)" pers-center="0,0" pers-size="0,0" pers-start="0,0" pers-end="0,0" locked="0" mesh="" flag=""/>
            <path id="shapePath1" d="M499.889,247.496 C499.889,310.462 499.889,373.429 499.889,436.395 C499.889,481.097 488.833,492.633 445.894,492.793 C343.513,492.793 358.254,501.766 356.972,406.754 C356.972,396.021 356.972,385.285 356.972,374.71 C358.969,366.249 356.652,357.35 350.784,350.937 C344.916,344.522 336.255,341.426 327.651,342.666 C276.541,342.666 225.43,342.666 174.32,342.666 C150.928,342.666 143.077,354.683 143.397,376.312 C143.397,404.832 143.397,433.352 143.397,461.871 C144.872,470.281 142.167,478.885 136.145,484.938 C130.123,490.994 121.534,493.743 113.116,492.314 L109.591,492.314 C7.20964,493.274 -1.44241,498.561 0.159897,389.612 C1.76219,280.661 0.159897,170.91 0.159897,61.6401 C0.159897,15.1757 8.17093,7.00424 53.834,6.84386 C184.574,6.84386 315.261,6.84386 445.894,6.84386 C491.717,6.84386 499.568,15.0153 499.728,61.3193 C500.209,123.964 499.889,185.651 499.889,247.496 M187.458,50.7442 C90.3643,52.0253 101.099,36.4843 99.9776,141.75 C99.9776,169.308 110.873,179.883 138.11,179.402 C196.27,178.44 254.27,179.402 312.43,179.402 C409.845,178.279 399.11,195.424 399.751,84.8713 C401.547,75.3778 398.497,65.6143 391.617,58.8296 C384.737,52.0468 374.93,49.1346 365.464,51.065 C327.491,51.3857 208.768,50.5838 187.458,50.7442 Z" style="stroke:#000000;stroke-opacity:1;stroke-width:0;stroke-linejoin:bevel;stroke-miterlimit:2;stroke-linecap:square;fill-rule:nonzero;fill:#000000;fill-opacity:1;"/>
        </g>
        <g id="Shape2">
            <desc shapeID="2" type="0" basicInfo-basicType="0" basicInfo-roundedRectRadius="12" basicInfo-polygonSides="6" basicInfo-starPoints="5" bounding="rect(-2.68503,-2.24161,5.37006,4.48316)" text="" font-familyName="" font-pixelSize="20" font-bold="0" font-underline="0" font-alignment="1" strokeStyle="0" markerStart="0" markerEnd="0" shadowEnabled="0" shadowOffsetX="0" shadowOffsetY="2" shadowBlur="4" shadowOpacity="160" blurEnabled="0" blurRadius="4" transform="matrix(16.0221,0,0,16.0221,221.505,457.242)" pers-center="0,0" pers-size="0,0" pers-start="0,0" pers-end="0,0" locked="0" mesh="" flag=""/>
            <path id="shapePath2" d="M223.188,492.793 C197.552,494.397 178.646,489.429 178.486,457.545 C178.325,425.661 197.071,421.656 222.546,421.335 C248.022,421.014 264.524,429.827 264.524,459.788 C264.524,489.75 246.74,494.715 223.188,492.793 Z" style="stroke:#000000;stroke-opacity:1;stroke-width:0;stroke-linejoin:bevel;stroke-miterlimit:2;stroke-linecap:square;fill-rule:nonzero;fill:#000000;fill-opacity:1;"/>
        </g>
    </g>
</svg>
