<?xml version="1.0"?>
<svg version="1.1" xmlns="http://www.w3.org/2000/svg" xmlns:xlink="http://www.w3.org/1999/xlink" width="500" height="500">
    <desc iVinci="yes" version="4.6" gridStep="20" showGrid="no" snapToGrid="no" codePlatform="0"/>
    <g id="Layer1" name="Layer 1" opacity="1">
        <g id="Shape1">
            <desc shapeID="1" type="0" basicInfo-basicType="0" basicInfo-roundedRectRadius="12" basicInfo-polygonSides="6" basicInfo-starPoints="5" bounding="rect(-37.2554,-37.4009,74.5108,74.8018)" text="" font-familyName="" font-pixelSize="20" font-bold="0" font-underline="0" font-alignment="1" strokeStyle="0" markerStart="0" markerEnd="0" shadowEnabled="0" shadowOffsetX="0" shadowOffsetY="2" shadowBlur="4" shadowOpacity="160" blurEnabled="0" blurRadius="4" transform="matrix(5.37298,0,0,5.37298,218.695,246.564)" pers-center="0,0" pers-size="0,0" pers-start="0,0" pers-end="0,0" locked="0" mesh="" flag=""/>
            <path id="shapePath1" d="M239.41,246.569 C237.798,217.555 238.873,198.75 233.5,154.154 C228.664,117.618 203.949,130.513 202.337,154.154 C200.725,174.571 195.352,233.674 201.799,262.151 C204.486,274.509 230.813,292.24 252.843,305.135 C257.141,293.314 263.051,282.031 270.036,272.36 C255.529,262.151 241.559,252.479 239.41,246.569 M221.142,45.6196 C112.608,44.5449 20.7297,133.199 18.5805,242.808 C15.894,352.954 106.697,446.444 217.381,447.519 C240.485,447.519 262.514,444.295 282.931,436.773 C272.723,426.027 264.126,414.206 257.678,400.237 C256.604,400.774 254.992,400.774 253.917,401.311 C251.231,401.849 248.544,402.386 244.783,402.923 C242.097,401.849 236.724,401.849 235.649,399.162 C224.903,379.282 215.232,376.595 203.411,398.087 C201.799,401.311 191.591,401.849 185.68,400.774 C129.264,390.565 75.5342,337.373 64.7882,280.419 C63.7136,274.509 63.1762,264.3 66.4001,262.688 C85.2055,251.405 88.9667,242.271 66.9374,229.913 C63.7136,228.301 63.1762,218.092 64.2509,212.182 C74.4595,155.766 127.652,102.573 184.606,90.7528 C194.277,88.6034 201.799,88.6034 207.172,99.3494 C214.157,112.782 223.829,112.245 230.276,99.8866 C237.261,87.5288 246.395,88.6034 256.604,91.8271 C318.393,109.558 357.079,149.856 373.735,211.645 C374.272,214.331 374.809,216.48 374.809,219.167 C390.391,219.704 404.898,222.391 418.868,227.764 C410.271,127.826 324.303,46.6942 221.142,45.6196 Z" style="stroke:#323232;stroke-opacity:1;stroke-width:1;stroke-linejoin:miter;stroke-miterlimit:2;stroke-linecap:round;fill-rule:nonzero;fill:#000000;fill-opacity:1;"/>
        </g>
        <g id="Shape2">
            <desc shapeID="2" type="0" basicInfo-basicType="0" basicInfo-roundedRectRadius="12" basicInfo-polygonSides="6" basicInfo-starPoints="5" bounding="rect(-19.1505,-19.15,38.3009,38.2999)" text="" font-familyName="" font-pixelSize="20" font-bold="0" font-underline="0" font-alignment="1" strokeStyle="0" markerStart="0" markerEnd="0" shadowEnabled="0" shadowOffsetX="0" shadowOffsetY="2" shadowBlur="4" shadowOpacity="160" blurEnabled="0" blurRadius="4" transform="matrix(5.37298,0,0,5.37298,372.931,346.775)" pers-center="0,0" pers-size="0,0" pers-start="0,0" pers-end="0,0" locked="0" mesh="" flag=""/>
            <path id="shapePath2" d="M379.645,356.715 L379.645,381.968 C383.944,380.894 387.167,379.282 389.317,377.133 C391.466,374.983 392.54,372.297 392.54,369.61 C392.54,366.924 391.466,364.775 389.854,362.626 C387.705,360.476 384.481,358.327 379.645,356.715 M359.228,314.269 C359.228,316.418 359.765,318.567 361.377,320.179 C362.452,321.791 365.138,323.403 368.362,324.478 L368.362,304.06 C365.138,305.135 362.452,306.746 361.377,308.359 C360.302,309.97 359.228,312.119 359.228,314.269 M373.198,243.883 C316.781,243.883 270.574,289.553 270.036,345.97 C270.036,403.46 315.169,449.668 372.123,449.668 C429.614,449.668 475.822,404.535 475.822,347.044 C476.359,290.09 430.151,244.42 373.198,243.883 M418.331,380.894 C415.644,385.729 412.42,389.491 408.659,392.714 C404.898,395.938 400.6,398.087 395.764,399.699 C391.466,401.311 386.093,401.849 379.645,402.386 L379.645,417.43 L368.362,417.43 L368.362,402.386 C360.84,401.849 354.392,400.237 349.556,398.625 C344.721,397.013 340.422,394.326 337.198,391.102 C333.438,387.879 330.751,384.655 329.139,380.894 C326.99,377.133 325.915,372.834 324.841,367.461 L356.541,363.7 C357.616,369.073 358.69,372.834 360.302,374.983 C361.914,377.133 364.601,379.282 368.362,380.894 L368.362,352.954 C357.616,350.268 350.094,347.581 345.795,345.432 C341.497,343.283 337.736,340.059 334.512,335.224 C331.288,330.388 329.676,324.478 329.676,318.03 C329.676,308.896 332.9,300.836 339.348,294.389 C345.795,287.941 355.467,284.717 368.362,284.18 L368.362,276.121 L379.645,276.121 L379.645,284.18 C391.466,284.717 400.6,287.941 406.51,292.777 C412.958,297.613 416.719,304.06 418.868,312.657 L389.854,317.492 C388.242,313.732 387.167,311.045 386.093,309.97 C385.018,308.359 382.869,307.284 380.182,305.672 L380.182,328.238 C396.301,332.537 407.047,336.835 411.883,341.671 C418.868,348.118 422.629,356.178 422.629,365.849 C422.092,371.222 420.48,376.058 418.331,380.894 Z" style="stroke:#323232;stroke-opacity:1;stroke-width:1;stroke-linejoin:miter;stroke-miterlimit:2;stroke-linecap:round;fill-rule:nonzero;fill:#000000;fill-opacity:1;"/>
        </g>
    </g>
</svg>
