<?xml version="1.0"?>
<svg version="1.1" xmlns="http://www.w3.org/2000/svg" xmlns:xlink="http://www.w3.org/1999/xlink" width="500" height="500">
    <desc iVinci="yes" version="4.6" gridStep="20" showGrid="yes" snapToGrid="no" codePlatform="0"/>
    <g id="Layer1" name="Layer 1" opacity="1">
        <g id="Shape1">
            <desc shapeID="1" type="0" basicInfo-basicType="0" basicInfo-roundedRectRadius="12" basicInfo-polygonSides="6" basicInfo-starPoints="5" bounding="rect(-17,-14.9955,34,29.9911)" text="" font-familyName="" font-pixelSize="20" font-bold="0" font-underline="0" font-alignment="1" strokeStyle="0" markerStart="0" markerEnd="0" shadowEnabled="0" shadowOffsetX="0" shadowOffsetY="2" shadowBlur="4" shadowOpacity="160" blurEnabled="0" blurRadius="4" transform="matrix(11.4256,0,0,11.4256,242.939,242.802)" pers-center="0,0" pers-size="0,0" pers-start="0,0" pers-end="0,0" locked="0" mesh="" flag=""/>
            <path id="shapePath1" d="M198.379,263.317 L183.526,263.317 C182.384,259.89 181.241,256.462 180.098,254.177 C165.245,215.33 150.392,176.482 135.538,136.493 C133.254,130.78 132.111,123.925 124.113,123.925 C118.4,123.925 116.115,129.638 113.83,136.493 C104.69,160.486 95.5485,184.48 86.4081,208.475 C79.553,226.755 72.6972,246.178 65.8421,263.317 C65.8421,263.317 52.1313,263.317 48.7037,263.317 C57.8441,296.451 93.2639,322.731 136.681,317.018 C166.388,313.59 196.095,288.454 198.379,263.317 M86.4081,262.175 C98.9767,227.898 111.545,194.763 125.256,158.202 C138.966,193.621 166.388,262.175 165.245,262.175 C141.251,262.175 111.545,262.175 86.4081,262.175 M124.113,115.926 C129.825,115.926 134.396,113.641 138.966,109.071 C142.394,105.644 146.964,102.216 152.677,99.9313 C164.102,95.3607 175.528,91.9325 186.953,89.6479 C194.952,88.5057 202.95,89.6479 209.805,94.2185 C212.09,96.503 214.375,99.9313 216.661,104.5 C222.373,117.07 228.086,126.209 245.225,126.209 C255.507,126.209 262.363,122.783 268.076,113.641 C269.218,111.357 270.361,107.929 271.503,105.644 C277.216,90.7902 289.784,87.362 302.353,89.6479 C313.778,91.9325 325.204,95.3607 336.63,99.9313 C341.199,102.216 345.77,105.644 350.34,109.071 C354.91,113.641 359.481,115.926 365.194,115.926 C374.334,115.926 382.332,106.786 381.189,97.6453 C380.047,88.5057 370.906,81.6492 361.766,82.7928 C358.338,82.7928 354.91,85.0774 351.483,86.2197 C322.919,73.6518 295.497,63.3684 265.791,80.5069 C249.794,73.6518 237.227,73.6518 224.659,80.5069 C194.952,63.3684 167.53,74.7941 138.966,86.2197 C135.538,85.0774 132.111,83.9351 128.683,82.7928 C119.543,81.6492 110.402,88.5057 109.259,97.6453 C106.974,106.786 116.115,115.926 124.113,115.926 M421.179,263.317 C414.324,246.178 407.469,226.755 400.613,208.475 C391.472,184.48 382.332,160.486 373.192,136.493 C370.906,130.78 369.763,123.925 361.766,123.925 C356.053,123.925 353.768,130.78 351.483,136.493 C336.63,175.34 321.776,215.33 306.923,254.177 C305.78,256.462 304.638,261.032 303.495,263.317 L288.642,263.317 C290.927,288.454 320.633,313.59 349.198,317.018 C392.615,322.731 428.035,296.451 437.175,263.317 C434.89,263.317 421.179,263.317 421.179,263.317 M321.776,262.175 C320.633,262.175 349.198,193.621 361.766,158.202 C375.476,193.621 388.045,226.755 400.613,262.175 C375.476,262.175 346.912,262.175 321.776,262.175 M316.064,382.144 C308.066,382.144 298.925,382.144 290.927,382.144 C286.357,363.863 278.358,350.151 261.22,342.154 C261.22,336.441 261.22,195.905 261.22,182.195 C261.22,174.198 262.363,167.341 266.933,161.629 C270.361,157.059 272.646,149.061 274.931,143.348 C256.65,143.348 214.375,143.348 214.375,143.348 C216.661,149.061 218.946,158.202 222.373,161.629 C228.086,168.485 228.086,174.198 228.086,182.195 C228.086,185.623 228.086,336.441 228.086,342.154 C210.948,349.009 202.95,363.863 198.379,382.144 C189.239,382.144 181.241,382.144 173.243,382.144 C160.675,383.286 154.962,388.999 154.962,400.424 C154.962,404.995 154.962,414.136 158.389,414.136 L332.059,414.136 C335.487,414.136 335.487,403.853 335.487,400.424 C334.344,388.999 327.489,383.286 316.064,382.144 Z" style="stroke:#323232;stroke-opacity:1;stroke-width:1;stroke-linejoin:miter;stroke-miterlimit:2;stroke-linecap:round;fill-rule:nonzero;fill:#000000;fill-opacity:1;"/>
        </g>
    </g>
</svg>
