<?xml version="1.0"?>
<svg version="1.1" xmlns="http://www.w3.org/2000/svg" xmlns:xlink="http://www.w3.org/1999/xlink" width="500" height="500">
    <desc iVinci="yes" version="4.6" gridStep="20" showGrid="yes" snapToGrid="no" codePlatform="0"/>
    <g id="Layer1" name="Layer 1" opacity="1">
        <g id="Shape1">
            <desc shapeID="1" type="0" basicInfo-basicType="0" basicInfo-roundedRectRadius="12" basicInfo-polygonSides="6" basicInfo-starPoints="5" bounding="rect(-16.7181,-14.5584,33.4361,29.1168)" text="" font-familyName="" font-pixelSize="20" font-bold="0" font-underline="0" font-alignment="1" strokeStyle="0" markerStart="0" markerEnd="0" shadowEnabled="0" shadowOffsetX="0" shadowOffsetY="2" shadowBlur="4" shadowOpacity="160" blurEnabled="0" blurRadius="4" transform="matrix(11.67,0,0,11.67,247.233,241.81)" pers-center="0,0" pers-size="0,0" pers-start="0,0" pers-end="0,0" locked="0" mesh="" flag=""/>
            <path id="shapePath1" d="M159.497,369.847 C171.167,354.675 182.837,340.672 194.507,325.5 C219.014,346.507 247.022,357.01 279.698,354.675 C305.372,352.342 327.545,341.838 347.384,324.333 C381.227,291.658 391.73,241.477 371.891,197.13 C352.052,152.785 306.539,129.445 264.527,131.779 C214.346,135.28 174.668,169.124 164.165,213.469 C167.666,213.469 170,213.469 172.335,213.469 C184.005,213.469 195.675,213.469 207.344,213.469 C210.845,213.469 214.346,213.469 217.847,215.803 C220.181,220.47 216.68,222.805 214.346,226.305 C203.843,239.143 193.34,251.98 182.837,264.817 C171.167,278.82 159.497,293.992 147.827,307.995 C144.326,311.497 141.992,316.165 136.157,317.332 C131.49,317.332 129.156,314.998 126.821,311.497 C103.481,282.322 78.9748,253.147 55.6349,222.805 C54.4675,220.47 53.3008,218.137 52.1333,216.97 C54.4675,211.135 57.9683,211.135 62.6366,211.135 C74.3065,211.135 85.9765,211.135 98.8132,211.135 C101.147,211.135 104.648,211.135 108.15,211.135 C117.486,165.622 139.658,129.445 177.002,102.604 C209.678,79.264 247.022,69.9288 286.7,72.2623 C355.553,76.9306 419.737,125.944 437.242,200.632 C455.915,275.32 422.072,351.175 354.386,388.518 C287.867,427.03 208.511,415.36 159.497,369.847 Z" style="stroke:none;fill-rule:nonzero;fill:#000000;fill-opacity:1;"/>
        </g>
    </g>
</svg>
