<?xml version="1.0"?>
<svg version="1.1" xmlns="http://www.w3.org/2000/svg" xmlns:xlink="http://www.w3.org/1999/xlink" width="500" height="500">
    <desc iVinci="yes" version="4.6" gridStep="20" showGrid="no" snapToGrid="no" codePlatform="0"/>
    <g id="Layer1" name="Layer 1" opacity="1">
        <g id="Shape1">
            <desc shapeID="1" type="0" basicInfo-basicType="0" basicInfo-roundedRectRadius="12" basicInfo-polygonSides="6" basicInfo-starPoints="5" bounding="rect(-41.3837,-41.5066,82.7673,83.0133)" text="" font-familyName="" font-pixelSize="20" font-bold="0" font-underline="0" font-alignment="1" strokeStyle="0" markerStart="0" markerEnd="0" shadowEnabled="0" shadowOffsetX="0" shadowOffsetY="2" shadowBlur="4" shadowOpacity="160" blurEnabled="0" blurRadius="4" transform="matrix(6.03206,0,0,6.03206,249.629,250.37)" pers-center="0,0" pers-size="0,0" pers-start="0,0" pers-end="0,0" locked="0" mesh="" flag=""/>
            <path id="shapePath1" d="M442.813,385.468 C410.24,383.658 377.667,415.025 384.906,446.392 C389.128,465.694 383.699,475.346 367.413,481.981 C354.746,487.41 341.475,492.235 328.807,497.664 C313.727,504.299 304.076,500.077 293.822,486.203 C272.106,457.249 228.072,456.646 207.563,484.394 C196.705,499.474 185.848,504.299 169.561,497.061 C158.101,492.235 146.037,488.013 134.576,483.187 C118.892,476.552 111.653,466.901 114.066,447.598 C118.892,411.406 89.9382,382.452 53.7458,386.674 C34.4435,389.087 24.7917,383.055 18.1566,366.769 C13.3314,354.101 4.88632,341.434 3.67947,328.163 C2.47336,317.909 6.69551,304.035 13.3314,296.797 C42.2848,268.446 44.6978,230.444 14.5375,206.919 C0.663452,196.665 -3.5587,187.013 3.07642,171.933 C8.50542,159.266 13.3314,145.995 18.7596,133.328 C25.3955,116.438 35.0466,111.613 54.3489,115.232 C86.3191,121.264 121.908,88.0876 114.669,56.7209 C106.828,23.5446 130.353,18.7189 149.656,10.8773 C168.958,3.03561 188.864,-12.0445 207.563,17.5126 C223.246,42.244 273.916,44.0536 288.996,19.9254 C304.679,-4.20284 320.966,-0.583618 342.078,7.25806 C381.89,22.3382 382.493,22.3382 381.89,63.9594 C381.89,85.6748 419.288,122.47 440.4,115.232 C469.958,105.581 477.8,122.47 486.244,142.376 C489.26,150.218 492.276,158.059 495.292,165.901 C502.531,183.394 500.721,195.458 482.625,208.126 C456.084,226.222 455.481,273.875 482.625,291.368 C507.96,308.258 498.308,326.354 491.07,345.656 C475.99,385.468 472.974,387.278 442.813,385.468 M390.335,252.763 C390.938,174.346 329.41,111.613 250.994,111.009 C171.974,110.406 110.447,171.33 109.844,250.35 C109.24,329.37 170.165,392.103 248.582,392.706 C326.394,392.706 389.731,330.576 390.335,252.763 Z" style="stroke:none;fill-rule:nonzero;fill:url(#linearGradientFill1);fill-opacity:1;"/><defs><linearGradient id="linearGradientFill1" gradientUnits="userSpaceOnUse" x1="249.4" y1="501.166" x2="249.4" y2="1.61929"><stop offset="0" stop-color="#000000" stop-opacity="1"/><stop offset="1" stop-color="#000000" stop-opacity="1"/></linearGradient></defs>
        </g>
        <g id="Shape2">
            <desc shapeID="2" type="0" basicInfo-basicType="0" basicInfo-roundedRectRadius="12" basicInfo-polygonSides="6" basicInfo-starPoints="5" bounding="rect(-17.1799,-17.4832,34.3597,34.9664)" text="" font-familyName="" font-pixelSize="20" font-bold="0" font-underline="0" font-alignment="1" strokeStyle="0" markerStart="0" markerEnd="0" shadowEnabled="0" shadowOffsetX="0" shadowOffsetY="2" shadowBlur="4" shadowOpacity="160" blurEnabled="0" blurRadius="4" transform="matrix(6.03206,0,0,6.03206,248.1,249.905)" pers-center="0,0" pers-size="0,0" pers-start="0,0" pers-end="0,0" locked="0" mesh="" flag=""/>
            <path id="shapePath2" d="M301.06,153.234 C290.202,164.695 281.758,175.552 271.503,184.601 C254.01,199.681 257.63,211.745 273.313,225.015 C287.186,237.683 299.25,252.763 316.743,230.444 C317.346,229.238 318.553,228.635 319.759,227.428 C330.617,218.983 340.872,211.142 351.73,203.3 C349.92,218.983 352.333,236.476 346.301,250.35 C336.649,275.685 319.156,299.21 290.202,300.416 C258.836,301.622 239.533,317.909 219.024,337.815 C209.976,346.26 191.277,358.324 186.451,354.705 C170.165,343.847 156.291,327.56 144.83,310.671 C142.417,307.051 152.672,291.368 159.91,284.129 C182.229,262.414 200.928,241.905 202.737,206.919 C204.547,173.743 261.852,138.154 291.409,145.392 C295.028,145.392 296.838,149.011 301.06,153.234 Z" style="stroke:none;fill-rule:nonzero;fill:url(#linearGradientFill2);fill-opacity:1;"/><defs><linearGradient id="linearGradientFill2" gradientUnits="userSpaceOnUse" x1="248.511" y1="354.721" x2="248.511" y2="143.884"><stop offset="0" stop-color="#000000" stop-opacity="1"/><stop offset="1" stop-color="#000000" stop-opacity="1"/></linearGradient></defs>
        </g>
    </g>
</svg>
