<?xml version="1.0"?>
<svg version="1.1" xmlns="http://www.w3.org/2000/svg" xmlns:xlink="http://www.w3.org/1999/xlink" width="500" height="500">
    <desc iVinci="yes" version="4.6" gridStep="20" showGrid="no" snapToGrid="no" codePlatform="0"/>
    <g id="Layer1" name="Layer 1" opacity="1">
        <g id="Shape1">
            <desc shapeID="1" type="0" basicInfo-basicType="0" basicInfo-roundedRectRadius="12" basicInfo-polygonSides="6" basicInfo-starPoints="5" bounding="rect(-37.2554,-37.4009,74.5108,74.8018)" text="" font-familyName="" font-pixelSize="20" font-bold="0" font-underline="0" font-alignment="1" strokeStyle="0" markerStart="0" markerEnd="0" shadowEnabled="0" shadowOffsetX="0" shadowOffsetY="2" shadowBlur="4" shadowOpacity="160" blurEnabled="0" blurRadius="4" transform="matrix(5.45278,0,0,5.45278,220.146,246.513)" pers-center="0,0" pers-size="0,0" pers-start="0,0" pers-end="0,0" locked="0" mesh="" flag=""/>
            <path id="shapePath1" d="M222.63,42.5839 C112.484,41.4933 19.241,131.464 17.0599,242.701 C14.3335,354.483 106.485,449.361 218.813,450.452 C242.26,450.452 264.616,447.18 285.337,439.547 C274.977,428.641 266.252,416.645 259.709,402.467 C258.618,403.013 256.982,403.013 255.892,403.558 C253.165,404.104 250.439,404.649 246.622,405.194 C243.896,404.104 238.443,404.104 237.352,401.377 C226.447,381.201 216.632,378.475 204.635,400.286 C203,403.558 192.639,404.104 186.641,403.013 C129.387,392.652 74.8594,338.67 63.9538,280.87 C62.8632,274.872 62.3181,264.512 65.5896,262.876 C84.6743,251.425 88.4913,242.156 66.1349,229.614 C62.8632,227.978 62.3181,217.618 63.4085,211.62 C73.7688,154.366 127.751,100.383 185.551,88.3874 C195.366,86.2061 203,86.2061 208.453,97.1117 C215.541,110.744 225.356,110.198 231.899,97.6568 C238.988,85.1155 248.258,86.2061 258.618,89.4777 C321.325,107.472 360.585,148.368 377.489,211.075 C378.034,213.801 378.579,215.982 378.579,218.709 C394.392,219.254 409.115,221.98 423.292,227.433 C414.568,126.011 327.868,43.6745 222.63,42.5839 M241.169,246.518 C239.533,217.073 240.624,197.988 235.171,152.73 C230.264,115.651 205.181,128.738 203.545,152.73 C201.909,173.451 196.456,233.431 203,262.331 C205.726,274.872 232.445,292.867 254.801,305.953 C259.163,293.957 265.161,282.506 272.25,272.691 C257.528,262.331 243.35,252.516 241.169,246.518 Z" style="stroke:#323232;stroke-opacity:1;stroke-width:1;stroke-linejoin:miter;stroke-miterlimit:2;stroke-linecap:round;fill-rule:nonzero;fill:#000000;fill-opacity:1;"/>
        </g>
        <g id="Shape2">
            <desc shapeID="2" type="0" basicInfo-basicType="0" basicInfo-roundedRectRadius="12" basicInfo-polygonSides="6" basicInfo-starPoints="5" bounding="rect(-19.15,-19.15,38.3,38.2999)" text="" font-familyName="" font-pixelSize="20" font-bold="0" font-underline="0" font-alignment="1" strokeStyle="0" markerStart="0" markerEnd="0" shadowEnabled="0" shadowOffsetX="0" shadowOffsetY="2" shadowBlur="4" shadowOpacity="160" blurEnabled="0" blurRadius="4" transform="matrix(5.45278,0,0,5.45278,375.035,348.212)" pers-center="0,0" pers-size="0,0" pers-start="0,0" pers-end="0,0" locked="0" mesh="" flag=""/>
            <path id="shapePath2" d="M479.456,348.485 C479.456,406.83 432.562,452.633 374.217,452.633 C316.963,452.633 270.614,405.194 270.614,347.394 C270.614,290.14 318.053,243.792 375.308,243.792 C433.107,244.337 479.456,290.685 479.456,348.485 M362.766,365.934 C358.404,360.481 354.587,356.119 350.77,351.757 C341.5,341.942 337.138,341.942 328.414,350.121 C318.053,360.481 318.053,363.753 327.868,373.568 C336.048,381.747 344.772,390.471 352.951,398.65 C364.402,410.101 371.491,409.556 380.76,396.469 C397.664,371.932 414.568,346.849 431.471,321.766 C438.56,311.406 437.469,307.589 427.654,301.046 C415.658,292.867 412.386,293.412 403.662,305.953 C390.03,325.583 376.943,344.668 362.766,365.934 Z" style="stroke:#323232;stroke-opacity:1;stroke-width:1;stroke-linejoin:miter;stroke-miterlimit:2;stroke-linecap:round;fill-rule:nonzero;fill:#000000;fill-opacity:1;"/>
        </g>
    </g>
</svg>
