<?xml version="1.0"?>
<svg version="1.1" xmlns="http://www.w3.org/2000/svg" xmlns:xlink="http://www.w3.org/1999/xlink" width="500" height="500">
    <desc iVinci="yes" version="4.6" gridStep="20" showGrid="no" snapToGrid="no" codePlatform="0"/>
    <g id="Layer1" name="Layer 1" opacity="1">
        <g id="Shape1">
            <desc shapeID="1" type="0" basicInfo-basicType="0" basicInfo-roundedRectRadius="12" basicInfo-polygonSides="6" basicInfo-starPoints="5" bounding="rect(-36.9554,-37.4009,73.9108,74.8018)" text="" font-familyName="" font-pixelSize="20" font-bold="0" font-underline="0" font-alignment="1" strokeStyle="0" markerStart="0" markerEnd="0" shadowEnabled="0" shadowOffsetX="0" shadowOffsetY="2" shadowBlur="4" shadowOpacity="160" blurEnabled="0" blurRadius="4" transform="matrix(5.29813,0,0,5.29813,211.709,246.225)" pers-center="0,0" pers-size="0,0" pers-start="0,0" pers-end="0,0" locked="0" mesh="" flag=""/>
            <path id="shapePath1" d="M233.725,246.229 C232.136,217.619 233.195,199.076 227.897,155.102 C223.129,119.074 198.758,131.79 197.168,155.102 C195.579,175.234 190.281,233.514 196.638,261.594 C199.817,275.369 231.606,295.502 254.388,307.688 L254.388,264.773 C243.792,257.355 235.315,250.998 233.725,246.229 M215.712,48.0794 C108.689,47.0197 18.0914,134.439 15.9722,242.521 C13.3232,351.132 102.861,443.32 212.003,444.38 C226.838,444.38 241.143,442.79 254.918,440.141 C254.388,438.021 254.388,435.902 254.388,434.313 L254.388,397.756 C252.269,398.285 250.149,398.815 247.5,399.345 C244.851,399.875 242.202,400.405 238.494,400.935 C235.844,399.875 230.546,399.875 229.487,397.226 C218.89,377.623 209.354,374.974 197.698,396.166 C196.109,399.345 186.042,399.875 180.214,398.815 C124.584,388.749 71.6026,336.298 61.0063,280.137 C59.9467,274.309 59.4168,264.243 62.5957,262.654 C81.1392,251.528 84.8479,242.521 63.1255,230.335 C59.9467,228.745 59.4168,218.679 60.4765,212.851 C70.5429,157.221 122.994,104.769 179.155,93.1135 C188.691,90.9941 196.109,90.9941 201.407,101.59 C208.294,114.836 217.831,114.306 224.189,102.12 C231.076,89.9347 240.083,90.9941 250.149,94.1732 C309.488,111.657 347.635,149.273 364.589,208.083 L405.385,208.083 C405.914,208.083 406.974,208.083 407.504,208.083 C390.55,118.544 310.548,49.1391 215.712,48.0794 Z" style="stroke:#323232;stroke-opacity:1;stroke-width:1;stroke-linejoin:miter;stroke-miterlimit:2;stroke-linecap:round;fill-rule:nonzero;fill:#000000;fill-opacity:1;"/>
        </g>
        <g id="Shape2">
            <desc shapeID="2" type="0" basicInfo-basicType="0" basicInfo-roundedRectRadius="12" basicInfo-polygonSides="6" basicInfo-starPoints="5" bounding="rect(-18.45,-20.9063,36.9,41.8126)" text="" font-familyName="" font-pixelSize="20" font-bold="0" font-underline="0" font-alignment="1" strokeStyle="0" markerStart="0" markerEnd="0" shadowEnabled="0" shadowOffsetX="0" shadowOffsetY="2" shadowBlur="4" shadowOpacity="160" blurEnabled="0" blurRadius="4" transform="matrix(5.29813,0,0,5.29813,380.748,335.734)" pers-center="0,0" pers-size="0,0" pers-start="0,0" pers-end="0,0" locked="0" mesh="" flag=""/>
            <path id="shapePath2" d="M478.499,270.071 C478.499,259.475 471.081,252.057 459.955,251.528 C452.008,251.528 444.591,251.528 436.643,251.528 C435.054,251.528 433.465,251.528 431.875,251.528 C431.875,244.64 431.875,238.282 431.875,231.924 C431.875,227.156 428.696,225.037 424.458,225.037 C420.749,225.567 418.63,227.686 418.63,231.924 C418.63,238.282 418.63,244.64 418.63,250.998 L343.396,250.998 C343.396,244.11 343.396,237.752 343.396,231.394 C343.396,227.156 340.747,224.507 336.509,225.037 C332.27,225.037 330.151,227.686 330.151,232.454 C330.151,238.812 330.151,244.64 330.151,251.528 C328.032,251.528 326.972,251.528 325.383,251.528 C317.436,251.528 309.488,251.528 301.541,251.528 C293.594,251.528 286.177,256.296 284.587,264.243 C282.998,271.66 283.528,279.608 282.998,287.025 L477.969,287.025 C478.499,281.197 478.499,275.899 478.499,270.071 M349.754,272.72 C348.165,278.018 342.867,282.786 337.039,282.786 C331.741,282.786 326.442,279.078 324.323,273.779 C322.204,267.952 324.323,262.654 330.151,258.415 C330.151,262.124 330.151,265.303 330.151,268.481 C330.151,272.19 331.741,274.839 335.449,275.899 C340.218,276.959 343.396,274.31 343.396,269.541 C343.396,265.832 343.396,262.654 343.396,258.945 C349.224,262.124 351.344,267.422 349.754,272.72 M438.763,271.66 C437.703,278.018 432.405,282.786 426.047,282.786 C420.219,282.786 414.391,278.548 412.802,272.72 C411.212,266.892 413.862,261.064 419.16,258.415 C419.16,262.124 419.16,265.303 419.16,268.481 C419.16,273.25 421.809,275.369 426.047,275.899 C430.286,275.899 432.405,273.25 432.405,268.481 C432.405,265.303 432.405,262.124 432.405,258.415 C436.643,261.064 439.822,266.362 438.763,271.66 M284.057,298.151 C284.057,341.596 284.057,385.57 284.057,429.015 C284.057,439.611 292.005,446.498 302.071,446.498 C354.522,446.498 406.974,446.498 459.425,446.498 C471.081,446.498 478.499,439.081 478.499,427.425 C478.499,385.04 478.499,343.185 478.499,300.8 L478.499,296.562 L284.057,296.562 C284.057,297.091 284.057,297.621 284.057,298.151 M376.775,432.723 L341.807,432.723 L341.807,397.756 L376.775,397.756 L376.775,432.723 M465.253,388.749 L430.816,388.749 L430.816,353.781 L465.253,353.781 L465.253,388.749 M430.286,309.807 L465.253,309.807 L465.253,344.775 L430.286,344.775 L430.286,309.807 M430.286,398.285 L465.253,398.285 L465.253,432.723 L430.286,432.723 L430.286,398.285 M421.279,388.749 L386.311,388.749 L386.311,353.781 C391.609,353.781 396.378,353.781 401.146,353.781 C406.974,353.781 412.802,353.781 418.63,353.781 C420.219,353.781 421.279,354.311 421.279,356.43 C421.279,367.027 421.279,377.623 421.279,388.749 M385.781,309.807 L420.749,309.807 L420.749,344.775 L385.781,344.775 L385.781,309.807 M385.781,398.285 L420.749,398.285 L420.749,432.723 L385.781,432.723 L385.781,398.285 M341.807,309.807 L376.775,309.807 L376.775,344.775 L341.807,344.775 L341.807,309.807 M343.926,353.781 C354.522,353.781 365.649,353.781 376.775,353.781 L376.775,388.749 L341.807,388.749 C341.807,386.1 341.807,383.451 341.807,380.802 C341.807,372.855 341.807,364.907 341.807,356.43 C341.277,355.371 341.277,353.781 343.926,353.781 M297.832,309.807 L332.8,309.807 L332.8,344.775 L297.832,344.775 L297.832,309.807 M297.832,353.781 L332.27,353.781 L332.27,388.749 L297.832,388.749 L297.832,353.781 M297.303,398.285 L332.27,398.285 L332.27,432.723 L297.303,432.723 L297.303,398.285 Z" style="stroke:#323232;stroke-opacity:1;stroke-width:1;stroke-linejoin:miter;stroke-miterlimit:2;stroke-linecap:round;fill-rule:nonzero;fill:#000000;fill-opacity:1;"/>
        </g>
    </g>
</svg>
