<?xml version="1.0"?>
<svg version="1.1" xmlns="http://www.w3.org/2000/svg" xmlns:xlink="http://www.w3.org/1999/xlink" width="500" height="500">
    <desc iVinci="yes" version="4.6" gridStep="20" showGrid="no" snapToGrid="no" codePlatform="0"/>
    <g id="Layer1" name="Layer 1" opacity="1">
        <g id="Shape1">
            <desc shapeID="1" type="3" basicInfo-basicType="0" basicInfo-roundedRectRadius="12" basicInfo-polygonSides="6" basicInfo-starPoints="5" bounding="rect(-11,-12,22,24)" text="" font-familyName="" font-pixelSize="20" font-bold="0" font-underline="0" font-alignment="1" strokeStyle="0" markerStart="0" markerEnd="0" shadowEnabled="0" shadowOffsetX="0" shadowOffsetY="2" shadowBlur="4" shadowOpacity="160" blurEnabled="0" blurRadius="4" transform="matrix(1,0,0,1,3848.84,250.614)" pers-center="0,0" pers-size="0,0" pers-start="0,0" pers-end="0,0" locked="0" mesh="" flag=""/>
            <path id="shapePath1" d="M0,0 Z" style="stroke:#000000;stroke-opacity:1;stroke-width:0;stroke-linejoin:bevel;stroke-miterlimit:2;stroke-linecap:square;fill:none;"/>
        </g>
        <g id="Shape2">
            <desc shapeID="2" type="0" basicInfo-basicType="0" basicInfo-roundedRectRadius="12" basicInfo-polygonSides="6" basicInfo-starPoints="5" bounding="rect(-208.738,-185.08,417.477,370.161)" text="" font-familyName="" font-pixelSize="20" font-bold="0" font-underline="0" font-alignment="1" strokeStyle="0" markerStart="0" markerEnd="0" shadowEnabled="0" shadowOffsetX="0" shadowOffsetY="2" shadowBlur="4" shadowOpacity="160" blurEnabled="0" blurRadius="4" transform="matrix(1.19809,0,0,1.19809,249.912,250)" pers-center="0,0" pers-size="0,0" pers-start="0,0" pers-end="0,0" locked="0" mesh="" flag=""/>
            <path id="shapePath2" d="M249.913,28.2572 C111.793,28.2572 -0.175232,122.293 -0.175339,238.293 C-0.0868683,294.729 27.0406,348.76 75.0935,388.211 L26.0786,471.744 L142.126,427.536 L142.093,427.517 C175.732,441.126 212.573,448.237 249.913,448.328 C388.032,448.328 500.001,354.292 500.001,238.293 C500.001,122.293 388.032,28.2572 249.913,28.2572 M263.515,95.9467 C287.89,95.9467 307.148,102.815 321.288,116.551 C335.428,130.287 342.499,148.804 342.499,172.103 C342.499,183.684 340.075,195.266 335.227,206.847 C330.379,218.294 319,231.357 301.088,246.035 C288.834,256.135 281.359,264.014 278.665,269.67 C276.107,275.327 274.827,282.867 274.827,292.294 L275.03,303.202 L236.85,303.202 L237.053,294.718 C237.053,274.922 238.602,261.118 241.699,253.307 C244.796,245.497 252.472,236.339 264.727,225.835 C276.847,215.465 285.197,206.645 289.775,199.372 C294.353,191.966 296.644,182.606 296.644,171.294 C296.644,158.366 293.412,148.602 286.947,142.003 C280.617,135.404 271.932,132.105 260.889,132.105 C235.166,132.105 221.23,151.161 219.074,189.272 L179.886,181.595 C185.003,124.496 212.879,95.9467 263.515,95.9467 M233.417,327.039 L278.463,327.039 L278.463,376.732 L233.417,376.732 L233.417,327.039 Z" style="stroke:#000000;stroke-opacity:1;stroke-width:0.322285;stroke-linejoin:miter;stroke-miterlimit:2;stroke-linecap:butt;fill-rule:evenodd;fill:#000000;fill-opacity:1;"/>
        </g>
    </g>
</svg>
