<?xml version="1.0"?>
<svg version="1.1" xmlns="http://www.w3.org/2000/svg" xmlns:xlink="http://www.w3.org/1999/xlink" width="500" height="500">
    <desc iVinci="yes" version="4.6" gridStep="20" showGrid="no" snapToGrid="no" codePlatform="0"/>
    <g id="Layer1" name="Layer 1" opacity="1">
        <g id="Shape1">
            <desc shapeID="1" type="0" basicInfo-basicType="0" basicInfo-roundedRectRadius="12" basicInfo-polygonSides="6" basicInfo-starPoints="5" bounding="rect(-17.3501,-23.4,34.7002,46.8001)" text="" font-familyName="" font-pixelSize="20" font-bold="0" font-underline="0" font-alignment="1" strokeStyle="0" markerStart="0" markerEnd="0" shadowEnabled="0" shadowOffsetX="0" shadowOffsetY="2" shadowBlur="4" shadowOpacity="160" blurEnabled="0" blurRadius="4" transform="matrix(10.7208,0,0,10.7208,250,250)" pers-center="0,0" pers-size="0,0" pers-start="0,0" pers-end="0,0" locked="0" mesh="" flag=""/>
            <path id="shapePath1" d="M436.007,248.929 C431.719,245.712 424.214,237.135 412.421,225.344 C371.682,180.314 330.943,138.504 291.276,97.7648 C270.906,76.323 251.608,55.9546 235.527,38.8003 C223.734,25.9358 210.869,11.9983 200.148,-0.866226 C199.077,-0.866226 198.004,-0.866226 198.004,-0.866226 C148.688,-0.866226 115.454,-0.866226 68.2819,-0.866226 C67.21,-0.866226 65.0658,-0.866226 63.9933,-0.866226 C80.0746,15.215 96.1559,32.3694 112.237,48.4506 C121.886,59.1714 132.607,69.8922 142.256,80.613 C195.86,137.431 250.537,196.395 304.141,248.929 C304.141,248.929 304.141,249.999 305.213,249.999 C305.213,249.999 305.213,251.072 304.141,251.072 C250.537,304.676 195.86,363.641 142.256,419.389 C132.607,430.109 121.886,440.83 112.237,451.551 C96.1559,468.705 80.0746,484.787 63.9933,500.868 C65.0658,500.868 67.21,500.868 68.2819,500.868 C115.454,500.868 149.76,500.868 198.004,500.868 C199.077,500.868 200.148,500.868 200.148,500.868 C211.942,486.93 223.734,474.066 235.527,461.201 C251.608,444.047 270.906,423.679 291.276,402.237 C330.943,361.497 371.682,319.685 412.421,274.658 C423.142,262.866 431.719,254.289 436.007,251.072 C436.007,251.072 434.935,249.999 434.935,249.999 C434.935,249.999 434.935,248.929 436.007,248.929 Z" style="stroke:none;fill-rule:evenodd;fill:#000000;fill-opacity:1;"/>
        </g>
    </g>
</svg>
