<?xml version="1.0"?>
<svg version="1.1" xmlns="http://www.w3.org/2000/svg" xmlns:xlink="http://www.w3.org/1999/xlink" width="500" height="500">
    <desc iVinci="yes" version="4.6" gridStep="20" showGrid="no" snapToGrid="no" codePlatform="0"/>
    <g id="Layer1" name="Layer 1" opacity="1">
        <g id="Shape1">
            <desc shapeID="1" type="0" basicInfo-basicType="0" basicInfo-roundedRectRadius="12" basicInfo-polygonSides="6" basicInfo-starPoints="5" bounding="rect(-16.6971,-23.4007,33.3943,46.8015)" text="" font-familyName="" font-pixelSize="20" font-bold="0" font-underline="0" font-alignment="1" strokeStyle="0" markerStart="0" markerEnd="0" shadowEnabled="0" shadowOffsetX="0" shadowOffsetY="2" shadowBlur="4" shadowOpacity="160" blurEnabled="0" blurRadius="4" transform="matrix(9.97202,-0.0357354,0.0384184,10.7207,166.635,249.903)" pers-center="0,0" pers-size="0,0" pers-start="0,0" pers-end="0,0" locked="0" mesh="" flag=""/>
            <path id="shapePath1" d="M333.136,248.244 C329.136,245.041 322.124,236.489 311.113,224.737 C273.058,179.843 235.014,138.169 197.972,97.5623 C178.947,76.1888 160.924,55.8848 145.905,38.7842 C134.89,25.9591 122.873,12.0645 112.855,-0.764145 C111.859,-0.760574 110.861,-0.756989 110.861,-0.756989 C64.989,-0.592606 47.0983,-0.543396 3.2211,-0.386154 C2.22414,-0.382584 0.229614,-0.375427 -0.767975,-0.371857 C14.2478,15.6556 29.2674,32.7563 44.2827,48.7838 C53.2962,59.4724 63.3069,70.1574 72.3204,80.8461 C122.384,137.486 173.454,196.267 223.502,248.622 C223.502,248.622 223.506,249.692 224.503,249.688 C224.503,249.688 224.507,250.761 223.51,250.765 C173.842,304.547 123.195,363.694 73.5344,419.62 C64.5977,430.372 54.6639,441.129 45.7273,451.882 C30.831,469.089 15.9305,485.225 1.03001,501.359 C2.0276,501.356 4.02213,501.349 5.01909,501.345 C48.8963,501.188 67.7841,501.135 112.659,500.974 C113.657,500.971 114.653,500.967 114.653,500.967 C125.573,486.99 136.495,474.087 147.419,461.182 C162.315,443.975 180.192,423.543 199.063,402.033 C235.813,361.161 273.557,319.214 311.289,274.051 C321.219,262.223 329.166,253.618 333.143,250.387 C333.143,250.387 332.142,249.317 332.142,249.317 C332.142,249.317 332.139,248.247 333.136,248.244 Z" style="stroke:none;fill-rule:evenodd;fill:#000000;fill-opacity:1;"/>
        </g>
        <g id="Shape2">
            <desc shapeID="2" type="0" basicInfo-basicType="0" basicInfo-roundedRectRadius="12" basicInfo-polygonSides="6" basicInfo-starPoints="5" bounding="rect(-16.6971,-23.4007,33.3943,46.8015)" text="" font-familyName="" font-pixelSize="20" font-bold="0" font-underline="0" font-alignment="1" strokeStyle="0" markerStart="0" markerEnd="0" shadowEnabled="0" shadowOffsetX="0" shadowOffsetY="2" shadowBlur="4" shadowOpacity="160" blurEnabled="0" blurRadius="4" transform="matrix(9.97202,-0.0357354,0.0384184,10.7207,333.492,248.545)" pers-center="0,0" pers-size="0,0" pers-start="0,0" pers-end="0,0" locked="0" mesh="" flag=""/>
            <path id="shapePath2" d="M499.992,246.885 C495.992,243.682 488.981,235.131 477.969,223.379 C439.914,178.485 401.871,136.811 364.828,96.2039 C345.804,74.8304 327.781,54.5264 312.762,37.4258 C301.746,24.6007 289.73,10.7062 279.711,-2.12253 C278.715,-2.11896 277.717,-2.11537 277.717,-2.11537 C231.846,-1.95099 213.955,-1.90178 170.078,-1.74454 C169.081,-1.74097 167.086,-1.73381 166.089,-1.73024 C181.104,14.2973 196.124,31.398 211.139,47.4254 C220.153,58.114 230.163,68.799 239.177,79.4877 C289.241,136.127 340.31,194.908 390.358,247.263 C390.358,247.263 390.362,248.333 391.359,248.33 C391.359,248.33 391.363,249.403 390.366,249.406 C340.698,303.189 290.051,362.336 240.391,418.262 C231.454,429.014 221.521,439.771 212.584,450.524 C197.688,467.731 182.787,483.867 167.887,500.001 C168.884,499.997 170.879,499.99 171.876,499.987 C215.753,499.83 234.641,499.777 279.515,499.616 C280.513,499.612 281.509,499.609 281.509,499.609 C292.43,485.632 303.352,472.728 314.275,459.824 C329.172,442.617 347.049,422.185 365.919,400.675 C402.67,359.803 440.414,317.855 478.146,272.693 C488.076,260.865 496.023,252.259 500,249.028 C500,249.028 498.999,247.959 498.999,247.959 C498.999,247.959 498.995,246.889 499.992,246.885 Z" style="stroke:none;fill-rule:evenodd;fill:#000000;fill-opacity:1;"/>
        </g>
    </g>
</svg>
