<?xml version="1.0"?>
<svg version="1.1" xmlns="http://www.w3.org/2000/svg" xmlns:xlink="http://www.w3.org/1999/xlink" width="500" height="500">
    <desc iVinci="yes" version="4.6" gridStep="20" showGrid="no" snapToGrid="no" codePlatform="0"/>
    <g id="Layer1" name="Layer 1" opacity="1">
        <g id="Shape1">
            <desc shapeID="1" type="0" basicInfo-basicType="0" basicInfo-roundedRectRadius="12" basicInfo-polygonSides="6" basicInfo-starPoints="5" bounding="rect(-187.886,-251.01,375.772,502.02)" text="" font-familyName="" font-pixelSize="20" font-bold="0" font-underline="0" font-alignment="1" strokeStyle="0" markerStart="0" markerEnd="0" shadowEnabled="0" shadowOffsetX="0" shadowOffsetY="2" shadowBlur="4" shadowOpacity="160" blurEnabled="0" blurRadius="4" transform="matrix(1,0,0,1,250.02,251.01)" pers-center="0,0" pers-size="0,0" pers-start="0,0" pers-end="0,0" locked="0" mesh="" flag=""/>
            <path id="shapePath1" d="M143.812,0 C103.538,0 67.0119,30.9073 63.2656,71.1816 C61.4452,95.301 62.3643,132.847 62.38,140.49 L92.2988,140.49 L92.2988,132.062 C92.2988,115.202 91.3622,97.407 92.2988,79.6113 C93.2354,55.2599 111.968,35.5903 136.32,31.8438 C160.672,29.0347 184.087,42.1475 192.516,65.5625 C198.136,83.3582 194.389,102.09 195.326,120.822 L185.961,120.822 C162.546,120.822 151.307,132.997 151.307,156.412 L151.307,296.902 C151.307,318.444 163.481,330.621 185.023,330.621 L357.357,330.621 C378.899,330.621 391.076,319.381 391.076,296.902 L391.076,157.35 C391.076,132.062 379.835,120.822 355.484,120.822 L266.508,120.822 L226.234,120.822 C226.234,116.139 226.234,113.329 225.297,109.582 C225.297,97.4058 225.297,85.231 224.361,73.0547 C219.678,31.844 185.023,0 143.812,0 M271.191,173.506 C278.684,173.506 286.177,176.549 291.797,182.637 C303.036,194.814 302.099,213.546 288.986,223.848 C285.24,226.658 284.303,229.467 285.24,234.15 C288.049,248.199 289.924,262.247 291.797,277.234 C278.685,277.234 265.572,277.235 250.586,276.297 C253.396,261.312 255.269,247.264 257.143,233.215 C258.079,229.468 257.142,226.658 253.395,223.848 C240.283,213.546 239.347,194.814 250.586,182.637 C256.206,176.549 263.699,173.506 271.191,173.506 M163.48,381.197 L120.398,502.02 L146.623,502.02 L155.053,476.73 L199.072,476.73 L207.502,502.02 L234.662,502.02 L191.578,381.197 L163.48,381.197 M249.648,381.197 L249.648,502.02 L334.879,502.02 L334.879,480.477 L274.938,480.477 L274.938,381.197 L249.648,381.197 M352.676,381.197 L352.676,502.02 L437.906,502.02 L437.906,480.477 L377.963,480.477 L377.963,381.197 L352.676,381.197 M177.529,408.359 L192.516,456.127 L161.607,456.127 L177.529,408.359 Z" style="stroke:#000000;stroke-opacity:1;stroke-width:1;stroke-linejoin:;stroke-miterlimit:2;stroke-linecap:butt;fill-rule:nonzero;fill:#000000;fill-opacity:1;"/>
        </g>
    </g>
</svg>
