<?xml version="1.0"?>
<svg version="1.1" xmlns="http://www.w3.org/2000/svg" xmlns:xlink="http://www.w3.org/1999/xlink" width="500" height="500">
    <desc iVinci="yes" version="4.6" gridStep="20" showGrid="no" snapToGrid="no" codePlatform="0"/>
    <g id="Layer1" name="Layer 1" opacity="1">
        <g id="Shape1">
            <desc shapeID="1" type="3" basicInfo-basicType="0" basicInfo-roundedRectRadius="12" basicInfo-polygonSides="6" basicInfo-starPoints="5" bounding="rect(-179,-181.5,358,363)" text="" font-familyName="" font-pixelSize="20" font-bold="0" font-underline="0" font-alignment="1" strokeStyle="0" markerStart="0" markerEnd="0" shadowEnabled="0" shadowOffsetX="0" shadowOffsetY="2" shadowBlur="4" shadowOpacity="160" blurEnabled="0" blurRadius="4" transform="matrix(1.3869,0,0,1.3869,376.754,290.145)" pers-center="0,0" pers-size="0,0" pers-start="0,0" pers-end="0,0" locked="0" mesh="" flag=""/>
            <path id="shapePath1" d="M0,0 Z" style="stroke:#000000;stroke-opacity:1;stroke-width:0;stroke-linejoin:bevel;stroke-miterlimit:2;stroke-linecap:square;fill:none;"/>
        </g>
        <g id="Shape2">
            <desc shapeID="2" type="0" basicInfo-basicType="0" basicInfo-roundedRectRadius="12" basicInfo-polygonSides="6" basicInfo-starPoints="5" bounding="rect(-8.10831,-3.52182,16.2166,7.04358)" text="" font-familyName="" font-pixelSize="20" font-bold="0" font-underline="0" font-alignment="1" strokeStyle="0" markerStart="0" markerEnd="0" shadowEnabled="0" shadowOffsetX="0" shadowOffsetY="2" shadowBlur="4" shadowOpacity="160" blurEnabled="0" blurRadius="4" transform="matrix(5.77873,0,0,5.77873,53.906,4.82132)" pers-center="0,0" pers-size="0,0" pers-start="0,0" pers-end="0,0" locked="0" mesh="" flag=""/>
            <path id="shapePath2" d="M0,0 Z" style="stroke:#000000;stroke-opacity:1;stroke-width:0;stroke-linejoin:bevel;stroke-miterlimit:2;stroke-linecap:square;fill:none;"/>
        </g>
        <g id="Shape3">
            <desc shapeID="3" type="0" basicInfo-basicType="0" basicInfo-roundedRectRadius="12" basicInfo-polygonSides="6" basicInfo-starPoints="5" bounding="rect(-39.8,-39.7,79.6,79.4)" text="" font-familyName="" font-pixelSize="20" font-bold="0" font-underline="0" font-alignment="1" strokeStyle="0" markerStart="0" markerEnd="0" shadowEnabled="0" shadowOffsetX="0" shadowOffsetY="2" shadowBlur="4" shadowOpacity="160" blurEnabled="0" blurRadius="4" transform="matrix(6.23495,0,0,6.34474,250,251.886)" pers-center="0,0" pers-size="0,0" pers-start="0,0" pers-end="0,0" locked="0" mesh="" flag=""/>
            <path id="shapePath3" d="M235.036,142.757 L495.033,90.0952 L495.033,89.4609 L477.576,0.000198364 L39.2587,88.1919 C17.4363,92.6333 1.84895,112.302 1.84895,134.508 C1.84895,154.812 1.84895,432.077 1.84895,432.077 C1.84895,472.049 33.6471,503.773 72.3039,503.773 L427.696,503.773 C466.976,503.773 498.151,471.415 498.151,432.077 L498.151,143.391 L498.151,142.757 L235.036,142.757 M450.142,432.077 C450.142,444.767 440.166,454.918 427.696,454.918 L72.3039,454.918 C59.834,454.918 49.858,444.767 49.858,432.077 L49.858,258.866 L450.142,258.866 L450.142,432.077 M351.006,166.867 L308.608,210.011 L245.635,210.011 L288.033,166.867 L351.006,166.867 M417.72,36.7996 L467.6,70.4267 L405.874,83.1162 L355.994,49.4891 L417.72,36.7996 M295.515,61.5439 L345.395,95.1714 L283.669,107.861 L233.789,74.2334 L295.515,61.5439 M173.31,86.2886 L223.19,119.916 L161.464,132.605 L111.584,98.978 L173.31,86.2886 M162.711,166.867 L225.684,166.867 L183.909,210.011 L120.936,210.011 L162.711,166.867 M369.711,210.011 L412.109,166.867 L475.082,166.867 L433.307,210.011 L369.711,210.011 M221.943,420.657 L221.943,287.417 L329.184,354.037 L221.943,420.657 Z" style="stroke:none;fill-rule:nonzero;fill:#000000;fill-opacity:1;"/>
        </g>
    </g>
</svg>
