<?xml version="1.0"?>
<svg version="1.1" xmlns="http://www.w3.org/2000/svg" xmlns:xlink="http://www.w3.org/1999/xlink" width="500" height="500">
    <desc iVinci="yes" version="4.6" gridStep="20" showGrid="no" snapToGrid="no" codePlatform="0"/>
    <g id="Layer1" name="Layer 1" opacity="1">
        <g id="Shape1">
            <desc shapeID="1" type="0" basicInfo-basicType="0" basicInfo-roundedRectRadius="12" basicInfo-polygonSides="6" basicInfo-starPoints="5" bounding="rect(-33.0022,-37.4185,66.0045,74.8371)" text="" font-familyName="" font-pixelSize="20" font-bold="0" font-underline="0" font-alignment="1" strokeStyle="0" markerStart="0" markerEnd="0" shadowEnabled="0" shadowOffsetX="0" shadowOffsetY="2" shadowBlur="4" shadowOpacity="160" blurEnabled="0" blurRadius="4" transform="matrix(6.6818,0,0,6.6818,250,250.023)" pers-center="0,0" pers-size="0,0" pers-start="0,0" pers-end="0,0" locked="0" mesh="" flag=""/>
            <path id="shapePath1" d="M470.485,101.351 C470.883,90.2053 466.621,79.3971 458.722,71.5233 C450.823,63.6498 440.001,59.4223 428.857,59.857 C411.217,59.857 393.577,59.857 375.937,59.857 L365.113,59.857 C365.113,44.0881 365.113,29.6552 365.113,15.2227 C364.947,7.03027 358.171,0.523438 349.978,0.689835 C341.786,0.85582 335.279,7.63141 335.445,15.8238 C335.445,30.1898 335.445,44.5558 335.445,59.1221 L165.126,59.1221 C165.126,43.9543 165.126,29.4549 165.126,15.022 C165.416,10.923 163.895,6.90263 160.963,4.02257 C158.032,1.14252 153.985,-0.307709 149.892,0.0548401 C140.871,0.0548401 135.459,6.00174 135.192,16.8262 C135.192,30.6576 135.192,44.5558 135.192,59.857 L124.501,59.857 C106.594,59.857 88.6198,59.857 70.7125,59.857 C52.8054,59.857 35.8335,70.8153 32.6931,88.054 C30.5461,105.031 29.4749,122.125 29.4859,139.237 L470.485,139.237 C470.485,126.14 470.551,113.712 470.485,101.351 M179.292,107.431 C175.988,120.214 164.684,129.311 151.49,129.804 C138.297,130.298 126.345,122.07 122.096,109.57 C117.686,96.6738 122.096,84.2453 135.125,75.0248 C135.125,83.5104 135.125,90.7269 135.125,97.9434 C134.212,105.498 139.138,112.527 146.551,114.247 C151.066,115.618 155.965,114.685 159.66,111.75 C163.355,108.816 165.373,104.254 165.06,99.5469 C165.06,91.7293 165.06,83.9782 165.06,75.0913 C176.787,81.2124 182.701,94.649 179.292,107.431 M379.746,104.491 C377.404,118.726 365.363,129.343 350.947,129.882 C337.215,129.855 325.151,120.76 321.347,107.565 C317.529,94.9883 323.422,81.5019 335.245,75.7597 C335.245,83.5773 335.245,90.994 335.245,98.3443 C335.245,108.835 340.791,114.514 350.212,114.514 C359.634,114.514 364.779,109.035 364.912,98.2774 C364.912,90.8607 364.912,83.4436 364.912,75.6929 C375.956,80.6761 382.124,92.598 379.813,104.491 L379.746,104.491 M30.0204,163.893 C30.0204,262.583 30.0204,361.206 30.0204,459.896 C29.7237,470.817 34.0111,481.364 41.8434,488.981 C49.6759,496.598 60.3385,500.589 71.2471,499.987 L427.12,499.987 C453.847,499.987 470.217,483.617 470.217,456.756 C470.217,361.295 470.217,265.812 470.217,170.307 L470.217,160.552 L30.6217,160.552 C30.4026,161.655 30.2464,162.771 30.1541,163.893 L30.0204,163.893 M239.562,468.983 L160.65,468.983 L160.65,390.472 L239.628,390.472 L239.628,468.983 L239.562,468.983 M439.481,369.224 L361.237,369.224 L361.237,290.446 L439.481,290.446 L439.481,369.224 M361.104,190.62 L439.481,190.62 L439.481,269.331 L361.17,269.331 L361.17,190.62 L361.104,190.62 M361.104,390.606 L439.481,390.606 L439.481,468.983 L361.037,468.983 L361.037,390.606 L361.104,390.606 M340.657,369.09 L261.144,369.09 L261.144,289.911 L295.154,289.911 C308.184,289.911 321.213,289.911 334.176,289.911 C338.252,289.911 340.858,290.713 340.858,295.591 C340.457,319.846 340.524,344.101 340.524,369.09 L340.657,369.09 M260.943,190.419 L340.189,190.419 L340.189,269.264 L260.81,269.264 L260.81,190.419 L260.943,190.419 M260.943,390.873 L340.256,390.873 L340.256,469.117 L260.81,469.117 L260.81,390.806 L260.943,390.873 M160.716,190.419 L239.896,190.419 L239.896,269.264 L160.716,269.264 L160.716,190.419 M165.527,289.911 C190.049,289.911 214.572,289.911 239.896,289.911 L239.896,369.425 L160.382,369.425 C160.382,363.411 160.382,357.464 160.382,351.517 C160.382,333.299 160.382,315.102 160.382,296.927 C160.249,293.252 160.115,289.911 165.527,289.911 M61.5585,190.687 L140.07,190.687 L140.07,269.198 L61.4248,269.198 L61.4248,190.687 L61.5585,190.687 M61.5585,290.513 L139.869,290.513 L139.869,369.558 L61.3581,369.558 L61.3581,290.513 L61.5585,290.513 M61.5585,390.74 L140.003,390.74 L140.003,468.85 L61.0907,468.85 L61.0907,390.74 L61.5585,390.74 Z" style="stroke:#000000;stroke-opacity:1;stroke-width:0;stroke-linejoin:bevel;stroke-miterlimit:2;stroke-linecap:square;fill-rule:nonzero;fill:#000000;fill-opacity:1;"/>
        </g>
    </g>
</svg>
