<?xml version="1.0"?>
<svg version="1.1" xmlns="http://www.w3.org/2000/svg" xmlns:xlink="http://www.w3.org/1999/xlink" width="500" height="500">
    <desc iVinci="yes" version="4.6" gridStep="20" showGrid="no" snapToGrid="no" codePlatform="0"/>
    <g id="Layer1" name="Layer 1" opacity="1">
        <g id="Shape1">
            <desc shapeID="1" type="0" basicInfo-basicType="0" basicInfo-roundedRectRadius="12" basicInfo-polygonSides="6" basicInfo-starPoints="5" bounding="rect(-247.336,-235.712,494.672,471.424)" text="" font-familyName="" font-pixelSize="20" font-bold="0" font-underline="0" font-alignment="1" strokeStyle="0" markerStart="0" markerEnd="0" shadowEnabled="0" shadowOffsetX="0" shadowOffsetY="2" shadowBlur="4" shadowOpacity="160" blurEnabled="0" blurRadius="4" transform="matrix(1.01025,0,0,1.01025,249.871,250)" pers-center="0,0" pers-size="0,0" pers-start="0,0" pers-end="0,0" locked="0" mesh="" flag=""/>
            <path id="shapePath1" d="M486.697,218.522 L293.091,24.9157 C275.718,7.52429 247.509,7.52429 230.138,24.9157 C212.746,42.298 212.746,70.489 230.138,87.8714 L347.736,205.478 L44.5206,205.478 C19.9302,205.479 -3.05176e-05,225.408 -3.05176e-05,250 C-3.05176e-05,274.59 19.9302,294.522 44.5206,294.522 L347.735,294.522 L230.137,412.128 C212.745,429.511 212.745,457.701 230.137,475.083 C238.822,483.779 250.222,488.128 261.613,488.128 C273.005,488.128 284.404,483.779 293.091,475.083 L486.698,281.478 C504.09,264.095 504.09,235.905 486.697,218.522 Z" style="stroke:none;fill-rule:nonzero;fill:#000000;fill-opacity:1;"/>
        </g>
    </g>
</svg>
