<?xml version="1.0"?>
<svg version="1.1" xmlns="http://www.w3.org/2000/svg" xmlns:xlink="http://www.w3.org/1999/xlink" width="500" height="500">
    <desc iVinci="yes" version="4.6" gridStep="20" showGrid="no" snapToGrid="no" codePlatform="0"/>
    <g id="Layer1" name="Layer 1" opacity="1">
        <g id="Shape1">
            <desc shapeID="1" type="0" basicInfo-basicType="0" basicInfo-roundedRectRadius="12" basicInfo-polygonSides="6" basicInfo-starPoints="5" bounding="rect(-250.046,-249.541,500.092,499.083)" text="" font-familyName="" font-pixelSize="20" font-bold="0" font-underline="0" font-alignment="1" strokeStyle="0" markerStart="0" markerEnd="0" shadowEnabled="0" shadowOffsetX="0" shadowOffsetY="2" shadowBlur="4" shadowOpacity="160" blurEnabled="0" blurRadius="4" transform="matrix(1,0,0,1,250.046,249.541)" pers-center="0,0" pers-size="0,0" pers-start="0,0" pers-end="0,0" locked="0" mesh="" flag=""/>
            <path id="shapePath1" d="M478.525,0 L435.514,31.6035 L414.146,63.3516 L415.738,64.9434 L247.537,233.139 L228.406,214.014 C221.838,207.443 211.191,207.443 204.619,214.014 C201.45,217.181 199.819,221.308 199.719,225.463 C191.808,226.949 184.241,230.736 178.121,236.857 L12.1152,402.861 C-4.03807,419.016 -4.03807,445.213 12.1152,461.369 L37.7109,486.965 C53.8633,503.122 80.0566,503.122 96.2148,486.965 L262.221,320.959 C268.156,315.023 271.887,307.725 273.463,300.08 C277.909,300.189 282.396,298.567 285.785,295.172 C292.35,288.607 292.35,277.962 285.785,271.391 L267.395,253.012 L435.596,84.8164 L437.172,86.4023 L468.783,64.8848 L500.092,21.5801 L478.525,0 M111.465,2.00195 C101.824,2.06856 92.1882,3.37244 82.8105,5.91211 L146.316,69.418 L129.654,131.648 L67.4258,148.291 L3.87891,84.8242 C-6.22084,122.316 3.38731,163.991 32.8613,193.465 C63.7304,224.354 108.218,233.412 147.104,220.758 L147.457,221.111 L163.373,237.025 L169.727,230.672 C176.901,223.496 185.773,219.057 195.047,217.314 C195.164,212.443 197.078,207.603 200.793,203.891 C208.497,196.187 220.978,196.187 228.678,203.891 L246.434,219.633 L272.078,193.99 L222.301,146.229 L220.158,144.342 C230.671,106.615 221.102,64.4478 191.451,34.7773 C169.346,12.7308 140.387,1.80208 111.465,2.00195 M305.797,230.104 L280.141,255.758 L295.943,271.154 C303.64,278.858 303.64,291.339 295.943,299.035 C291.97,303.015 286.71,304.917 281.498,304.789 C279.65,313.751 275.276,322.307 268.318,329.266 L261.969,335.615 L408.793,482.428 C419.128,492.744 432.647,497.971 446.205,497.971 C459.763,497.971 473.261,492.744 483.656,482.428 C504.347,461.816 504.347,428.315 483.656,407.545 L305.797,230.104 M199.719,261.07 C204.619,266.223 203.143,272.427 198.429,278.952 L65.1211,411.617 C58.1542,418.592 50.7141,422.448 43.748,415.473 C36.785,408.503 41.026,401.456 47.989,394.481 L179.606,261.682 C186.167,254.764 195.047,255.758 199.719,261.07 M239.102,303.073 C244.797,308.085 245.421,316.673 238.449,323.647 L109.079,454.81 C102.11,461.773 93.1349,464.858 86.166,457.895 C79.1942,450.925 81.893,442.33 88.8648,435.355 L218.282,304.789 C223.964,299.035 233.313,297.98 239.102,303.073 Z" style="stroke:none;fill-rule:evenodd;fill:#000000;fill-opacity:1;"/>
        </g>
    </g>
</svg>
