<?xml version="1.0"?>
<svg version="1.1" xmlns="http://www.w3.org/2000/svg" xmlns:xlink="http://www.w3.org/1999/xlink" width="500" height="500">
    <desc iVinci="yes" version="4.6" gridStep="20" showGrid="no" snapToGrid="no" codePlatform="0"/>
    <g id="Layer1" name="Layer 1" opacity="1">
        <g id="Shape1">
            <desc shapeID="1" type="0" basicInfo-basicType="0" basicInfo-roundedRectRadius="12" basicInfo-polygonSides="6" basicInfo-starPoints="5" bounding="rect(-255.814,-200.997,511.627,401.994)" text="" font-familyName="" font-pixelSize="20" font-bold="0" font-underline="0" font-alignment="1" strokeStyle="0" markerStart="0" markerEnd="0" shadowEnabled="0" shadowOffsetX="0" shadowOffsetY="2" shadowBlur="4" shadowOpacity="160" blurEnabled="0" blurRadius="4" transform="matrix(0.976925,0,0,0.976925,249.911,250)" pers-center="0,0" pers-size="0,0" pers-start="0,0" pers-end="0,0" locked="0" mesh="" flag=""/>
            <path id="shapePath1" d="M486.712,66.7493 C477.973,58.0088 467.466,53.641 455.195,53.641 L44.6279,53.641 C32.3558,53.641 21.848,58.0088 13.1084,66.7493 C4.36784,75.4879 1.52588e-05,85.9948 1.52588e-05,98.2688 L1.52588e-05,401.734 C1.52588e-05,414.01 4.36784,424.508 13.1084,433.247 C21.847,441.993 32.3548,446.359 44.6279,446.359 L455.196,446.359 C467.466,446.359 477.973,441.993 486.713,433.247 C495.455,424.508 499.821,414.004 499.821,401.734 L499.821,98.2688 C499.82,85.9948 495.455,75.4879 486.712,66.7493 M464.116,401.727 C464.232,406.458 459.924,410.765 455.192,410.647 L44.625,410.647 C39.8915,410.768 35.5841,406.459 35.7008,401.727 L35.7008,187.52 C41.6502,194.214 48.0657,200.351 54.9462,205.928 C104.781,244.232 144.387,275.655 173.767,300.201 C183.25,308.198 190.967,314.426 196.917,318.89 C202.866,323.355 210.908,327.863 221.041,332.416 C231.175,336.977 240.706,339.246 249.631,339.246 L249.911,339.246 L250.189,339.246 C259.112,339.246 268.647,336.977 278.776,332.416 C288.913,327.863 296.96,323.356 302.907,318.89 C308.856,314.426 316.575,308.198 326.059,300.201 C355.439,275.655 395.039,244.232 444.876,205.928 C451.757,200.352 458.175,194.214 464.116,187.52 L464.116,401.727 M464.116,108.586 C464.116,119.556 459.797,131.783 451.151,145.263 C442.504,158.742 433.157,169.483 423.122,177.476 C387.23,205.744 349.953,235.213 311.269,265.894 C310.155,266.823 306.898,269.564 301.504,274.117 C296.117,278.678 291.838,282.168 288.676,284.582 C285.509,287.003 281.377,289.931 276.266,293.368 C271.15,296.804 266.456,299.366 262.18,301.037 C257.904,302.705 253.906,303.54 250.189,303.54 L249.911,303.54 L249.631,303.54 C245.913,303.54 241.918,302.705 237.639,301.037 C233.363,299.366 228.666,296.804 223.555,293.368 C218.444,289.93 214.306,287.002 211.145,284.582 C207.985,282.168 203.706,278.678 198.316,274.117 C192.923,269.564 189.666,266.823 188.551,265.894 C149.876,235.212 112.596,205.744 76.7062,177.476 C49.3709,155.909 35.7056,129.503 35.7056,98.264 C35.5903,93.5325 39.8993,89.2261 44.6299,89.3398 L455.198,89.3398 C459.923,89.1707 464.183,93.5033 463.983,98.1262 C464.18,101.61 464.107,105.099 464.116,108.586 Z" style="stroke:none;fill-rule:evenodd;fill:#000000;fill-opacity:1;"/>
        </g>
    </g>
</svg>
