<?xml version="1.0"?>
<svg version="1.1" xmlns="http://www.w3.org/2000/svg" xmlns:xlink="http://www.w3.org/1999/xlink" width="500" height="500">
    <desc iVinci="yes" version="4.6" gridStep="20" showGrid="no" snapToGrid="no" codePlatform="0"/>
    <g id="Layer1" name="Layer 1" opacity="1">
        <g id="Shape1">
            <desc shapeID="1" type="0" basicInfo-basicType="0" basicInfo-roundedRectRadius="12" basicInfo-polygonSides="6" basicInfo-starPoints="5" bounding="rect(-250.351,-235.626,500.703,471.253)" text="" font-familyName="" font-pixelSize="20" font-bold="0" font-underline="0" font-alignment="1" strokeStyle="0" markerStart="0" markerEnd="0" shadowEnabled="0" shadowOffsetX="0" shadowOffsetY="2" shadowBlur="4" shadowOpacity="160" blurEnabled="0" blurRadius="4" transform="matrix(1,0,0,1,250.351,250.001)" pers-center="0,0" pers-size="0,0" pers-start="0,0" pers-end="0,0" locked="0" mesh="" flag=""/>
            <path id="shapePath1" d="M39.2715,14.377 C31.9144,14.3604 24.5371,14.4138 17.0801,14.627 C5.71706,14.627 -0.532852,21.4448 0.0351562,31.1035 C0.0351562,40.1939 6.85356,45.875 17.6484,45.875 C30.716,45.875 43.7841,46.4432 56.8516,45.875 C63.1013,45.3069 65.9418,47.0122 67.0781,53.8301 C85.8271,149.28 105.144,244.729 124.461,340.178 C127.87,357.223 130.711,360.064 148.324,360.064 L391.492,360.064 C402.287,360.064 412.514,360.632 422.74,360.064 C432.967,359.496 439.219,353.247 439.219,344.725 C439.219,336.202 432.968,329.951 423.309,328.814 L416.492,328.814 L181.275,328.814 L153.438,328.814 C148.893,307.225 144.915,286.77 140.938,265.748 L154.006,265.748 L429.559,265.748 L438.65,265.748 C447.172,265.18 452.286,260.637 454.559,252.115 C469.331,192.459 484.101,132.235 498.873,72.5781 C503.986,52.1246 498.873,45.875 477.283,45.875 L107.984,45.875 L96.6211,45.875 C95.4849,39.6254 94.3494,35.0802 93.7812,29.9668 C92.0769,19.7401 86.3947,14.627 76.168,14.627 C63.7397,14.627 51.5335,14.4048 39.2715,14.377 M172.186,391.881 C146.051,391.881 124.461,413.47 125.029,439.037 C125.029,464.604 146.05,485.627 171.617,485.627 C197.752,485.627 218.775,464.604 218.775,438.469 C218.775,412.334 198.321,391.881 172.186,391.881 M390.926,391.881 C365.359,392.449 344.336,412.902 344.336,438.469 C344.336,464.036 365.925,485.627 391.492,485.627 C417.627,485.627 438.65,464.604 438.65,438.469 C438.65,412.334 417.629,391.881 390.926,391.881 M172.186,423.129 C180.708,423.129 187.525,430.515 187.525,438.469 C187.525,446.991 180.139,454.377 171.617,454.377 C163.095,454.377 155.709,446.422 156.277,437.9 C156.845,429.946 164.232,423.129 172.186,423.129 M392.061,423.129 C400.583,423.129 407.4,430.515 407.4,439.605 C407.4,448.127 400.583,454.945 392.061,454.945 C383.539,454.945 376.721,447.559 376.721,438.469 C376.721,429.947 383.539,423.129 392.061,423.129 Z" style="stroke:none;fill-rule:evenodd;fill:#000000;fill-opacity:1;"/>
        </g>
    </g>
</svg>
