<?xml version="1.0"?>
<svg version="1.1" xmlns="http://www.w3.org/2000/svg" xmlns:xlink="http://www.w3.org/1999/xlink" width="500" height="500">
    <desc iVinci="yes" version="4.6" gridStep="20" showGrid="no" snapToGrid="no" codePlatform="0"/>
    <g id="Layer1" name="Layer 1" opacity="1">
        <g id="Shape1">
            <desc shapeID="1" type="0" basicInfo-basicType="0" basicInfo-roundedRectRadius="12" basicInfo-polygonSides="6" basicInfo-starPoints="5" bounding="rect(-250.017,-237.977,500.034,475.954)" text="" font-familyName="" font-pixelSize="20" font-bold="0" font-underline="0" font-alignment="1" strokeStyle="0" markerStart="0" markerEnd="0" shadowEnabled="0" shadowOffsetX="0" shadowOffsetY="2" shadowBlur="4" shadowOpacity="160" blurEnabled="0" blurRadius="4" transform="matrix(1,0,0,1,250.017,249.999)" pers-center="0,0" pers-size="0,0" pers-start="0,0" pers-end="0,0" locked="0" mesh="" flag=""/>
            <path id="shapePath1" d="M28.9277,12.0312 C20.6,12.1229 8.76395,12.978 4.85938,16.8828 C-1.38794,21.5671 0.173828,40.3111 0.173828,49.6816 L0.173828,248.031 L0.173828,294.887 C0.173828,304.26 1.73451,312.068 11.1055,315.191 C15.791,316.752 14.2298,316.752 12.668,315.191 C23.6008,316.752 61.0847,316.753 67.332,313.631 C76.7029,308.944 73.5801,274.585 73.5801,262.09 L73.5801,165.256 L73.5801,119.963 C73.5801,116.84 72.0176,99.6591 76.7031,101.223 C78.265,101.223 82.9512,121.524 82.9512,123.086 C90.7604,154.322 98.5694,185.559 106.379,216.795 C107.94,221.481 109.502,227.728 109.502,232.412 L109.502,207.426 C109.502,180.875 109.501,151.198 131.367,144.951 C136.052,143.389 142.3,143.389 153.232,141.828 C150.109,127.771 145.424,113.716 142.301,98.0977 C140.739,84.0408 137.615,69.9845 132.93,55.9277 C129.806,44.9938 129.805,27.815 120.434,20.0059 C112.625,12.1967 97.007,12.1973 86.0742,12.1973 L37.6582,12.1973 C37.6582,12.1973 33.9243,11.9762 28.9277,12.0312 M282.863,13.3672 C263.34,13.3669 243.817,13.7578 237.57,13.7578 C221.952,15.3212 215.705,15.3214 211.02,34.0625 C206.334,49.6807 203.211,66.8602 198.525,82.4785 C193.84,99.6582 189.154,116.839 184.469,135.58 C184.469,137.142 184.468,138.705 182.906,140.268 C203.21,138.705 228.199,138.703 250.064,138.703 C251.626,130.894 254.751,123.086 256.312,115.277 C257.875,110.592 259.435,94.9747 264.121,104.346 C267.245,110.593 264.121,124.649 264.121,130.895 L264.121,138.703 C284.425,138.703 298.482,141.83 303.168,143.391 C318.786,152.762 328.157,205.863 329.719,213.672 C331.28,208.986 332.842,202.741 334.404,198.055 C335.966,191.807 337.528,183.997 339.09,177.75 L339.09,119.963 L339.09,38.748 C339.09,29.3756 339.089,18.4451 328.156,15.3223 C321.909,13.7598 302.386,13.3674 282.863,13.3672 M232.668,182.271 C207.456,182.363 172.56,183.216 165.727,187.121 C157.918,193.367 161.041,210.549 161.041,219.92 L161.041,418.271 L161.041,465.127 C161.041,474.497 164.166,485.43 171.975,486.992 C182.908,488.553 211.02,486.992 220.391,486.992 C228.2,486.992 228.2,485.43 231.324,482.305 C237.571,476.06 237.57,444.823 237.57,432.328 L237.57,335.494 L237.57,290.201 C237.57,287.076 236.008,269.898 240.693,271.459 C242.255,271.459 246.941,291.762 246.941,293.324 C254.75,324.56 262.56,355.797 270.369,387.033 C276.616,413.586 281.302,443.26 293.797,469.812 C303.167,490.115 331.279,490.114 350.021,485.43 C373.449,480.744 375.011,449.507 379.697,430.766 C387.506,399.53 395.314,368.293 403.123,337.057 C407.809,319.877 410.934,302.695 417.182,285.516 C418.743,280.831 420.304,265.213 424.99,274.584 C428.113,280.831 426.553,294.887 426.553,301.135 L426.553,410.463 L426.553,460.441 C426.553,466.687 426.551,476.06 431.236,480.744 C435.997,485.43 445.964,485.876 454.664,486.322 C464.406,486.992 489.025,486.992 490.586,486.992 C501.519,486.992 499.957,463.563 499.957,451.068 L499.957,210.549 C499.957,201.177 499.957,190.244 489.025,187.121 C476.53,183.996 398.439,185.559 398.439,185.559 C382.82,185.559 376.574,191.806 371.889,205.863 C367.203,221.481 339.089,343.305 329.719,355.799 C321.909,344.867 289.112,199.614 281.303,190.244 C273.494,182.435 268.807,182.436 259.436,182.436 C259.436,182.436 247.795,182.217 232.668,182.271 Z" style="stroke:none;fill-rule:nonzero;fill:#000000;fill-opacity:1;"/>
        </g>
    </g>
</svg>
