<?xml version="1.0"?>
<svg version="1.1" xmlns="http://www.w3.org/2000/svg" xmlns:xlink="http://www.w3.org/1999/xlink" width="500" height="500">
    <desc iVinci="yes" version="4.6" gridStep="20" showGrid="no" snapToGrid="no" codePlatform="0"/>
    <g id="Layer1" name="Layer 1" opacity="1">
        <g id="Shape1">
            <desc shapeID="1" type="0" basicInfo-basicType="0" basicInfo-roundedRectRadius="12" basicInfo-polygonSides="6" basicInfo-starPoints="5" bounding="rect(-243.479,-243.384,486.958,486.768)" text="" font-familyName="" font-pixelSize="20" font-bold="0" font-underline="0" font-alignment="1" strokeStyle="0" markerStart="0" markerEnd="0" shadowEnabled="0" shadowOffsetX="0" shadowOffsetY="2" shadowBlur="4" shadowOpacity="160" blurEnabled="0" blurRadius="4" transform="matrix(1.02489,0,0,1.02489,250.452,250.568)" pers-center="0,0" pers-size="0,0" pers-start="0,0" pers-end="0,0" locked="0" mesh="" flag=""/>
            <path id="shapePath1" d="M494.636,178.909 C492.494,174.625 489.281,170.341 484.997,167.128 C481.784,72.8819 461.436,1.12607 436.803,1.12607 C433.59,1.12607 430.377,3.26804 427.164,5.41 C426.093,6.48097 425.022,7.55196 423.951,8.62294 L423.951,7.55196 C363.976,55.7461 282.582,118.934 170.128,118.934 L50.1785,118.934 C23.4039,118.934 0.9133,141.425 0.9133,168.199 L0.9133,227.103 C0.9133,253.878 23.4039,276.368 50.1785,276.368 L60.8883,276.368 C39.4686,345.982 66.2432,427.377 83.3789,481.997 C111.224,507.701 190.477,507.701 209.755,470.216 C177.625,444.513 149.78,392.034 171.199,356.692 C147.638,332.059 159.419,289.22 195.832,277.439 C297.575,286.007 369.331,342.769 423.951,387.751 C425.022,388.822 426.093,389.892 427.164,390.963 C430.377,394.176 433.59,395.247 436.803,395.247 C461.436,395.247 481.784,321.35 484.997,226.032 C489.281,222.819 492.494,219.606 494.636,215.322 C497.849,209.968 499.991,203.542 499.991,197.116 C499.991,190.69 497.849,184.264 494.636,178.909 M464.648,159.631 L461.436,159.631 L426.093,159.631 L422.88,159.631 L401.461,159.631 C404.673,100.727 413.241,58.9591 422.88,36.4685 C423.951,34.3265 425.022,32.1845 426.093,30.0426 C428.235,24.6877 430.377,21.4747 432.519,19.3327 C449.655,31.1136 461.436,86.8046 464.648,159.631 M427.164,368.473 C426.093,366.331 425.022,364.189 423.951,362.047 C414.312,338.485 405.744,295.646 402.531,235.671 L423.951,235.671 L427.164,235.671 L462.506,235.671 L465.719,235.671 C462.506,309.569 449.655,366.331 434.661,379.183 C431.448,377.041 429.306,373.828 427.164,368.473 Z" style="stroke:none;fill-rule:nonzero;fill:#000000;fill-opacity:1;"/>
        </g>
    </g>
</svg>
