<?xml version="1.0"?>
<svg version="1.1" xmlns="http://www.w3.org/2000/svg" xmlns:xlink="http://www.w3.org/1999/xlink" width="500" height="500">
    <desc iVinci="yes" version="4.6" gridStep="20" showGrid="no" snapToGrid="no" codePlatform="0"/>
    <g id="Layer1" name="Layer 1" opacity="1">
        <g id="Shape1">
            <desc shapeID="1" type="0" basicInfo-basicType="0" basicInfo-roundedRectRadius="12" basicInfo-polygonSides="6" basicInfo-starPoints="5" bounding="rect(-31.011,-36.74,62.022,73.48)" text="" font-familyName="" font-pixelSize="20" font-bold="0" font-underline="0" font-alignment="1" strokeStyle="0" markerStart="0" markerEnd="0" shadowEnabled="0" shadowOffsetX="0" shadowOffsetY="2" shadowBlur="4" shadowOpacity="160" blurEnabled="0" blurRadius="4" transform="matrix(6.80421,0,0,6.80421,250,249.986)" pers-center="0,0" pers-size="0,0" pers-start="0,0" pers-end="0,0" locked="0" mesh="" flag=""/>
            <path id="shapePath1" d="M442.122,457.107 L439.672,457.107 L439.672,0 L177.166,0 L177.166,41.3012 L88.7116,147.311 L87.4188,205.419 C92.862,253.933 77.6888,282.17 63.0596,309.523 C52.7171,328.847 42.0344,348.784 39.7212,374.367 C35.2983,423.63 51.9006,445.607 66.938,455.338 C75.7975,461.113 86.1654,464.143 96.7405,464.046 C107.168,463.968 117.403,461.228 126.475,456.086 C141.706,449.019 151.692,434.012 152.331,417.234 L152.331,301.562 C151.723,291.528 155.584,281.739 162.877,274.822 C167.225,271.842 172.259,270.015 177.506,269.514 L177.506,456.834 L171.314,456.834 C160.065,457.729 151.392,467.119 151.392,478.404 C151.392,489.688 160.065,499.079 171.314,499.973 L442.53,499.973 C453.221,498.394 461.107,489.169 461.004,478.362 C460.902,467.556 452.841,458.482 442.122,457.107 M209.486,32.7286 L407.285,32.7286 L407.285,208.957 L209.486,208.957 L209.486,32.7286 M150.562,258.56 C139.471,267.882 133.959,282.375 133.959,301.63 L133.959,417.302 C133.959,424.514 127.155,432.203 117.698,437.714 C105.58,444.567 90.7581,444.567 78.6411,437.714 C64.6244,428.461 58.2284,406.688 61.0184,376.476 C62.9234,355.179 71.8369,337.965 81.431,319.73 C95.7197,292.989 112.254,262.915 108.648,214.673 L149.473,164.798 L146.139,114.311 L176.894,74.2341 L176.894,248.422 C167.294,249.064 158.114,252.599 150.562,258.56 Z" style="stroke:none;fill-rule:nonzero;fill:#000000;fill-opacity:1;"/>
        </g>
    </g>
</svg>
