<?xml version="1.0"?>
<svg version="1.1" xmlns="http://www.w3.org/2000/svg" xmlns:xlink="http://www.w3.org/1999/xlink" width="500" height="500">
    <desc iVinci="yes" version="4.6" gridStep="20" showGrid="no" snapToGrid="no" codePlatform="0"/>
    <g id="Layer1" name="Layer 1" opacity="1">
        <g id="Shape1">
            <desc shapeID="1" type="0" basicInfo-basicType="0" basicInfo-roundedRectRadius="12" basicInfo-polygonSides="6" basicInfo-starPoints="5" bounding="rect(-247.396,-195.326,494.792,390.653)" text="" font-familyName="" font-pixelSize="20" font-bold="0" font-underline="0" font-alignment="1" strokeStyle="0" markerStart="0" markerEnd="0" shadowEnabled="0" shadowOffsetX="0" shadowOffsetY="2" shadowBlur="4" shadowOpacity="160" blurEnabled="0" blurRadius="4" transform="matrix(1.00474,0,0,1.00474,249.971,197.048)" pers-center="0,0" pers-size="0,0" pers-start="0,0" pers-end="0,0" locked="0" mesh="" flag=""/>
            <path id="shapePath1" d="M393.906,313.133 C393.906,357.901 357.467,393.299 313.74,393.299 L81.5698,393.299 C36.8016,393.299 1.40343,356.86 1.40343,313.133 L1.40343,80.9626 C1.40343,36.1944 37.8427,0.796234 81.5698,0.796234 L313.74,0.796234 C325.192,0.796234 335.604,2.87848 346.015,8.08409 C348.097,9.12521 350.179,11.2075 351.22,14.3308 C352.262,17.4542 351.22,20.5776 349.138,22.6598 L335.604,36.1944 C333.521,38.2766 329.357,39.3177 326.234,38.2766 C322.069,37.2355 317.905,36.1944 313.74,36.1944 L81.5698,36.1944 C56.5829,36.1944 36.8016,55.9757 36.8016,80.9626 L36.8016,313.133 C36.8016,338.12 56.5829,357.901 81.5698,357.901 L313.74,357.901 C338.727,357.901 358.508,338.12 358.508,313.133 L358.508,277.735 C358.508,275.652 359.549,273.57 360.591,271.488 L378.29,253.789 C381.413,250.666 384.536,250.666 387.66,251.707 C390.783,252.748 392.865,255.871 392.865,260.036 L392.865,313.133 L393.906,313.133 M447.004,135.101 L259.602,322.503 L179.435,322.503 L179.435,242.337 L366.837,54.9346 L447.004,135.101 M280.424,263.159 L237.738,220.473 L205.463,252.748 L205.463,268.365 L232.533,268.365 L232.533,295.434 L248.149,295.434 L280.424,263.159 M361.632,95.5383 L263.766,193.404 C261.684,195.486 260.643,199.651 263.766,202.774 C266.89,205.897 270.013,204.856 273.136,202.774 L371.002,104.908 C373.084,102.826 374.125,98.6617 371.002,95.5383 C367.878,92.415 364.755,92.415 361.632,95.5383 M464.703,117.402 L384.536,37.2355 L410.564,11.2075 C420.976,0.796234 438.675,0.796234 448.045,11.2075 L490.731,53.8935 C501.142,64.3047 501.142,82.0037 490.731,91.3739 L464.703,117.402 Z" style="stroke:none;fill-rule:nonzero;fill:#000000;fill-opacity:1;"/>
        </g>
    </g>
</svg>
