<?xml version="1.0"?>
<svg version="1.1" xmlns="http://www.w3.org/2000/svg" xmlns:xlink="http://www.w3.org/1999/xlink" width="500" height="500">
    <desc iVinci="yes" version="4.6" gridStep="20" showGrid="no" snapToGrid="no" codePlatform="0"/>
    <g id="Layer1" name="Layer 1" opacity="1">
        <g id="Shape1">
            <desc shapeID="1" type="0" basicInfo-basicType="0" basicInfo-roundedRectRadius="12" basicInfo-polygonSides="6" basicInfo-starPoints="5" bounding="rect(-9.66075,-9.62317,19.3215,19.2463)" text="" font-familyName="" font-pixelSize="20" font-bold="0" font-underline="0" font-alignment="1" strokeStyle="0" markerStart="0" markerEnd="0" shadowEnabled="0" shadowOffsetX="0" shadowOffsetY="2" shadowBlur="4" shadowOpacity="160" blurEnabled="0" blurRadius="4" transform="matrix(25.9143,0,0,25.9143,250.552,249.715)" pers-center="0,0" pers-size="0,0" pers-start="0,0" pers-end="0,0" locked="0" mesh="" flag=""/>
            <path id="shapePath1" d="M61.8105,499.093 C56.2187,498.123 50.5027,497.604 45.0566,496.107 C18.444,488.794 0.200623,464.771 0.200623,437.452 C0.200623,311.315 0.198685,185.178 0.201614,59.0405 C0.202576,28.2327 28.1432,0.342361 59.0078,0.340408 C120.612,0.335541 182.215,0.338455 243.819,0.338455 L249.824,0.338455 L249.824,62.0525 L62.7259,62.0525 L62.7259,435.808 L437.581,435.808 C437.655,434.135 437.809,432.274 437.809,430.414 C437.823,402.654 437.744,374.894 437.938,347.136 C437.955,344.706 439.086,341.668 440.771,339.962 C459.286,321.216 478.004,302.668 496.706,284.104 C497.946,282.874 499.497,281.953 500.903,280.888 L500.903,436.749 C500.634,438.323 500.254,439.887 500.113,441.473 C497.738,468.247 479.257,490.11 453.176,496.652 C448.325,497.868 443.275,498.299 438.316,499.093 L61.8105,499.093 Z" style="stroke:none;fill-rule:evenodd;fill:#169bce;fill-opacity:1;"/>
        </g>
        <g id="Shape2">
            <desc shapeID="2" type="0" basicInfo-basicType="0" basicInfo-roundedRectRadius="12" basicInfo-polygonSides="6" basicInfo-starPoints="5" bounding="rect(-7.25084,-7.57036,14.5017,15.1407)" text="" font-familyName="" font-pixelSize="20" font-bold="0" font-underline="0" font-alignment="1" strokeStyle="0" markerStart="0" markerEnd="0" shadowEnabled="0" shadowOffsetX="0" shadowOffsetY="2" shadowBlur="4" shadowOpacity="160" blurEnabled="0" blurRadius="4" transform="matrix(25.9143,0,0,25.9143,311.944,198.592)" pers-center="0,0" pers-size="0,0" pers-start="0,0" pers-end="0,0" locked="0" mesh="" flag=""/>
            <path id="shapePath2" d="M312.9,217.514 C302.465,219.118 292.603,219.984 283.063,222.219 C250.848,229.764 224.413,247.415 201.31,270.356 C168.94,302.497 146.666,341.118 129.405,382.877 C127.93,386.446 126.553,390.055 124.684,394.773 C124.327,392.901 124.035,392.109 124.044,391.32 C124.811,327.399 136.802,265.945 165.491,208.355 C182.786,173.635 205.199,142.816 237.399,120.076 C258.697,105.035 282.122,95.6197 308.519,94.8131 C312.396,94.6942 312.983,93.16 312.963,89.8022 C312.834,67.0806 312.842,44.357 312.924,21.6345 C312.938,17.9348 313.039,14.1045 313.981,10.5674 C315.9,3.37053 321.409,0.772522 328.316,3.43092 C330.257,4.17809 332.147,5.28665 333.774,6.58418 C384.508,47.0525 434.973,87.8617 486.08,127.857 C498.4,137.498 500.778,149.178 499.561,163.026 C498.768,172.046 494.563,178.784 487.219,184.594 C436.061,225.055 385.201,265.89 334.188,306.533 C332.079,308.214 329.522,309.556 326.957,310.404 C321.302,312.27 316.232,309.988 314.455,304.336 C313.266,300.557 312.967,296.38 312.946,292.378 C312.818,269.656 312.893,246.932 312.9,224.21 L312.9,217.514 Z" style="stroke:none;fill-rule:evenodd;fill:#169bce;fill-opacity:1;"/>
        </g>
    </g>
</svg>
