<?xml version="1.0"?>
<svg version="1.1" xmlns="http://www.w3.org/2000/svg" xmlns:xlink="http://www.w3.org/1999/xlink" width="500" height="500">
    <desc iVinci="yes" version="4.6" gridStep="20" showGrid="no" snapToGrid="no" codePlatform="0"/>
    <g id="Layer1" name="Layer 1" opacity="1">
        <g id="Shape1">
            <desc shapeID="1" type="0" basicInfo-basicType="0" basicInfo-roundedRectRadius="12" basicInfo-polygonSides="6" basicInfo-starPoints="5" bounding="rect(-6.11767,-6.93328,12.2353,13.8666)" text="" font-familyName="" font-pixelSize="20" font-bold="0" font-underline="0" font-alignment="1" strokeStyle="0" markerStart="0" markerEnd="0" shadowEnabled="0" shadowOffsetX="0" shadowOffsetY="2" shadowBlur="4" shadowOpacity="160" blurEnabled="0" blurRadius="4" transform="matrix(33.1301,0,0,33.1301,250,249.999)" pers-center="0,0" pers-size="0,0" pers-start="0,0" pers-end="0,0" locked="0" mesh="" flag=""/>
            <path id="shapePath1" d="M357.251,135.206 C339.695,135.206 325.445,122.345 325.445,106.498 L325.445,49.0819 L420.868,135.206 L365.401,135.206 L357.251,135.206 M389.059,450.994 L110.937,450.994 C93.379,450.994 79.1291,438.133 79.1291,422.284 L79.1291,77.7897 C79.1291,61.9429 93.379,49.0819 110.937,49.0819 L293.191,49.0819 C292.905,83.4596 293.636,106.498 293.636,106.498 C293.636,138.206 322.121,163.914 357.251,163.914 L420.868,163.914 L420.868,422.284 C420.868,438.133 406.622,450.994 389.059,450.994 M325.445,20.7757 C323.409,20.7757 314.916,20.0723 293.636,20.3737 L110.937,20.3737 C75.8051,20.3737 47.3209,46.0819 47.3209,77.7897 L47.3209,422.284 C47.3209,453.992 75.8051,479.701 110.937,479.701 L389.059,479.701 C424.191,479.701 452.679,453.992 452.679,422.284 L452.679,135.206 L333.595,20.3737 L325.445,20.7757 Z" style="stroke:#637080;stroke-opacity:1;stroke-width:0.1;stroke-linejoin:miter;stroke-miterlimit:2;stroke-linecap:butt;fill-rule:evenodd;fill:#637080;fill-opacity:1;"/>
        </g>
        <g id="Shape2">
            <desc shapeID="2" type="0" basicInfo-basicType="0" basicInfo-roundedRectRadius="12" basicInfo-polygonSides="6" basicInfo-starPoints="5" bounding="rect(-2.98237,-2.29424,5.96475,4.5885)" text="" font-familyName="" font-pixelSize="20" font-bold="0" font-underline="0" font-alignment="1" strokeStyle="0" markerStart="0" markerEnd="0" shadowEnabled="0" shadowOffsetX="0" shadowOffsetY="2" shadowBlur="4" shadowOpacity="160" blurEnabled="0" blurRadius="4" transform="matrix(33.1301,0,0,33.1301,254.222,308.444)" pers-center="0,0" pers-size="0,0" pers-start="0,0" pers-end="0,0" locked="0" mesh="" flag=""/>
            <path id="shapePath2" d="M231.424,384.452 C227.396,384.452 223.535,382.859 220.677,380 L159.873,319.197 C153.93,313.254 153.93,303.647 159.873,297.703 C165.817,291.76 175.424,291.76 181.368,297.703 L230.679,347.015 L326.384,237.629 C331.932,231.306 341.524,230.668 347.831,236.201 C354.157,241.734 354.793,251.325 349.275,257.649 L242.87,379.254 C240.104,382.431 236.151,384.3 231.941,384.439 C231.758,384.452 231.591,384.452 231.424,384.452 Z" style="stroke:none;fill-rule:evenodd;fill:#637080;fill-opacity:1;"/>
        </g>
    </g>
</svg>
