<?xml version="1.0"?>
<svg version="1.1" xmlns="http://www.w3.org/2000/svg" xmlns:xlink="http://www.w3.org/1999/xlink" width="500" height="500">
    <desc iVinci="yes" version="4.6" gridStep="20" showGrid="no" snapToGrid="no" codePlatform="0"/>
    <g id="Layer1" name="Layer 1" opacity="1">
        <g id="Shape1">
            <desc shapeID="1" type="0" basicInfo-basicType="0" basicInfo-roundedRectRadius="12" basicInfo-polygonSides="6" basicInfo-starPoints="5" bounding="rect(-499,-291.001,998.001,582.002)" text="" font-familyName="" font-pixelSize="20" font-bold="0" font-underline="0" font-alignment="1" strokeStyle="0" markerStart="0" markerEnd="0" shadowEnabled="0" shadowOffsetX="0" shadowOffsetY="2" shadowBlur="4" shadowOpacity="160" blurEnabled="0" blurRadius="4" transform="matrix(2.08682e-06,-0.460933,0.460933,2.08682e-06,250,250)" pers-center="0,0" pers-size="0,0" pers-start="0,0" pers-end="0,0" locked="0" mesh="" flag=""/>
            <path id="shapePath1" d="M154.128,19.9942 C158.122,19.9943 161.655,21.5313 164.728,24.6043 L379.522,239.4 C382.595,242.472 384.132,246.006 384.132,250.001 C384.132,253.996 382.595,257.53 379.522,260.602 L164.726,475.396 C161.653,478.469 158.12,480.006 154.125,480.006 C150.13,480.006 146.596,478.469 143.523,475.396 L120.478,452.35 C117.405,449.277 115.868,445.743 115.868,441.748 C115.868,437.753 117.405,434.22 120.478,431.147 L301.625,250.001 L120.479,68.8531 C117.406,65.7801 115.869,62.2471 115.869,58.2521 C115.869,54.257 117.406,50.7231 120.479,47.6501 L143.525,24.6042 C146.599,21.5312 150.133,19.9942 154.128,19.9942 Z" style="stroke:none;fill-rule:evenodd;fill:#000000;fill-opacity:1;"/>
        </g>
    </g>
</svg>
