<?xml version="1.0"?>
<svg version="1.1" xmlns="http://www.w3.org/2000/svg" xmlns:xlink="http://www.w3.org/1999/xlink" width="500" height="500">
    <desc iVinci="yes" version="4.6" gridStep="20" showGrid="no" snapToGrid="no" codePlatform="0"/>
    <g id="Layer1" name="Layer 1" opacity="1">
        <g id="Shape1">
            <desc shapeID="1" type="0" basicInfo-basicType="0" basicInfo-roundedRectRadius="12" basicInfo-polygonSides="6" basicInfo-starPoints="5" bounding="rect(-66.8641,-65.9325,133.728,131.865)" text="" font-familyName="" font-pixelSize="20" font-bold="0" font-underline="0" font-alignment="1" strokeStyle="0" markerStart="0" markerEnd="0" shadowEnabled="0" shadowOffsetX="0" shadowOffsetY="2" shadowBlur="4" shadowOpacity="160" blurEnabled="0" blurRadius="4" transform="matrix(3.72448,0,0,3.72448,250,250)" pers-center="0,0" pers-size="0,0" pers-start="0,0" pers-end="0,0" locked="0" mesh="" flag=""/>
            <path id="shapePath1" d="M183.681,4.43823 C176.983,4.57231 171.623,10.041 171.623,16.7408 L171.623,288.446 L73.7476,352.803 C70.2877,355.078 68.2039,358.94 68.2026,363.081 L68.2026,470.884 L11.2341,470.884 C10.8217,470.8 10.4056,470.756 9.98882,470.751 C5.00533,470.751 0.965546,476.287 0.965927,483.115 C0.971634,489.791 4.8439,495.254 9.71358,495.458 L9.71358,495.489 L489.045,495.489 C489.366,495.538 489.688,495.563 490.011,495.564 C494.994,495.564 499.034,490.029 499.034,483.202 C499.03,476.748 495.404,471.384 490.708,470.886 L490.708,470.884 L490.687,470.884 C490.462,470.857 490.237,470.841 490.011,470.838 C489.767,470.84 489.523,470.855 489.28,470.884 L439.113,470.884 L438.459,310.281 C438.442,306.084 436.287,302.185 432.742,299.938 L334.351,237.63 L334.351,128.489 C334.351,124.773 332.672,121.256 329.782,118.92 L191.665,7.17899 C189.41,5.35262 186.582,4.38188 183.681,4.43823 M196.226,42.5199 L309.74,134.356 L309.74,470.884 L196.226,470.884 L196.226,42.5199 M218.141,93.0542 L218.141,94.1301 L218.141,460.743 L240.284,460.743 L240.284,112.651 L218.141,93.0542 M262.907,129.127 L262.907,130.224 L262.907,460.743 L285.395,460.743 L285.395,149.442 L262.907,129.127 M334.351,266.753 L413.877,317.123 L414.502,470.884 L334.351,470.884 L334.351,266.753 M361.816,315.337 L361.816,316.234 L361.816,460.743 L384.647,460.743 L384.647,330.201 L361.816,315.337 M171.623,317.893 L171.623,470.884 L92.8135,470.884 L92.8135,369.717 L171.623,317.893 M143.461,364.824 L120.623,383.675 L120.623,383.906 L120.623,460.743 L143.461,460.743 L143.461,364.824 Z" style="stroke:none;fill-rule:evenodd;fill:#000000;fill-opacity:1;"/>
        </g>
    </g>
</svg>
