<?xml version="1.0"?>
<svg version="1.1" xmlns="http://www.w3.org/2000/svg" xmlns:xlink="http://www.w3.org/1999/xlink" width="500" height="500">
    <desc iVinci="yes" version="4.6" gridStep="20" showGrid="no" snapToGrid="no" codePlatform="0"/>
    <g id="Layer1" name="Layer 1" opacity="1">
        <g id="Shape1">
            <desc shapeID="1" type="0" basicInfo-basicType="0" basicInfo-roundedRectRadius="12" basicInfo-polygonSides="6" basicInfo-starPoints="5" bounding="rect(-240.098,-250.23,480.195,500.461)" text="" font-familyName="" font-pixelSize="20" font-bold="0" font-underline="0" font-alignment="1" strokeStyle="0" markerStart="0" markerEnd="0" shadowEnabled="0" shadowOffsetX="0" shadowOffsetY="2" shadowBlur="4" shadowOpacity="160" blurEnabled="0" blurRadius="4" transform="matrix(1,0,0,1,241.098,250)" pers-center="0,0" pers-size="0,0" pers-start="0,0" pers-end="0,0" locked="0" mesh="" flag=""/>
            <path id="shapePath1" d="M391.117,-0.230469 C341.488,-0.230469 301.041,40.216 301.041,89.8457 C301.041,100.523 302.917,110.773 306.35,120.289 L164.373,197.73 C148.012,174.867 121.241,159.924 91.0762,159.924 C41.4464,159.924 1,200.371 1,250 C1,299.629 41.4464,340.076 91.0762,340.076 C122.955,340.076 151.044,323.387 167.061,298.297 L308.102,375.229 C303.557,385.977 301.041,397.78 301.041,410.154 C301.041,459.784 341.488,500.23 391.117,500.23 C440.747,500.23 481.195,459.784 481.195,410.154 C481.195,360.524 440.747,320.076 391.117,320.076 C360.995,320.076 334.259,334.978 317.893,357.787 L175.885,280.33 C179.292,270.846 181.154,260.635 181.154,250 C181.154,237.668 178.654,225.904 174.139,215.186 L315.199,138.244 C331.226,163.279 359.281,179.924 391.117,179.924 C440.747,179.924 481.195,139.476 481.195,89.8457 C481.195,40.216 440.747,-0.230469 391.117,-0.230469 M391.117,19.7695 C429.938,19.7695 461.195,51.025 461.195,89.8457 C461.195,128.667 429.938,159.924 391.117,159.924 C352.297,159.924 321.041,128.667 321.041,89.8457 C321.041,51.025 352.297,19.7695 391.117,19.7695 M91.0762,179.924 C129.897,179.924 161.154,211.179 161.154,250 C161.154,288.821 129.897,320.076 91.0762,320.076 C52.2553,320.076 21,288.821 21,250 C21,211.179 52.2553,179.924 91.0762,179.924 M391.117,340.076 C429.938,340.076 461.195,371.333 461.195,410.154 C461.195,448.975 429.938,480.23 391.117,480.23 C352.297,480.23 321.041,448.975 321.041,410.154 C321.041,371.333 352.297,340.076 391.117,340.076 Z" style="stroke:none;fill-rule:nonzero;fill:#323232;fill-opacity:1;"/>
        </g>
    </g>
</svg>
