<?xml version="1.0"?>
<svg version="1.1" xmlns="http://www.w3.org/2000/svg" xmlns:xlink="http://www.w3.org/1999/xlink" width="500" height="500">
    <desc iVinci="yes" version="4.6" gridStep="20" showGrid="no" snapToGrid="no" codePlatform="0"/>
    <g id="Layer1" name="Layer 1" opacity="1">
        <g id="Shape1">
            <desc shapeID="1" type="0" basicInfo-basicType="0" basicInfo-roundedRectRadius="12" basicInfo-polygonSides="6" basicInfo-starPoints="5" bounding="rect(-768,-768,1536,1536)" text="" font-familyName="" font-pixelSize="20" font-bold="0" font-underline="0" font-alignment="1" strokeStyle="0" markerStart="0" markerEnd="0" shadowEnabled="0" shadowOffsetX="0" shadowOffsetY="2" shadowBlur="4" shadowOpacity="160" blurEnabled="0" blurRadius="4" transform="matrix(0.303025,0,0,0.303025,250,250)" pers-center="0,0" pers-size="0,0" pers-start="0,0" pers-end="0,0" locked="0" mesh="" flag=""/>
            <path id="shapePath1" d="M327.574,250 C327.574,228.586 319.999,210.304 304.848,195.153 C289.696,180.001 271.414,172.426 250,172.426 C228.586,172.426 210.304,180.001 195.153,195.153 C180.001,210.304 172.426,228.586 172.426,250 C172.426,271.414 180.001,289.696 195.153,304.848 C210.304,319.999 228.586,327.574 250,327.574 C271.414,327.574 289.696,319.999 304.848,304.848 C319.999,289.696 327.574,271.414 327.574,250 M482.723,216.97 L482.723,284.242 C482.723,286.666 481.915,288.989 480.299,291.211 C478.683,293.434 476.663,294.747 474.238,295.151 L418.179,303.635 C414.341,314.544 410.401,323.736 406.361,331.211 C413.431,341.311 424.239,355.251 438.785,373.028 C440.805,375.452 441.815,377.978 441.815,380.604 C441.815,383.23 440.906,385.553 439.088,387.573 C433.633,395.048 423.633,405.957 409.088,420.3 C394.543,434.643 385.048,441.815 380.604,441.815 C378.18,441.815 375.553,440.906 372.725,439.088 L330.908,406.361 C322.019,411.007 312.827,414.846 303.332,417.876 C300.1,445.35 297.171,464.138 294.545,474.238 C293.131,479.895 289.494,482.723 283.636,482.723 L216.364,482.723 C213.536,482.723 211.061,481.865 208.94,480.147 C206.819,478.43 205.657,476.259 205.455,473.632 L196.971,417.876 C187.072,414.644 177.981,410.906 169.698,406.664 L126.972,439.088 C124.952,440.906 122.427,441.815 119.396,441.815 C116.568,441.815 114.043,440.704 111.821,438.482 C86.3666,415.452 69.7002,398.482 61.8216,387.573 C60.4075,385.553 59.7004,383.23 59.7004,380.604 C59.7004,378.18 60.5085,375.856 62.1246,373.634 C65.1549,369.392 70.3063,362.675 77.5789,353.483 C84.8515,344.291 90.3059,337.17 93.9422,332.12 C88.4878,322.019 84.3464,312.019 81.5182,302.12 L26.0647,293.939 C23.4384,293.535 21.3173,292.272 19.7011,290.151 C18.085,288.03 17.2769,285.656 17.2769,283.03 L17.2769,215.758 C17.2769,213.334 18.085,211.011 19.7011,208.789 C21.3173,206.566 23.2364,205.253 25.4586,204.849 L81.8212,196.365 C84.6495,187.072 88.5888,177.779 93.6392,168.486 C85.5585,156.971 74.7506,143.032 61.2155,126.669 C59.1954,124.245 58.1853,121.82 58.1853,119.396 C58.1853,117.376 59.0944,115.053 60.9125,112.427 C66.165,105.154 76.1143,94.2957 90.7605,79.8516 C105.407,65.4074 114.952,58.1853 119.396,58.1853 C122.023,58.1853 124.649,59.1954 127.275,61.2155 L169.092,93.6392 C177.981,88.9928 187.173,85.1545 196.668,82.1242 C199.9,54.65 202.829,35.8624 205.455,25.7616 C206.87,20.1052 210.506,17.2769 216.364,17.2769 L283.636,17.2769 C286.464,17.2769 288.939,18.1355 291.06,19.8526 C293.181,21.5698 294.343,23.7414 294.545,26.3677 L303.029,82.1242 C312.928,85.3565 322.019,89.0938 330.302,93.3362 L373.331,60.9125 C375.149,59.0944 377.573,58.1853 380.604,58.1853 C383.23,58.1853 385.755,59.1954 388.179,61.2155 C414.24,85.2555 430.906,102.427 438.178,112.73 C439.593,114.346 440.3,116.568 440.3,119.396 C440.3,121.82 439.492,124.144 437.875,126.366 C434.845,130.608 429.694,137.325 422.421,146.517 C415.149,155.709 409.694,162.83 406.058,167.88 C411.31,177.981 415.452,187.88 418.482,197.577 L473.935,206.061 C476.562,206.465 478.683,207.728 480.299,209.849 C481.915,211.97 482.723,214.344 482.723,216.97 Z" style="stroke:none;fill-rule:nonzero;fill:#000000;fill-opacity:1;"/>
        </g>
    </g>
</svg>
