<?xml version="1.0"?>
<svg version="1.1" xmlns="http://www.w3.org/2000/svg" xmlns:xlink="http://www.w3.org/1999/xlink" width="580" height="500">
    <desc iVinci="yes" version="4.6" gridStep="20" showGrid="no" snapToGrid="no" codePlatform="0"/>
    <g id="Layer1" name="Layer 1" opacity="1">
        <g id="Shape1">
            <desc shapeID="1" type="0" basicInfo-basicType="0" basicInfo-roundedRectRadius="12" basicInfo-polygonSides="6" basicInfo-starPoints="5" bounding="rect(-290.101,-204.987,580.201,409.975)" text="" font-familyName="" font-pixelSize="20" font-bold="0" font-underline="0" font-alignment="1" strokeStyle="0" markerStart="0" markerEnd="0" shadowEnabled="0" shadowOffsetX="0" shadowOffsetY="2" shadowBlur="4" shadowOpacity="160" blurEnabled="0" blurRadius="4" transform="matrix(1,0,0,1,291.191,242.839)" pers-center="0,0" pers-size="0,0" pers-start="0,0" pers-end="0,0" locked="0" mesh="" flag=""/>
            <path id="shapePath1" d="M385.425,37.8517 C321.919,37.8517 270.188,89.5826 270.188,153.088 C270.188,195.881 293.725,233.25 328.476,253.124 C295.583,259.318 265.968,271.838 243.005,293.943 C242.888,293.866 242.744,293.753 242.63,293.678 C227.791,283.907 210.833,277.902 192.684,274.428 C219.674,258.488 237.898,229.173 237.898,195.667 C237.898,145.273 196.797,104.172 146.403,104.172 C96.0096,104.172 54.9089,145.272 54.9088,195.667 C54.9088,229.453 73.4304,258.992 100.794,274.838 C80.1249,278.99 61.0789,286.497 45.1255,299.326 C17.5038,321.538 1.09058,358.786 1.09058,413.783 L1.09058,425.364 L194.754,425.364 C194.643,428.973 194.467,432.502 194.467,436.245 L194.467,447.826 L581.292,447.826 L581.292,436.245 C581.292,364.572 559.689,316.158 523.768,286.899 C501.137,268.464 473.578,257.857 443.371,252.516 C477.565,232.497 500.662,195.464 500.662,153.088 C500.662,89.5827 448.932,37.8517 385.425,37.8517 M385.425,61.0149 C436.414,61.0149 477.499,102.101 477.499,153.088 C477.499,204.077 436.413,245.162 385.425,245.162 C334.438,245.162 293.351,204.077 293.351,153.088 C293.351,102.101 334.438,61.0149 385.425,61.0149 M146.403,127.335 C184.279,127.335 214.735,157.791 214.735,195.667 C214.735,233.543 184.279,263.998 146.403,263.998 C108.528,263.998 78.0719,233.543 78.0719,195.667 C78.072,157.791 108.528,127.335 146.403,127.335 M387.879,271.207 C436.638,271.207 479.251,280.511 509.14,304.857 C537.22,327.73 555.56,364.639 557.703,424.663 L217.935,424.663 C218.205,417.007 218.643,409.591 219.419,402.663 C219.766,400.52 221.58,392.348 223.389,384.752 C225.18,377.233 226.923,370.174 227.626,367.169 C232.364,349.906 234.57,349.303 241.721,332.067 C270.719,285.508 323.41,271.207 387.879,271.207 M148.256,293.667 C178.976,293.667 206.13,298.813 226.719,311.17 C225.468,313.149 223.841,315.97 221.634,320.476 L221.46,320.757 L221.342,321.003 C208.66,341.808 200.19,367.616 196.546,399.023 C196.537,399.075 196.506,399.191 196.498,399.242 L196.46,399.489 L196.456,399.536 C196.228,400.99 196.255,400.906 196.06,402.201 L24.6682,402.201 C26.6967,358.915 39.9216,333.235 59.6414,317.377 C81.0912,300.129 112.164,293.667 148.256,293.667 L148.256,293.667 Z" style="stroke:none;fill-rule:nonzero;fill:#323232;fill-opacity:1;"/>
        </g>
    </g>
</svg>
