<?xml version="1.0"?>
<svg version="1.1" xmlns="http://www.w3.org/2000/svg" xmlns:xlink="http://www.w3.org/1999/xlink" width="500" height="500">
    <desc iVinci="yes" version="4.6" gridStep="20" showGrid="no" snapToGrid="no" codePlatform="0"/>
    <g id="Layer1" name="Layer 1" opacity="1">
        <g id="Shape1">
            <desc shapeID="1" type="0" basicInfo-basicType="0" basicInfo-roundedRectRadius="12" basicInfo-polygonSides="6" basicInfo-starPoints="5" bounding="rect(-960,-768,1920,1536)" text="" font-familyName="" font-pixelSize="20" font-bold="0" font-underline="0" font-alignment="1" strokeStyle="0" markerStart="0" markerEnd="0" shadowEnabled="0" shadowOffsetX="0" shadowOffsetY="2" shadowBlur="4" shadowOpacity="160" blurEnabled="0" blurRadius="4" transform="matrix(0.258617,0,0,0.258617,248.272,198.618)" pers-center="0,0" pers-size="0,0" pers-start="0,0" pers-end="0,0" locked="0" mesh="" flag=""/>
            <path id="shapePath1" d="M165.515,115.86 C165.515,129.653 160.687,141.377 151.032,151.032 C141.377,160.687 129.653,165.515 115.86,165.515 C102.067,165.515 90.3435,160.687 80.6885,151.032 C71.0334,141.377 66.2059,129.653 66.2059,115.86 C66.2059,102.067 71.0334,90.3435 80.6885,80.6885 C90.3435,71.0335 102.067,66.2059 115.86,66.2059 C129.653,66.2059 141.377,71.0335 151.032,80.6885 C160.687,90.3435 165.515,102.067 165.515,115.86 M430.338,215.169 L430.338,331.03 L66.2059,331.03 L66.2059,281.375 L148.963,198.618 L190.342,239.996 L322.754,107.585 L430.338,215.169 M455.166,33.103 L41.3787,33.103 C39.1374,33.103 37.1978,33.922 35.5599,35.5599 C33.922,37.1978 33.103,39.1374 33.103,41.3787 L33.103,355.857 C33.103,358.098 33.922,360.038 35.5599,361.676 C37.1978,363.314 39.1374,364.133 41.3787,364.133 L455.166,364.133 C457.407,364.133 459.346,363.314 460.984,361.676 C462.622,360.038 463.441,358.098 463.441,355.857 L463.441,41.3787 C463.441,39.1374 462.622,37.1978 460.984,35.5599 C459.346,33.922 457.407,33.103 455.166,33.103 M496.544,41.3787 L496.544,355.857 C496.544,367.236 492.492,376.977 484.389,385.08 C476.286,393.184 466.545,397.235 455.166,397.235 L41.3787,397.235 C29.9996,397.235 20.2584,393.184 12.155,385.08 C4.05173,376.977 6.10352e-05,367.236 6.10352e-05,355.857 L6.10352e-05,41.3787 C6.10352e-05,29.9996 4.05173,20.2584 12.155,12.155 C20.2584,4.05171 29.9996,4.57764e-05 41.3787,4.57764e-05 L455.166,4.57764e-05 C466.545,4.57764e-05 476.286,4.05171 484.389,12.155 C492.492,20.2584 496.544,29.9996 496.544,41.3787 Z" style="stroke:none;fill-rule:nonzero;fill:#000000;fill-opacity:1;"/>
        </g>
    </g>
</svg>
