<?xml version="1.0" encoding="UTF-8"?>
<svg width="42px" height="50px" viewBox="0 0 42 50" version="1.1" xmlns="http://www.w3.org/2000/svg" xmlns:xlink="http://www.w3.org/1999/xlink">
    <!-- Generator: Sketch 48.2 (47327) - http://www.bohemiancoding.com/sketch -->
    <title>ent-lock</title>
    <desc>Created with Sketch.</desc>
    <defs></defs>
    <g id="Artboard" stroke="none" stroke-width="1" fill="none" fill-rule="evenodd" transform="translate(-56.000000, -348.000000)">
        <g id="ent-lock" transform="translate(56.000000, 348.000000)" fill="#000000">
            <path d="M21.001338,0 C13.1552724,0 8.45515413,6.26991057 8.45515413,13.9745953 L8.45515413,20.8001705 L4.81414463,20.8001705 C2.15954126,20.8001705 0,22.9207983 0,25.5249397 L0,45.272603 C0,47.8793722 2.15954126,50 4.81414463,50 L37.1858554,50 C39.8404587,50 42,47.8793722 42,45.272603 L42,25.5249397 C42,22.9181705 39.8404587,20.8001705 37.1858554,20.8001705 L33.6165245,20.8001705 L33.6165245,13.9745953 C33.6165245,6.26991057 28.8474036,0 21.001338,0 Z M12.5370934,14.897697 C12.5370934,8.92526292 15.4416438,4.0625 21,4.0625 C26.5583562,4.0625 29.3672403,8.92290693 29.3672403,14.897697 L29.3672403,20.8001705 L12.5370934,20.8001705 L12.5370934,14.897697 Z" id="Shape"></path>
        </g>
    </g>
</svg>