<?xml version="1.0"?>
<svg version="1.1" xmlns="http://www.w3.org/2000/svg" xmlns:xlink="http://www.w3.org/1999/xlink" width="500" height="500">
    <desc iVinci="yes" version="4.6" gridStep="20" showGrid="no" snapToGrid="no" codePlatform="0"/>
    <g id="Layer1" name="Layer 1" opacity="1">
        <g id="Shape1">
            <desc shapeID="1" type="0" basicInfo-basicType="0" basicInfo-roundedRectRadius="12" basicInfo-polygonSides="6" basicInfo-starPoints="5" bounding="rect(-27.5,-25,55,50)" text="" font-familyName="" font-pixelSize="20" font-bold="0" font-underline="0" font-alignment="1" strokeStyle="0" markerStart="0" markerEnd="0" shadowEnabled="0" shadowOffsetX="0" shadowOffsetY="2" shadowBlur="4" shadowOpacity="160" blurEnabled="0" blurRadius="4" transform="matrix(8.72671,0,0,8.72671,250,250)" pers-center="0,0" pers-size="0,0" pers-start="0,0" pers-end="0,0" locked="0" mesh="" flag=""/>
            <path id="shapePath1" d="M75.4659,31.8323 L424.534,31.8323 C460.681,31.8323 489.984,61.1354 489.984,97.2826 L489.984,402.717 C489.984,438.865 460.681,468.168 424.534,468.168 L75.4659,468.168 C39.3187,468.168 10.0156,438.865 10.0156,402.717 L10.0156,97.2826 C10.0156,61.1354 39.3187,31.8323 75.4659,31.8323 M75.4659,53.6491 C51.3678,53.6491 31.8324,73.1845 31.8324,97.2826 L31.8324,402.717 C31.8324,426.816 51.3678,446.351 75.4659,446.351 L424.534,446.351 C448.632,446.351 468.168,426.816 468.168,402.717 L468.168,97.2826 C468.168,73.1845 448.632,53.6491 424.534,53.6491 L75.4659,53.6491 M380.901,326.359 L380.901,348.175 C380.901,354.141 375.958,359.084 369.993,359.084 L130.008,359.084 C124.042,359.084 119.099,354.141 119.099,348.175 L119.099,326.359 C119.099,320.393 124.042,315.45 130.008,315.45 L369.993,315.45 C375.958,315.45 380.901,320.393 380.901,326.359 M380.901,239.091 L380.901,260.908 C380.901,266.874 375.958,271.817 369.993,271.817 L130.008,271.817 C124.042,271.817 119.099,266.874 119.099,260.908 L119.099,239.091 C119.099,233.126 124.042,228.183 130.008,228.183 L369.993,228.183 C375.958,228.183 380.901,233.126 380.901,239.091 M380.901,151.824 L380.901,173.641 C380.901,179.607 375.958,184.549 369.993,184.549 L130.008,184.549 C124.042,184.549 119.099,179.607 119.099,173.641 L119.099,151.824 C119.099,145.859 124.042,140.916 130.008,140.916 L369.993,140.916 C375.958,140.916 380.901,145.859 380.901,151.824 Z" style="stroke:none;fill-rule:nonzero;fill:#000000;fill-opacity:1;"/>
        </g>
    </g>
</svg>
