<?xml version="1.0"?>
<svg version="1.1" xmlns="http://www.w3.org/2000/svg" xmlns:xlink="http://www.w3.org/1999/xlink" width="500" height="500">
    <desc iVinci="yes" version="4.6" gridStep="20" showGrid="no" snapToGrid="no" codePlatform="0"/>
    <g id="Layer1" name="Layer 1" opacity="1">
        <g id="Shape1">
            <desc shapeID="1" type="0" basicInfo-basicType="0" basicInfo-roundedRectRadius="12" basicInfo-polygonSides="6" basicInfo-starPoints="5" bounding="rect(-24.3714,-24.3714,48.7429,48.7429)" text="" font-familyName="" font-pixelSize="20" font-bold="0" font-underline="0" font-alignment="1" strokeStyle="0" markerStart="0" markerEnd="0" shadowEnabled="0" shadowOffsetX="0" shadowOffsetY="2" shadowBlur="4" shadowOpacity="160" blurEnabled="0" blurRadius="4" transform="matrix(10.2455,0,0,10.2455,250.327,250.277)" pers-center="0,0" pers-size="0,0" pers-start="0,0" pers-end="0,0" locked="0" mesh="" flag=""/>
            <path id="shapePath1" d="M470.752,221.004 C478.516,221.004 485.961,224.088 491.451,229.578 C496.941,235.067 500.025,242.513 500.025,250.277 C500.025,388.181 388.231,499.975 250.327,499.975 C112.422,499.975 0.628571,388.181 0.628571,250.277 C0.628571,112.372 112.422,0.578568 250.327,0.578568 C266.494,0.578568 279.6,13.6845 279.6,29.8515 C279.6,46.0185 266.494,59.1245 250.327,59.1245 C144.756,59.1245 59.1745,144.706 59.1745,250.277 C59.1745,355.847 144.756,441.429 250.327,441.429 C355.897,441.429 441.479,355.847 441.479,250.277 C441.479,234.11 454.585,221.004 470.752,221.004 M481.071,19.5328 C486.568,25.0235 489.656,32.4741 489.656,40.2434 C489.656,48.0127 486.568,55.4634 481.071,60.954 L263.719,278.232 L352.636,275.744 C363.094,275.457 372.911,280.77 378.389,289.684 C383.868,298.597 384.174,309.756 379.194,318.957 C374.214,328.157 364.704,334.003 354.246,334.29 L191.781,338.827 L191.049,338.827 C183.144,338.83 175.574,335.636 170.06,329.971 C164.547,324.306 161.559,316.652 161.776,308.75 L166.313,146.285 C166.758,130.118 180.224,117.372 196.391,117.817 C212.558,118.261 225.304,131.728 224.859,147.895 L222.371,236.811 L439.65,19.5328 C445.14,14.036 452.591,10.9474 460.36,10.9474 C468.13,10.9474 475.58,14.036 481.071,19.5328 Z" style="stroke:none;fill-rule:nonzero;fill:#000000;fill-opacity:1;"/>
        </g>
    </g>
</svg>
